<svg width="61" height="16" viewBox="0 0 61 16" fill="none" xmlns="http://www.w3.org/2000/svg">
<g clip-path="url(#clip0_13847_33107)">
<g clip-path="url(#clip1_13847_33107)">
<g clip-path="url(#clip2_13847_33107)">
<mask id="mask0_13847_33107" style="mask-type:luminance" maskUnits="userSpaceOnUse" x="0" y="0" width="16" height="16">
<path d="M16 0H0V16H16V0Z" fill="white"/>
</mask>
<g mask="url(#mask0_13847_33107)">
<path d="M14.0348 3.30957L8.98477 0.30957C8.38164 -0.0498046 7.63789 -0.0498046 7.03477 0.30957L1.98477 3.30957C1.38164 3.66582 1.00977 4.32832 1.00977 5.04395V11.0408C1.00977 11.7564 1.38164 12.4189 1.98477 12.7752L7.03477 15.7721C7.33477 15.9502 7.67227 16.0408 8.00977 16.0408C8.34727 16.0408 8.68164 15.9502 8.98477 15.7721L14.0348 12.7752C14.6379 12.4158 15.0098 11.7564 15.0098 11.0408V5.04395C15.0098 4.32832 14.6379 3.66582 14.0348 3.30957Z" fill="#FBF8E6"/>
<path d="M14.0348 3.30977L8.98477 0.309766C8.68477 0.131641 8.34727 0.0410156 8.00977 0.0410156C7.67227 0.0410156 7.33789 0.131641 7.03477 0.309766L1.98477 3.30977C1.38164 3.66602 1.00977 4.32852 1.00977 5.04414V11.041C1.00977 11.7566 1.38164 12.4191 1.98477 12.7754L7.03477 15.7723C7.33477 15.9504 7.67227 16.041 8.00977 16.041C8.34727 16.041 8.68164 15.9504 8.98477 15.7723L14.0348 12.7754C14.6379 12.416 15.0098 11.7566 15.0098 11.041V5.04414C15.0098 4.32852 14.6379 3.66602 14.0348 3.30977ZM7.21289 15.466L2.16289 12.4691C1.66914 12.1754 1.36289 11.6285 1.36289 11.041V5.04414C1.36289 4.45664 1.66914 3.90977 2.16289 3.61602L7.21289 0.619141C7.45664 0.475391 7.73164 0.400391 8.00977 0.400391C8.28789 0.400391 8.56602 0.475391 8.80664 0.619141L13.8566 3.61602C14.2723 3.86289 14.5535 4.29102 14.6316 4.77227C14.4629 4.41602 14.0879 4.31602 13.6473 4.57539L8.86914 7.52852C8.27227 7.87539 7.83477 8.26914 7.83477 8.98477V14.8723C7.83477 15.3035 8.00664 15.5816 8.27539 15.6629C8.18789 15.6785 8.10039 15.6879 8.00977 15.6879C7.73164 15.6848 7.45352 15.6098 7.21289 15.466Z" fill="#283037"/>
<path d="M12.7133 11.6187L11.4539 12.3718C11.4195 12.3906 11.3945 12.4125 11.3945 12.4531V12.7812C11.3945 12.8218 11.4227 12.8375 11.4539 12.8187L12.732 12.0437C12.7664 12.025 12.7695 11.9875 12.7695 11.9468V11.6562C12.7727 11.6156 12.7445 11.6 12.7133 11.6187Z" fill="#4DA825"/>
<path d="M10.0348 8.85024C10.0754 8.82836 10.1098 8.85649 10.1098 8.90961L10.1129 9.34399C10.2941 9.27211 10.4535 9.25336 10.5973 9.28461C10.6285 9.29399 10.641 9.33461 10.6285 9.38461L10.5316 9.76899C10.5254 9.79711 10.5066 9.82836 10.4879 9.84711C10.4785 9.85649 10.4723 9.86274 10.4629 9.86586C10.4504 9.87211 10.4379 9.87524 10.4254 9.87211C10.3598 9.85649 10.2035 9.82211 9.95977 9.94711C9.70352 10.0784 9.61289 10.3002 9.61602 10.4659C9.61914 10.6627 9.71914 10.7252 10.0691 10.7284C10.5348 10.7346 10.7379 10.9409 10.741 11.4096C10.7473 11.8721 10.5004 12.3659 10.1223 12.6721L10.1316 13.1034C10.1316 13.1565 10.0973 13.2159 10.0566 13.2346L9.80039 13.3815C9.75977 13.4034 9.72539 13.3784 9.72539 13.3252L9.72227 12.9002C9.50352 12.9909 9.28164 13.0127 9.14102 12.9565C9.11289 12.9471 9.10352 12.9065 9.11289 12.8627L9.20664 12.4721C9.21289 12.4409 9.23164 12.4096 9.25352 12.3909C9.26289 12.3846 9.26914 12.3784 9.27852 12.3721C9.29414 12.3659 9.30664 12.3627 9.31914 12.369C9.47227 12.419 9.66602 12.3971 9.85352 12.3002C10.091 12.1784 10.2504 11.9377 10.2473 11.694C10.2441 11.4752 10.1254 11.3846 9.83789 11.3815C9.47227 11.3815 9.12852 11.3096 9.12227 10.769C9.11914 10.3252 9.35039 9.86274 9.71602 9.56899L9.71289 9.13461C9.71289 9.08149 9.74414 9.02211 9.78789 9.00024L10.0348 8.85024Z" fill="#FBF8E6"/>
</g>
</g>
</g>
</g>
<path d="M21.233 12.75V2.56818H24.7926C25.5019 2.56818 26.0869 2.69081 26.5476 2.93608C27.0083 3.17803 27.3513 3.5045 27.5767 3.91548C27.8021 4.32315 27.9148 4.77557 27.9148 5.27273C27.9148 5.71023 27.8369 6.0715 27.6811 6.35653C27.5286 6.64157 27.3265 6.86695 27.0746 7.03267C26.826 7.19839 26.5559 7.32102 26.2642 7.40057V7.5C26.5758 7.51989 26.889 7.62926 27.2038 7.82812C27.5187 8.02699 27.7822 8.31203 27.9943 8.68324C28.2064 9.05445 28.3125 9.50852 28.3125 10.0455C28.3125 10.5559 28.1965 11.0149 27.9645 11.4226C27.7325 11.8303 27.3662 12.1534 26.8658 12.392C26.3653 12.6307 25.714 12.75 24.9119 12.75H21.233ZM22.4659 11.6562H24.9119C25.7173 11.6562 26.2891 11.5005 26.6271 11.1889C26.9685 10.8741 27.1392 10.4929 27.1392 10.0455C27.1392 9.70076 27.0514 9.38258 26.8757 9.09091C26.7 8.79593 26.4498 8.56061 26.125 8.38494C25.8002 8.20597 25.4157 8.11648 24.9716 8.11648H22.4659V11.6562ZM22.4659 7.04261H24.7528C25.1241 7.04261 25.4588 6.9697 25.7571 6.82386C26.0587 6.67803 26.2973 6.47254 26.473 6.20739C26.652 5.94223 26.7415 5.63068 26.7415 5.27273C26.7415 4.82528 26.5857 4.44579 26.2741 4.13423C25.9626 3.81937 25.4688 3.66193 24.7926 3.66193H22.4659V7.04261ZM32.4265 12.929C31.9426 12.929 31.5034 12.8378 31.109 12.6555C30.7146 12.4699 30.4014 12.2031 30.1694 11.8551C29.9374 11.5038 29.8214 11.0795 29.8214 10.5824C29.8214 10.1449 29.9076 9.79025 30.0799 9.51847C30.2522 9.24337 30.4826 9.02794 30.771 8.87216C31.0593 8.71638 31.3775 8.60038 31.7255 8.52415C32.0768 8.4446 32.4298 8.38163 32.7844 8.33523C33.2485 8.27557 33.6246 8.23082 33.913 8.20099C34.2047 8.16785 34.4168 8.11316 34.5494 8.03693C34.6853 7.9607 34.7532 7.82812 34.7532 7.6392V7.59943C34.7532 7.1089 34.619 6.72775 34.3505 6.45597C34.0853 6.18419 33.6826 6.0483 33.1424 6.0483C32.5823 6.0483 32.1431 6.17093 31.8249 6.41619C31.5067 6.66146 31.283 6.9233 31.1538 7.2017L30.0401 6.80398C30.239 6.33996 30.5041 5.97869 30.8356 5.72017C31.1703 5.45833 31.5349 5.27604 31.9293 5.1733C32.3271 5.06723 32.7182 5.0142 33.1026 5.0142C33.3479 5.0142 33.6296 5.04403 33.9478 5.10369C34.2693 5.16004 34.5792 5.2777 34.8775 5.45668C35.1791 5.63565 35.4293 5.90578 35.6282 6.26705C35.8271 6.62831 35.9265 7.11222 35.9265 7.71875V12.75H34.7532V11.7159H34.6935C34.614 11.8816 34.4814 12.0589 34.2958 12.2479C34.1102 12.4368 33.8633 12.5975 33.555 12.7301C33.2468 12.8627 32.8706 12.929 32.4265 12.929ZM32.6055 11.875C33.0695 11.875 33.4606 11.7839 33.7788 11.6016C34.1003 11.4193 34.3422 11.1839 34.5046 10.8956C34.6703 10.6072 34.7532 10.304 34.7532 9.9858V8.91193C34.7035 8.97159 34.5941 9.02628 34.4251 9.07599C34.2594 9.1224 34.0671 9.16383 33.8484 9.20028C33.6329 9.23343 33.4225 9.26326 33.217 9.28977C33.0148 9.31297 32.8507 9.33286 32.7248 9.34943C32.4199 9.3892 32.1348 9.45384 31.8697 9.54332C31.6078 9.6295 31.3957 9.76042 31.2333 9.93608C31.0742 10.1084 30.9947 10.3437 30.9947 10.642C30.9947 11.0497 31.1455 11.358 31.4471 11.5668C31.752 11.7723 32.1381 11.875 32.6055 11.875ZM43.4771 6.82386L42.4231 7.12216C42.3568 6.9465 42.2591 6.7758 42.1298 6.61009C42.0038 6.44105 41.8315 6.30185 41.6127 6.19247C41.394 6.0831 41.1139 6.02841 40.7725 6.02841C40.3052 6.02841 39.9158 6.13613 39.6042 6.35156C39.296 6.56368 39.1419 6.83381 39.1419 7.16193C39.1419 7.4536 39.2479 7.68395 39.46 7.85298C39.6722 8.02202 40.0036 8.16288 40.4544 8.27557L41.5879 8.55398C42.2707 8.7197 42.7794 8.97325 43.1142 9.31463C43.4489 9.6527 43.6163 10.0885 43.6163 10.6222C43.6163 11.0597 43.4904 11.4508 43.2385 11.7955C42.9899 12.1402 42.6419 12.4119 42.1944 12.6108C41.747 12.8097 41.2266 12.9091 40.6333 12.9091C39.8545 12.9091 39.2098 12.7401 38.6994 12.402C38.189 12.0639 37.8658 11.5701 37.7299 10.9205L38.8436 10.642C38.9496 11.053 39.1502 11.3613 39.4451 11.5668C39.7434 11.7723 40.1329 11.875 40.6135 11.875C41.1603 11.875 41.5945 11.759 41.916 11.527C42.2408 11.2917 42.4032 11.0099 42.4032 10.6818C42.4032 10.4167 42.3104 10.1946 42.1248 10.0156C41.9392 9.83333 41.6542 9.69744 41.2697 9.60795L39.997 9.30966C39.2976 9.14394 38.7839 8.88707 38.4558 8.53906C38.131 8.18774 37.9686 7.74858 37.9686 7.22159C37.9686 6.79072 38.0895 6.40956 38.3315 6.07812C38.5768 5.74669 38.9099 5.48651 39.3308 5.29758C39.755 5.10866 40.2356 5.0142 40.7725 5.0142C41.5282 5.0142 42.1215 5.17992 42.5524 5.51136C42.9866 5.8428 43.2948 6.2803 43.4771 6.82386ZM46.5558 8.15625V12.75H45.3825V2.56818H46.5558V6.30682H46.6552C46.8342 5.91241 47.1026 5.59919 47.4606 5.36719C47.8219 5.13187 48.3024 5.0142 48.9023 5.0142C49.4227 5.0142 49.8784 5.11861 50.2695 5.32741C50.6606 5.53291 50.9639 5.84943 51.1793 6.27699C51.3981 6.70123 51.5075 7.24148 51.5075 7.89773V12.75H50.3342V7.97727C50.3342 7.37074 50.1767 6.90175 49.8619 6.57031C49.5503 6.23556 49.1178 6.06818 48.5643 6.06818C48.1798 6.06818 47.8351 6.14938 47.5302 6.31179C47.2286 6.47419 46.9899 6.71117 46.8143 7.02273C46.6419 7.33428 46.5558 7.71212 46.5558 8.15625Z" fill="#FBF8E6"/>
<defs>
<clipPath id="clip0_13847_33107">
<rect width="16" height="16" fill="white"/>
</clipPath>
<clipPath id="clip1_13847_33107">
<rect width="16" height="16" fill="white"/>
</clipPath>
<clipPath id="clip2_13847_33107">
<rect width="16" height="16" fill="white"/>
</clipPath>
</defs>
</svg>
