<svg width="59" height="16" viewBox="0 0 59 16" fill="none" xmlns="http://www.w3.org/2000/svg">
<g clip-path="url(#clip0_13847_33116)">
<g clip-path="url(#clip1_13847_33116)">
<g clip-path="url(#clip2_13847_33116)">
<mask id="mask0_13847_33116" style="mask-type:luminance" maskUnits="userSpaceOnUse" x="0" y="0" width="16" height="16">
<path d="M16 0H0V16H16V0Z" fill="white"/>
</mask>
<g mask="url(#mask0_13847_33116)">
<path d="M0 3.43732H3.74435V4.5386H0V3.43732ZM0 1.39209H3.74435V2.49337H0V1.39209ZM6.7178 5.46682H0V6.5681H6.46608C7.17404 6.5681 8.82596 6.58383 9.43953 7.57498V6.96141C9.14061 5.98599 8.25959 5.46682 6.7178 5.46682ZM6.73353 7.51205H0V8.61333H6.46608C8.03933 8.61333 9.03048 8.67626 9.43953 8.89651V8.40881C9.12488 7.63791 7.80334 7.51205 6.73353 7.51205ZM6.7178 12.7038H0V11.6025H6.46608C7.17404 11.6025 8.82596 11.5868 9.43953 10.5956V11.2092C9.14061 12.1846 8.25959 12.7038 6.7178 12.7038ZM6.73353 10.6586H0V9.55728H6.46608C8.03933 9.55728 9.03048 9.49435 9.43953 9.2741V9.7618C9.12488 10.5327 7.80334 10.6586 6.73353 10.6586ZM11.0757 14.6074H16.0157V13.9309H11.2173C10.7925 13.9309 9.78564 13.9152 9.4238 13.3331V13.7107C9.59685 14.2928 10.1318 14.6074 11.0757 14.6074ZM11.06 13.3646H16V12.6881H11.2173C10.2576 12.6881 9.65978 12.6566 9.4238 12.515V12.8139C9.61259 13.2859 10.4149 13.3646 11.06 13.3646Z" fill="#202426"/>
</g>
</g>
</g>
</g>
<path d="M21.233 12.75V2.56818H24.7926C25.5019 2.56818 26.0869 2.69081 26.5476 2.93608C27.0083 3.17803 27.3513 3.5045 27.5767 3.91548C27.8021 4.32315 27.9148 4.77557 27.9148 5.27273C27.9148 5.71023 27.8369 6.0715 27.6811 6.35653C27.5286 6.64157 27.3265 6.86695 27.0746 7.03267C26.826 7.19839 26.5559 7.32102 26.2642 7.40057V7.5C26.5758 7.51989 26.889 7.62926 27.2038 7.82812C27.5187 8.02699 27.7822 8.31203 27.9943 8.68324C28.2064 9.05445 28.3125 9.50852 28.3125 10.0455C28.3125 10.5559 28.1965 11.0149 27.9645 11.4226C27.7325 11.8303 27.3662 12.1534 26.8658 12.392C26.3653 12.6307 25.714 12.75 24.9119 12.75H21.233ZM22.4659 11.6562H24.9119C25.7173 11.6562 26.2891 11.5005 26.6271 11.1889C26.9685 10.8741 27.1392 10.4929 27.1392 10.0455C27.1392 9.70076 27.0514 9.38258 26.8757 9.09091C26.7 8.79593 26.4498 8.56061 26.125 8.38494C25.8002 8.20597 25.4157 8.11648 24.9716 8.11648H22.4659V11.6562ZM22.4659 7.04261H24.7528C25.1241 7.04261 25.4588 6.9697 25.7571 6.82386C26.0587 6.67803 26.2973 6.47254 26.473 6.20739C26.652 5.94223 26.7415 5.63068 26.7415 5.27273C26.7415 4.82528 26.5857 4.44579 26.2741 4.13423C25.9626 3.81937 25.4688 3.66193 24.7926 3.66193H22.4659V7.04261ZM30.3384 12.75V2.56818H36.4833V3.66193H31.5714V7.10227H36.1651V8.19602H31.5714V11.6562H36.5629V12.75H30.3384ZM38.7056 2.56818H40.1772L43.6374 11.0199H43.7567L47.217 2.56818H48.6886V12.75H47.5352V5.0142H47.4357L44.2539 12.75H43.1403L39.9585 5.0142H39.859V12.75H38.7056V2.56818Z" fill="#FBF8E6"/>
<defs>
<clipPath id="clip0_13847_33116">
<rect width="16" height="16" fill="white"/>
</clipPath>
<clipPath id="clip1_13847_33116">
<rect width="16" height="16" fill="white"/>
</clipPath>
<clipPath id="clip2_13847_33116">
<rect width="16" height="16" fill="white"/>
</clipPath>
</defs>
</svg>
