<svg width="1440" height="123" viewBox="0 0 1440 123" fill="none" xmlns="http://www.w3.org/2000/svg">
<rect width="1440" height="119.25" transform="translate(0 3)" fill="#FBF8E6"/>
<path d="M0.00415039 0.418892C0.00415239 11.8429 0.00415439 23.2669 0.00415638 34.6908C0.24854 34.9252 0.472559 35.1384 0.737307 35.3941C1.389 35.2024 2.06105 35.0105 2.77384 34.7974C3.12005 35.3941 3.3848 35.8417 3.58845 36.1828C4.03649 35.8417 4.44378 35.5434 4.91219 35.1597C5.25161 36.9074 5.97799 37.8949 7.09129 38.1223V39.1453C7.51897 38.6764 7.78371 38.3781 8.06882 38.0583C8.3743 38.1862 8.65942 38.3141 8.94453 38.4207C9.3111 38.0157 9.65732 37.632 9.96281 37.2697C10.4516 37.5256 10.7774 37.6747 10.9811 37.7813C11.5513 37.1631 11.9993 36.5664 12.5695 36.1188C12.7732 35.9696 13.2416 36.1828 13.5267 36.2041C13.71 35.7139 13.8729 35.2876 14.0765 34.7548C14.6264 35.5434 15.0134 36.1188 15.3392 36.5878C16.2761 35.8417 17.3146 36.3106 18.1496 35.6926C18.9846 35.0745 20.1455 34.9679 21.2249 34.6269C21.6322 35.3516 21.8969 35.8417 22.2431 36.4812C23.3835 35.9483 24.5647 35.3941 25.7867 34.8401C25.807 34.8827 25.97 35.1384 26.2143 35.522C26.5402 35.1384 26.8049 34.8401 27.0697 34.5629C27.7417 34.7335 28.4137 34.904 29.0858 35.0745C29.2487 35.522 29.3913 35.9696 29.4524 36.1188H33.6272C34.0957 36.3746 34.8085 36.7369 35.2566 36.9927C36.0508 36.1615 36.6616 35.5007 37.1505 34.9679C38.2705 35.5007 39.126 35.927 40.022 36.3532C40.5107 35.6073 40.8773 35.0531 41.3661 34.3072C42.0789 34.8187 42.7306 35.3089 43.3416 35.7565C43.5859 35.6499 43.8506 35.5647 44.2375 35.4154C44.3598 36.3319 44.4616 37.0993 44.6042 38.1009C45.0115 36.8435 45.317 35.9057 45.6021 35.0105C46.5185 34.7335 47.2924 34.5203 48.0663 34.2859C48.9827 34.6055 49.8788 34.9252 50.673 35.2237C50.9582 35.863 51.2025 36.3746 51.6098 37.2484C52.7299 33.3268 55.5403 34.3925 57.8213 34.1366C58.0453 34.4564 58.2692 34.7548 58.3711 34.904C59.5727 34.7974 60.0614 33.6677 61.3036 33.9662C61.935 34.1153 62.8515 33.0497 63.6253 32.5382C64.3382 33.6464 62.8719 35.0105 64.216 35.9057C64.4196 34.9252 64.44 33.8383 64.888 33.0071C65.3565 32.1545 66.2322 31.5791 66.9449 30.8758C67.2504 31.3233 67.5354 31.707 67.8409 32.1332C68.8185 31.707 69.6943 31.302 70.5496 30.9397C71.6086 31.9485 72.6064 32.3819 73.5432 32.2398C72.8304 31.707 72.1585 31.1954 71.2624 30.5133C72.4843 29.874 73.3803 29.2345 74.5208 29.9806C75.8241 29.0641 77.6774 29.192 78.6346 27.6148C78.6957 27.5295 78.9196 27.5295 79.1844 27.4655C79.2454 27.9558 79.3066 28.4033 79.3677 29.0001C81.9948 28.2542 84.5812 30.0232 87.1881 28.9788C87.5953 28.1476 87.9618 27.423 88.3895 26.5704C89.0616 26.7836 89.6318 26.9754 89.9984 27.0819C91.1389 25.9523 92.1978 24.8653 92.931 24.1407C94.9472 24.1407 96.5764 23.9915 98.2056 24.1194C100.079 24.2686 101.444 23.3308 102.808 21.988C104.132 22.3504 105.436 22.7127 106.902 23.1176C107.248 22.9045 107.818 22.5635 108.775 21.988C108.531 23.075 108.388 23.6931 108.205 24.503C109.936 24.0767 111.524 23.6718 113.337 23.2242C113.622 23.4161 114.131 23.7571 114.661 24.1194C114.682 24.0128 114.722 23.885 114.743 23.7784C115.985 23.885 117.248 23.9701 118.266 24.0554C119.365 23.9063 120.445 24.0554 121.177 23.6078C122.807 22.6061 124.09 23.1816 125.087 24.0128C126.249 23.821 127.185 23.7997 128.041 23.5012C129.486 22.9685 130.81 23.0324 132.093 23.9488C132.257 24.0767 132.644 24.2046 132.684 24.1194C133.723 22.8406 134.353 24.5669 135.229 24.503C136.106 22.4356 137.45 24.2899 138.549 24.0554C138.569 24.503 138.61 24.9293 138.671 25.8671C139.283 24.7375 139.67 24.0554 140.118 23.2455C141.706 23.4587 143.295 23.6931 144.965 23.9275C146.451 23.3308 148.02 22.6274 149.648 22.0946C150.158 21.9241 150.83 22.3077 151.379 22.1798C152.744 21.8814 154.089 21.4339 155.453 21.0929C155.84 21.0076 156.308 20.9863 156.654 21.1355C158.466 22.0094 160.136 21.5618 161.786 20.5174C162.194 20.9223 162.54 21.2634 162.907 21.647C163.803 20.965 164.699 20.3043 165.574 19.6222C166.307 19.8994 166.999 20.3683 167.671 20.3469C168.404 20.3469 169.138 19.8567 169.81 19.6009C170.278 19.7714 170.706 20.0058 171.133 20.0911C171.989 20.2617 173.048 19.3239 173.659 20.6666C174.962 20.3469 175.309 21.6684 175.94 22.2651C177.468 22.0946 178.873 21.9454 180.359 21.7749C181.765 22.2224 183.312 22.734 184.86 23.1816C186 23.5012 187.223 23.6505 188.364 23.8636C189.422 24.0767 190.502 24.5883 191.642 24.844C192.151 24.9506 192.701 25.2064 193.107 25.5687C193.719 26.1228 194.208 26.8049 194.778 27.4655C195.613 27.2738 196.468 27.0606 197.344 26.8688C197.771 27.6147 198.138 28.2542 198.321 28.5952H205.511C206.773 30.0232 208.993 29.6395 210.48 30.8118C212.17 32.1545 214.329 31.9627 215.958 33.1136C217.037 32.0479 218.138 32.0266 219.237 32.5595C220.846 33.3267 222.373 33.8596 224.247 33.689C225.733 33.5399 227.24 34.6055 228.849 34.5629C228.91 34.5629 228.991 34.6482 229.052 34.6908C231.762 36.8861 234.817 36.673 238.075 36.2679C237.037 34.9252 237.892 34.4776 238.665 33.9662C239.216 34.2645 239.684 34.6482 240.213 34.7761C241.802 35.2023 243.369 35.6073 244.551 36.9074C245.834 36.6303 246.343 38.1862 247.809 38.1009C250.355 37.9305 252.941 38.4419 255.629 38.6977C257.299 37.0353 259.254 36.6303 261.413 37.568C261.617 38.2715 261.8 38.9748 262.024 39.7846C263.592 38.8895 265.08 38.7617 266.647 39.2306C266.749 39.2519 266.892 39.0813 267.054 38.9534C266.851 38.378 266.627 37.8025 266.424 37.2057C267.829 36.5451 268.947 36.95 269.863 37.632C270.434 37.355 270.862 37.1631 271.167 37.014C272.594 37.6533 273.857 38.2075 274.875 38.6764C277.013 36.609 279.132 35.3089 281.901 35.6073C282.369 35.6499 282.96 35.7352 283.286 35.5007C284.731 34.4351 286.137 35.1384 287.44 35.4367C287.826 35.0105 288.133 34.6481 288.418 34.3285C290.556 35.9696 292.979 35.4794 295.158 36.0762C295.24 35.7139 295.28 35.5646 295.3 35.3941C295.3 35.1597 295.3 34.9252 295.3 34.6695C297.276 34.84 298.947 35.6073 300.433 37.0353C300.25 37.6746 300.087 38.2714 299.924 38.8895C300.149 38.9747 300.393 39.06 300.739 39.1879C300.881 38.2288 301.004 37.3336 301.126 36.4385C302.979 34.7974 304.935 34.2858 307.215 35.3728C307.072 36.4811 306.97 37.4615 306.848 38.4419C307.418 37.9518 307.602 37.3976 307.846 36.8647C308.091 36.3745 308.396 35.9056 308.762 35.3089C309.251 35.799 309.598 36.1401 310.005 36.5237C310.759 36.5237 311.553 36.5024 312.346 36.5237C313.426 36.5664 313.365 37.7599 313.813 38.5485C314.852 37.7812 315.727 37.1206 316.623 36.4598C317.193 37.568 315.503 38.1435 316.46 39.1453C316.99 38.4632 317.478 37.8239 317.967 37.2057C319.923 38.0583 322.428 37.1418 323.609 39.6568C323.976 39.2945 324.22 39.06 324.363 38.9108C324.281 38.3141 324.199 37.8239 324.138 37.3123C325.178 37.9518 326.522 37.4829 327.153 38.6551C327.193 38.719 327.296 38.7403 327.357 38.7617C328.557 38.5698 329.84 38.378 330.92 38.7403C332.141 39.1453 333.303 38.0156 334.443 38.8469C334.504 40.1044 335.563 42.9177 336.622 44.3031C336.296 42.4275 336.031 40.829 335.746 39.2306C335.909 39.1666 336.092 39.124 336.255 39.06C336.622 39.8699 336.989 40.7011 337.375 41.5323C337.721 40.6585 337.335 39.5076 338.456 39.0387C340.472 39.5289 342.548 39.9552 343.14 42.662C343.343 42.321 343.485 42.1078 343.568 41.9799C345.033 43.3227 346.499 44.6654 347.864 45.9229C350.104 45.3901 351.998 44.1113 354.462 44.7933C354.727 45.4966 355.053 46.3279 355.399 47.223C355.888 46.7967 356.417 46.3279 356.906 45.9017C357.232 46.0721 357.456 46.264 357.68 46.2853C359.412 46.3491 361.163 46.4984 362.894 46.3705C364.137 46.2853 364.91 46.882 365.684 47.6919C366.152 45.9655 367.232 45.0277 368.962 44.8999C369.593 44.8573 370.143 44.7507 370.611 44.1325C371.385 43.0882 372.75 42.9603 373.83 42.3636C375.296 41.5536 376.742 42.6407 378.25 43.2375C378.901 42.3423 380.346 42.939 380.958 41.7242C381.284 41.8947 381.609 42.0652 381.915 42.2357C382.241 41.7881 382.525 41.3832 382.75 41.0634C384.562 41.7242 386.09 42.2784 387.719 42.8537C388.31 42.6407 389.042 42.4488 389.674 42.1078C390.386 41.7242 390.753 43.1096 391.629 42.3636C391.975 42.0652 393.033 42.4701 393.625 42.8112C394.215 43.1735 394.622 43.8555 395.07 44.3457C396.068 43.7489 396.944 43.1948 397.8 42.6833C399.45 43.2588 400.976 43.7915 402.565 44.3457C402.667 44.2178 402.851 43.9834 403.177 43.5358C403.36 44.3244 403.502 44.9638 403.726 45.9229C403.99 44.8573 404.175 44.1326 404.378 43.28C406.048 43.1522 407.656 43.0882 409.244 42.9177C410.018 42.8324 410.793 42.662 411.546 42.4701C412.544 42.2144 413.542 41.7455 414.539 41.7029C415.334 41.6602 416.129 40.5946 416.943 41.6176C417.595 40.5733 418.573 41.1274 419.428 40.9569C420.406 40.7651 421.322 40.1257 422.157 39.7421C422.646 40.1896 423.053 40.552 423.44 40.893C424.397 40.0831 425.212 39.401 426.128 38.6337C427.105 38.783 428.143 38.9108 429.162 39.0813C430.139 39.2519 431.117 39.4863 432.094 39.6994C432.156 39.1879 432.177 38.8681 432.217 38.5698C432.767 38.6337 433.215 38.6764 433.642 38.719C434.05 38.0582 434.377 37.5255 434.825 36.8221C435.008 37.4828 435.109 37.8452 435.273 38.4632C435.577 37.9304 435.761 37.5893 435.984 37.2057C436.412 37.3976 436.82 37.7172 437.268 37.7599C439.223 37.8665 441.076 36.8434 443.093 37.1631C443.479 37.227 443.927 36.6729 444.375 36.545C445.169 36.3105 445.984 36.0975 446.289 37.3549C446.35 37.632 446.981 37.7599 447.328 37.9304C447.429 38.4205 447.532 38.9108 447.694 39.7633C447.919 38.9534 448.021 38.5485 448.143 38.1222C448.57 38.1435 448.957 38.1648 449.304 38.1861C449.548 39.6994 449.751 41.0634 449.975 42.4488L450.261 42.4062C450.362 41.6602 450.484 40.9143 450.546 40.488C451.706 38.8043 453.051 40.6798 454.151 39.7846C454.538 40.4241 454.904 41.0422 455.352 41.7668C455.658 41.2979 455.882 40.9782 456.106 40.6585C457.267 40.2961 458.061 40.9569 458.652 41.8947C459.507 41.2553 460.22 40.7437 460.83 40.2961C461.808 40.8716 462.765 41.4258 463.824 42.0438C463.946 42.5127 464.109 43.0669 464.211 43.4719C466.756 42.8537 468.365 44.2391 469.994 46.3704C469.79 45.0703 469.648 44.09 469.526 43.2588C470.117 42.5341 470.585 41.916 470.972 41.4471C471.746 41.3832 472.398 41.3192 473.192 41.2553C473.458 41.7881 473.784 42.4701 474.109 43.1309C476.166 42.4914 478.202 43.1309 479.484 44.5376C480.483 45.6458 481.623 46.1147 482.642 46.8393C483.925 46.2426 484.698 46.1574 486.98 46.3279C487.345 46.3491 487.793 46.2639 488.099 46.0721C489.443 45.1769 490.686 45.5819 491.744 46.1574C492.702 45.9015 493.496 45.7098 494.25 45.5179C494.25 45.2409 494.291 45.0065 494.291 44.8359H497.061C497.509 43.7276 498.302 42.9816 499.524 42.875C499.728 43.1309 499.891 43.3653 499.911 43.3866C500.42 42.5767 500.929 41.7881 501.316 41.17C502.783 41.0847 502.946 42.0438 503.251 43.0243C504.066 41.8521 504.922 41.7668 505.94 42.3423C506.061 43.1735 506.163 43.9621 506.347 45.2196C507.569 42.9603 508.607 41.1273 510.379 40.0617C513.087 40.488 514.208 40.424 515.125 39.7207C515.307 40.2748 515.471 40.7864 515.735 41.5323C516.591 41.4684 517.487 41.5749 518.261 41.2979C521.458 40.2109 524.634 39.5502 527.852 40.9569C529.237 39.3157 531.071 38.7403 533.067 39.2945C534.737 39.7846 536.405 40.1257 537.933 39.0387C539.073 40.1044 539.216 41.3832 539.053 42.6833H540.6C540.762 41.8521 540.905 41.1273 541.048 40.424C541.72 39.9551 542.332 39.5289 542.78 39.2305H548.604C549.725 37.3976 550.885 37.1631 554.775 38.3567C554.979 38.0795 555.346 37.5467 555.895 36.7794C556.832 36.9073 558.074 37.0566 559.357 37.227C560.64 35.9056 561.313 35.9482 563.961 37.5467C564.226 37.0566 564.49 36.5663 564.775 36.0335C565.896 37.2696 566.16 34.6694 567.301 35.799C567.362 36.1614 567.443 36.6941 567.565 37.5467C568.461 37.2057 569.154 36.9073 569.867 36.6516C570.07 36.5663 570.315 36.5877 570.64 36.5663C570.865 37.2696 571.068 37.9304 571.394 38.9747C572.026 37.7812 572.494 36.9286 572.963 36.0548C573.003 36.0548 573.084 36.0122 573.166 35.9908C574.714 35.6072 576.281 35.2449 577.809 34.7973C579.356 34.3497 580.945 35.394 582.451 34.5415C582.615 34.4562 582.982 34.4989 583.104 34.6481C583.572 35.2023 583.979 34.9465 584.569 34.84C585.934 34.6268 587.543 34.3071 588.704 34.84C589.621 35.2662 590.434 35.4153 591.351 35.5006C592.104 35.5646 592.858 35.6712 593.714 35.7778C593.896 35.5859 594.161 35.2875 594.467 34.9464C595.607 35.1596 596.687 35.2449 597.419 33.9448C597.583 33.6463 598.255 33.6677 598.683 33.5398C598.867 34.0939 598.989 34.4775 599.05 34.6694C601.922 33.3267 605.099 33.9448 607.868 33.0709C609.396 33.6037 610.841 34.0939 612.205 34.5628C613.122 34.3924 614.038 34.3284 614.873 34.0513C616.422 33.5398 617.378 34.1366 618.009 35.5859C618.05 35.6925 618.214 35.7351 618.376 35.8203C618.499 35.2023 618.601 34.6481 618.723 33.9874C620.352 33.2414 622.347 33.1774 623.243 31.4724C625.138 30.9183 626.217 32.2397 627.5 33.2201C628.233 32.5807 628.884 32.0052 629.495 31.4937C630.371 32.3675 631.165 33.1774 631.959 33.9874C632.306 33.5398 632.569 33.2201 632.895 32.8151C633.425 33.284 633.874 33.6676 634.179 33.9235C634.892 33.6037 635.523 33.2414 636.175 33.007C637.092 32.6873 638.171 32.6447 638.946 32.1118C640.086 31.3446 641.369 32.3036 642.408 31.515C644.078 32.5594 645.442 31.451 646.827 30.7477C648.069 31.3019 649.188 31.7921 650.574 31.1953C651.918 30.6198 653.649 31.7921 654.933 30.3641C654.933 30.3641 655.074 30.4494 655.135 30.4707C656.601 30.8543 657.987 30.5346 659.352 30.087C659.739 30.5132 660.125 30.9395 660.369 31.1953C661.835 30.3002 663.18 29.469 664.626 28.5951C664.951 29.2345 665.176 29.682 665.502 30.2788C666.072 29 666.52 28.5098 667.456 28.318C670.247 27.7426 672.832 28.7017 675.479 29.1706C675.643 28.9148 675.787 28.6591 675.868 28.5098C676.908 28.8935 677.783 29.2131 678.658 29.5329C678.943 29.064 679.107 28.7655 679.269 28.4459C679.616 28.5525 679.982 28.6377 680.307 28.7442C680.491 28.4459 680.654 28.1688 680.715 28.0409C682.243 28.4032 683.688 28.6377 685.053 29.0853C686.315 29.5116 687.497 29.7247 688.841 29.3837C689.94 29.1066 691.162 28.9148 692.282 29.9165C692.425 29.2131 692.527 28.6804 692.67 28.0196C693.118 28.1902 693.505 28.2115 693.667 28.4246C694.726 29.7033 695.968 29.8099 697.414 29.2558C698.392 28.8935 699.45 28.7869 700.428 28.5738C700.672 28.9574 700.835 29.2131 700.978 29.4263C703.014 29.2771 703.646 26.6129 705.805 26.3359C705.682 26.9753 705.601 27.3589 705.459 28.0622C706.171 27.4867 706.598 27.1244 707.026 26.7834C708.004 27.0392 708.92 27.295 709.796 27.5294C710.508 27.0818 711.14 26.6982 711.872 26.2293C713.156 26.5064 714.479 26.8261 716.048 27.1671C717.066 26.4851 718.329 26.3145 719.612 27.2523C719.857 27.4228 720.223 27.4441 720.528 27.5507C720.406 27.1671 720.285 26.8048 720.101 26.2719C720.956 26.0588 721.569 24.9931 722.465 26.0588C724.196 26.7408 725.905 27.7852 727.739 26.2293C727.942 26.0588 728.411 26.0162 728.676 26.144C730.04 26.7408 731.364 26.3998 732.728 26.1015C733.318 25.9735 734.072 26.0588 734.621 26.3145C735.843 26.89 737.024 27.295 738.287 26.6342C738.429 27.2097 738.511 27.5507 738.612 27.9343C740.404 26.9753 740.404 26.9965 742.135 27.1884C744.437 27.4229 746.739 27.8917 749.08 27.1457C749.712 26.954 750.505 27.3163 751.218 27.4441C752.542 27.6786 753.867 27.913 755.517 28.2115C755.965 28.5524 756.719 29.1279 757.492 29.7247C757.696 29.0214 757.858 28.4672 757.981 28.0835C760.159 26.6342 762.461 27.2737 764.477 26.8474C765.598 27.7852 766.269 29 767.736 29.6394C767.45 28.6377 767.268 27.9556 767.084 27.295C768.198 26.6982 769.25 26.8403 770.241 27.7212C770.994 27.1457 771.707 26.4638 772.522 25.9949C773.56 25.3767 774.66 25.1636 775.617 26.2719C775.82 26.4851 776.146 26.7834 776.37 26.7408C778.06 26.4638 779.507 27.295 781.115 27.9556C782.072 27.0178 782.989 26.1015 783.946 25.185C784.964 25.1423 786.022 25.0784 787.305 25.0357C787.55 25.9096 790.218 25.6539 788.996 28.0409C788.242 27.9556 787.551 27.8917 786.756 27.8065C787.408 29.2131 789.464 27.8917 789.607 29.8312C790.972 27.8704 792.317 26.1653 794.699 26.1013C794.618 25.5899 794.578 25.2063 794.456 24.3963C795.575 25.1423 796.349 25.6325 797.144 26.144C798.346 25.5046 799.017 23.7783 800.87 24.2258C801.257 24.9078 801.705 25.6751 802.071 26.3145C802.906 26.0801 803.701 25.5473 804.251 25.7604C805.941 26.3572 807.082 25.4407 807.958 24.3323C808.751 23.3307 809.423 23.3946 810.197 24.034C810.747 24.5029 811.155 25.185 811.664 25.8243C811.969 25.3767 812.336 24.8439 812.763 24.1832C813.557 24.7161 814.29 25.2275 814.901 25.6539C816.999 24.0766 819.198 23.97 821.296 24.6734C824.31 21.7321 827.448 22.7765 830.543 23.7356C830.665 23.2454 830.808 22.7339 831.012 22.0519C831.582 22.3076 831.989 22.4995 832.457 22.7125C832.987 22.4142 833.557 22.0732 834.086 21.7747C835.715 22.3289 837.569 22.4142 838.485 24.4816C839.137 22.3929 840.848 23.0535 841.805 22.3076C843.861 23.5224 842.802 25.6539 843.515 27.572C844.309 25.6751 843.067 23.8635 844.126 22.3929C845.022 23.0749 846.142 23.5438 846.651 24.3963C847.18 25.2488 847.12 26.5064 847.384 27.8917C847.568 26.4851 847.71 25.4407 847.872 24.3323C850.765 23.9487 852.903 25.8243 855.755 26.1013C856.203 25.8883 857.016 25.5259 857.871 25.121C858.646 25.6539 859.379 26.144 860.133 26.6555C860.235 27.572 860.337 28.3819 860.438 29.2131C860.519 29.2131 860.601 29.2131 860.703 29.2131C860.764 28.4885 860.845 27.7639 860.906 27.2097C861.782 26.6342 862.515 26.144 863.29 25.6325C864.186 25.9948 865.305 26.1227 865.916 26.7834C867.137 28.0622 868.647 28.3819 870.173 28.8295C870.133 29.064 870.092 29.2771 870.011 29.7033C871.335 29.9378 872.638 30.1935 873.982 30.4494C873.84 30.5772 873.655 30.769 873.452 30.9608C873.594 31.0247 873.738 31.1953 873.86 31.1527C875.224 30.7264 876.568 30.2362 878.054 30.5345C878.381 30.5985 878.808 30.2575 879.155 30.0443C879.826 29.618 880.478 29.1279 881.232 28.6164C881.843 29.0426 882.433 29.4476 883.126 29.9165C883.797 28.2328 884.897 28.4885 886.059 29.2344C886.568 27.9343 887.524 28.5524 888.339 28.4245C888.95 29.2984 889.499 30.0869 890.212 31.0674C891.292 30.0869 892.33 29.1279 893.51 28.0622C894.428 28.659 895.304 29.2344 896.2 29.8099C897.096 29.0853 897.808 29.5968 898.501 30.2575C899.377 31.0674 900.007 30.5558 900.578 29.618C902.35 30.6411 904.02 31.6216 905.689 32.602C905.771 32.3035 905.873 31.9199 906.015 31.3445C906.708 31.9839 907.259 32.4741 907.768 32.943C909.866 32.538 910.864 34.0512 911.861 35.2235C912.595 34.9677 913.247 34.7333 913.959 34.4775C914.773 35.6498 915.507 36.7367 916.036 37.5253C918.358 38.1008 920.72 37.1417 922.166 39.4435C922.593 39.1665 923.062 38.868 923.53 38.5697C924.752 38.932 925.689 40.3813 926.931 39.2731C927.664 38.4205 928.377 37.5893 929.131 36.6941C930.637 37.2909 931.92 37.7811 933.284 38.314C934.14 38.0582 935.056 37.8024 936.116 37.5041C936.36 38.4205 936.564 39.1878 936.787 40.019C937.032 39.2305 937.235 38.5271 937.44 37.8024C937.888 37.7385 938.192 37.7385 938.498 37.6532C939.455 37.3975 940.453 38.3991 941.369 37.5041C942.102 37.9729 942.856 38.4418 943.569 38.932C944.119 39.3156 944.648 39.7419 945.219 40.1469C945.585 39.7207 945.852 39.4009 946.259 38.9533C947.074 39.1665 947.97 39.4009 948.845 39.6354C948.987 39.2943 949.13 38.932 949.334 38.4205C951.554 39.9551 953.57 39.3796 955.443 38.1008C955.81 38.4418 956.074 38.6976 956.501 39.0812V37.2696C957.541 37.6958 958.457 38.0795 959.373 38.4418C959.556 38.0795 959.7 37.8024 959.842 37.5041C960.513 37.7172 961.125 37.8664 961.715 38.1008C963.284 38.7189 965.035 39.0812 966.379 40.0617C967.519 40.9142 968.354 40.9781 969.454 40.3387C970.818 39.5714 971.958 39.8485 972.854 41.1699C972.997 41.3618 973.2 41.5109 973.364 41.6601C975.645 39.9977 976.031 39.9764 977.416 41.4044C977.558 41.0208 977.682 40.6371 977.682 40.6157C980.532 39.4222 983.344 40.1681 986.114 39.6141C986.317 40.3387 986.501 41.0208 986.663 41.6388C988.007 41.2978 989.31 40.4879 990.349 40.765C992.732 41.4257 995.258 42.0011 997.07 44.0473C997.131 44.1111 997.334 44.0259 997.558 44.0046C997.558 43.5997 997.518 43.1947 997.497 42.4913C999.574 43.6849 998.984 41.2552 999.758 40.637C1001.04 41.2339 1000.59 42.4487 1000.82 43.2586C1001.22 43.4718 1001.51 43.5997 1001.75 43.7275V45.731C1002.36 45.4965 1002.81 45.3261 1003.28 45.1342C1003.59 44.1396 1004.18 43.2799 1005.03 42.5553V44.58C1005.62 44.1751 1006.27 43.962 1006.6 43.4931C1007.68 41.9585 1007.76 41.7028 1009.13 42.4487C1010.51 43.1947 1012.26 42.4487 1013.4 43.8341C1015.07 43.3652 1016.15 44.1964 1016.88 45.7736C1017.09 45.4113 1017.15 45.0916 1017.33 45.0063C1017.52 44.9211 1017.8 45.0489 1018.09 45.0702C1018 44.3669 1017.96 43.8128 1017.9 43.3865C1019.59 42.129 1020.3 45.2195 1021.91 44.1538C1021.73 43.5997 1021.57 43.1521 1021.41 42.6619C1021.75 42.4487 1022.02 42.2143 1022.3 42.129C1023.38 41.852 1024.42 41.0633 1025.58 41.7028C1026.6 42.2356 1027.62 41.7028 1028.62 41.7667C1029.49 41.8093 1030.37 41.9158 1031.24 41.9585C1032.28 42.0224 1033.32 42.0864 1034.34 42.1503C1034.48 42.4274 1034.64 42.6832 1034.77 42.9389C1036.92 42.2356 1039 41.447 1041.16 42.47C1042.44 43.0668 1043.67 43.6636 1045.11 43.898C1047.09 44.1964 1049 44.8145 1051 44.2177C1052.69 43.7275 1054.58 44.1112 1056.05 42.7045C1056.35 42.4274 1057.08 42.2356 1057.38 42.4061C1058.56 43.1734 1059.5 42.2996 1060.63 42.129C1060.97 42.3634 1061.36 42.6406 1061.83 42.9602C1062.32 42.7258 1062.83 42.47 1063.34 42.2356C1064.83 43.216 1066.47 42.8963 1067.96 42.47C1069.29 42.0864 1070.47 42.1077 1071.54 42.6832C1072.87 41.788 1074.09 41.2765 1075.54 41.2978C1077.45 41.2978 1079.39 41.2765 1081.29 41.1486C1081.75 41.1273 1082.15 40.6584 1082.87 40.2108C1083.13 40.5944 1083.5 41.1273 1083.7 41.447C1085.94 40.8502 1086.9 43.0029 1088.51 43.3652C1088.69 43.1094 1088.85 42.8749 1088.94 42.7471C1090.1 42.9176 1091.17 43.0881 1092.17 43.2586C1092.46 42.7685 1092.65 42.4487 1092.93 41.9371C1093.33 42.6832 1093.6 43.1734 1093.85 43.621C1095.03 44.1112 1096.15 44.5588 1097.43 45.0915C1098 44.303 1098.57 43.5357 1099.2 42.6832C1099.51 43.216 1099.75 43.6423 1100.02 44.1324C1100.2 43.6636 1100.36 43.216 1100.52 42.811C1102.48 43.1521 1104.35 43.6848 1106.27 43.0668C1108.48 42.3422 1110.73 42.534 1113.02 42.7045C1115.05 42.8749 1117.1 42.534 1119.34 42.3847C1119.95 42.7685 1120.77 43.3012 1121.52 43.7701C1122.74 43.5144 1123.79 42.7258 1124.93 43.5783C1125.15 43.7275 1125.6 43.7275 1125.86 43.5997C1127.39 42.8536 1128.86 43.3865 1130.38 43.5997C1131.46 43.7488 1132.62 43.4504 1133.74 43.3438C1134.7 43.2586 1135.7 42.9602 1136.62 43.0881C1138.67 43.3865 1140.71 43.9193 1142.76 44.3456C1143.13 44.8358 1143.5 45.326 1143.96 45.9441C1144.09 45.3474 1144.17 44.9849 1144.21 44.7505C1145.86 44.1324 1145.96 46.2212 1147.35 46.4343C1148.55 46.6048 1149.65 47.6704 1150.79 48.3525C1150.89 48.2459 1150.97 48.118 1151.07 48.0115C1150.36 47.2015 1149.65 46.3916 1148.9 45.5391C1150.04 45.2408 1151.31 45.6883 1152.75 46.8819C1154.47 46.4769 1156.34 46.3065 1158.08 45.2194C1159.09 44.58 1160.4 44.3882 1161.58 44.1112C1161.86 44.0472 1162.25 44.4309 1162.62 44.6226C1162.15 45.3687 1161.78 45.9654 1161.4 46.5622C1161.47 46.6475 1161.56 46.7327 1161.66 46.8179C1162.54 46.0507 1163.41 45.3047 1164.35 44.4735C1164.62 44.9849 1164.75 45.2834 1164.92 45.5818C1171.58 42.9389 1171.48 43.557 1177.71 45.4325C1179.67 44.2177 1183.23 44.2177 1185.65 45.2621C1187.15 44.8784 1188.38 44.5588 1189.75 44.1964C1189.86 43.9833 1190.1 43.557 1190.32 43.1308C1192.68 42.6832 1194.98 43.1307 1197.31 42.129C1199.36 41.2338 1202.07 42.47 1204.06 40.5732C1206.14 41.1059 1208.13 42.2782 1210.4 41.4683C1210.54 41.4257 1210.73 41.4682 1210.88 41.5109C1212.8 42.0864 1214.73 42.6618 1216.65 43.216C1216.87 43.2799 1217.11 43.2586 1217.44 43.3012C1217.67 42.8749 1217.87 42.4487 1218.09 41.9798C1221.07 41.9798 1224.04 42.0864 1227.01 41.9371C1228.56 41.8733 1229.7 42.2782 1230.55 43.621C1230.68 43.7914 1230.86 43.9193 1231.09 44.1324C1231.21 43.4504 1231.29 42.8749 1231.36 42.5126C1232.17 42.1929 1233.06 41.5109 1233.39 41.7454C1234.49 42.5339 1235.4 41.8093 1236.26 41.7454C1237.17 42.1929 1237.95 42.5766 1238.81 42.9815C1239.42 42.0437 1239.9 41.2978 1240.36 40.6157C1242.76 40.2747 1242.92 42.6618 1244.26 44.0046C1244.23 43.2372 1244.18 42.7896 1244.18 42.5766C1244.95 42.1929 1245.61 41.8946 1246.3 41.5535C1246.55 41.724 1246.97 42.129 1247.48 42.2995C1248.03 42.47 1248.64 42.406 1249.33 42.4273C1249.63 41.2978 1250.35 40.36 1251.6 39.9977C1252.51 40.2534 1253.43 40.5305 1254.35 40.7862C1254.59 40.3813 1254.75 40.1043 1254.98 39.7418C1256.2 39.8911 1257.48 40.0403 1258.88 40.2107C1260.6 39.4222 1262.43 38.591 1264.47 39.3369C1264.69 38.9746 1264.84 38.527 1265.04 38.463C1266.5 38.1007 1267.99 37.9515 1269.45 37.4614C1270.55 37.099 1271.98 37.0777 1273.02 37.504C1274.26 38.0155 1275.3 37.6318 1276.44 37.5252C1276.64 37.5252 1276.93 37.6318 1277.07 37.7811C1278.43 39.1025 1279.33 37.9941 1280.23 36.9072C1280.84 37.6745 1281.35 38.3139 1281.92 39.0172C1282.28 38.9106 1282.76 38.8041 1283.2 38.6975C1283.39 38.9959 1283.55 39.2729 1283.72 39.5074C1284.62 38.2713 1286.26 38.8893 1287.17 37.7811C1288.33 38.4417 1289.4 39.0385 1290.43 39.6353C1291.41 38.6549 1292.55 38.6762 1293.38 39.6353C1294.26 40.6157 1294.97 39.8058 1295.85 39.7632C1296.24 40.9781 1297.01 41.8733 1298.45 42.3847C1298.27 41.5108 1298.13 40.8075 1298.03 40.296C1300.19 39.614 1302.04 40.6157 1304.02 40.6583C1306.03 40.7223 1308.02 40.9568 1310.05 41.1059C1309.99 40.7649 1309.92 40.4239 1309.82 39.8911C1311.41 40.2747 1312.44 41.3404 1313.46 42.0437C1313.66 42.8749 1313.81 43.5144 1313.99 44.3029C1314.79 43.6209 1315.42 43.0668 1316.03 42.5126C1317.77 42.9815 1318.71 44.3243 1319.56 45.944C1320.19 45.6244 1320.74 45.3473 1321.33 45.0702C1322.18 45.7096 1323.01 46.2638 1323.77 46.9032C1324.81 47.8196 1325.81 47.6917 1326.86 46.9032C1327.34 47.5213 1327.8 48.1606 1328.29 48.8214C1328.61 48.3951 1328.8 48.1393 1328.98 47.9262C1330 48.3099 1330.99 48.6722 1331.71 48.9492C1332.37 48.0755 1332.83 47.436 1333.2 46.9245C1334.52 46.9884 1335.66 47.0524 1336.82 47.1163C1337.33 47.6704 1337.83 48.2246 1338.01 48.4378C1339.39 48.8427 1340.39 49.1197 1341.3 49.3756C1341.73 50.2706 1342.07 50.9954 1342.42 51.6987C1343.52 50.9314 1343.89 49.0984 1345.78 49.3542C1346.64 50.8674 1347.51 52.4021 1348.37 53.9152C1348.57 52.8496 1348.27 51.9971 1348.21 51.1019C1348.15 50.3346 1349.41 49.2477 1350.05 49.2263C1350.69 49.4394 1351.22 49.61 1351.71 49.7805C1351.99 49.3329 1352.2 48.9918 1352.47 48.5443C1354.32 49.9083 1356.27 50.9101 1357.15 53.1693C1357.28 52.9561 1357.41 52.7644 1357.58 52.4872C1357.76 52.743 1357.92 52.9774 1357.94 53.0201C1358.8 52.5725 1359.62 52.1462 1360.65 51.5922C1361.28 52.6151 1361.83 53.5316 1362.4 54.4055C1362.85 55.1088 1363.36 55.7482 1364.6 55.4925C1364.05 54.8317 1363.6 54.3628 1363.28 53.83C1362.92 53.2546 1362.65 52.6151 1362.08 51.5069C1363.2 52.2741 1363.79 52.6791 1364.38 53.084C1364.93 52.743 1365.39 52.4659 1365.87 52.1676C1366.57 52.7217 1367.23 53.2333 1367.88 53.7235C1370.26 52.7004 1372.58 53.4463 1374.33 55.8335C1375.15 55.5777 1375.97 55.322 1376.76 55.0875C1376.86 55.3006 1376.99 55.5351 1377.17 55.8974C1377.39 55.2793 1377.58 54.7678 1377.72 54.3628C1379.63 53.5743 1380.29 55.7056 1381.85 56.0253C1383.66 54.4694 1385.93 55.3219 1388.07 55.1728C1388.29 55.1728 1388.68 55.2154 1388.73 55.3646C1389.3 56.7286 1390.47 56.0679 1391.37 56.2597C1392.55 54.7465 1392.66 54.7678 1393.78 56.8565C1394.74 55.4498 1395.94 55.8548 1397.19 56.281C1398.24 56.6434 1399.33 56.8991 1400.62 57.2615C1401.03 57.6238 1401.65 58.1566 1402.28 58.7108C1402.52 58.2206 1402.73 57.8369 1402.99 57.3041C1403.37 58.3058 1403.66 59.0944 1403.99 59.9256C1404.38 59.1797 1404.7 58.519 1405.15 57.6664C1405.33 58.2419 1405.43 58.5616 1405.58 59.0305C1407.39 58.4337 1409.14 58.8387 1410.85 59.4354C1411.3 59.5846 1411.83 60.1601 1412.11 60.0322C1413.46 59.4141 1414.3 61.0766 1415.52 60.7995C1416.81 62.0783 1418.49 62.1635 1420.14 62.4832C1421.73 62.7816 1423.21 63.3145 1424.46 64.6146C1425.4 65.595 1429.43 64.568 1430.51 65.25C1431.49 64.6959 1433.14 63.1416 1433.67 63.6687C1433.93 62.8801 1436.49 63.485 1436.83 62.4832C1439.32 64.2949 1440 64.7229 1440 64.7229C1440 64.7229 1439.97 22.0291 1440 0.418678L0.00415039 0.418892Z" fill="#202426"/>
</svg>
