<svg width="1440" height="235" viewBox="0 0 1440 235" fill="none" xmlns="http://www.w3.org/2000/svg">
<rect width="1440" height="232.03" fill="#FBF8E6"/>
<path d="M1439.94 108.565V234.308H0.0648193C0.0648193 216.733 0.0648193 199.18 0.0648193 181.605C0.676515 181.504 1.32899 181.504 1.87952 181.259C3.28642 180.63 4.67293 180.63 6.141 181.016C6.79347 181.178 7.52751 181.198 8.20037 181.097C9.70922 180.915 11.1977 180.609 12.6861 180.365C14.562 180.873 16.4379 181.422 18.4157 181.178C18.6808 181.138 18.9866 181.178 19.2313 181.28C19.8634 181.524 20.4547 181.34 21.0664 181.28C22.351 181.178 23.452 180.63 24.4919 180.162C25.0016 180.162 25.4298 180.183 25.8376 180.162C27.0202 180.061 28.0193 180.447 28.7941 181.34C29.0592 181.645 29.3855 181.93 29.6913 182.214C30.5477 183.027 31.5468 183.393 32.7293 183.149C33.1984 183.047 33.6673 182.987 34.0955 182.906C34.4217 183.047 34.6664 183.169 34.911 183.292C36.7665 184.124 38.6424 184.795 40.7222 184.267C41.1096 184.165 41.5378 184.328 41.9455 184.348C42.1495 184.348 42.3534 184.348 42.5572 184.348C43.0058 183.982 43.4137 183.657 43.8826 183.27C45.9216 183.657 47.8586 182.966 49.9384 182.763C51.1414 181.787 52.5483 181.382 54.0571 181.93C54.5669 181.645 54.9951 181.422 55.3621 181.239C56.4428 181.524 57.4623 181.767 58.3594 182.011C60.0518 181.28 60.8062 181.178 62.9268 181.32C63.9258 180.772 64.8842 180.122 65.292 179.005C65.8424 178.964 66.2707 179.147 66.76 178.882C68.0446 178.192 69.4718 177.927 70.9196 177.785C71.3886 177.745 71.8575 177.603 72.2857 177.522C72.7547 176.83 73.1625 176.201 73.5702 175.612C73.978 175.368 74.3451 175.165 74.6916 174.961C75.0587 174.779 75.4257 174.615 75.7724 174.392C77.0977 173.559 78.0356 172.157 79.7484 171.772C80.2378 170.35 81.9709 170.227 82.6642 169.13C82.8885 168.744 82.6437 168.317 83.0923 168.114C83.5205 168.277 83.9487 168.44 84.3361 168.582C85.8246 167.667 87.4761 167.688 89.0257 167.525C90.1268 167.403 91.2279 167.281 92.2473 166.875C92.4716 166.611 92.6959 166.367 92.8794 166.144C93.8581 165.818 94.8573 166.611 95.8767 165.818C96.0195 165.432 96.2029 164.924 96.4069 164.356C97.2837 164.214 98.1605 164.05 99.0371 163.908C99.2003 163.38 99.343 162.913 99.5061 162.405C100.036 162.304 100.566 162.202 101.056 162.121C101.647 162.344 102.198 162.771 102.646 162.69C103.482 162.547 104.094 162.994 104.665 163.178C105.44 163.075 105.746 162.629 106.051 162.161C106.154 161.999 106.357 161.918 106.54 161.775C106.948 161.918 107.336 162.04 107.682 162.161C108.029 162.06 108.334 161.918 108.681 161.877C109.049 161.836 109.456 162.243 109.763 161.694C109.599 161.41 109.416 161.125 109.253 160.82C109.253 160.78 109.294 160.719 109.314 160.658C110.537 161.132 111.726 161.071 112.882 160.475C113.698 160.394 114.431 160.313 115.166 160.231C115.227 159.784 115.288 159.459 115.349 159.094C116.593 159.134 117.837 159.317 118.937 159.033C120.059 158.464 120.855 157.732 121.385 156.757C122.71 156.676 123.954 156.595 125.176 156.534C126.217 155.619 127.644 156.513 128.602 155.701C129.03 155.863 129.337 155.985 129.56 156.066C129.989 155.721 130.335 155.416 130.682 155.132C131.131 155.315 131.518 155.457 131.803 155.558C132.966 154.929 134.067 154.339 135.188 153.73C135.515 153.831 135.902 153.953 136.269 154.075C136.84 153.892 137.37 153.71 137.9 153.527C138.533 152.795 139.164 152.064 139.817 151.312C140.612 151.637 141.265 152.267 142.162 152.064C143.242 151.82 144.344 152.064 145.444 151.8C146.158 151.617 147.015 151.454 147.646 151.698C148.646 152.084 149.665 152.125 150.522 152.369C151.541 152.267 152.214 151.475 153.091 151.698C153.457 151.393 153.763 151.129 154.07 150.885C154.681 150.987 155.231 151.068 155.72 151.129C156.088 150.804 156.414 150.56 156.72 150.276C157.067 150.398 157.372 150.52 157.76 150.662C158.413 150.479 159.207 150.52 159.779 150.012C160.227 149.321 160.084 148.61 160.146 147.939H160.125C160.717 148.529 161.308 149.098 162.022 149.768C162.327 149.768 162.797 149.727 163.306 149.707C164.019 149.179 164.733 148.651 165.488 148.061C165.977 148.143 166.507 148.224 167.139 148.325C167.934 148 168.77 147.675 169.769 147.269C170.259 147.411 170.932 147.797 171.564 147.716C172.359 147.614 173.073 147.777 173.868 147.858C174.419 147.655 174.989 147.452 175.642 147.208C175.744 146.802 175.825 146.416 175.927 146.03C176.009 145.664 175.479 145.278 176.049 144.851C176.621 145.278 177.212 145.705 177.905 146.233C178.313 145.725 178.68 145.258 179.026 144.831C179.353 144.77 179.639 144.729 179.761 144.709C180.23 144.567 180.169 143.998 180.678 144.059C180.984 144.465 181.29 144.872 181.616 145.298C182.404 144.607 183.125 144.309 183.778 144.404C184.001 144.729 184.206 145.054 184.45 145.44C184.756 145.359 185.001 145.278 185.367 145.197C185.633 144.201 185.898 143.226 186.183 142.23C186.428 142.433 186.672 142.657 186.938 142.86C187.366 142.82 187.794 142.779 188.243 142.738C188.651 143.063 189.079 143.388 189.343 143.612C190.975 144.079 192.056 143.124 193.381 142.698C194.258 142.779 195.176 142.799 196.113 142.352C196.481 142.169 196.99 142.23 197.459 142.027C197.806 141.865 198.336 142.169 198.805 142.21C199.355 142.251 199.905 142.21 200.599 142.21C201.415 141.072 202.373 139.975 204.066 139.833C204.391 140.077 204.758 140.361 205.105 140.625C205.594 140.422 206.043 140.219 206.268 140.117C207.532 140.077 208.164 141.052 209.061 141.174C210.039 140.625 210.936 140.117 211.834 139.609L211.936 139.731L211.813 139.63C212.058 139.589 212.343 139.447 212.568 139.488C212.955 139.548 213.323 139.731 213.771 139.894C214.056 139.325 214.301 138.858 214.607 138.289H217.013C217.421 137.821 217.768 137.415 218.093 137.07C218.237 137.029 218.298 137.009 218.379 137.009C219.929 137.212 221.437 137.293 222.641 136.034C222.722 135.932 222.885 135.891 223.008 135.871C224.394 135.485 225.475 134.632 226.168 133.9C227.411 133.291 228.33 132.864 229.41 132.336C230.042 132.498 230.857 132.702 231.49 132.864C232.856 132.681 234.059 132.498 235.241 132.336C235.302 131.889 235.343 131.544 235.385 131.158C236.077 131.158 236.751 131.137 237.423 131.158C238.117 131.178 238.809 131.361 239.483 131.279C240.155 131.218 240.788 130.934 241.521 130.711C242.174 131.259 242.846 131.848 243.52 132.438C243.968 132.824 244.458 133.006 245.049 132.844C245.294 132.6 245.517 132.356 245.58 132.295H249.84C250.045 132.417 250.35 132.559 250.615 132.783C251.247 133.311 251.981 133.453 252.757 133.392C253.164 133.372 253.613 133.372 254.001 133.23C254.815 132.925 255.631 133.006 256.365 133.23C256.753 132.986 257.038 132.803 257.466 132.539C258.383 133.047 259.383 132.905 260.402 132.58C260.729 132.478 261.096 132.539 261.442 132.519C262.339 132.458 263.216 132.377 264.46 132.275C265.276 132.498 266.418 132.62 267.559 132.438C267.764 132.072 267.906 131.787 268.089 131.462C268.701 131.665 269.292 131.848 269.863 132.031C270.271 131.848 270.638 131.665 271.005 131.503C271.332 131.625 271.657 131.726 271.882 131.808C272.555 131.645 273.167 131.381 273.758 131.361C274.961 131.361 276.082 131.015 277.204 130.568C278.264 131.036 279.223 130.69 280.037 130.223C281.914 130.507 283.627 130.487 285.359 130.223C287.072 129.939 288.805 129.857 290.518 129.695C290.723 129.695 290.946 129.695 291.13 129.776C291.966 130.02 292.781 129.898 293.597 129.715C294.677 129.471 295.759 129.248 296.839 129.024C297.39 128.923 297.94 128.76 298.47 128.801C301.04 128.963 303.568 128.272 306.116 128.537C307.707 128.171 309.276 128.618 310.867 128.638C311.683 128.638 312.58 128.719 313.294 129.065C314.151 129.491 314.986 129.695 315.883 129.573C316.76 129.451 317.657 129.613 318.513 129.105C319.002 128.821 319.717 128.841 320.328 128.841C320.981 128.841 321.715 128.679 322.306 129.105C322.265 129.491 322.225 129.817 322.164 130.223C323.407 130.568 324.569 131.015 325.732 130.528C326.873 130.792 327.872 131.239 328.892 131.239C330.401 131.239 331.767 131.544 333.112 132.133C333.235 132.194 333.378 132.173 333.561 132.194C333.684 132.072 333.806 131.909 333.969 131.787C334.112 131.645 334.275 131.523 334.478 131.381C334.744 131.422 335.009 131.442 335.274 131.503C335.396 131.544 335.478 131.665 335.621 131.767C335.661 132.011 335.722 132.275 335.804 132.661C337.762 132.356 339.637 132.519 341.064 133.616C342.227 133.616 343.145 133.474 344.001 133.657C344.939 133.86 345.897 133.961 346.835 134.185C347.161 134.266 347.589 134.225 347.835 134.408C348.874 135.201 350.077 135.038 351.239 134.977C352.197 134.936 353.116 134.693 353.89 134.266C354.013 133.799 353.502 133.514 353.869 133.149C355.215 133.128 356.52 133.372 357.845 133.819C359.191 134.286 360.577 134.733 361.882 135.323C362.25 135.038 362.576 134.774 362.943 134.49C363.269 134.693 363.616 134.916 364.003 135.16H365.166C365.513 135.546 365.838 135.912 366.063 136.156C366.838 136.196 367.449 136.216 368.061 136.298C368.612 136.379 369.142 136.663 369.672 136.623C370.181 136.602 370.671 136.277 371.119 136.115C371.446 136.257 371.691 136.359 371.833 136.42C372.568 135.952 373.179 135.546 373.954 135.058C374.239 135.444 374.464 135.77 374.606 135.952C375.523 136.034 376.278 136.095 377.074 136.156C377.95 135.871 378.909 135.627 379.806 135.282C380.703 134.936 381.539 134.49 382.436 134.083C382.783 134.388 383.068 134.652 383.333 134.896C383.496 134.774 383.638 134.652 383.761 134.571C384.271 134.997 384.76 135.363 385.229 135.77C385.739 135.505 386.147 135.282 386.514 135.079C387.553 135.079 388.267 135.566 388.716 136.237C389.715 135.973 390.571 135.729 391.326 135.526C391.59 135.668 391.713 135.729 391.835 135.79C391.958 135.851 392.081 135.891 392.203 135.952C392.631 135.77 393.059 135.607 393.508 135.424C393.997 135.83 394.425 136.176 394.914 136.582C395.669 136.663 396.505 136.907 397.3 136.785C398.483 136.623 399.645 136.684 400.827 136.684C401.439 136.684 402.03 136.602 403.112 136.542C403.723 136.602 404.762 136.968 405.925 136.806C407.046 136.643 408.249 137.029 409.371 136.481C409.473 136.237 409.554 135.993 409.656 135.77C410.228 136.176 410.757 136.623 411.328 136.948C411.919 137.273 412.592 137.496 413.224 137.781C413.979 137.598 414.549 136.989 415.386 137.049C416.201 137.131 417.037 137.049 417.914 137.049C418.791 138.492 420.34 138.634 421.87 138.858C422.991 138.472 424.113 139.122 425.275 138.858C425.479 138.655 425.213 138.147 425.846 138.065C427.579 139.63 429.68 139.874 431.943 139.264C433.757 139.691 435.694 139.691 437.08 141.032H438.202C438.365 141.357 438.529 141.641 438.651 141.905C439.507 142.169 440.281 142.494 441.097 142.637C441.892 142.779 442.729 142.759 443.382 142.799C444.176 142.433 444.34 141.56 445.278 141.519C445.501 142.149 445.706 142.738 445.93 143.348C446.888 143.002 447.724 142.657 448.621 143.023C448.988 143.348 449.355 143.653 449.702 143.937C450.191 143.896 450.599 143.856 450.884 143.835C451.803 144.282 452.577 144.77 453.413 145.075C454.33 145.4 454.616 146.416 455.146 146.659C456.41 146.883 457.348 147.045 458.45 147.228C459.224 146.985 460.141 146.68 461.059 146.375C461.466 146.497 461.854 146.619 462.343 146.781C462.609 146.395 462.874 146.009 463.139 145.623C463.547 145.969 463.792 146.192 464.077 146.436C464.648 145.826 465.137 145.278 465.586 144.79C466.686 144.75 467.563 145.461 468.379 145.237C469.174 144.993 469.276 144.14 470.011 144.1C470.418 144.364 470.173 145.136 470.847 145.156C471.58 144.973 471.009 144.079 471.723 143.754C472.294 143.592 472.804 143.896 473.232 144.404C473.64 144.872 473.904 145.481 474.945 145.623C476.392 144.892 477.86 145.745 479.308 146.477C480.103 146.355 480.837 146.131 481.612 146.355C482.122 146.497 482.713 146.375 483.264 146.314C484.079 146.233 484.874 146.091 485.69 145.969C485.69 145.684 485.731 145.38 485.751 145.014C486.424 144.953 487.036 144.892 487.729 144.831C488.545 144.343 489.401 143.815 490.36 143.246C490.665 143.49 491.012 143.815 491.379 144.1C491.542 144.221 491.746 144.262 491.97 144.364C492.398 144.16 492.847 143.957 493.234 143.795C493.764 143.835 494.253 143.876 494.702 143.896C495.069 143.388 495.396 142.962 495.803 142.413C497.373 142.82 498.964 142.718 500.616 142.312C501.411 141.865 502.246 141.255 503.287 141.011C503.409 141.377 503.531 141.682 503.654 142.027C504.959 142.616 505.897 141.966 506.712 141.235C507.63 141.093 508.445 140.971 509.26 140.828C510.77 140.544 512.217 140.097 513.644 139.528C513.971 139.223 514.358 139.101 514.787 139.162C515.398 139.244 516.01 139.345 516.54 139.427C517.009 139.203 517.376 139.02 517.804 138.817C519.007 139.162 520.23 139.244 521.413 138.878C522.432 138.573 522.27 137.517 522.678 136.928C524.044 136.196 525.349 137.334 526.674 136.887C526.49 136.521 526.347 136.237 526.205 135.952C527.143 135.566 527.795 136.42 528.651 136.399C528.998 136.237 529.365 136.054 529.692 135.871C531.689 136.44 533.382 135.322 535.176 135.16C535.605 134.693 535.972 134.266 536.257 133.941C537.562 133.352 538.785 132.905 540.11 132.702C541.273 132.519 542.374 132.112 543.393 131.848C543.78 131.34 544.066 130.975 544.29 130.65C545.085 130.629 545.799 130.731 546.431 130.548C547.064 130.365 547.614 129.878 548.225 129.491C548.654 129.573 549.061 129.593 549.449 129.715C550.53 130.06 551.529 129.918 552.406 129.248C553.609 128.313 554.893 128.069 556.076 128.496C558.054 128.374 558.889 126.667 560.46 126.139C560.521 126.505 560.582 126.891 560.643 127.318C561.051 127.318 561.397 127.378 561.704 127.318C562.03 127.236 562.356 126.891 562.641 126.952C563.64 127.114 564.558 126.647 565.516 126.606C566.047 126.606 566.638 126.424 567.086 126.139C568.208 125.408 569.451 125.022 570.797 124.737C571.164 124.25 571.511 123.762 571.919 123.254C572.183 123.478 572.428 123.742 572.714 123.904C573.122 124.128 573.51 124.087 573.794 123.64C573.774 123.335 573.733 123.031 573.713 122.706C574.773 122.848 574.712 124.006 575.507 124.473C576.934 124.189 578.423 123.904 579.912 123.62C580.279 123.295 580.626 122.97 581.032 122.624H582.766C582.623 122.096 582.522 121.649 582.42 121.243C583.358 120.41 584.519 121.344 585.457 120.755C585.58 120.674 585.845 120.816 586.029 120.857C586.865 121.101 587.762 120.999 588.414 120.552C589.067 120.085 589.78 120.43 590.657 119.942C590.82 119.739 591.187 119.333 591.513 118.947C592.471 118.581 593.512 118.683 594.286 117.931V116.489C594.694 116.285 595.041 116.123 595.408 115.94C596.325 116.387 597.243 116.651 598.181 116.346C598.385 116.875 598.548 117.301 598.711 117.728C599.343 117.565 599.853 117.464 600.362 117.301C600.872 117.159 601.383 116.976 601.953 116.793C602.177 116.997 602.422 117.22 602.626 117.443C602.83 117.261 602.993 116.956 603.238 116.895C604.685 116.468 606.072 115.737 607.662 115.838C608.436 115.879 609.273 115.798 609.762 115.168C610.456 114.315 611.454 114.01 612.189 113.441C613.595 113.482 614.9 113.522 616.185 113.563C616.878 112.933 617.47 113.746 618.122 113.685C619.733 113.543 620.752 112.222 622.139 111.734C622.241 111.328 622.343 111.003 622.424 110.637C623.607 110.515 624.953 110.759 625.605 109.317C625.483 108.849 625.361 108.402 625.258 108.016C625.87 107.427 626.177 108.179 626.788 108.159C628.521 107.508 630.559 107.244 632.008 106.147C632.864 105.903 633.557 106.533 634.251 105.924C634.046 105.517 633.863 105.172 633.659 104.806C633.537 104.562 633.394 104.319 633.618 104.095C634.251 104.095 634.862 104.095 635.495 104.095C635.617 104.095 635.739 104.217 635.861 104.258C636.147 104.725 636.412 105.192 636.656 105.578C637.492 106.005 638.227 105.924 639.063 105.639C639.307 105.294 639.572 104.908 639.898 104.441C641.203 104.115 642.019 103.1 642.692 101.921C643.141 102.104 643.528 102.246 643.956 102.409C644.405 102.124 644.854 101.84 645.424 101.474C646.464 101.86 647.3 101.149 648.034 100.702C649.033 100.621 649.849 100.54 650.685 100.479C651.317 100.418 651.846 100.133 652.377 99.7676C653.804 98.8126 654.375 97.3498 654.885 95.826C655.028 95.3791 655.15 94.8915 655.333 94.4648C655.436 94.2006 655.66 94.0381 655.986 94.2413C656.394 94.7898 655.619 95.4197 656.129 96.1105C656.435 95.6432 656.659 95.2369 656.944 94.8711C657.066 94.7289 657.291 94.6882 657.474 94.5867C657.801 94.8711 658.087 95.1555 658.371 95.3994C660.39 95.2165 661.511 94.0584 662.144 92.3721C661.96 91.8438 661.797 91.3969 661.634 90.9296L661.614 90.95C662.083 91.2344 662.552 91.4985 662.96 91.7626C664.223 91.3562 664.59 90.1982 665.406 89.4261C666.201 89.101 667.384 89.2839 667.628 88.1868C667.73 87.4351 666.833 87.0491 667.221 86.3786C668.036 86.1753 668.016 87.3538 668.771 87.1913C669.118 86.602 669.443 86.0331 669.77 85.4846C669.587 85.0173 669.443 84.6313 669.341 84.3265C669.953 83.5748 670.524 82.9043 671.176 82.0917C672.298 81.9495 673.583 81.7869 674.806 81.6244C675.201 80.9201 675.112 80.2834 674.541 79.7145C674.745 79.3285 674.969 79.0034 675.499 79.2067C675.948 79.613 675.642 80.507 676.356 80.6695C677.539 80.7101 677.273 79.5317 677.905 79.0238C678.109 79.0238 678.374 79.0238 678.639 79.0644C678.986 79.105 679.312 79.166 679.597 79.2269C680.413 78.8206 681.107 78.2924 681.901 78.0891C683.023 77.8047 683.717 77.1546 684.206 76.1794C684.369 75.8746 684.594 75.6105 684.838 75.2651C685.674 75.0416 686.673 75.001 687.387 74.554C688.59 73.7616 689.833 73.7413 691.179 73.8226C691.383 73.8226 691.586 73.7616 691.811 73.721C692.321 73.3959 692.83 73.0506 693.259 72.7661C695.848 72.4004 696.092 72.2581 697.316 70.1655C697.336 69.1902 696.725 68.1744 697.397 67.0773C698.193 66.8538 698.948 66.4068 699.457 65.5941C699.559 65.4316 699.804 65.3707 700.028 65.2284C700.599 65.2488 701.211 65.2894 701.72 65.3097C702.727 64.795 703.481 64.1584 703.984 63.3999C704.31 63.3389 704.636 63.278 705.044 63.217C706.104 61.9167 707.695 61.1244 708.836 59.8038C709.388 59.1536 710.08 58.4019 711.018 58.3003C712.282 58.1378 713.425 57.7314 714.505 57C715.015 57.3048 715.483 57.5892 715.871 57.8127C716.421 57.8533 716.89 57.894 717.318 57.9143C717.624 58.3003 717.849 58.6051 718.093 58.9301C718.277 58.7473 718.4 58.5847 718.542 58.4425C719.297 58.3816 720.031 58.3003 720.785 58.2393C720.846 58.2393 720.928 58.2393 720.989 58.28C721.05 58.28 721.111 58.3206 721.274 58.4019C721.458 58.7473 721.682 59.1739 721.927 59.6412C722.498 59.9257 723.11 60.2304 723.681 60.5352C723.945 60.4133 724.15 60.3523 724.333 60.2711C724.517 60.1898 724.72 60.1288 724.904 60.0476C725.393 60.332 725.862 60.6164 726.331 60.8806C726.433 60.9415 726.596 60.8806 726.821 60.8806C726.963 60.718 727.147 60.5352 727.228 60.4539C727.535 59.7225 726.902 59.1333 727.371 58.4019C727.596 58.7066 727.799 58.9098 727.901 59.1333C728.085 59.5803 728.166 60.0679 728.349 60.5149C728.818 61.6526 729.492 62.5669 730.858 62.7294C731.408 62.7904 731.958 62.9123 732.591 63.0139C733.875 62.059 734.996 62.892 736.179 63.3999C737.178 63.6437 738.178 63.8672 739.524 64.1923C741.848 64.111 744.091 63.9891 745.151 65.0862C744.743 65.4113 744.356 65.716 743.866 66.1021C744.743 66.6506 745.253 65.7973 746.007 65.8379C746.374 66.1021 746.823 66.4068 747.251 66.6913C747.679 66.5897 748.067 66.4881 748.515 66.3865C749.311 68.1135 751.146 68.0728 752.369 68.9262C753.001 68.8042 753.531 68.723 753.918 68.6417C755.631 69.2513 757.181 69.8201 758.445 70.2874C759.607 70.3483 760.504 70.4093 761.361 70.4703C761.708 71.1205 762.177 71.4861 762.829 71.6081C763.624 71.7705 764.44 71.933 765.357 72.1363C765.745 71.9737 766.254 71.7503 766.723 71.547C767.213 71.933 767.62 72.2785 768.049 72.6035C768.457 72.4817 768.783 72.3394 769.13 72.3191C770.353 72.2175 771.413 71.8112 772.249 70.8766C772.311 70.8156 772.514 70.8766 772.636 70.8766C772.861 71.283 773.085 71.6892 773.248 71.9941C774.41 72.2581 775.002 71.283 775.858 71.1814C777.387 71.9737 778.876 71.1814 780.364 71.1407C781.771 72.0753 783.362 72.5019 784.952 72.9286C785.808 72.7457 786.624 72.5426 787.44 72.3801C787.786 72.3191 788.132 72.2581 788.377 72.5832C788.377 73.3959 788.527 74.0596 788.826 74.5743C789.989 74.3509 791.191 74.1071 792.455 73.8429C792.721 74.0664 793.026 74.3102 793.352 74.5947C794.454 74.7572 795.554 74.7978 796.553 74.6353C797.389 74.1883 797.533 73.1724 798.491 72.8677C798.674 73.2333 798.858 73.5991 799.082 74.0258C798.674 74.3914 798.327 74.6962 797.981 75.0213C797.757 75.2245 797.634 75.4479 797.9 75.7934C798.797 75.9559 799.735 76.1388 800.285 76.2403C801.651 76.1388 802.609 75.9965 803.568 76.0168C804.73 76.0168 805.893 76.4841 807.054 76.0778C807.176 76.0372 807.34 76.0778 807.462 76.1184C808.461 76.5451 809.502 76.3622 810.582 76.1794C811.194 77.2968 812.295 77.5406 813.457 77.8047C814.109 78.8206 815.149 79.3285 816.271 79.613C816.862 79.4098 817.372 79.2472 817.963 79.0441C818.392 79.5927 818.615 80.3444 819.512 80.385C819.941 80.2428 820.45 80.0803 820.92 79.9381C821.225 80.2834 821.45 80.5272 821.552 80.6492C822.408 80.7101 823.143 80.5882 823.754 80.8117C825.487 81.4821 827.2 82.2542 829.076 82.4777C829.79 83.006 830.604 83.0465 831.217 82.9449C831.869 83.5545 832.358 84.0218 832.909 84.5297C834.152 84.8141 835.355 85.0986 836.599 85.383C837.619 86.0873 838.761 86.2296 840.025 85.8097C840.861 86.1957 841.738 86.5817 842.573 86.9678C842.961 86.8458 843.287 86.7442 843.369 86.724C844.266 86.8865 844.939 87.0287 845.611 87.1303C846.285 87.2522 846.998 87.2725 847.651 87.4554C848.874 87.8211 850.097 87.7398 851.341 87.7398C851.81 87.7398 852.299 87.7398 852.768 87.7805C853.38 87.8617 853.992 88.0243 854.665 88.1665C855.297 88.715 855.99 89.2839 856.806 89.9747H860.028C860.598 89.4059 861.148 88.7354 862.108 88.837C861.801 89.3652 861.495 89.8731 861.128 90.4826C862.352 91.2749 863.575 91.4578 864.655 91.0311C866.206 91.3156 867.49 91.5594 868.775 91.7829C869.488 91.9049 870.08 92.1689 870.549 92.7581C871.282 93.6928 872.24 93.8959 873.342 93.5505C873.464 93.5099 873.607 93.5505 873.75 93.5708C874.953 94.2819 874.973 94.3022 875.646 94.2413C877.277 94.0991 878.909 93.9975 880.539 94.2819C880.723 94.3226 880.927 94.16 881.091 94.0991C883.088 94.9727 882.415 94.932 885.82 94.4444C886.289 93.9366 886.779 93.3879 887.288 92.8394C888.268 93.1848 888.573 94.16 889.307 94.668C890.062 95.1758 890.817 95.6432 891.591 96.1307C892.183 96.0902 892.814 96.0292 893.263 96.0089C893.874 95.6635 894.343 95.3994 894.71 95.1962C895.607 95.5822 896.362 96.0902 897.137 96.1918C898.319 96.334 899.441 96.6183 900.542 97.0654C901.195 96.7403 901.806 96.4356 902.439 96.1307C903.152 96.4965 903.805 96.8216 904.416 97.1263C906.415 96.8012 908.311 96.5371 910.207 96.72C910.452 96.9841 910.675 97.2279 910.86 97.431C912.633 97.7561 914.264 97.3905 915.814 97.0654C916.508 97.4108 917.119 97.7155 917.669 97.9797C918.24 97.7561 918.668 97.5733 919.035 97.431C920.014 97.5733 920.911 97.7155 921.931 97.8781C922.319 97.6139 922.767 97.3092 923.196 96.9841C923.48 96.7809 923.725 96.4762 924.032 96.4152C924.846 96.273 925.398 95.7651 925.948 95.2369C926.682 94.546 927.517 94.1194 928.578 94.3429C929.516 94.5257 930.332 94.1194 931.168 93.7943C931.493 93.8959 931.82 94.0178 932.228 94.16C933.044 93.5708 933.859 92.9613 934.858 92.2299C935.347 92.1283 936.021 91.9861 936.713 91.8438C936.876 91.6204 937.04 91.4172 937.182 91.1734C937.346 90.9499 937.468 90.7062 937.509 90.6451C938.508 90.5842 939.017 90.828 939.303 91.4985C939.242 91.9454 939.201 92.3721 939.161 92.7378C940.058 92.5956 940.874 92.4737 941.607 92.3518C942.81 93.1441 944.014 93.1848 945.258 92.7785C945.359 92.7378 945.42 92.5752 945.502 92.4737C945.481 91.9861 944.503 91.8438 945.053 91.0311C945.664 91.4172 946.216 91.7829 946.786 92.1283C947.724 91.8845 948.581 91.661 949.437 91.4578C950.13 91.661 950.783 91.8642 951.333 92.047C951.7 91.9049 951.966 91.8032 952.271 91.6813C953.332 92.2502 954.432 92.8394 955.574 93.4692C955.859 93.3677 956.247 93.2457 956.594 93.1035C957.022 93.2864 957.409 93.4286 957.45 93.449C958.205 93.6115 958.469 92.9816 958.938 93.3474C959.021 93.6115 959.102 93.8553 959.183 94.1194C959.693 94.3835 960.182 94.6477 960.57 94.8508C961.508 94.8915 962.323 94.932 963.098 94.9727C963.363 95.3791 963.588 95.7244 963.832 96.0902H965.606C966.034 96.3745 966.544 96.72 967.054 97.0654C967.564 97.0247 968.053 96.9841 968.501 96.9434C969.969 98.1625 971.56 98.0406 973.171 97.5123C973.415 97.7155 973.62 97.8781 973.843 98.0406C974.15 97.7968 974.455 97.553 974.781 97.3092C975.21 97.6748 975.577 97.9999 975.964 98.3453C976.983 98.386 978.023 98.4469 979.023 98.4875C980.062 99.1174 981.061 99.7269 982.203 100.418C983.447 99.5238 984.874 99.5644 986.281 100.011C986.669 99.7269 987.016 99.4831 987.342 99.2393C988.361 99.7676 989.34 99.5034 990.217 99.0158C990.462 99.219 990.604 99.3613 990.767 99.4831C991.828 100.316 992.561 100.275 993.438 99.3002C993.703 98.9955 993.927 98.6704 994.315 98.1625V99.7473C994.621 99.8691 994.866 99.9504 995.151 100.072C995.681 99.7269 996.212 99.4018 996.681 99.0971C997.292 99.0362 997.842 98.9751 998.27 98.9346C999.719 99.3206 1000.72 100.174 1001.72 101.088C1002.47 101.169 1003.25 101.373 1003.98 101.312C1004.63 101.271 1005.29 100.926 1005.88 100.743C1006.98 101.352 1008.22 101.088 1009.32 101.515C1009.79 101.698 1010.4 101.474 1010.93 101.413C1011.32 101.596 1011.69 101.799 1012.05 101.962C1012.12 101.982 1012.2 101.962 1012.26 101.962C1012.58 101.799 1012.89 101.657 1013.18 101.515C1014.62 101.718 1016.07 101.312 1017.42 101.637C1017.74 101.352 1017.99 101.129 1018.19 100.946C1018.52 101.007 1018.76 101.068 1019.01 101.129C1019.46 100.824 1019.84 100.56 1020.11 100.377H1022.98C1023.29 100.641 1023.64 100.966 1023.98 101.271C1024.53 101.19 1025 101.108 1025.47 101.048C1025.94 100.987 1026.47 101.048 1026.9 100.865C1027.29 100.702 1027.59 100.316 1027.92 100.032C1028.47 100.458 1028.63 101.23 1029.55 101.21C1029.83 100.987 1030.2 100.702 1030.63 100.357C1030.98 100.479 1031.36 100.601 1031.85 100.763C1033.1 100.174 1034.32 100.763 1035.46 101.169C1035.89 101.007 1036.2 100.865 1036.54 100.743C1038.25 101.454 1039.97 102.185 1041.86 102.978C1043.31 103.039 1045 102.754 1046.35 103.506C1047.82 103.587 1048.82 102.998 1049.67 102.287C1050.16 102.51 1050.55 102.673 1050.9 102.815C1051.45 102.571 1051.94 102.246 1052.47 102.145C1054.1 101.84 1055.44 101.048 1056.61 99.9301C1057.12 100.093 1057.57 100.316 1058.03 100.377C1058.58 100.438 1059.14 100.377 1059.69 100.336C1060.34 100.316 1060.93 100.438 1061.44 100.844C1061.76 101.088 1062.09 101.352 1062.15 101.413C1064.07 101.86 1065.67 102.226 1067.24 102.592C1067.74 102.307 1068.15 102.043 1068.59 101.84C1069.09 101.616 1069.12 100.865 1069.75 100.783C1070.33 101.799 1068.9 102.145 1069.09 103.1C1069.27 103.201 1069.49 103.404 1069.73 103.465C1071.28 103.811 1072.83 104.156 1074.4 104.441C1074.71 104.501 1075.06 104.258 1075.38 104.197C1075.51 104.176 1075.65 104.197 1075.77 104.217C1075.97 104.4 1076.18 104.583 1076.36 104.745C1078.98 105.355 1081.42 104.725 1083.85 103.953C1084.09 104.258 1084.32 104.522 1084.54 104.786C1084.68 104.786 1084.81 104.827 1084.94 104.827C1086.25 104.887 1087.58 104.623 1088.84 105.05C1089.82 105.375 1090.8 105.741 1091.77 106.086C1092.21 105.944 1092.66 105.781 1092.94 105.68C1093.58 106.025 1094.04 106.289 1094.53 106.554C1095.49 106.208 1096.24 107 1097.18 107.102C1097.73 107 1098.34 106.879 1098.88 106.757C1099.82 106.94 1100.5 107.326 1101.13 107.935C1101.63 108.402 1102.24 108.809 1102.87 109.032C1103.62 109.296 1104.44 109.357 1105.23 109.52C1105.75 109.134 1106.26 108.768 1106.76 108.402L1106.74 108.382C1106.56 109.093 1106.38 109.824 1106.19 110.597C1107.19 111.328 1108.44 111.226 1109.46 111.47C1110.23 111.836 1110.74 112.486 1111.7 112.425C1112.04 112.222 1112.45 111.998 1112.84 111.795C1113.46 111.795 1114.05 111.937 1114.53 111.755C1115.12 111.551 1115.62 111.673 1116.04 111.836C1118.19 111.206 1120.27 110.779 1122.32 110.658C1124.08 111.165 1125.73 111.531 1127.46 110.962C1127.64 111.247 1127.82 111.511 1128.03 111.836C1128.4 111.531 1128.71 111.267 1128.95 111.064C1130.35 111.104 1131.38 111.795 1132.4 112.527C1132.82 112.364 1133.21 112.222 1133.64 112.059C1134.74 112.852 1135.89 113.563 1137.27 113.583C1137.59 113.096 1137.39 112.852 1137.11 112.608C1136.9 112.425 1136.7 112.242 1136.48 112.059C1136.21 111.836 1135.94 111.612 1135.65 111.43C1135.43 111.287 1135.17 111.186 1134.93 111.044C1134.64 110.881 1134.21 110.922 1134.15 110.475C1135 110.42 1136.21 110.928 1137.77 111.998C1138.25 112.811 1138.64 113.746 1139.67 114.05C1140.06 113.929 1140.45 113.786 1140.8 113.685C1140.98 113.786 1141.13 113.827 1141.2 113.929C1142.11 114.802 1143.05 114.782 1144.01 114.071C1144.38 113.807 1144.73 113.725 1145.16 113.644C1145.93 113.482 1146.32 112.974 1146.22 112.181C1145.77 111.714 1145.34 111.287 1144.93 110.861C1145.06 110.637 1145.1 110.475 1145.2 110.414C1145.38 110.332 1145.6 110.272 1145.79 110.312C1146.95 110.475 1147.79 111.206 1148.61 111.998C1148.66 112.323 1148.73 112.649 1148.79 113.055C1149.27 113.36 1149.79 113.705 1150.03 113.868C1151.08 114.05 1151.8 114.172 1152.68 114.335C1153.07 114.213 1153.61 114.071 1154.13 113.908C1154.74 114.111 1155.33 114.335 1155.92 114.518C1156.05 114.558 1156.19 114.498 1156.51 114.457C1156.7 114.172 1156.97 113.786 1157.23 113.38C1157.8 113.624 1158.19 113.766 1158.56 113.929C1158.92 114.111 1159.27 114.335 1159.5 114.457H1161.08C1161.69 113.908 1162.39 113.583 1163.19 113.563C1164 113.543 1164.83 113.563 1165.7 113.563C1166.14 113.868 1166.59 114.172 1167.06 114.518C1167.6 114.396 1168.14 114.254 1168.52 114.172C1169.32 114.558 1170 114.863 1170.69 115.188C1170.81 114.863 1170.91 114.619 1171.03 114.294C1171.55 114.213 1172.07 114.111 1172.44 114.05C1173.18 114.538 1172.95 115.554 1173.86 115.737C1174.17 115.513 1174.48 115.29 1174.95 114.965C1175.03 115.473 1175.03 115.859 1175.13 116.245C1175.24 116.631 1175.41 116.997 1175.6 117.423C1177.27 117.687 1178.92 117.789 1180.67 117.708C1180.82 117.464 1181 117.179 1181.13 116.956C1180.82 116.529 1180.6 116.224 1180.35 115.879C1181.14 115.622 1181.75 115.588 1182.19 115.777C1183.25 116.245 1184.33 116.732 1185.41 117.179C1185.78 117.322 1186.21 117.403 1186.61 117.423C1187.65 117.504 1188.7 117.565 1189.71 117.606C1190.38 117.626 1191.06 117.606 1191.91 117.606C1192.28 117.89 1192.81 118.317 1193.4 118.764C1194.48 118.48 1195.53 118.195 1196.58 117.911C1197.28 118.459 1197.67 119.374 1198.74 119.658C1199.13 119.556 1199.62 119.435 1200.13 119.292C1200.62 120.308 1201.05 121.243 1201.49 122.177C1201.53 122.259 1201.75 122.279 1201.99 122.38C1202.34 121.954 1202.68 121.507 1202.99 121.121C1203.76 121.141 1204.19 121.426 1204.35 122.035C1204.52 122.604 1204.84 123.01 1205.43 123.153C1205.81 123.01 1206.18 122.888 1206.55 122.766C1206.92 123.071 1207.25 123.335 1207.51 123.579C1208.04 123.64 1208.51 123.742 1209 123.762C1209.47 123.762 1209.94 123.701 1210.43 123.66C1210.69 123.132 1210.92 122.685 1211.16 122.198C1211.33 122.543 1211.42 122.787 1211.55 123.031H1213.57C1214.85 123.803 1216.26 124.067 1217.59 124.534C1217.89 124.067 1218.14 123.701 1218.38 123.335C1218.97 123.782 1219.4 124.29 1219.97 124.534C1221.76 125.327 1223.64 125.753 1225.62 125.672C1226.74 125.611 1227.82 125.672 1228.7 126.18C1230.71 125.713 1232.59 125.286 1234.57 124.839C1234.87 124.636 1235.26 124.351 1235.63 124.107H1237.32C1237.79 123.721 1238.2 123.376 1238.59 123.071C1239.15 123.031 1239.63 122.97 1240.11 122.97C1240.85 122.97 1241.46 122.746 1241.99 122.238C1242.07 122.157 1242.23 122.198 1242.36 122.177C1242.77 122.604 1242.82 123.376 1243.56 123.498C1243.82 123.396 1244.07 123.315 1244.15 123.274C1244.8 123.498 1245.31 123.681 1245.76 123.823C1246.68 123.376 1247.38 122.685 1248.54 122.888C1249.63 123.64 1250.98 124.087 1252.51 124.006C1252.84 123.539 1253.14 123.112 1253.51 122.604C1254.41 122.949 1255.22 123.254 1256 123.539C1256.22 123.274 1256.41 123.071 1256.65 122.787C1257.55 123.66 1258.55 124.067 1259.58 124.006C1260.4 123.356 1261.15 122.766 1261.76 122.279H1262.99C1263.44 121.913 1263.87 121.568 1264.29 121.222H1265.97V120.146C1267.07 120.227 1267.83 121.283 1268.98 121.019C1269.53 120.369 1269.66 119.556 1269.76 118.723C1269.76 118.642 1269.9 118.602 1269.99 118.52C1270.19 118.906 1270.38 119.272 1270.53 119.597C1271.23 119.8 1271.88 119.983 1272.61 120.186C1273.02 119.394 1273.43 118.622 1273.88 117.769C1276.31 118.459 1278.83 118.5 1281.47 118.683C1281.42 118.094 1281.38 117.606 1281.36 117.139L1281.34 117.159C1281.77 117.22 1282.18 117.322 1282.4 117.708C1282.73 118.276 1283.26 118.52 1283.79 118.866C1284.73 119.475 1285.91 119.475 1286.62 120.085C1287.75 120.166 1288.69 120.227 1289.8 120.288C1290.02 120.186 1290.39 120.024 1290.76 119.861C1291.39 120.186 1292.01 120.491 1292.64 120.796C1293.05 120.552 1293.4 120.349 1293.76 120.146C1293.84 119.272 1293.92 118.459 1294.01 117.667C1294.25 118.337 1294.27 119.008 1294.34 119.658C1294.37 119.983 1294.41 120.369 1294.71 120.45C1295.91 119.942 1297 119.455 1298.02 119.028C1298.55 119.333 1298.98 119.556 1299.43 119.8C1299.64 119.597 1299.77 119.455 1299.94 119.272C1300.3 119.353 1300.75 119.475 1301.24 119.577C1301.51 119.292 1301.76 119.048 1301.98 118.805C1302.14 118.906 1302.28 119.008 1302.44 119.11C1302.63 118.906 1302.81 118.723 1302.98 118.541C1303.42 118.642 1303.81 118.744 1304.16 118.825C1304.49 118.419 1304.73 118.114 1305.03 117.728C1305.42 117.87 1305.79 118.012 1306.14 118.134C1306.99 117.972 1307.81 117.809 1308.38 117.687C1309.42 117.017 1310.29 116.468 1311.15 115.92C1311.19 115.595 1311.23 115.27 1311.27 114.863C1311.54 115.005 1311.8 115.046 1311.89 115.188C1312.13 115.656 1312.3 116.163 1312.5 116.651C1313.05 116.326 1313.32 116.997 1313.76 117.017C1313.91 116.712 1314.07 116.407 1314.22 116.123C1314.98 115.981 1315.7 115.838 1316.38 115.716C1316.7 116.001 1316.95 116.224 1317.19 116.428C1318.21 115.412 1319.26 114.782 1320.61 114.538C1322.04 114.294 1323.41 113.847 1324.91 113.461C1325.12 112.953 1325.35 112.405 1325.61 111.755C1326.2 111.877 1326.71 111.978 1327.29 112.08C1327.51 111.511 1327.71 110.962 1327.95 110.353C1329.12 110.434 1329.6 111.633 1330.59 111.775C1330.74 112.202 1330.87 112.506 1331 112.852C1332.07 112.974 1333.07 113.238 1334.1 112.73C1334.6 112.852 1335.15 112.953 1335.62 113.075C1336.28 112.811 1336.85 112.567 1337.42 112.344C1338.03 111.775 1338.64 111.206 1339.35 110.536C1339.6 110.475 1340.01 110.373 1340.36 110.292C1340.8 110.454 1341.17 110.597 1341.52 110.718C1342.13 110.414 1342.68 110.15 1343.2 109.906C1343.55 110.17 1343.81 110.373 1344.07 110.576C1344.4 110.434 1344.71 110.312 1345.04 110.15C1345.32 110.007 1345.38 109.52 1345.86 109.642C1346.25 110.21 1346.1 111.247 1347.24 111.186C1347.37 110.881 1347.5 110.597 1347.65 110.251C1348.37 110.251 1348.81 110.597 1348.96 111.308L1348.85 111.389L1348.94 111.287C1349.26 111.186 1349.59 111.084 1349.92 110.983C1350.2 110.678 1350.46 110.393 1350.71 110.15C1351.91 110.488 1352.78 110.928 1353.36 111.47C1352.47 112.059 1351.73 110.84 1350.86 111.226C1351.91 112.567 1352.08 112.649 1354 112.75C1354.24 112.486 1354.46 112.242 1354.72 111.958C1355.68 112.263 1356.58 112.547 1357.45 112.831C1358.76 112.08 1360 111.348 1361.42 110.536C1361.88 110.556 1362.53 110.597 1363.31 110.637C1363.04 109.804 1363.71 110.048 1364 109.824C1364.37 109.54 1364.65 109.174 1364.96 108.89C1365.85 109.378 1366.63 109.804 1367.37 110.19C1367.75 110.028 1368.08 109.906 1368.27 109.824C1369.25 110.007 1369.91 110.495 1370.61 110.983C1370.83 111.145 1371.22 111.125 1371.61 111.206C1371.92 110.129 1372.71 109.378 1372.53 108.26C1372.77 108.301 1372.94 108.28 1373.01 108.362C1373.93 109.052 1374.81 108.951 1375.65 108.199C1376.26 107.651 1376.87 107.082 1377.5 106.554C1377.59 106.472 1377.77 106.492 1378.03 106.411C1378.18 106.635 1378.33 106.879 1378.52 107.183C1378.01 107.793 1377.5 108.28 1377.15 108.849C1376.76 109.459 1376.09 109.886 1375.85 110.637C1376.72 110.983 1377.48 111.267 1378.22 111.551C1379.2 111.43 1379.93 110.962 1380.5 110.292C1382.21 110.495 1383.72 109.946 1385.23 109.52C1385.58 109.154 1385.9 108.809 1386.23 108.484C1388.11 108.402 1389.86 109.235 1391.82 108.585C1392.12 108.219 1392.53 107.773 1392.93 107.285C1392.71 106.797 1392.53 106.35 1392.32 105.924L1392.3 105.944C1393.18 106.025 1393.8 106.594 1394.11 106.858C1395.38 107.265 1396.28 107.529 1397.21 107.833C1397.89 107.59 1398.65 107.204 1399.42 107.082C1400.22 106.94 1401.03 107.061 1401.95 107.061C1402.07 106.696 1402.19 106.31 1402.32 105.944L1402.29 105.964C1402.66 106.269 1403.03 106.574 1403.4 106.858C1403.97 106.554 1404.52 106.269 1405.02 105.944C1405.54 105.639 1406.05 105.294 1406.52 104.989C1406.94 105.152 1407.47 105.07 1407.44 105.416C1407.23 106.147 1406.33 105.741 1406.42 106.614C1406.96 106.716 1407.55 106.818 1408.1 106.919C1408.31 106.655 1408.43 106.513 1408.56 106.35C1408.82 106.127 1409.06 105.903 1409.35 105.7C1409.43 105.639 1409.58 105.639 1409.71 105.599C1409.93 105.944 1410.1 106.35 1410.76 106.147C1410.84 105.985 1410.96 105.741 1411.09 105.517C1411.29 105.355 1411.5 105.192 1411.7 105.009C1412.14 105.822 1412.55 106.533 1412.98 107.265C1413.25 107.346 1413.53 107.386 1413.75 107.508C1413.98 107.651 1414.12 107.874 1414.36 108.138C1414.8 107.773 1415.19 107.407 1415.65 107C1416.41 107.691 1417.1 108.362 1417.81 108.992C1418.05 109.195 1418.36 109.317 1418.73 109.52C1419.01 109.073 1419.22 108.727 1419.44 108.382H1419.42C1420.14 108.829 1420.85 109.215 1421.73 108.992C1422.67 108.199 1423.61 107.427 1424.58 106.594C1424.85 106.635 1425.18 106.696 1425.48 106.757C1425.75 106.533 1426.01 106.35 1426.34 106.066C1426.84 107.061 1427.7 107.061 1428.54 107.122C1429.64 107.183 1430.72 107.244 1432.27 107.326C1432.9 107.244 1433.92 106.574 1435 107.224C1435.74 106.96 1436.43 106.696 1437.16 106.432C1437.6 106.899 1437.95 107.305 1438.3 107.691C1438.82 107.915 1439.32 108.118 1439.83 108.341L1439.94 108.565ZM1374.03 110.901C1374.12 111.348 1374.42 111.43 1374.79 111.328C1374.85 111.328 1374.93 111.064 1374.89 111.003C1374.65 110.718 1374.36 110.556 1374.03 110.901ZM887.391 94.4038C887.391 94.4038 887.554 94.546 887.635 94.607C887.676 94.5664 887.738 94.4648 887.738 94.4648C887.655 94.3835 887.574 94.3226 887.493 94.2617C887.452 94.3022 887.411 94.3632 887.391 94.4038ZM1098.53 108.098C1098.53 108.098 1098.42 108.098 1098.36 108.098C1098.4 108.179 1098.42 108.26 1098.47 108.341C1098.51 108.321 1098.59 108.28 1098.59 108.26C1098.59 108.219 1098.55 108.159 1098.53 108.098Z" fill="#202426"/>
</svg>
