 <svg
      width="67"
      height="16"
      viewBox="0 0 67 16"
      fill="none"
      xmlns="http://www.w3.org/2000/svg"
    >
      <g clip-path="url(#clip0_13847_33062)">
        <g clip-path="url(#clip1_13847_33062)">
          <path
            d="M15.0488 0L13.7689 14.3983L8.01579 16L2.27852 14.4006L1 0H15.0488Z"
            fill="#264DE4"
          />
          <path
            d="M12.6722 13.4813L13.766 1.17725H8.02344V14.7755L12.6722 13.4813Z"
            fill="#1ABCFE"
          />
          <path
            d="M3.93164 6.51855L4.08927 8.28471H8.02504V6.51855H3.93164Z"
            fill="#EBEBEB"
          />
          <path
            d="M8.02537 2.94336H8.01929H3.61523L3.77511 4.70955H8.02537V2.94336Z"
            fill="#EBEBEB"
          />
          <path
            d="M8.02515 12.9427V11.1052L8.01745 11.1072L6.0587 10.5761L5.93349 9.16748H4.98169H4.16797L4.41437 11.9406L8.01706 12.945L8.02515 12.9427Z"
            fill="#EBEBEB"
          />
          <path
            d="M10.1833 8.28429L9.97915 10.5749L8.01758 11.1066V12.944L11.6231 11.9405L11.6496 11.6422L12.0629 6.9924L12.1058 6.51814L12.4233 2.94336H8.01758V4.70955H10.4958L10.3358 6.51814H8.01758V8.28429H10.1833Z"
            fill="#FBF8E6"
          />
        </g>
      </g>
      <path
        d="M29.3525 5.80469H28.1292C28.0568 5.45282 27.9302 5.1437 27.7494 4.87733C27.5718 4.61096 27.3547 4.38734 27.0982 4.20648C26.845 4.02232 26.5638 3.8842 26.2547 3.79213C25.9456 3.70005 25.6233 3.65401 25.2879 3.65401C24.6762 3.65401 24.1221 3.80857 23.6256 4.11769C23.1323 4.42681 22.7393 4.88226 22.4466 5.48406C22.1573 6.08585 22.0126 6.82412 22.0126 7.69886C22.0126 8.5736 22.1573 9.31187 22.4466 9.91367C22.7393 10.5155 23.1323 10.9709 23.6256 11.28C24.1221 11.5892 24.6762 11.7437 25.2879 11.7437C25.6233 11.7437 25.9456 11.6977 26.2547 11.6056C26.5638 11.5135 26.845 11.3771 27.0982 11.1962C27.3547 11.012 27.5718 10.7868 27.7494 10.5204C27.9302 10.2507 28.0568 9.94162 28.1292 9.59304H29.3525C29.2604 10.1093 29.0927 10.5714 28.8494 10.9791C28.606 11.3869 28.3035 11.7339 27.9417 12.02C27.58 12.3028 27.1739 12.5182 26.7233 12.6661C26.2761 12.8141 25.7976 12.8881 25.2879 12.8881C24.4263 12.8881 23.6601 12.6777 22.9892 12.2567C22.3184 11.8358 21.7906 11.2373 21.4058 10.4612C21.0211 9.68512 20.8287 8.76434 20.8287 7.69886C20.8287 6.63339 21.0211 5.71261 21.4058 4.93652C21.7906 4.16044 22.3184 3.56193 22.9892 3.141C23.6601 2.72007 24.4263 2.50961 25.2879 2.50961C25.7976 2.50961 26.2761 2.5836 26.7233 2.73158C27.1739 2.87957 27.58 3.09661 27.9417 3.38271C28.3035 3.66552 28.606 4.01081 28.8494 4.41858C29.0927 4.82307 29.2604 5.2851 29.3525 5.80469ZM36.854 5.1733C36.7948 4.67344 36.5547 4.2854 36.1338 4.00917C35.7129 3.73293 35.1966 3.59481 34.5849 3.59481C34.1377 3.59481 33.7463 3.66716 33.4109 3.81186C33.0788 3.95655 32.819 4.1555 32.6315 4.40872C32.4474 4.66193 32.3553 4.94968 32.3553 5.27195C32.3553 5.54161 32.4194 5.77345 32.5477 5.96747C32.6792 6.1582 32.8469 6.31769 33.0508 6.44594C33.2547 6.57091 33.4685 6.6745 33.6921 6.75671C33.9157 6.83563 34.1212 6.89976 34.3087 6.94909L35.3347 7.22532C35.5978 7.29438 35.8904 7.38974 36.2127 7.51142C36.5383 7.63309 36.849 7.79916 37.145 8.00963C37.4443 8.2168 37.6909 8.48317 37.8849 8.80873C38.0789 9.13429 38.176 9.53385 38.176 10.0074C38.176 10.5533 38.0329 11.0466 37.7468 11.4872C37.464 11.9279 37.0496 12.2781 36.5037 12.5379C35.9611 12.7977 35.3018 12.9276 34.5257 12.9276C33.8022 12.9276 33.1758 12.8108 32.6463 12.5774C32.1202 12.3439 31.7058 12.0183 31.4033 11.6007C31.104 11.183 30.9347 10.698 30.8952 10.1455H32.158C32.1909 10.527 32.3191 10.8427 32.5428 11.0926C32.7697 11.3392 33.0558 11.5234 33.401 11.6451C33.7496 11.7634 34.1245 11.8226 34.5257 11.8226C34.9927 11.8226 35.412 11.747 35.7836 11.5957C36.1552 11.4412 36.4495 11.2274 36.6665 10.9545C36.8836 10.6782 36.9921 10.356 36.9921 9.98766C36.9921 9.65223 36.8984 9.37929 36.7109 9.16882C36.5235 8.95836 36.2768 8.78736 35.971 8.65582C35.6652 8.52428 35.3347 8.40918 34.9795 8.31052L33.7365 7.95537C32.9472 7.72846 32.3224 7.40454 31.862 6.98361C31.4016 6.56269 31.1714 6.01186 31.1714 5.33114C31.1714 4.76552 31.3244 4.27225 31.6302 3.85132C31.9393 3.4271 32.3537 3.09825 32.8732 2.86477C33.3961 2.628 33.9798 2.50961 34.6244 2.50961C35.2755 2.50961 35.8543 2.62635 36.3607 2.85984C36.8671 3.09003 37.2683 3.40573 37.5643 3.80692C37.8635 4.20812 38.0214 4.66358 38.0378 5.1733H36.854ZM45.712 5.1733C45.6528 4.67344 45.4127 4.2854 44.9918 4.00917C44.5709 3.73293 44.0546 3.59481 43.4429 3.59481C42.9957 3.59481 42.6043 3.66716 42.2689 3.81186C41.9368 3.95655 41.677 4.1555 41.4895 4.40872C41.3054 4.66193 41.2133 4.94968 41.2133 5.27195C41.2133 5.54161 41.2774 5.77345 41.4057 5.96747C41.5372 6.1582 41.7049 6.31769 41.9088 6.44594C42.1127 6.57091 42.3265 6.6745 42.5501 6.75671C42.7737 6.83563 42.9792 6.89976 43.1667 6.94909L44.1927 7.22532C44.4558 7.29438 44.7484 7.38974 45.0707 7.51142C45.3963 7.63309 45.707 7.79916 46.003 8.00963C46.3022 8.2168 46.5489 8.48317 46.7429 8.80873C46.9369 9.13429 47.0339 9.53385 47.0339 10.0074C47.0339 10.5533 46.8909 11.0466 46.6048 11.4872C46.322 11.9279 45.9076 12.2781 45.3617 12.5379C44.8191 12.7977 44.1598 12.9276 43.3837 12.9276C42.6602 12.9276 42.0338 12.8108 41.5043 12.5774C40.9782 12.3439 40.5638 12.0183 40.2613 11.6007C39.962 11.183 39.7927 10.698 39.7532 10.1455H41.016C41.0489 10.527 41.1771 10.8427 41.4007 11.0926C41.6276 11.3392 41.9137 11.5234 42.259 11.6451C42.6076 11.7634 42.9825 11.8226 43.3837 11.8226C43.8507 11.8226 44.27 11.747 44.6416 11.5957C45.0132 11.4412 45.3075 11.2274 45.5245 10.9545C45.7416 10.6782 45.8501 10.356 45.8501 9.98766C45.8501 9.65223 45.7564 9.37929 45.5689 9.16882C45.3815 8.95836 45.1348 8.78736 44.829 8.65582C44.5232 8.52428 44.1927 8.40918 43.8375 8.31052L42.5945 7.95537C41.8052 7.72846 41.1804 7.40454 40.72 6.98361C40.2596 6.56269 40.0294 6.01186 40.0294 5.33114C40.0294 4.76552 40.1823 4.27225 40.4882 3.85132C40.7973 3.4271 41.2116 3.09825 41.7312 2.86477C42.2541 2.628 42.8378 2.50961 43.4824 2.50961C44.1335 2.50961 44.7123 2.62635 45.2187 2.85984C45.7251 3.09003 46.1263 3.40573 46.4223 3.80692C46.7215 4.20812 46.8794 4.66358 46.8958 5.1733H45.712ZM52.2812 12.8881C51.63 12.8881 51.0496 12.7763 50.5399 12.5527C50.0335 12.3291 49.6306 12.0183 49.3314 11.6204C49.0354 11.2192 48.8743 10.7539 48.848 10.2244H50.091C50.1173 10.55 50.2291 10.8312 50.4264 11.0679C50.6237 11.3014 50.8819 11.4823 51.2009 11.6105C51.5199 11.7388 51.8734 11.8029 52.2614 11.8029C52.6955 11.8029 53.0803 11.7273 53.4157 11.576C53.7511 11.4247 54.0142 11.2143 54.2049 10.9446C54.3957 10.675 54.491 10.3625 54.491 10.0074C54.491 9.63579 54.3989 9.30858 54.2148 9.02577C54.0306 8.73967 53.761 8.51606 53.4058 8.35492C53.0507 8.19378 52.6166 8.11321 52.1036 8.11321H51.2946V7.02801H52.1036C52.5048 7.02801 52.8566 6.95566 53.1592 6.81097C53.465 6.66627 53.7034 6.46239 53.8744 6.19931C54.0487 5.93623 54.1359 5.62711 54.1359 5.27195C54.1359 4.92995 54.0602 4.63234 53.909 4.37912C53.7577 4.12591 53.5439 3.9286 53.2677 3.78719C52.9948 3.64579 52.6725 3.57508 52.3009 3.57508C51.9523 3.57508 51.6235 3.63921 51.3143 3.76746C51.0085 3.89242 50.7586 4.07494 50.5646 4.315C50.3705 4.55177 50.2653 4.83787 50.2489 5.1733H49.065C49.0847 4.64385 49.2442 4.18017 49.5435 3.78226C49.8427 3.38106 50.2341 3.06865 50.7175 2.84504C51.2042 2.62142 51.7385 2.50961 52.3206 2.50961C52.9454 2.50961 53.4815 2.63622 53.9287 2.88943C54.3759 3.13936 54.7196 3.46985 54.9596 3.88091C55.1997 4.29198 55.3197 4.73592 55.3197 5.21276C55.3197 5.78167 55.1701 6.26672 54.8708 6.66792C54.5749 7.06912 54.172 7.34699 53.6623 7.50155V7.58048C54.3003 7.68571 54.7985 7.95701 55.1569 8.39438C55.5154 8.82846 55.6946 9.36613 55.6946 10.0074C55.6946 10.5566 55.545 11.0498 55.2457 11.4872C54.9498 11.9213 54.5453 12.2633 54.0323 12.5132C53.5193 12.7632 52.9356 12.8881 52.2812 12.8881Z"
        fill="#FBF8E6"
      />
      <defs>
        <clipPath id="clip0_13847_33062">
          <rect width="16" height="16" fill="white" />
        </clipPath>
        <clipPath id="clip1_13847_33062">
          <rect width="16" height="16" fill="white" />
        </clipPath>
      </defs>
    </svg>