<svg width="179" height="176" viewBox="0 0 179 176" fill="none" xmlns="http://www.w3.org/2000/svg">
<path fill-rule="evenodd" clip-rule="evenodd" d="M89.1213 68.052L103.644 73.3591L111.371 86.797L108.688 102.078L96.8487 112.052H81.394L69.555 102.078L66.8713 86.797L74.5987 73.3591L89.1213 68.052ZM76.5305 75.6706L89.1213 71.0695L101.712 75.6706L108.412 87.321L106.085 100.569L95.8208 109.217H82.4219L72.1578 100.569L69.8311 87.321L76.5305 75.6706Z" fill="url(#paint0_radial_14908_24009)"/>
<path fill-rule="evenodd" clip-rule="evenodd" d="M110.905 64.6706L89.1213 56.71L67.3374 64.6706L55.7463 84.8275L59.7719 107.749L77.5303 122.71H100.712L118.471 107.749L122.496 84.8275L110.905 64.6706ZM89.1213 59.7275L69.2692 66.9821L58.7061 85.3514L62.3746 106.24L78.5582 119.875H99.6844L115.868 106.24L119.537 85.3514L108.973 66.9821L89.1213 59.7275Z" fill="url(#paint1_radial_14908_24009)"/>
<path fill-rule="evenodd" clip-rule="evenodd" d="M89.1213 45.368L118.167 55.9821L133.621 82.858L128.254 113.42L104.576 133.368H73.6666L49.9887 113.42L44.6213 82.858L60.076 55.9821L89.1213 45.368ZM62.0079 58.2936L89.1213 48.3855L116.235 58.2936L130.662 83.3819L125.651 111.911L103.548 130.533H74.6946L52.5914 111.911L47.5811 83.3819L62.0079 58.2936Z" fill="url(#paint2_radial_14908_24009)"/>
<path fill-rule="evenodd" clip-rule="evenodd" d="M125.428 47.2936L89.1213 34.026L52.8147 47.2936L33.4963 80.8884L40.2055 119.091L69.803 144.026H108.44L138.037 119.091L144.746 80.8884L125.428 47.2936ZM89.1213 37.0435L54.7465 49.6052L36.4561 81.4124L42.8083 117.582L70.8309 141.191H107.412L135.434 117.582L141.787 81.4124L123.496 49.6052L89.1213 37.0435Z" fill="url(#paint3_radial_14908_24009)"/>
<path fill-rule="evenodd" clip-rule="evenodd" d="M89.1213 22.684L132.689 38.6052L155.871 78.9189L147.82 124.762L112.303 154.684H65.9393L30.4224 124.762L22.3713 78.9189L45.5534 38.6052L89.1213 22.684ZM47.4852 40.9167L89.1213 25.7015L130.757 40.9167L152.912 79.4429L145.218 123.253L111.275 151.848H66.9672L33.0251 123.253L25.3311 79.4429L47.4852 40.9167Z" fill="url(#paint4_radial_14908_24009)"/>
<path fill-rule="evenodd" clip-rule="evenodd" d="M139.951 29.9167L89.1213 11.342L38.292 29.9167L11.2463 76.9494L20.6392 130.433L62.0756 165.342H116.167L157.603 130.433L166.996 76.9494L139.951 29.9167ZM89.1213 14.3595L40.2239 32.2282L14.2061 77.4734L23.242 128.924L63.1035 162.507H115.139L155.001 128.924L164.037 77.4734L138.019 32.2282L89.1213 14.3595Z" fill="url(#paint5_radial_14908_24009)"/>
<path fill-rule="evenodd" clip-rule="evenodd" d="M147.212 21.2282L89.1213 0L31.0307 21.2282L0.121338 74.9799L10.8561 136.104L58.212 176H120.031L167.387 136.104L178.121 74.9799L147.212 21.2282ZM89.1213 3.01748L32.9625 23.5397L3.08108 75.5039L13.4588 134.595L59.2399 173.164H119.003L164.784 134.595L175.162 75.5039L145.28 23.5397L89.1213 3.01748Z" fill="url(#paint6_radial_14908_24009)"/>
<defs>
<radialGradient id="paint0_radial_14908_24009" cx="0" cy="0" r="1" gradientUnits="userSpaceOnUse" gradientTransform="translate(82.2085 64.1277) rotate(72.9807) scale(134.58 135.65)">
<stop offset="1" stop-color="#202426"/>
<stop offset="1" stop-color="#FBF8E6"/>
</radialGradient>
<radialGradient id="paint1_radial_14908_24009" cx="0" cy="0" r="1" gradientUnits="userSpaceOnUse" gradientTransform="translate(82.2085 64.1277) rotate(72.9807) scale(134.58 135.65)">
<stop offset="1" stop-color="#202426"/>
<stop offset="1" stop-color="#FBF8E6"/>
</radialGradient>
<radialGradient id="paint2_radial_14908_24009" cx="0" cy="0" r="1" gradientUnits="userSpaceOnUse" gradientTransform="translate(82.2085 64.1277) rotate(72.9807) scale(134.58 135.65)">
<stop offset="1" stop-color="#202426"/>
<stop offset="1" stop-color="#FBF8E6"/>
</radialGradient>
<radialGradient id="paint3_radial_14908_24009" cx="0" cy="0" r="1" gradientUnits="userSpaceOnUse" gradientTransform="translate(82.2085 64.1277) rotate(72.9807) scale(134.58 135.65)">
<stop offset="1" stop-color="#202426"/>
<stop offset="1" stop-color="#FBF8E6"/>
</radialGradient>
<radialGradient id="paint4_radial_14908_24009" cx="0" cy="0" r="1" gradientUnits="userSpaceOnUse" gradientTransform="translate(82.2085 64.1277) rotate(72.9807) scale(134.58 135.65)">
<stop offset="1" stop-color="#202426"/>
<stop offset="1" stop-color="#FBF8E6"/>
</radialGradient>
<radialGradient id="paint5_radial_14908_24009" cx="0" cy="0" r="1" gradientUnits="userSpaceOnUse" gradientTransform="translate(82.2085 64.1277) rotate(72.9807) scale(134.58 135.65)">
<stop offset="1" stop-color="#202426"/>
<stop offset="1" stop-color="#FBF8E6"/>
</radialGradient>
<radialGradient id="paint6_radial_14908_24009" cx="0" cy="0" r="1" gradientUnits="userSpaceOnUse" gradientTransform="translate(82.2085 64.1277) rotate(72.9807) scale(134.58 135.65)">
<stop offset="1" stop-color="#202426"/>
<stop offset="1" stop-color="#FBF8E6"/>
</radialGradient>
</defs>
</svg>
