<svg width="86" height="24" viewBox="0 0 86 24" fill="none" xmlns="http://www.w3.org/2000/svg">
<path d="M15.9643 17.1993C15.9502 17.1865 15.9331 17.1775 15.9145 17.1733C15.896 17.1691 15.8767 17.1698 15.8585 17.1753C15.0221 15.937 13.9582 14.7627 12.9283 13.6285L12.7586 13.4424C12.7586 13.4204 12.7486 13.4004 12.7347 13.3824C12.7178 13.3611 12.6936 13.3468 12.6668 13.3424L12.6329 13.3064L12.6089 13.2884C12.579 13.2244 12.5031 13.1764 12.4193 13.2184C12.1039 13.3804 11.8205 13.6125 11.541 13.8265C11.1678 14.1126 10.8025 14.4107 10.4592 14.7307C10.3195 14.8608 10.1817 14.9968 10.066 15.1488C10.0101 15.2229 10.052 15.2929 10.1199 15.3229C9.87633 15.5629 9.63082 15.813 9.38531 16.0711C9.36335 16.0951 9.35138 16.1271 9.35337 16.1591C9.35537 16.1911 9.37134 16.2211 9.39728 16.2411L9.82843 16.5712C9.82843 16.5712 9.83042 16.5772 9.83442 16.5792C10.4512 17.1893 11.533 18.0355 12.6788 18.9317C12.8484 19.0658 13.0201 19.1998 13.1918 19.3338C13.2696 19.4279 13.3435 19.5219 13.4153 19.6139C13.4532 19.6639 13.5251 19.6739 13.575 19.6359C13.6009 19.6559 13.6269 19.6779 13.6528 19.6979C13.6646 19.7071 13.6781 19.7139 13.6925 19.7179C13.7069 19.7218 13.722 19.7229 13.7368 19.7211C13.7516 19.7192 13.766 19.7145 13.779 19.707C13.7919 19.6996 13.8033 19.6897 13.8125 19.6779C13.8265 19.6599 13.8325 19.6379 13.8345 19.6159C13.8425 19.6159 13.8485 19.6219 13.8544 19.6219C13.8844 19.6219 13.9163 19.6099 13.9383 19.5859L15.9702 17.3614C15.9804 17.3504 15.9882 17.3375 15.9933 17.3235C15.9984 17.3095 16.0006 17.2946 15.9999 17.2797C15.9991 17.2648 15.9954 17.2501 15.9889 17.2367C15.9825 17.2232 15.9734 17.2112 15.9623 17.2013L15.9643 17.1993ZM10.1298 16.4291C10.1438 16.4471 10.1578 16.4632 10.1717 16.4792C10.4033 16.6752 10.6508 16.8873 10.9023 17.1033L9.88033 16.3211C9.88033 16.3211 9.81645 16.2771 9.77653 16.2491C9.75457 16.2331 9.73461 16.2171 9.71465 16.2011L9.63881 16.1371C9.63881 16.1371 9.65278 16.1231 9.65877 16.1151L9.72863 16.0451C10.0719 15.697 10.6608 15.1168 10.9642 14.8328C10.6428 15.1568 9.9921 16.1071 10.1318 16.4291H10.1298ZM13.6289 19.1918L12.7866 18.5477C12.4572 18.2056 12.1019 17.8675 11.7406 17.5414C12.1957 17.8935 12.585 18.1916 12.6428 18.2436C13.084 18.6377 13.064 18.5657 13.3674 18.8257L13.7327 19.0918C13.6968 19.1238 13.6608 19.1578 13.6269 19.1898L13.6289 19.1918ZM13.8405 19.3538L13.8245 19.3418C13.8564 19.3158 13.8904 19.2918 13.9223 19.2658L13.8425 19.3538H13.8405ZM0.480975 6.29073C0.508919 6.43476 0.534867 6.57679 0.560816 6.71283C0.698542 7.453 0.826289 8.11916 1.06981 8.62528L1.16562 9.00938C1.20354 9.15541 1.25743 9.33745 1.30733 9.37546C1.87621 9.87958 2.74848 10.6318 3.68063 11.3399C3.72254 11.3719 3.78043 11.3699 3.82035 11.3379C3.82235 11.3419 3.82634 11.3439 3.82833 11.3459C3.85029 11.3659 3.87624 11.3759 3.90418 11.3759C3.93612 11.3759 3.96606 11.3639 3.98802 11.3379C5.18165 10.0076 6.06989 8.91335 6.70263 7.99713C6.74255 7.94712 6.76251 7.88911 6.76051 7.82909C6.80044 7.78108 6.84235 7.73307 6.88028 7.69306C6.89183 7.68118 6.90059 7.66686 6.90592 7.65116C6.91126 7.63546 6.91304 7.61876 6.91112 7.60228C6.90921 7.58581 6.90366 7.56996 6.89487 7.55591C6.88608 7.54185 6.87428 7.52993 6.86032 7.52102C6.85787 7.49374 6.84585 7.46822 6.82638 7.449C6.54893 7.18094 6.34334 6.98689 6.13576 6.79285C5.76848 6.44876 5.38924 6.09268 4.58483 5.29049C4.58084 5.28649 4.57485 5.28249 4.57086 5.27848C4.55865 5.26579 4.5436 5.25619 4.52695 5.25048C4.30539 5.17246 3.85029 5.09444 3.27743 4.99442C2.4351 4.85038 1.28139 4.65033 0.243445 4.34026H0.235461V4.33826C0.235461 4.33826 0.231469 4.33826 0.229473 4.34226H0.227477L0.235461 4.33826C0.235461 4.33826 0.173584 4.34026 0.161608 4.34626C0.145639 4.35426 0.133663 4.36427 0.123683 4.37627C0.113703 4.38827 0.105719 4.40028 0.0298692 4.41628C-0.0459803 4.43228 0.0458376 4.41628 0.0518257 4.41628H0.0298692V4.42228C0.0438414 4.4903 0.0398493 4.53831 0.0618058 4.61633C0.0578137 4.63633 0.103723 4.82038 0.109711 4.83838L0.474986 6.29073H0.480975ZM6.65872 7.59904C6.65872 7.59904 6.65273 7.60704 6.65073 7.60904L6.52299 7.46701C6.5669 7.50902 6.61081 7.55103 6.65872 7.59904ZM5.24353 9.47749C5.24353 9.47749 5.22955 9.49349 5.22356 9.50149L5.21957 9.49749C5.22756 9.49149 5.23554 9.48349 5.24552 9.47749H5.24353ZM4.43513 5.45653C4.50499 5.52654 4.78244 5.78661 4.84631 5.85062C4.55689 5.71859 3.83632 5.38251 3.50098 5.27448C3.83033 5.3325 4.28543 5.40651 4.43513 5.45653ZM0.606725 4.90239C0.774392 5.19046 0.90613 6.2007 1.03787 7.18294C0.964016 6.86686 0.900143 6.55879 0.840262 6.26272C0.736467 5.7506 0.640657 5.29249 0.506923 4.88639C0.534867 4.88839 0.5688 4.89239 0.604729 4.89639C0.604729 4.89839 0.604729 4.90039 0.608721 4.90239H0.606725ZM0.54884 4.66034C0.502931 4.65634 0.461014 4.65234 0.425085 4.65033C0.421093 4.64233 0.419097 4.63433 0.417101 4.62633L0.54884 4.66234V4.66034ZM15.7826 4.5143C15.7906 4.46829 15.5631 4.26624 15.6349 4.26224C15.8046 4.25424 15.8066 3.99218 15.6349 4.00018C15.4094 4.01218 15.1818 4.06419 14.9622 4.1062C14.567 4.18022 14.1738 4.26224 13.7806 4.34826C12.9043 4.53631 12.0301 4.73435 11.1658 4.97041C10.8943 5.04443 10.5949 5.11044 10.3454 5.24248C10.2616 5.28649 10.2656 5.37651 10.3115 5.43252C10.2935 5.44252 10.2755 5.44853 10.2556 5.45053C10.1817 5.46453 10.1079 5.47653 10.034 5.48853C10.0156 5.49149 9.99816 5.49897 9.98331 5.51032C9.96847 5.52168 9.95666 5.53654 9.94895 5.55358C9.94124 5.57063 9.93786 5.58932 9.93912 5.60799C9.94038 5.62666 9.94624 5.64473 9.95617 5.66058C9.49309 6.28072 8.96614 6.94888 8.39527 7.65105C7.83438 8.2932 7.25154 8.97737 6.65473 9.67953C4.77645 11.8921 2.64668 14.4007 0.287358 16.6092C0.24145 16.6512 0.239454 16.7232 0.281371 16.7692C0.291351 16.7812 0.305323 16.7892 0.319295 16.7952C0.287358 16.8252 0.255422 16.8552 0.223485 16.8833C0.203525 16.9013 0.195541 16.9233 0.191549 16.9473C0.17558 16.9633 0.159612 16.9813 0.14564 16.9973C0.103723 17.0433 0.105719 17.1153 0.151628 17.1573C0.197537 17.1993 0.269394 17.1973 0.311311 17.1513C0.319295 17.1433 0.327279 17.1333 0.335263 17.1253C0.350932 17.1087 0.36981 17.0955 0.390745 17.0865C0.411679 17.0775 0.434231 17.0728 0.457022 17.0728C0.479812 17.0728 0.502364 17.0775 0.523299 17.0865C0.544233 17.0955 0.563112 17.1087 0.57878 17.1253C0.716507 17.2733 0.84625 17.4134 0.968008 17.5434L0.692554 17.3134C0.66948 17.2941 0.639746 17.2848 0.609834 17.2874C0.579922 17.29 0.552258 17.3044 0.532871 17.3274C0.49295 17.3754 0.498939 17.4474 0.546844 17.4874L3.50497 19.974C3.52693 19.992 3.55288 20 3.57883 20C3.60877 20 3.63671 19.988 3.65867 19.966L3.73053 19.894C3.75142 19.9034 3.77468 19.9061 3.79717 19.9018C3.81966 19.8975 3.84029 19.8864 3.85628 19.87C7.86632 15.833 11.0959 12.7823 14.7946 10.0556C14.8285 10.0316 14.8445 9.99161 14.8405 9.9536C14.8623 9.95122 14.8829 9.94258 14.8999 9.92875C14.9169 9.91491 14.9295 9.89645 14.9363 9.87558C15.6189 7.78308 15.7507 5.93064 15.7906 5.02042C15.7906 5.01442 15.7926 5.01042 15.7946 5.00642C15.7986 4.99642 15.8006 4.98641 15.8026 4.97841C15.8086 4.95641 15.8126 4.9404 15.8126 4.9404C15.8645 4.78437 15.8465 4.63433 15.7826 4.5103V4.5143ZM8.61284 7.78908C8.79248 7.58303 8.97013 7.38099 9.14578 7.18494C7.99606 8.7013 6.09184 11.0379 3.39519 13.8145C5.23155 11.778 7.08188 9.66753 8.61284 7.78908ZM2.11573 18.3536L2.10974 18.3476C2.1317 18.3516 2.14767 18.3556 2.14966 18.3556C2.13845 18.3535 2.12695 18.3535 2.11573 18.3556V18.3536ZM3.493 19.6379L3.48302 19.6299L3.48901 19.6239C3.493 19.6239 3.49499 19.6279 3.49699 19.6279C3.49699 19.6319 3.493 19.6339 3.491 19.6379H3.493ZM5.16169 18.1956L5.43714 17.9075C5.43914 17.9095 5.44113 17.9135 5.44313 17.9175C5.34932 18.0095 5.2555 18.1035 5.15969 18.1956H5.16169ZM5.6088 17.7535C5.6607 17.6934 5.72058 17.6234 5.78246 17.5494C5.78445 17.5474 5.78645 17.5434 5.79044 17.5414C6.44714 16.8633 7.12379 16.1771 7.82241 15.4909C7.8264 15.4869 7.83239 15.4829 7.83638 15.4789C8.00804 15.3469 8.19966 15.2009 8.3793 15.0628C7.47709 15.927 6.56091 16.8192 5.6088 17.7555V17.7535ZM9.93023 6.57479C9.55896 7.05891 9.15177 7.68706 8.80646 8.18918C7.71662 9.77156 4.20758 13.6465 4.12973 13.7205C3.58881 14.2446 1.95804 15.813 0.918107 16.7952C0.890162 16.8212 0.868206 16.8432 0.850242 16.8653C0.835695 16.8501 0.824301 16.8322 0.81672 16.8126C0.809138 16.7929 0.805521 16.772 0.806078 16.751C0.806635 16.7299 0.811356 16.7092 0.819965 16.69C0.828574 16.6709 0.840901 16.6536 0.856229 16.6392C5.8104 11.9581 8.81644 8.05915 10.038 6.36074C10.0121 6.42676 9.99011 6.49878 9.92823 6.57879L9.93023 6.57479ZM13.2257 7.99513L13.2237 7.99913C13.2237 7.99513 13.2197 7.98513 13.2257 7.99513ZM11.8684 8.85934C11.4173 8.59728 11.2057 8.20518 11.3275 7.80909L11.3654 7.67706C11.3813 7.63905 11.3993 7.60104 11.4213 7.56303C11.539 7.36698 11.7187 7.19294 11.9243 7.09092C11.9343 7.08692 11.9442 7.08492 11.9542 7.08292C11.9437 7.05553 11.9409 7.02576 11.9462 6.99689C11.9562 6.93488 11.9961 6.88087 12.078 6.88087C12.2117 6.88087 12.6269 7.0049 12.7846 7.14093C12.8325 7.17894 12.8784 7.22095 12.9203 7.26696C12.9802 7.33698 13.068 7.451 13.1119 7.53302C13.1379 7.54503 13.1578 7.65705 13.1878 7.71507C13.2157 7.80709 13.2277 7.90111 13.2237 7.99513C13.2237 7.99913 13.2237 7.99913 13.2257 8.00113C13.2197 8.01514 13.2257 8.07515 13.2177 8.08115C13.1977 8.22519 13.1458 8.36722 13.068 8.49125C13.06 8.50125 13.054 8.51326 13.046 8.52326C13.046 8.52526 13.0421 8.52726 13.0401 8.53126C12.9802 8.61728 12.9103 8.6973 12.8245 8.75731C12.573 8.93536 12.2796 8.98937 11.9861 8.91535C11.9474 8.90056 11.9095 8.88387 11.8724 8.86534L11.8684 8.85934ZM15.1159 8.53326C15.0181 8.94336 14.8984 9.37146 14.7566 9.80957C14.7507 9.82557 14.7507 9.84157 14.7507 9.85558C14.7307 9.85758 14.7127 9.86558 14.6968 9.87758C13.8105 10.5297 12.9542 11.2019 12.1059 11.9001C12.8385 11.2359 13.581 10.5757 14.3475 9.90959C14.5695 9.71616 14.7183 9.45192 14.7686 9.16141L14.8804 8.48725L14.8864 8.46725C14.9363 8.32521 15.1539 8.38723 15.1199 8.53326H15.1159Z" fill="#6965DB"/>
<path d="M20.1449 17V7.54545H25.8509V8.56108H21.2898V11.7557H25.5554V12.7713H21.2898V15.9844H25.9247V17H20.1449ZM28.5792 9.90909L30.2781 12.8082L31.9769 9.90909H33.2326L30.9428 13.4545L33.2326 17H31.9769L30.2781 14.2486L28.5792 17H27.3235L29.5763 13.4545L27.3235 9.90909H28.5792ZM37.3759 17.1477C36.7111 17.1477 36.1387 16.9908 35.6586 16.6768C35.1784 16.3629 34.8091 15.9305 34.5506 15.3796C34.2921 14.8287 34.1628 14.1993 34.1628 13.4915C34.1628 12.7713 34.2952 12.1358 34.5598 11.5849C34.8276 11.0309 35.2 10.5985 35.677 10.2876C36.1571 9.97372 36.7173 9.81676 37.3574 9.81676C37.856 9.81676 38.3053 9.90909 38.7054 10.0938C39.1055 10.2784 39.4333 10.5369 39.6887 10.8693C39.9442 11.2017 40.1027 11.5895 40.1642 12.0327H39.0748C38.9917 11.7095 38.807 11.4233 38.5208 11.174C38.2376 10.9216 37.856 10.7955 37.3759 10.7955C36.9512 10.7955 36.5788 10.9062 36.2587 11.1278C35.9417 11.3464 35.694 11.6557 35.5154 12.0558C35.34 12.4528 35.2523 12.919 35.2523 13.4545C35.2523 14.0024 35.3385 14.4794 35.5108 14.8857C35.6863 15.2919 35.9325 15.6074 36.2495 15.832C36.5695 16.0567 36.945 16.169 37.3759 16.169C37.659 16.169 37.916 16.1198 38.1468 16.0213C38.3777 15.9228 38.5731 15.7812 38.7331 15.5966C38.8932 15.4119 39.007 15.1903 39.0748 14.9318H40.1642C40.1027 15.3504 39.9503 15.7274 39.7072 16.0629C39.4672 16.3952 39.1486 16.6599 38.7516 16.8569C38.3577 17.0508 37.8991 17.1477 37.3759 17.1477ZM43.8436 17.1662C43.3942 17.1662 42.9864 17.0816 42.6202 16.9123C42.254 16.7399 41.9631 16.4922 41.7477 16.169C41.5323 15.8428 41.4245 15.4489 41.4245 14.9872C41.4245 14.581 41.5046 14.2517 41.6646 13.9993C41.8246 13.7438 42.0385 13.5438 42.3063 13.3991C42.574 13.2545 42.8695 13.1468 43.1926 13.076C43.5189 13.0021 43.8467 12.9437 44.176 12.9006C44.6068 12.8452 44.9561 12.8036 45.2239 12.7759C45.4947 12.7451 45.6917 12.6944 45.8148 12.6236C45.941 12.5528 46.0041 12.4297 46.0041 12.2543V12.2173C46.0041 11.7618 45.8794 11.4079 45.6301 11.1555C45.3839 10.9032 45.01 10.777 44.5083 10.777C43.9882 10.777 43.5804 10.8909 43.285 11.1186C42.9895 11.3464 42.7818 11.5895 42.6618 11.848L41.6277 11.4787C41.8123 11.0478 42.0585 10.7124 42.3663 10.4723C42.6771 10.2292 43.0157 10.0599 43.3819 9.96449C43.7512 9.866 44.1144 9.81676 44.4714 9.81676C44.6992 9.81676 44.9608 9.84446 45.2562 9.89986C45.5547 9.95218 45.8425 10.0614 46.1195 10.2276C46.3996 10.3938 46.6319 10.6446 46.8166 10.9801C47.0012 11.3156 47.0936 11.7649 47.0936 12.3281V17H46.0041V16.0398H45.9487C45.8748 16.1937 45.7517 16.3583 45.5794 16.5337C45.407 16.7092 45.1777 16.8584 44.8915 16.9815C44.6053 17.1046 44.256 17.1662 43.8436 17.1662ZM44.0098 16.1875C44.4406 16.1875 44.8038 16.1029 45.0993 15.9336C45.3978 15.7643 45.6225 15.5458 45.7733 15.2781C45.9271 15.0103 46.0041 14.7287 46.0041 14.4332V13.4361C45.9579 13.4915 45.8564 13.5423 45.6994 13.5884C45.5455 13.6315 45.367 13.67 45.1639 13.7038C44.9638 13.7346 44.7684 13.7623 44.5776 13.7869C44.3899 13.8085 44.2375 13.8269 44.1206 13.8423C43.8374 13.8793 43.5727 13.9393 43.3265 14.0224C43.0834 14.1024 42.8864 14.224 42.7356 14.3871C42.5879 14.5471 42.514 14.7656 42.514 15.0426C42.514 15.4212 42.6541 15.7074 42.9341 15.9013C43.2173 16.0921 43.5758 16.1875 44.0098 16.1875ZM50.1716 7.54545V17H49.0821V7.54545H50.1716ZM52.1671 17V9.90909H53.2566V17H52.1671ZM52.7211 8.72727C52.5087 8.72727 52.3256 8.65495 52.1717 8.5103C52.0209 8.36565 51.9455 8.19176 51.9455 7.98864C51.9455 7.78551 52.0209 7.61162 52.1717 7.46697C52.3256 7.32232 52.5087 7.25 52.7211 7.25C52.9334 7.25 53.115 7.32232 53.2658 7.46697C53.4197 7.61162 53.4966 7.78551 53.4966 7.98864C53.4966 8.19176 53.4197 8.36565 53.2658 8.5103C53.115 8.65495 52.9334 8.72727 52.7211 8.72727ZM57.9296 17.1477C57.3387 17.1477 56.817 16.9985 56.3646 16.6999C55.9122 16.3983 55.5583 15.9736 55.3028 15.4258C55.0474 14.8749 54.9197 14.224 54.9197 13.473C54.9197 12.7282 55.0474 12.0819 55.3028 11.5341C55.5583 10.9863 55.9137 10.5631 56.3692 10.2646C56.8247 9.96603 57.351 9.81676 57.9481 9.81676C58.4097 9.81676 58.7744 9.8937 59.0422 10.0476C59.313 10.1984 59.5192 10.3707 59.6608 10.5646C59.8054 10.7554 59.9178 10.9124 59.9978 11.0355H60.0901V7.54545H61.1796V17H60.127V15.9105H59.9978C59.9178 16.0398 59.8039 16.2029 59.6562 16.3999C59.5084 16.5937 59.2976 16.7676 59.0237 16.9215C58.7498 17.0723 58.3851 17.1477 57.9296 17.1477ZM58.0773 16.169C58.5144 16.169 58.8837 16.0552 59.1853 15.8274C59.4869 15.5966 59.7162 15.2781 59.8731 14.8718C60.0301 14.4625 60.1086 13.9901 60.1086 13.4545C60.1086 12.9252 60.0316 12.462 59.8778 12.065C59.7239 11.6649 59.4961 11.354 59.1945 11.1325C58.8929 10.9078 58.5205 10.7955 58.0773 10.7955C57.6157 10.7955 57.231 10.9139 56.9232 11.1509C56.6185 11.3848 56.3892 11.7034 56.2354 12.1065C56.0845 12.5066 56.0091 12.956 56.0091 13.4545C56.0091 13.9593 56.0861 14.4179 56.24 14.8303C56.3969 15.2396 56.6278 15.5658 56.9324 15.8089C57.2402 16.049 57.6218 16.169 58.0773 16.169ZM63.3263 17V9.90909H64.3788V10.9801H64.4527C64.5819 10.6293 64.8158 10.3446 65.1544 10.1261C65.4929 9.90755 65.8746 9.79829 66.2993 9.79829C66.3793 9.79829 66.4793 9.79983 66.5993 9.80291C66.7194 9.80599 66.8102 9.81061 66.8717 9.81676V10.9247C66.8348 10.9155 66.7501 10.9016 66.6178 10.8832C66.4885 10.8616 66.3516 10.8509 66.2069 10.8509C65.8622 10.8509 65.5545 10.9232 65.2836 11.0678C65.0159 11.2094 64.8035 11.4064 64.6466 11.6587C64.4927 11.908 64.4157 12.1927 64.4157 12.5128V17H63.3263ZM70.2498 17.1662C69.8005 17.1662 69.3927 17.0816 69.0265 16.9123C68.6602 16.7399 68.3694 16.4922 68.1539 16.169C67.9385 15.8428 67.8308 15.4489 67.8308 14.9872C67.8308 14.581 67.9108 14.2517 68.0708 13.9993C68.2309 13.7438 68.4448 13.5438 68.7125 13.3991C68.9803 13.2545 69.2757 13.1468 69.5989 13.076C69.9251 13.0021 70.2529 12.9437 70.5822 12.9006C71.0131 12.8452 71.3624 12.8036 71.6301 12.7759C71.901 12.7451 72.098 12.6944 72.2211 12.6236C72.3472 12.5528 72.4103 12.4297 72.4103 12.2543V12.2173C72.4103 11.7618 72.2857 11.4079 72.0364 11.1555C71.7902 10.9032 71.4163 10.777 70.9146 10.777C70.3945 10.777 69.9867 10.8909 69.6912 11.1186C69.3958 11.3464 69.188 11.5895 69.068 11.848L68.0339 11.4787C68.2186 11.0478 68.4648 10.7124 68.7725 10.4723C69.0834 10.2292 69.4219 10.0599 69.7882 9.96449C70.1575 9.866 70.5207 9.81676 70.8777 9.81676C71.1054 9.81676 71.367 9.84446 71.6625 9.89986C71.961 9.95218 72.2488 10.0614 72.5257 10.2276C72.8058 10.3938 73.0382 10.6446 73.2228 10.9801C73.4075 11.3156 73.4998 11.7649 73.4998 12.3281V17H72.4103V16.0398H72.3549C72.2811 16.1937 72.158 16.3583 71.9856 16.5337C71.8133 16.7092 71.584 16.8584 71.2978 16.9815C71.0115 17.1046 70.6622 17.1662 70.2498 17.1662ZM70.416 16.1875C70.8469 16.1875 71.21 16.1029 71.5055 15.9336C71.804 15.7643 72.0287 15.5458 72.1795 15.2781C72.3334 15.0103 72.4103 14.7287 72.4103 14.4332V13.4361C72.3642 13.4915 72.2626 13.5423 72.1056 13.5884C71.9518 13.6315 71.7733 13.67 71.5701 13.7038C71.3701 13.7346 71.1747 13.7623 70.9838 13.7869C70.7961 13.8085 70.6438 13.8269 70.5268 13.8423C70.2437 13.8793 69.979 13.9393 69.7328 14.0224C69.4896 14.1024 69.2927 14.224 69.1419 14.3871C68.9941 14.5471 68.9203 14.7656 68.9203 15.0426C68.9203 15.4212 69.0603 15.7074 69.3404 15.9013C69.6235 16.0921 69.9821 16.1875 70.416 16.1875ZM77.0949 17L74.9344 9.90909H76.0793L77.6119 15.3381H77.6858L79.2 9.90909H80.3634L81.8591 15.3196H81.933L83.4656 9.90909H84.6105L82.45 17H81.379L79.8279 11.5526H79.7171L78.1659 17H77.0949Z" fill="#FBF8E6"/>
</svg>
