<svg width="60" height="16" viewBox="0 0 60 16" fill="none" xmlns="http://www.w3.org/2000/svg">
<g clip-path="url(#clip0_13847_33161)">
<g clip-path="url(#clip1_13847_33161)">
<mask id="mask0_13847_33161" style="mask-type:luminance" maskUnits="userSpaceOnUse" x="3" y="0" width="11" height="16">
<path d="M13.6688 0H3V16H13.6688V0Z" fill="white"/>
</mask>
<g mask="url(#mask0_13847_33161)">
<path d="M5.66862 16.0003C7.14062 16.0003 8.33529 14.8057 8.33529 13.3337V10.667H5.66862C4.19662 10.667 3.00195 11.8617 3.00195 13.3337C3.00195 14.8057 4.19662 16.0003 5.66862 16.0003Z" fill="#34A853"/>
<path d="M3.00195 8.00016C3.00195 6.52816 4.19662 5.3335 5.66862 5.3335H8.33529V10.6668H5.66862C4.19662 10.6668 3.00195 9.47216 3.00195 8.00016Z" fill="#A259FF"/>
<path d="M3.00195 2.66667C3.00195 1.19467 4.19662 0 5.66862 0H8.33529V5.33333H5.66862C4.19662 5.33333 3.00195 4.13867 3.00195 2.66667Z" fill="#F24E1E"/>
<path d="M8.33398 0H11.0007C12.4727 0 13.6673 1.19467 13.6673 2.66667C13.6673 4.13867 12.4727 5.33333 11.0007 5.33333H8.33398V0Z" fill="#FF8562"/>
<path d="M13.6673 8.00016C13.6673 9.47216 12.4727 10.6668 11.0007 10.6668C9.52865 10.6668 8.33398 9.47216 8.33398 8.00016C8.33398 6.52816 9.52865 5.3335 11.0007 5.3335C12.4727 5.3335 13.6673 6.52816 13.6673 8.00016Z" fill="#1ABCFE"/>
</g>
</g>
</g>
<path d="M21.2233 12.75V2.64773H27.2807V3.73293H22.4466V7.1464H26.8269V8.2316H22.4466V12.75H21.2233ZM29.2181 12.75V5.1733H30.3822V12.75H29.2181ZM29.81 3.91051C29.5831 3.91051 29.3874 3.83323 29.223 3.67867C29.0619 3.52411 28.9813 3.33831 28.9813 3.12127C28.9813 2.90423 29.0619 2.71843 29.223 2.56387C29.3874 2.40931 29.5831 2.33203 29.81 2.33203C30.0369 2.33203 30.2309 2.40931 30.3921 2.56387C30.5565 2.71843 30.6387 2.90423 30.6387 3.12127C30.6387 3.33831 30.5565 3.52411 30.3921 3.67867C30.2309 3.83323 30.0369 3.91051 29.81 3.91051ZM35.5727 15.7491C35.0104 15.7491 34.5269 15.6768 34.1225 15.5321C33.718 15.3907 33.3809 15.2032 33.1113 14.9697C32.8449 14.7395 32.6328 14.4929 32.4749 14.2298L33.4023 13.5787C33.5075 13.7168 33.6407 13.8747 33.8018 14.0522C33.963 14.2331 34.1833 14.3893 34.4628 14.5209C34.7456 14.6557 35.1156 14.7231 35.5727 14.7231C36.1844 14.7231 36.6891 14.5751 37.087 14.2792C37.485 13.9832 37.6839 13.5195 37.6839 12.8881V11.3491H37.5853C37.4998 11.4872 37.3781 11.6582 37.2202 11.8621C37.0657 12.0627 36.8421 12.2419 36.5494 12.3998C36.26 12.5543 35.8687 12.6316 35.3754 12.6316C34.7637 12.6316 34.2145 12.4869 33.7278 12.1975C33.2444 11.9081 32.8613 11.4872 32.5785 10.9347C32.299 10.3823 32.1592 9.71143 32.1592 8.92219C32.1592 8.1461 32.2957 7.47031 32.5686 6.89483C32.8416 6.31605 33.2214 5.86881 33.7081 5.55312C34.1948 5.23413 34.7571 5.07464 35.3951 5.07464C35.8884 5.07464 36.2797 5.15685 36.5691 5.32128C36.8618 5.48241 37.0854 5.66657 37.24 5.87375C37.3978 6.07763 37.5195 6.24535 37.605 6.37689H37.7234V5.1733H38.848V12.967C38.848 13.6182 38.7001 14.1476 38.4041 14.5554C38.1114 14.9664 37.7168 15.2673 37.2202 15.4581C36.727 15.6521 36.1778 15.7491 35.5727 15.7491ZM35.5332 11.5859C36.0002 11.5859 36.3948 11.479 36.7171 11.2652C37.0394 11.0515 37.2844 10.744 37.4521 10.3428C37.6198 9.94162 37.7036 9.4615 37.7036 8.90245C37.7036 8.35656 37.6214 7.8748 37.457 7.45716C37.2926 7.03952 37.0492 6.71231 36.727 6.47554C36.4047 6.23877 36.0068 6.12038 35.5332 6.12038C35.04 6.12038 34.6289 6.24535 34.3 6.49527C33.9745 6.7452 33.7295 7.08063 33.5651 7.50155C33.4039 7.92248 33.3234 8.38945 33.3234 8.90245C33.3234 9.42861 33.4056 9.89394 33.57 10.2984C33.7377 10.6996 33.9843 11.0153 34.3099 11.2455C34.6388 11.4724 35.0465 11.5859 35.5332 11.5859ZM40.979 12.75V5.1733H42.1037V6.35716H42.2023C42.3602 5.95267 42.615 5.63862 42.9669 5.415C43.3188 5.18809 43.7413 5.07464 44.2346 5.07464C44.7345 5.07464 45.1505 5.18809 45.4826 5.415C45.818 5.63862 46.0795 5.95267 46.2669 6.35716H46.3458C46.5398 5.96582 46.8309 5.65506 47.2189 5.42487C47.607 5.19138 48.0723 5.07464 48.6149 5.07464C49.2923 5.07464 49.8464 5.28675 50.2772 5.71096C50.708 6.13189 50.9234 6.78795 50.9234 7.67913V12.75H49.7593V7.67913C49.7593 7.12009 49.6064 6.72053 49.3005 6.48047C48.9947 6.24041 48.6346 6.12038 48.2203 6.12038C47.6875 6.12038 47.2748 6.28152 46.9821 6.60379C46.6895 6.92278 46.5431 7.32726 46.5431 7.81725V12.75H45.3593V7.56075C45.3593 7.12995 45.2195 6.78302 44.94 6.51994C44.6605 6.25357 44.3004 6.12038 43.8597 6.12038C43.5572 6.12038 43.2744 6.20095 43.0113 6.36209C42.7515 6.52322 42.541 6.74684 42.3799 7.03294C42.222 7.31575 42.1431 7.64296 42.1431 8.01456V12.75H40.979ZM55.2815 12.9276C54.8014 12.9276 54.3656 12.8371 53.9743 12.6563C53.583 12.4721 53.2722 12.2074 53.042 11.8621C52.8118 11.5135 52.6967 11.0926 52.6967 10.5993C52.6967 10.1652 52.7822 9.81337 52.9532 9.54371C53.1242 9.27077 53.3528 9.05701 53.6389 8.90245C53.925 8.74789 54.2407 8.6328 54.586 8.55716C54.9346 8.47824 55.2848 8.41576 55.6367 8.36972C56.097 8.31052 56.4703 8.26613 56.7564 8.23653C57.0458 8.20365 57.2562 8.14939 57.3878 8.07375C57.5226 7.99812 57.59 7.86658 57.59 7.67913V7.63967C57.59 7.15297 57.4568 6.77479 57.1905 6.50514C56.9274 6.23548 56.5278 6.10065 55.9918 6.10065C55.4361 6.10065 55.0003 6.22233 54.6846 6.46568C54.3689 6.70902 54.147 6.96882 54.0187 7.24505L52.9138 6.85043C53.1111 6.39004 53.3742 6.03159 53.703 5.77509C54.0352 5.5153 54.3969 5.33443 54.7882 5.23249C55.1828 5.12726 55.5709 5.07464 55.9524 5.07464C56.1957 5.07464 56.4752 5.10424 56.7909 5.16343C57.1099 5.21933 57.4174 5.33608 57.7133 5.51365C58.0126 5.69123 58.2609 5.95925 58.4582 6.31769C58.6555 6.67614 58.7542 7.15626 58.7542 7.75806V12.75H57.59V11.724H57.5308C57.4519 11.8884 57.3204 12.0643 57.1362 12.2518C56.9521 12.4392 56.7071 12.5987 56.4012 12.7303C56.0954 12.8618 55.7222 12.9276 55.2815 12.9276ZM55.4591 11.8818C55.9195 11.8818 56.3075 11.7914 56.6232 11.6105C56.9422 11.4297 57.1823 11.1962 57.3434 10.9101C57.5078 10.624 57.59 10.3231 57.59 10.0074V8.94192C57.5407 9.00111 57.4322 9.05537 57.2645 9.1047C57.1 9.15074 56.9093 9.19184 56.6923 9.22802C56.4785 9.2609 56.2697 9.2905 56.0658 9.31681C55.8652 9.33983 55.7024 9.35956 55.5775 9.376C55.2749 9.41546 54.9921 9.47959 54.729 9.56838C54.4692 9.65388 54.2588 9.78377 54.0976 9.95806C53.9398 10.1291 53.8609 10.3625 53.8609 10.6585C53.8609 11.063 54.0105 11.3688 54.3097 11.576C54.6123 11.7799 54.9954 11.8818 55.4591 11.8818Z" fill="#FBF8E6"/>
<defs>
<clipPath id="clip0_13847_33161">
<rect width="16" height="16" fill="white"/>
</clipPath>
<clipPath id="clip1_13847_33161">
<rect width="16" height="16" fill="white"/>
</clipPath>
</defs>
</svg>
