<svg width="47" height="16" viewBox="0 0 47 16" fill="none" xmlns="http://www.w3.org/2000/svg">
<g clip-path="url(#clip0_13847_33080)">
<g clip-path="url(#clip1_13847_33080)">
<g clip-path="url(#clip2_13847_33080)">
<path d="M15.6983 7.28736L8.71216 0.301761C8.31019 -0.100587 7.65771 -0.100587 7.25524 0.301761L5.80464 1.75256L7.64468 3.59268C8.07244 3.44824 8.56275 3.54508 8.90357 3.88598C9.24615 4.22901 9.3423 4.72352 9.19425 5.15273L10.9677 6.92627C11.3968 6.77841 11.8918 6.87394 12.2344 7.21716C12.7134 7.69603 12.7134 8.47197 12.2344 8.95096C11.7554 9.43011 10.9794 9.43011 10.5001 8.95096C10.14 8.59051 10.0509 8.06131 10.2333 7.61755L8.57935 5.96352L8.57921 10.3161C8.69598 10.3739 8.80618 10.451 8.9035 10.5479C9.38234 11.0267 9.38234 11.8025 8.9035 12.2821C8.42451 12.7609 7.64825 12.7609 7.16977 12.2821C6.69085 11.8026 6.69085 11.0268 7.16977 10.5479C7.28812 10.4298 7.42507 10.3403 7.5712 10.2804V5.88741C7.425 5.82772 7.28821 5.73896 7.16968 5.61987C6.80693 5.25738 6.71956 4.72495 6.9056 4.27947L5.09168 2.4652L0.301844 7.25509C-0.100615 7.65774 -0.100615 8.31025 0.301844 8.71263L7.2876 15.6982C7.68979 16.1006 8.34205 16.1006 8.7448 15.6982L15.6983 8.74563C16.1006 8.34309 16.1006 7.68979 15.6983 7.28736Z" fill="#F05133"/>
</g>
</g>
</g>
<path d="M27.9371 4.96875C27.8312 4.64446 27.6915 4.35388 27.5181 4.09701C27.348 3.83694 27.1441 3.61539 26.9065 3.43237C26.6721 3.24936 26.4056 3.10969 26.107 3.01336C25.8084 2.91704 25.4809 2.86887 25.1245 2.86887C24.5401 2.86887 24.0087 3.01978 23.5303 3.3216C23.0519 3.62342 22.6714 4.06812 22.3888 4.6557C22.1063 5.24328 21.965 5.9641 21.965 6.81818C21.965 7.67226 22.1079 8.39309 22.3937 8.98067C22.6794 9.56825 23.0663 10.0129 23.5544 10.3148C24.0424 10.6166 24.5915 10.7675 25.2015 10.7675C25.7666 10.7675 26.2643 10.6471 26.6946 10.4063C27.128 10.1622 27.4652 9.81869 27.706 9.3756C27.95 8.9293 28.072 8.40433 28.072 7.80069L28.438 7.87775H25.4712V6.81818H29.2279V7.87775C29.2279 8.69009 29.0545 9.39647 28.7077 9.99689C28.3642 10.5973 27.889 11.0629 27.2821 11.3936C26.6785 11.7211 25.985 11.8849 25.2015 11.8849C24.3282 11.8849 23.5608 11.6794 22.8994 11.2684C22.2412 10.8574 21.7274 10.273 21.3582 9.51527C20.9921 8.75752 20.8091 7.85849 20.8091 6.81818C20.8091 6.03795 20.9135 5.33639 21.1222 4.71349C21.3341 4.08738 21.6327 3.55438 22.018 3.1145C22.4033 2.67462 22.8592 2.33748 23.3858 2.10309C23.9124 1.8687 24.4919 1.75151 25.1245 1.75151C25.6446 1.75151 26.1295 1.83017 26.579 1.9875C27.0317 2.14162 27.4347 2.36156 27.7878 2.64733C28.1442 2.92988 28.4412 3.26862 28.6788 3.66355C28.9164 4.05527 29.0802 4.49034 29.1701 4.96875H27.9371ZM31.583 11.75V4.35227H32.7197V11.75H31.583ZM32.161 3.11932C31.9394 3.11932 31.7484 3.04386 31.5878 2.89296C31.4305 2.74205 31.3519 2.56064 31.3519 2.34872C31.3519 2.13681 31.4305 1.9554 31.5878 1.80449C31.7484 1.65358 31.9394 1.57812 32.161 1.57812C32.3825 1.57812 32.572 1.65358 32.7293 1.80449C32.8898 1.9554 32.9701 2.13681 32.9701 2.34872C32.9701 2.56064 32.8898 2.74205 32.7293 2.89296C32.572 3.04386 32.3825 3.11932 32.161 3.11932ZM38.0187 4.35227V5.31552H34.185V4.35227H38.0187ZM35.3024 2.5799H36.439V9.63086C36.439 9.95194 36.4855 10.1928 36.5787 10.3533C36.675 10.5106 36.797 10.6166 36.9447 10.6712C37.0956 10.7225 37.2545 10.7482 37.4215 10.7482C37.5467 10.7482 37.6495 10.7418 37.7297 10.729C37.81 10.7129 37.8742 10.7001 37.9224 10.6904L38.1536 11.7115C38.0765 11.7404 37.9689 11.7693 37.8309 11.7982C37.6928 11.8303 37.5178 11.8463 37.3059 11.8463C36.9848 11.8463 36.6702 11.7773 36.3619 11.6392C36.0569 11.5012 35.8033 11.2909 35.601 11.0083C35.4019 10.7257 35.3024 10.3693 35.3024 9.9391V2.5799Z" fill="#FBF8E6"/>
<defs>
<clipPath id="clip0_13847_33080">
<rect width="16" height="16" fill="white"/>
</clipPath>
<clipPath id="clip1_13847_33080">
<rect width="16" height="16" fill="white"/>
</clipPath>
<clipPath id="clip2_13847_33080">
<rect width="16" height="16" fill="white"/>
</clipPath>
</defs>
</svg>
