<svg width="66" height="16" viewBox="0 0 66 16" fill="none" xmlns="http://www.w3.org/2000/svg">
<g clip-path="url(#clip0_13847_33089)">
<g clip-path="url(#clip1_13847_33089)">
<g clip-path="url(#clip2_13847_33089)">
<path fill-rule="evenodd" clip-rule="evenodd" d="M8 0C3.58011 0 0 3.67017 0 8.20125C0 11.8261 2.29343 14.8972 5.47084 15.9846C5.86863 16.0602 6.01596 15.8084 6.01596 15.5869C6.01596 15.3906 6.01105 14.877 6.00614 14.1923C3.78146 14.6857 3.31001 13.0948 3.31001 13.0948C2.94659 12.1483 2.42112 11.8966 2.42112 11.8966C1.69429 11.3881 2.47514 11.3982 2.47514 11.3982C3.27563 11.4586 3.70288 12.244 3.70288 12.244C4.41498 13.4976 5.57397 13.1351 6.03069 12.9236C6.10436 12.395 6.31062 12.0325 6.53653 11.8261C4.75875 11.6197 2.89257 10.9149 2.89257 7.77332C2.89257 6.87717 3.20196 6.14716 3.71762 5.57323C3.63413 5.36681 3.35912 4.53108 3.79619 3.40334C3.79619 3.40334 4.469 3.18182 5.99632 4.24411C6.63474 4.06287 7.31737 3.97224 8 3.96721C8.67772 3.96721 9.36525 4.06287 10.0037 4.24411C11.531 3.18182 12.2038 3.40334 12.2038 3.40334C12.6409 4.53108 12.3659 5.36681 12.2824 5.57323C12.7931 6.14716 13.1025 6.87717 13.1025 7.77332C13.1025 10.9249 11.2314 11.6147 9.44874 11.8211C9.73358 12.0728 9.99386 12.5763 9.99386 13.3415C9.99386 14.439 9.98404 15.3201 9.98404 15.5919C9.98404 15.8135 10.1265 16.0652 10.5341 15.9846C13.7115 14.8972 16 11.8261 16 8.20628C16 3.67017 12.4199 0 8 0Z" fill="#231E1B"/>
</g>
</g>
</g>
<path d="M28.0012 4.91406C27.8943 4.58715 27.7535 4.29423 27.5788 4.0353C27.4072 3.77312 27.2017 3.54979 26.9622 3.3653C26.7259 3.1808 26.4572 3.04001 26.1562 2.9429C25.8552 2.8458 25.5251 2.79725 25.1658 2.79725C24.5767 2.79725 24.041 2.94938 23.5588 3.25363C23.0765 3.55788 22.6929 4.00616 22.4081 4.59848C22.1233 5.1908 21.9809 5.91744 21.9809 6.77841C21.9809 7.63937 22.1249 8.36602 22.413 8.95834C22.701 9.55065 23.0911 9.99894 23.583 10.3032C24.075 10.6074 24.6285 10.7596 25.2435 10.7596C25.8131 10.7596 26.3148 10.6382 26.7485 10.3954C27.1855 10.1494 27.5254 9.80312 27.7681 9.35645C28.0141 8.90655 28.1371 8.37735 28.1371 7.76884L28.5061 7.84652H25.5154V6.77841H29.3023V7.84652C29.3023 8.66541 29.1275 9.37749 28.778 9.98275C28.4316 10.588 27.9526 11.0573 27.3409 11.3907C26.7324 11.7209 26.0332 11.8859 25.2435 11.8859C24.3631 11.8859 23.5895 11.6788 22.9228 11.2645C22.2592 10.8502 21.7414 10.2611 21.3691 9.49725C21.0001 8.73338 20.8157 7.8271 20.8157 6.77841C20.8157 5.99189 20.9208 5.28467 21.1312 4.65674C21.3449 4.02558 21.6459 3.48829 22.0343 3.04486C22.4227 2.60143 22.8823 2.26158 23.4131 2.0253C23.9439 1.78902 24.5282 1.67088 25.1658 1.67088C25.6901 1.67088 26.1789 1.75018 26.632 1.90877C27.0884 2.06414 27.4946 2.28585 27.8506 2.57392C28.2099 2.85875 28.5093 3.20022 28.7488 3.59834C28.9884 3.99322 29.1534 4.43179 29.2441 4.91406H28.0012ZM31.6764 11.75V4.29261H32.8222V11.75H31.6764ZM32.259 3.04972C32.0357 3.04972 31.8431 2.97365 31.6813 2.82153C31.5227 2.6694 31.4434 2.48653 31.4434 2.2729C31.4434 2.05928 31.5227 1.87641 31.6813 1.72428C31.8431 1.57216 32.0357 1.49609 32.259 1.49609C32.4824 1.49609 32.6733 1.57216 32.8319 1.72428C32.9938 1.87641 33.0747 2.05928 33.0747 2.2729C33.0747 2.48653 32.9938 2.6694 32.8319 2.82153C32.6733 2.97365 32.4824 3.04972 32.259 3.04972ZM38.164 4.29261V5.26363H34.2994V4.29261H38.164ZM35.4258 2.50595H36.5716V9.61377C36.5716 9.93744 36.6185 10.1802 36.7124 10.342C36.8095 10.5006 36.9325 10.6074 37.0813 10.6625C37.2335 10.7143 37.3937 10.7401 37.562 10.7401C37.6882 10.7401 37.7918 10.7337 37.8727 10.7207C37.9536 10.7045 38.0184 10.6916 38.0669 10.6819L38.3 11.7112C38.2223 11.7403 38.1139 11.7694 37.9747 11.7986C37.8355 11.8309 37.6591 11.8471 37.4455 11.8471C37.1218 11.8471 36.8046 11.7775 36.4939 11.6383C36.1864 11.4992 35.9307 11.2872 35.7268 11.0023C35.5261 10.7175 35.4258 10.3582 35.4258 9.92449V2.50595ZM40.2032 11.75V1.80682H41.4072V6.23464H46.709V1.80682H47.913V11.75H46.709V7.30276H41.4072V11.75H40.2032ZM54.8679 8.70102V4.29261H56.0137V11.75H54.8679V10.4877H54.7902C54.6154 10.8664 54.3435 11.1884 53.9746 11.4538C53.6056 11.716 53.1395 11.8471 52.5763 11.8471C52.1102 11.8471 51.6959 11.7451 51.3334 11.5412C50.9709 11.3341 50.6861 11.0234 50.4789 10.6091C50.2718 10.1915 50.1682 9.66556 50.1682 9.03116V4.29261H51.314V8.95348C51.314 9.49725 51.4661 9.93097 51.7704 10.2546C52.0778 10.5783 52.4695 10.7401 52.9453 10.7401C53.2301 10.7401 53.5198 10.6673 53.8143 10.5217C54.1121 10.376 54.3613 10.1527 54.562 9.85167C54.7659 9.55065 54.8679 9.1671 54.8679 8.70102ZM58.2677 11.75V1.80682H59.4135V5.47725H59.5106C59.5947 5.34778 59.7112 5.18271 59.8601 4.98203C60.0122 4.77812 60.2291 4.59686 60.5107 4.43827C60.7955 4.27643 61.1807 4.19551 61.6662 4.19551C62.2941 4.19551 62.8476 4.35249 63.3266 4.66645C63.8057 4.98041 64.1795 5.42546 64.4482 6.0016C64.7168 6.57773 64.8511 7.25744 64.8511 8.04073C64.8511 8.83049 64.7168 9.51505 64.4482 10.0944C64.1795 10.6706 63.8073 11.1172 63.3315 11.4344C62.8557 11.7484 62.3071 11.9054 61.6856 11.9054C61.2066 11.9054 60.823 11.8261 60.535 11.6675C60.2469 11.5056 60.0252 11.3228 59.8698 11.1188C59.7145 10.9117 59.5947 10.7401 59.5106 10.6042H59.3746V11.75H58.2677ZM59.394 8.02131C59.394 8.58449 59.4766 9.08133 59.6416 9.51181C59.8067 9.93906 60.0478 10.2741 60.365 10.5168C60.6822 10.7563 61.0706 10.8761 61.5303 10.8761C62.0093 10.8761 62.409 10.7499 62.7295 10.4974C63.0531 10.2417 63.2959 9.8986 63.4577 9.46812C63.6228 9.0344 63.7053 8.55213 63.7053 8.02131C63.7053 7.49696 63.6244 7.0244 63.4626 6.60363C63.304 6.17962 63.0628 5.84462 62.7392 5.59863C62.4187 5.3494 62.0158 5.22479 61.5303 5.22479C61.0642 5.22479 60.6725 5.34293 60.3553 5.57921C60.0381 5.81225 59.7986 6.13916 59.6368 6.55993C59.4749 6.97747 59.394 7.46459 59.394 8.02131Z" fill="#FBF8E6"/>
<defs>
<clipPath id="clip0_13847_33089">
<rect width="16" height="16" fill="white"/>
</clipPath>
<clipPath id="clip1_13847_33089">
<rect width="16" height="16" fill="white"/>
</clipPath>
<clipPath id="clip2_13847_33089">
<rect width="16" height="16" fill="white"/>
</clipPath>
</defs>
</svg>
