 <svg
      width="67"
      height="18"
      viewBox="0 0 67 18"
      fill="none"
      xmlns="http://www.w3.org/2000/svg"
    >
      <g clip-path="url(#clip0_13847_33053)">
        <g clip-path="url(#clip1_13847_33053)">
          <g clip-path="url(#clip2_13847_33053)">
            <path
              d="M1.36305 15.3623L0 -0.00341797H14.9853L13.6223 15.3541L7.48027 17.0632"
              fill="#ED1C24"
            />
            <path
              d="M7.49121 15.7561V1.25732H13.6167L12.4478 14.3664"
              fill="#F16529"
            />
            <path
              d="M2.7832 3.13721H7.49193V5.02059H4.84016L5.01365 6.94961H7.49193V8.82886H3.29537L2.7832 3.13721ZM3.37799 9.7747H5.26148L5.39365 11.2806L7.49193 11.8448V13.8111L3.64234 12.7326"
              fill="#EBEBEB"
            />
            <path
              d="M12.1839 3.13721H7.4834V5.02059H12.0104L12.1839 3.13721ZM11.841 6.94961H7.4834V8.833H9.79647L9.57755 11.2806L7.4834 11.8448V13.8029L11.3248 12.7326"
              fill="#FBF8E6"
            />
          </g>
        </g>
      </g>
      <path
        d="M21.2137 13.75V3.72727H22.4274V8.19052H27.7715V3.72727H28.9852V13.75H27.7715V9.26718H22.4274V13.75H21.2137ZM30.8669 4.80393V3.72727H38.384V4.80393H35.2323V13.75H34.0186V4.80393H30.8669ZM40.2571 3.72727H41.7057L45.1119 12.0469H45.2293L48.6355 3.72727H50.0841V13.75H48.9487V6.13508H48.8508L45.7187 13.75H44.6225L41.4904 6.13508H41.3925V13.75H40.2571V3.72727ZM52.5176 13.75V3.72727H53.7313V12.6733H58.3903V13.75H52.5176Z"
        fill="#FBF8E6"
      />
      <defs>
        <clipPath id="clip0_13847_33053">
          <rect width="16" height="17.06" fill="white" />
        </clipPath>
        <clipPath id="clip1_13847_33053">
          <rect width="16" height="17.06" fill="white" />
        </clipPath>
        <clipPath id="clip2_13847_33053">
          <rect
            width="16"
            height="17.0667"
            fill="white"
            transform="translate(0 -0.00341797)"
          />
        </clipPath>
      </defs>
    </svg>