<svg width="243" height="242" viewBox="0 0 243 242" fill="none" xmlns="http://www.w3.org/2000/svg">
<path fill-rule="evenodd" clip-rule="evenodd" d="M65.6331 185.418C96.8708 216.656 148.609 215.61 182.169 182.05C215.729 148.49 216.775 96.7515 185.537 65.5138C180.667 60.6436 149.877 83.537 116.767 116.648C83.6562 149.758 60.7629 180.548 65.6331 185.418ZM100.168 203.079C127.204 210.6 158.167 203.112 180.699 180.58C203.232 158.048 210.719 127.085 203.198 100.049C207.556 125.209 198.37 154.092 176.29 176.171C154.211 198.25 125.328 207.437 100.168 203.079ZM174.821 174.701C151.725 197.796 121.174 206.355 95.6543 199.876C119.445 203.146 147.911 192.793 170.411 170.292C192.912 147.792 203.265 119.326 199.995 95.5351C206.474 121.055 197.916 151.606 174.821 174.701ZM91.2068 196.835C115.076 202.263 145.205 192.559 168.942 168.822C192.678 145.086 202.382 114.957 196.954 91.0876C197.552 97.2511 197.102 103.847 195.658 110.64C191.868 128.454 181.227 147.719 164.533 164.413C147.839 181.107 128.573 191.749 110.759 195.538C103.966 196.983 97.3704 197.433 91.2068 196.835ZM110.456 193.43C102.085 195.211 94.0996 195.424 86.9252 194.013C93.0248 194.308 99.7107 193.389 106.683 191.361C123.407 186.496 141.985 175.204 158.654 158.534C175.323 141.865 186.615 123.288 191.48 106.564C193.508 99.5915 194.427 92.9055 194.132 86.806C195.544 93.9804 195.33 101.966 193.55 110.336C189.865 127.656 179.479 146.527 163.063 162.944C146.646 179.36 127.776 189.746 110.456 193.43ZM82.939 191.431C89.7846 192.509 97.7055 191.77 106.218 189.294C122.5 184.557 140.742 173.506 157.184 157.065C173.625 140.623 184.677 122.381 189.413 106.099C191.889 97.5863 192.628 89.6654 191.55 82.8197C191.462 88.7361 189.98 95.4216 187.294 102.493C181.358 118.121 169.42 136.01 152.775 152.656C136.129 169.301 118.24 181.239 102.613 187.175C95.5408 189.861 88.8554 191.343 82.939 191.431ZM101.974 185.166C93.3364 188.447 85.574 189.789 79.2148 189.107C84.7801 188.565 91.3634 186.441 98.5473 182.979C113.072 175.978 130.273 163.4 146.896 146.777C163.519 130.153 176.097 112.953 183.098 98.4281C186.56 91.2442 188.684 84.6609 189.227 79.0956C189.909 85.4547 188.566 93.2171 185.285 101.855C179.492 117.106 167.77 134.721 151.305 151.186C134.84 167.651 117.225 179.373 101.974 185.166ZM75.7795 187.073C76.7921 187.113 77.865 187.081 78.9963 186.977C84.2375 186.495 90.6086 184.478 97.7256 181.048C111.952 174.192 128.939 161.794 145.426 145.307C161.913 128.82 174.311 111.833 181.168 97.6063C184.598 90.4893 186.614 84.1183 187.096 78.877C187.2 77.7457 187.232 76.6729 187.193 75.6603C187.113 76.0373 187.023 76.4197 186.925 76.807C185.684 81.6788 182.913 87.6643 178.89 94.3658C170.834 107.783 157.62 124.295 141.017 140.898C124.414 157.501 107.902 170.715 94.4851 178.77C87.7835 182.794 81.798 185.565 76.9262 186.806C76.5389 186.904 76.1565 186.994 75.7795 187.073ZM76.5353 184.718C74.3123 185.284 72.4494 185.481 70.9323 185.352C82.1031 181.366 107.486 161.201 134.403 134.284C161.321 107.367 181.485 81.9839 185.471 70.8131C185.601 72.3301 185.403 74.193 184.837 76.4161C183.675 80.9805 181.03 86.7446 177.062 93.3547C169.133 106.561 156.055 122.92 139.547 139.428C123.04 155.936 106.68 169.014 93.4739 176.942C86.8638 180.911 81.0998 183.556 76.5353 184.718ZM182.742 67.082C183.588 66.9436 183.89 67.0595 183.957 67.0941C183.991 67.1611 184.107 67.4633 183.969 68.3092C183.795 69.3718 183.277 70.8745 182.33 72.8325C180.446 76.7248 177.108 81.926 172.515 88.1032C163.35 100.429 149.433 116.315 132.934 132.814C116.434 149.314 100.548 163.231 88.2224 172.396C82.0452 176.989 76.844 180.327 72.9517 182.21C70.9937 183.158 69.4911 183.676 68.4285 183.85C67.5825 183.988 67.2804 183.872 67.2133 183.838C67.1788 183.771 67.0629 183.469 67.2013 182.623C67.3751 181.56 67.893 180.057 68.8406 178.099C70.7242 174.207 74.0619 169.006 78.6549 162.829C87.8198 150.503 101.737 134.617 118.237 118.117C134.736 101.618 150.622 87.7006 162.948 78.5357C169.125 73.9427 174.326 70.605 178.219 68.7214C180.177 67.7738 181.679 67.2559 182.742 67.082Z" fill="url(#paint0_linear_14908_24015)"/>
<path fill-rule="evenodd" clip-rule="evenodd" d="M56.7053 176.488C25.4676 145.251 26.5136 93.5121 60.0734 59.9522C93.6333 26.3924 145.372 25.3464 176.609 56.5841C181.48 61.4543 158.586 92.2439 125.476 125.354C92.3651 158.465 61.5755 181.358 56.7053 176.488ZM39.0442 141.953C31.5232 114.917 39.0109 83.9542 61.5431 61.4219C84.0754 38.8897 115.038 31.402 142.074 38.923C116.915 34.5656 88.0317 43.7517 65.9523 65.8311C43.8729 87.9105 34.6868 116.793 39.0442 141.953ZM67.422 67.3008C44.3269 90.3959 35.7682 120.947 42.2474 146.467C38.9775 122.676 49.3305 94.2105 71.8311 71.7099C94.3317 49.2094 122.798 38.8564 146.588 42.1262C121.069 35.647 90.5171 44.2057 67.422 67.3008ZM45.2887 150.914C39.8602 127.045 49.5642 96.9163 73.3008 73.1796C97.0375 49.443 127.166 39.739 151.036 45.1675C144.872 44.569 138.276 45.0189 131.483 46.4638C113.669 50.2532 94.404 60.8948 77.71 77.5888C61.0159 94.2828 50.3744 113.548 46.585 131.362C45.14 138.155 44.6902 144.751 45.2887 150.914ZM48.6929 131.666C46.9123 140.036 46.699 148.022 48.1101 155.196C47.8157 149.097 48.7341 142.411 50.7622 135.439C55.6273 118.714 66.9197 100.137 83.5888 83.4676C100.258 66.7985 118.835 55.5061 135.56 50.641C142.532 48.6129 149.218 47.6945 155.317 47.989C148.143 46.5778 140.157 46.7911 131.787 48.5717C114.467 52.256 95.5963 62.6419 79.1797 79.0585C62.7631 95.4751 52.3772 114.346 48.6929 131.666ZM50.6922 159.182C49.6143 152.337 50.3533 144.416 52.8296 135.903C57.566 119.621 68.617 101.379 85.0585 84.9374C101.5 68.4959 119.742 57.4448 136.024 52.7084C144.537 50.2321 152.458 49.4931 159.304 50.571C153.387 50.6596 146.702 52.1409 139.63 54.8271C124.002 60.7632 106.113 72.701 89.4677 89.3465C72.8221 105.992 60.8844 123.881 54.9483 139.509C52.2621 146.581 50.7808 153.266 50.6922 159.182ZM56.9575 140.147C53.6764 148.785 52.3339 156.547 53.016 162.907C53.5582 157.341 55.6823 150.758 59.1447 143.574C66.145 129.049 78.7231 111.849 95.3465 95.2254C111.97 78.6019 129.171 66.0238 143.695 59.0235C150.879 55.5611 157.462 53.437 163.028 52.8948C156.669 52.2127 148.906 53.5552 140.268 56.8363C125.017 62.6294 107.402 74.3511 90.9374 90.8162C74.4723 107.281 62.7506 124.896 56.9575 140.147ZM55.0498 166.342C55.0106 165.329 55.0427 164.256 55.1467 163.125C55.6282 157.884 57.6449 151.513 61.075 144.396C67.9316 130.169 80.3291 113.182 96.8163 96.6951C113.303 80.2079 130.291 67.8105 144.517 60.9538C151.634 57.5237 158.005 55.507 163.246 55.0255C164.378 54.9216 165.45 54.8894 166.463 54.9286C166.086 55.0085 165.704 55.0979 165.316 55.1965C160.444 56.4371 154.459 59.208 147.757 63.2316C134.34 71.2875 117.828 84.5015 101.225 101.104C84.6227 117.707 71.4086 134.219 63.3528 147.636C59.3292 154.338 56.5583 160.323 55.3177 165.195C55.2191 165.582 55.1297 165.965 55.0498 166.342ZM57.4052 165.586C56.8391 167.809 56.6419 169.672 56.7718 171.189C60.7572 160.018 80.922 134.635 107.839 107.718C134.756 80.8008 160.139 60.636 171.31 56.6506C169.793 56.5207 167.93 56.7179 165.707 57.284C161.143 58.4463 155.379 61.091 148.769 65.0597C135.563 72.9885 119.203 86.066 102.695 102.574C86.1872 119.082 73.1097 135.442 65.1809 148.647C61.2122 155.258 58.5675 161.022 57.4052 165.586ZM175.041 59.3795C175.18 58.5336 175.064 58.2315 175.029 58.1644C174.962 58.1298 174.66 58.014 173.814 58.1523C172.751 58.3262 171.249 58.8441 169.291 59.7917C165.399 61.6753 160.197 65.013 154.02 69.606C141.694 78.7709 125.808 92.6884 109.309 109.188C92.8096 125.687 78.8921 141.573 69.7272 153.899C65.1342 160.076 61.7965 165.277 59.9128 169.17C58.9653 171.128 58.4474 172.63 58.2735 173.693C58.1351 174.539 58.251 174.841 58.2856 174.908C58.3527 174.943 58.6548 175.058 59.5007 174.92C60.5633 174.746 62.066 174.228 64.024 173.281C67.9163 171.397 73.1175 168.059 79.2947 163.466C91.6206 154.302 107.507 140.384 124.006 123.885C140.505 107.386 154.423 91.4994 163.588 79.1735C168.181 72.9963 171.518 67.7951 173.402 63.9028C174.35 61.9448 174.867 60.4421 175.041 59.3795Z" fill="url(#paint1_linear_14908_24015)"/>
<defs>
<linearGradient id="paint0_linear_14908_24015" x1="189.2" y1="181.724" x2="113.474" y2="113.794" gradientUnits="userSpaceOnUse">
<stop stop-color="#202426"/>
<stop offset="1" stop-color="#202426"/>
</linearGradient>
<linearGradient id="paint1_linear_14908_24015" x1="48.8877" y1="50.3185" x2="128.475" y2="128.566" gradientUnits="userSpaceOnUse">
<stop stop-color="#202426"/>
<stop offset="1" stop-color="#202426"/>
</linearGradient>
</defs>
</svg>
