<svg width="1440" height="201" viewBox="0 0 1440 201" fill="none" xmlns="http://www.w3.org/2000/svg">
<rect width="1440" height="197.25" transform="translate(0 3.25)" fill="#FBF8E6"/>
<path d="M1439.91 136.405V0.1418C959.951 0.1418 480.009 0.1418 0.046875 0.1418C0.046875 22.5257 0.046875 44.9308 0.046875 67.3355C0.637835 67.4577 1.2288 67.58 1.73825 67.682C2.32921 67.2131 2.7979 66.8258 3.14433 66.5404C3.73528 66.3976 4.10209 66.8665 4.57079 66.6015C4.93758 66.3976 5.36553 66.3161 5.77309 66.1938C6.32329 66.4588 6.81236 66.7034 7.32181 66.9684C8.56486 66.4588 9.8283 66.4384 10.9287 67.0908C12.2329 67.8451 13.6186 68.1713 15.1877 68.3343C14.6783 68.8644 14.128 69.2517 14.2503 69.9653C14.7394 69.741 15.2284 69.5372 15.7583 69.2925V70.2099C16.3696 70.3322 16.4919 69.8022 16.7975 69.5372C17.1847 69.2314 17.5515 68.9051 18.1629 69.0887C18.387 69.2925 18.4074 69.8022 18.8965 69.7818C19.4467 69.4964 19.9765 69.2314 20.4656 68.9664C20.8324 69.1295 21.1177 69.2517 21.3622 69.3741C21.8513 69.0887 22.32 68.8032 22.7072 68.5993C23.7057 68.7421 24.5616 68.8848 25.1118 69.6799C25.1729 69.7614 25.3155 69.843 25.4378 69.843C25.6008 69.843 25.7435 69.7818 25.9269 69.741C25.7639 69.2722 25.6212 68.8848 25.499 68.5382C26.3141 67.3558 27.0273 66.6015 27.4553 66.4792C27.8831 66.6423 28.3314 66.785 28.7594 66.9481C28.6575 67.3762 28.576 67.682 28.4945 68.0082C29.8191 68.1305 30.4915 67.2131 31.4901 66.6015C31.9587 66.6015 32.509 66.6015 33.0592 66.6015C33.3648 66.6015 33.6705 66.7034 33.915 66.7442C35.1785 68.579 35.7083 69.109 37.4404 70.3118C37.5423 70.108 37.6442 69.9041 37.7461 69.7002C38.4797 69.8022 39.1521 70.1488 39.845 69.6595C39.9673 69.2722 40.1099 68.8237 40.2322 68.3751C40.7416 68.4567 41.0677 68.9459 41.5364 68.6809C41.516 68.4567 41.4753 68.2324 41.4548 68.0285C42.0459 67.2335 42.8814 67.315 43.5131 67.1927C44.1855 67.4374 44.6949 67.6208 45.2044 67.8247C45.3063 67.8655 45.3675 68.0082 45.4897 68.1509V68.9664C46.4883 69.1906 46.4883 67.8858 47.3033 67.9063C47.8332 68.1101 47.9758 68.844 48.6279 68.844C48.6891 68.6809 48.7298 68.5179 48.8113 68.3751C48.8521 68.3343 48.9947 68.3548 49.0967 68.3548C49.0967 68.4567 49.117 68.5993 49.0762 68.6401C48.9336 68.7421 48.7705 68.7829 48.6279 68.844C48.6687 69.1906 48.5872 69.6188 49.0762 69.7818C49.7691 69.6595 50.4823 69.5372 51.1345 69.4148C51.542 69.5167 51.8477 69.5575 52.1329 69.6799C53.05 70.0876 53.804 69.9041 54.4356 69.109C54.4764 69.0479 54.6598 69.109 54.8432 69.109C55.0266 69.5983 55.2101 70.1283 55.4138 70.638C55.6991 71.3312 56.1882 71.5554 56.881 71.2904C57.1663 70.8826 57.4516 70.5157 57.7369 70.1488C58.3074 70.2915 58.7965 70.3934 59.2245 70.4954C59.3263 70.7604 59.3875 70.9234 59.4691 71.0865C59.9174 70.9234 60.386 70.7604 60.9363 70.5565C61.3234 71.1681 62.3627 70.8826 62.6887 71.7389C62.5868 72.0855 62.5053 72.4116 62.3627 72.9009C62.811 72.8601 63.1574 72.8193 63.4631 72.7785C63.8299 72.2078 64.1559 71.6981 64.482 71.2089C67.2534 71.5147 69.6987 72.6359 72.2868 73.3087C72.7759 72.9825 73.2037 72.5748 73.7132 72.4116C74.2226 72.2486 74.7729 72.2486 75.0786 71.6981C75.2823 71.7389 75.4657 71.7592 75.6491 71.8C77.259 72.3097 78.8893 72.6767 80.6009 72.5543C81.3549 72.5135 82.0681 72.6971 82.6795 73.1048C82.761 73.3698 82.8426 73.5941 82.924 73.8183C82.924 73.8591 83.026 73.8387 83.1278 73.8795C83.8615 73.3901 84.6358 72.8601 85.4509 72.3097C86.1642 72.5951 86.8366 72.8805 87.4072 73.1048H88.9763C89.2005 73.5941 89.3838 74.0222 89.608 74.491C90.0563 74.0222 90.4027 73.6348 90.7695 73.2475C91.1567 73.8795 91.6458 73.961 92.1961 73.6756C92.4813 74.0018 92.4813 74.5726 93.1334 74.5726C93.3372 74.3483 93.5817 74.0833 93.7855 73.8591C94.1319 73.8591 94.4376 73.8591 94.7228 73.7979C95.0489 73.6959 95.3546 73.4922 95.5991 73.3495C95.966 73.5737 96.2309 73.7164 96.4551 73.8591C97.3381 72.9485 98.3773 72.6087 99.5728 72.8398C99.7562 72.8805 99.9396 72.799 100.164 72.7785C100.388 72.5135 100.632 72.2282 100.938 71.8613C101.468 71.7593 102.059 71.6573 102.548 71.5758C103.485 72.2282 102.874 73.2475 103.363 74.063C103.689 73.1251 103.547 72.1671 104.341 71.4942H105.319C105.747 71.8613 106.114 72.1874 106.297 72.3505C107.622 72.5951 108.702 72.799 109.843 73.0029C110.068 72.9009 110.333 72.7785 110.658 72.6359C110.862 73.0437 111.005 73.3494 111.167 73.6756C111.514 73.329 111.84 72.9825 112.187 72.6155C112.839 73.0844 113.389 73.4717 113.919 73.8591C114.53 74.0425 115.121 74.1853 115.692 74.3891C115.855 74.4503 115.977 74.6134 115.977 74.593C116.323 75.2454 116.038 75.8773 116.466 76.3463C116.976 75.9997 116.894 75.5512 116.976 75.1434C117.017 74.9804 117.118 74.8173 117.2 74.6541C117.587 74.5726 117.954 74.5115 118.382 74.4299C119.666 75.4084 121.275 75.1434 122.743 75.4696C122.824 75.7142 122.885 75.9385 122.946 76.1424C123.721 76.3055 124.434 76.5705 125.168 76.6113C125.983 76.6521 126.553 77.1005 127.123 77.5287C127.409 77.1209 127.654 76.7947 127.918 76.4074C129.04 77.284 130.221 77.9159 131.505 78.0587C132.728 78.2014 133.767 78.6295 134.766 79.3023C134.888 79.3838 135.091 79.343 135.235 79.3634C135.663 78.7111 134.501 78.2422 135.235 77.549C135.56 77.6917 135.927 77.9159 136.314 78.0179C136.783 78.1606 137.292 78.2217 137.801 78.3033C138.312 78.9149 138.821 79.5062 139.31 80.0973C139.779 79.9139 140.166 79.7507 140.553 79.6081C141.491 79.975 142.223 80.5255 142.957 81.1166C143.304 81.4224 143.712 81.5244 144.241 81.3205C144.486 81.0555 144.771 80.7497 145.036 80.4235C145.321 80.4031 145.566 80.3623 145.811 80.3623C146.687 80.3216 147.562 80.1584 148.398 80.2604C149.458 80.3828 150.069 79.4857 151.007 79.3838C151.475 79.343 151.944 79.1188 152.495 78.9557C152.617 79.2615 152.698 79.4654 152.779 79.6896C152.861 79.9546 152.779 80.3216 153.248 80.4642C153.757 79.975 153.452 78.9761 154.39 78.6091C154.818 78.7314 155.347 78.8538 155.897 79.0168C156.02 79.343 156.122 79.6284 156.264 79.8934C156.448 80.2197 156.713 80.3012 157.12 79.9546C157.201 79.5062 157.283 78.9761 157.365 78.5072C158.995 77.7733 160.625 78.4256 162.256 78.1606C162.479 78.6091 162.704 79.0372 162.928 79.4857C163.437 79.1391 163.885 78.8333 164.374 78.5072C165.741 79.2004 167.411 78.3645 168.735 79.6284C168.267 80.6274 167.757 81.6467 167.268 82.6864C168.368 82.2583 168.573 80.974 169.49 80.4642C170.63 80.2808 170.997 81.0758 171.303 81.7895C172.363 81.5448 172.954 80.8108 173.565 80.0158C174.829 80.607 176.052 81.1778 177.295 81.769C177.458 82.0545 177.64 82.3603 177.824 82.6661C178.191 82.5437 178.476 82.4417 178.721 82.3603C179.393 82.503 179.658 82.9718 179.801 83.5426C179.841 83.6649 180.046 83.7465 180.188 83.8892C180.494 83.5019 180.758 83.1757 181.003 82.8699C181.533 83.0126 181.492 83.4407 181.594 83.7873C181.655 84.032 181.737 84.2562 182.083 84.195C182.436 83.6106 182.687 83.3048 182.837 83.2776C183.285 83.5223 183.713 83.7669 184.06 83.9707C184.488 83.7669 184.793 83.6038 185.079 83.4611C185.385 83.7262 185.629 83.93 185.853 84.1134C186.22 83.7668 186.586 83.4204 186.994 83.033C187.708 83.0126 188.441 82.9718 189.195 82.9514C191.375 82.9107 193.535 82.8903 195.716 82.8495C196.124 82.8495 196.613 82.5437 196.898 82.6864C197.775 83.0941 198.59 82.9107 199.424 82.6661C199.771 82.5641 200.138 82.503 200.546 82.4011C200.811 82.8088 201.035 83.1553 201.341 83.5834C201.992 83.2165 202.278 83.8688 202.726 84.1542C202.97 84.0931 203.195 84.032 203.398 83.9707C204.295 84.5823 203.623 85.8463 204.56 86.5395C204.968 86.0501 205.355 85.6016 205.742 85.1532C205.457 84.7047 205.233 84.3378 205.008 83.9707C205.008 83.9707 205.09 83.8892 205.191 83.7669C205.518 84.0523 205.864 84.297 206.17 84.6028C206.536 84.9697 206.964 85.1736 207.495 85.2347C207.556 85.2347 207.617 85.3774 207.658 85.4386C207.311 85.7851 206.964 86.1113 206.619 86.4579C207.026 87.0695 207.454 87.0695 207.964 86.8656C208.432 86.3559 208.86 85.8463 209.369 85.3978C209.491 85.2755 209.818 85.3774 210.041 85.3978C210.102 85.3978 210.124 85.6016 210.205 85.8055C209.899 86.1317 209.552 86.4783 209.206 86.8248C208.88 87.1306 208.329 87.1714 208.106 87.7422C209.675 87.7626 210.246 86.4579 211.244 85.8055C211.366 85.8055 211.509 85.7851 211.611 85.8259C212.895 86.4987 214.28 86.2948 215.646 86.2337C215.972 86.2337 216.319 85.9482 216.624 85.7648C216.705 85.724 216.747 85.5609 216.787 85.4386C216.828 85.1532 216.359 84.9493 216.725 84.5212C216.889 84.562 217.195 84.562 217.297 84.7047C218.03 85.6629 219.09 85.6424 220.169 85.8463C220.353 85.3978 220.516 85.0105 220.699 84.6028C220.781 84.5212 220.863 84.4192 220.964 84.3581C222.35 83.3999 222.676 83.4204 224.021 84.5416C224.102 84.6028 224.245 84.5823 224.449 84.6028C224.775 84.2358 225.141 83.8281 225.427 83.4815C225.916 83.4815 226.385 83.6242 226.65 83.4611C227.404 82.9922 228.158 83.033 228.912 83.1146C229.013 83.1757 229.075 83.1961 229.115 83.2369C230.271 84.229 231.472 84.2765 232.723 83.3796C232.723 83.3796 232.926 83.3591 233.028 83.3388C233.314 83.6446 233.273 84.4192 234.068 84.0726C234.21 83.6242 234.332 83.1553 234.496 82.6456C235.229 82.7068 235.881 82.768 236.513 82.8088C236.92 82.2991 237.287 81.8709 237.531 81.5651C238.123 81.4836 238.49 81.4021 238.856 81.4021C239.875 81.4021 240.772 81.2186 241.709 80.77C242.85 80.1992 244.093 79.6488 245.438 80.2604C245.866 79.8934 246.233 79.5673 246.58 79.2818C248.597 78.8741 250.716 78.9353 252.306 77.5082C252.673 77.6714 252.958 77.7937 253.325 77.9364C253.895 77.3248 254.955 77.6509 255.485 76.7947C255.913 76.8763 256.341 76.9374 256.748 77.0598C257.217 77.2024 257.542 77.6306 258.093 77.6101C258.501 77.6101 258.909 77.7325 259.337 77.7937C259.581 77.6509 259.846 77.5082 260.13 77.3656C260.558 77.6101 260.925 77.8345 261.313 78.0383C262.331 78.5888 262.82 78.5072 263.799 77.6509C263.942 77.5287 264.104 77.4471 264.329 77.284C264.757 77.3248 265.246 77.3656 265.735 77.4063C266.041 77.4471 266.346 77.5695 266.652 77.549C267.141 77.5082 267.63 77.3451 268.119 77.3044C268.587 77.2637 269.076 77.3044 269.648 77.3044C269.566 75.9792 270.177 75.1638 271.319 74.6541C271.563 74.5318 271.705 74.1852 271.848 73.961C272.541 73.9202 273.132 73.7572 273.621 73.8999C274.395 74.1445 275.068 74.0425 275.781 73.7164C275.944 73.3903 276.107 73.064 276.27 72.7174C277.431 72.7379 278.471 73.0844 279.449 73.8183C280.183 72.9825 281.018 73.1048 281.874 73.4309C282.567 73.696 283.259 73.961 284.095 74.2872C284.809 74.0222 285.604 73.7367 286.48 73.4309C287.172 73.8387 287.906 74.2464 288.62 74.6541C288.884 74.4299 289.17 74.2057 289.577 73.8795C290.474 74.4707 291.452 74.2057 292.409 73.9814C293.082 74.5726 293.612 75.2862 294.509 75.49C294.59 75.2657 294.651 75.0823 294.773 74.7153C294.998 75.225 295.14 75.5308 295.283 75.8773C295.894 75.7347 296.057 75.2862 296.159 74.7765C296.261 74.328 296.057 73.7775 296.586 73.3903C296.913 73.798 297.219 74.1649 297.484 74.5522C297.586 74.6949 297.626 74.8988 297.687 75.0618C297.932 74.7154 298.197 74.3688 298.482 73.9814C298.787 74.0425 299.073 74.0833 299.298 74.1241C299.542 74.9599 299.685 75.2046 300.071 75.6531C301.091 75.021 301.05 73.4921 302.252 73.0029C302.436 73.2067 302.578 73.3903 302.741 73.5737C303.148 73.2067 303.556 72.8601 303.984 72.4524C305.288 72.8601 306.369 72.7379 307.387 71.6981C308.019 71.0662 308.997 70.7604 309.935 71.1681C310.199 71.535 310.444 71.8408 310.688 72.1874C311.096 71.7593 311.422 71.4128 311.687 71.107C312.95 71.107 313.745 71.7797 314.438 72.7379C314.743 72.3709 314.988 72.1058 315.254 71.7592C315.844 71.5758 316.496 71.3515 317.087 71.1681C317.536 71.4128 317.882 71.637 318.269 71.8613C318.636 71.2904 318.962 70.7807 319.268 70.3118C320.593 70.1691 321.815 70.0468 323.078 69.9246C323.404 70.0876 323.731 70.2507 324.076 70.4341C324.484 70.3934 324.912 70.3526 325.36 70.3118C325.849 70.8418 326.36 71.2904 326.38 72.167C326.013 72.5135 325.605 72.8601 325.238 73.2475C325.177 73.3087 325.198 73.4717 325.157 73.696C325.36 73.7367 325.565 73.7979 325.748 73.8387C326.502 73.0029 327.215 72.2282 327.969 71.4128C328.662 71.8408 329.273 72.2282 329.905 72.6155C329.987 72.6563 330.129 72.6155 330.231 72.6155C330.313 72.3913 330.374 72.167 330.455 71.9224C331.005 71.7797 331.555 71.6777 332.064 71.4535C332.575 71.2292 333.023 70.9031 333.512 70.6176C334.632 70.9642 335.611 70.7399 336.549 70.108C336.997 69.8022 337.567 69.6799 338.076 69.4556C338.403 69.313 338.749 69.1498 339.075 68.9664C339.34 68.8237 339.564 68.4974 339.849 68.4567C341.113 68.2732 341.949 67.4374 342.764 66.5607C343.803 66.4384 344.842 66.3365 346.044 66.1938C346.35 65.9288 346.758 65.5822 347.145 65.2356C347.675 65.2764 348.143 65.3783 348.571 64.9706C348.979 64.5629 349.468 64.5833 349.977 64.9094C350.242 65.3375 350.527 65.8065 350.854 66.2549C350.874 66.2957 351.057 66.2549 351.18 66.2549C351.241 65.786 350.527 65.4395 350.996 64.9094C352.525 64.9706 352.525 64.9502 354.114 64.1551C354.827 63.8085 355.54 63.3805 356.416 63.6659C356.621 63.7271 356.906 63.6251 357.089 63.5028C357.905 62.9931 358.74 63.0542 359.576 63.36C359.657 63.4008 359.718 63.5435 359.779 63.6455C359.779 63.9105 359.31 64.1551 359.779 64.5425C360.044 64.4609 360.39 64.359 360.737 64.2775C361.083 64.1959 361.471 64.0124 361.797 64.0736C362.714 64.2571 363.508 63.9717 364.181 63.5843C364.832 63.6863 365.383 63.7679 365.832 63.829C366.565 63.4824 366.483 62.2389 367.544 62.5447C368.215 62.9524 368.134 63.7271 368.44 64.3182C368.725 64.5629 369.01 64.8075 369.295 65.0317C369.377 65.6433 369.438 66.2142 369.52 66.785C369.581 66.785 369.642 66.785 369.703 66.785C369.765 65.5007 369.805 64.2163 369.846 63.0747C370.396 62.4834 370.804 62.0554 371.272 61.5457C371.455 61.6884 371.7 61.7904 371.822 61.9738C371.986 62.2184 372.067 62.5039 372.169 62.7892C372.311 62.6262 372.413 62.4631 372.577 62.3815C372.8 62.2796 373.045 62.2592 373.269 62.1981C373.697 61.6068 373.799 60.7302 374.859 60.7099C375.144 60.9544 375.449 61.2399 375.776 61.5457C376.102 61.8515 376.244 62.4631 377.039 62.2592C376.713 61.7904 376.387 61.4234 376.183 61.0157C376.061 60.771 376.061 60.4652 375.98 60.0983C376.449 59.9963 376.815 59.8536 377.161 59.874C377.773 59.9351 378.364 60.0982 378.954 60.2206C380.076 58.875 382.195 59.2216 383.54 61.0768C383.825 60.873 384.131 60.6691 384.416 60.4652C384.314 60.1594 384.232 59.9556 384.11 59.6293C384.885 59.7109 385.557 59.8332 386.23 59.8332C387.066 59.8332 387.839 59.9556 388.512 60.4856C388.981 60.8525 389.51 60.9544 390.081 60.9341C390.509 60.9137 390.937 60.8525 391.324 60.8117C392.16 61.2399 392.975 61.8107 393.81 61.6068C394.727 61.3826 395.522 61.668 396.316 61.831C397.805 60.9341 399.393 61.4641 400.922 61.3622C401.289 60.9952 401.126 60.2001 401.982 60.1187C402.349 60.4856 402.736 61.036 403.49 60.7302C403.693 60.4856 403.918 60.2001 404.142 59.9351C405.466 59.7517 406.546 58.8139 407.789 58.8343C408.686 59.2216 409.46 59.6498 410.296 59.8943C411.152 60.139 411.743 61.138 412.783 60.8322C412.925 60.5264 413.047 60.2817 413.169 60.0167C413.903 60.5875 414.596 61.0972 415.248 61.6273C416.287 61.5049 417.266 61.3622 418.305 61.2399C419.059 60.6691 419.832 60.0779 420.526 59.5479C421.585 59.7109 422.502 59.8537 423.236 59.9759C424.194 60.3837 424.337 61.566 425.396 61.566C425.538 61.1788 425.682 60.8117 425.865 60.3429C426.293 60.5264 426.66 60.8525 426.924 60.771C427.78 60.5264 428.473 60.9544 429.186 61.2399C429.35 60.8933 429.451 60.6487 429.593 60.3225C430.082 60.506 430.552 60.6691 430.918 60.8117C431.571 61.4233 431.774 62.3 432.691 62.5447C432.732 61.8515 432.263 61.1788 432.732 60.5264C433.67 60.1798 433.405 61.403 434.098 61.5049C434.362 61.2602 434.688 60.9952 435.015 60.7302C435.829 60.6283 436.624 60.5264 437.419 60.4244C437.664 60.6894 437.908 60.9341 438.194 61.2195C438.397 60.7914 438.561 60.4652 438.703 60.1594C439.05 60.2614 439.355 60.3633 439.64 60.4448C440.068 59.9963 440.455 59.5479 440.843 59.1605C441.922 59.3643 442.717 60.1186 443.797 60.0167C443.736 59.609 443.695 59.2013 443.634 58.7527C444.022 58.6508 444.307 58.5081 444.612 58.5081C445.896 58.5081 447.2 58.5081 448.484 58.4062C449.178 58.345 449.829 58.2839 450.359 57.8557C451.093 58.0189 451.765 58.1615 452.377 58.2839C452.744 58.6508 453.089 58.9769 453.436 59.3235C453.762 58.9566 453.986 58.6916 454.272 58.3858C455.31 58.5693 456.35 58.6508 457.389 58.6712C458.428 58.6712 459.468 58.9158 460.467 59.0585C461.037 58.5897 461.566 58.1615 462.158 57.6723C463.116 58.3042 464.155 58.5285 465.235 58.3247C466.682 58.0596 468.128 57.7131 469.637 57.3665C470.085 57.0607 469.678 56.2656 470.39 55.919C470.717 56.1841 471.083 56.4694 471.45 56.7344C471.899 56.5102 472.286 56.3267 472.673 56.1433C473.039 56.286 473.386 56.4083 473.794 56.5714C474.344 55.4909 475.343 55.5725 476.341 55.6744C476.544 55.4909 476.749 55.3279 476.911 55.1648C477.544 54.5124 478.378 54.0639 479.214 54.0842C480.193 54.0842 481.027 53.9008 481.782 53.4115C482.455 53.5542 483.086 53.6358 483.738 54.3493C483.881 54.5124 483.534 55.2463 484.248 55.5725C484.411 55.0221 484.553 54.5735 484.717 54.0435C485.185 53.9823 485.613 53.9212 486.041 53.8804C486.591 53.8397 487.161 53.8192 487.711 53.7784C487.814 53.7784 487.895 53.6358 487.997 53.5542C488.201 53.1873 487.733 52.6776 488.222 52.331C488.629 52.1475 488.914 52.331 489.159 52.6572C489.464 53.9212 489.79 55.1851 490.096 56.4491C490.218 57.0199 490.524 57.3868 491.257 57.6926C490.952 56.7345 490.871 55.9394 490.504 55.2055C490.178 54.5327 490.015 53.7989 489.811 53.1057C489.689 52.6572 489.79 52.2494 490.137 51.903C490.952 51.3321 491.91 51.5767 492.827 51.4544C492.908 51.7602 492.989 51.9844 493.072 52.2699C493.52 52.3514 493.989 52.4533 494.6 52.5757C494.762 52.7999 494.987 53.1057 495.129 53.33C496.006 53.3503 496.739 53.6358 497.472 53.0446C497.839 53.4523 498.227 53.86 498.573 54.2881C498.9 54.6958 499.328 54.9201 499.837 54.9813C500.754 55.0832 501.671 55.2055 502.689 55.3279C502.995 55.2055 503.383 55.0424 503.75 54.8793C505.339 56.7141 507.519 56.5306 508.538 54.5532C509.74 55.1035 510.882 54.6143 512.023 54.2677C512.206 54.3697 512.369 54.5327 512.532 54.5532C513.633 54.6551 514.346 55.2667 514.896 56.1637C514.998 56.3267 515.12 56.4695 515.263 56.5714C515.324 56.6325 515.487 56.5714 515.609 56.5714C515.65 56.2452 515.69 55.8987 515.712 55.5725C516.649 55.4501 516.384 56.6325 517.138 56.6733C517.769 56.3675 518.014 55.4093 518.972 55.5725C519.42 55.9598 519.868 56.3675 520.317 56.7344C521.071 56.3675 521.723 56.0414 522.355 55.7356C523.394 56.0617 524.331 56.3675 525.106 56.6122H527.978C528.101 56.551 528.386 56.4083 528.672 56.2656C529.018 56.4491 529.323 56.653 529.67 56.7752C530.017 56.8976 530.384 56.9588 530.668 57.0199C531.749 56.0822 532.91 55.5928 534.194 55.3686C534.317 55.1851 534.439 55.0221 534.561 54.8385C534.683 55.0221 534.806 55.1851 534.928 55.3686C536.028 55.4706 537.128 55.0221 538.249 55.2463C538.311 55.2463 538.412 55.0832 538.494 54.9813C538.412 54.7163 538.311 54.4308 538.208 54.0842H539.839C540.062 54.6143 540.104 55.3279 541.102 55.3279C541.897 54.5939 542.997 54.5532 544.139 54.6347C544.689 54.6755 545.259 54.6347 545.809 54.6551C546.115 54.6551 546.401 54.7774 546.502 54.7977C547.174 55.4093 546.441 56.0822 546.849 56.7141C547.44 56.3267 547.949 55.9802 548.397 55.6948C548.5 55.3074 548.581 55.0221 548.642 54.7977C549.64 54.492 550.068 55.3074 550.721 55.5928C550.802 55.6336 550.843 55.7967 550.884 55.8986C551.046 56.4491 550.231 56.7957 550.496 57.4073C551.251 57.3257 551.128 56.4083 551.841 56.286C552.086 56.4491 552.371 56.6325 552.718 56.8772C553.044 55.9802 552.636 55.1648 552.514 54.3085C552.819 54.1455 553.064 53.9823 553.328 53.8397C553.756 53.3707 553.472 52.5552 554.144 52.2291C555.04 51.9844 554.898 53.0649 555.509 53.2688C555.734 53.0242 555.978 52.7591 556.263 52.4738H557.282C557.608 52.8407 557.894 53.1465 558.199 53.4726C558.586 53.2688 558.912 53.1261 559.218 52.963C559.523 53.1057 559.789 53.2484 560.034 53.3707C560.543 53.0242 561.012 52.7184 561.296 52.5146C562.744 52.331 563.762 53.0649 564.904 53.4115C565.393 53.0038 565.882 52.6368 566.391 52.2087C566.697 52.5552 566.941 52.861 567.227 53.1873C567.43 52.7591 567.574 52.433 567.696 52.1883C568.286 52.0252 568.816 52.0049 569.223 51.7602C569.998 51.2914 570.854 51.0874 571.69 50.9856C572.668 50.8632 573.483 50.5166 574.114 49.8642C574.848 49.7624 575.52 49.6605 576.274 49.5381C576.438 49.9458 576.601 50.3127 576.763 50.7613C577.008 50.4555 577.232 50.1905 577.313 50.0885C578.374 49.5381 579.27 49.0896 580.146 48.641C580.473 48.478 580.818 48.2945 581.145 48.1518C581.695 47.9072 582.225 47.8868 582.755 48.213C582.958 48.3352 583.183 48.4576 583.427 48.4984C583.57 48.5188 583.753 48.376 583.896 48.3149C583.855 47.9888 583.814 47.7236 583.774 47.4383C584.69 47.0509 584.956 48.0907 585.832 48.1314C585.995 48.0907 586.362 47.9888 586.708 47.8664C586.932 47.7849 587.157 47.6422 587.36 47.5198C588.38 46.9286 589.398 46.3578 590.457 45.7463C591.395 46.1743 592.291 45.9501 593.168 45.5831C593.942 45.2569 594.717 45.2161 595.532 45.5016C596.102 45.685 596.734 45.7666 597.346 45.8889C597.569 45.4405 597.753 45.0531 597.977 44.6046C598.67 44.7676 599.322 44.9103 599.974 45.0734C600.32 44.9715 600.667 44.89 600.912 44.8084C601.706 45.2366 602.032 46.1335 602.827 46.2763C603.357 45.9501 603.113 45.2977 603.703 45.0327C604.152 44.8289 604.397 44.1968 604.783 43.7891C605.109 43.4222 605.496 43.1164 605.782 42.8309C606.006 42.7902 606.128 42.729 606.251 42.729C607.188 42.729 608.044 42.6067 608.9 42.0767C609.673 41.6077 610.632 41.4447 611.488 41.0981C611.936 40.9147 612.385 40.67 612.791 40.3846C614.075 39.4876 614.381 39.4876 615.746 40.4253C615.93 40.5477 616.174 40.6089 616.48 40.7311C616.684 40.2623 616.868 39.8749 617.03 39.508C617.907 39.0799 618.824 39.0799 619.68 39.2837C620.474 38.8964 620.984 37.8766 622.043 38.4886C622.166 38.7536 622.288 39.0186 622.451 39.3652C622.574 39.1818 622.675 39.0391 622.736 38.876C623.144 38.02 623.857 37.7143 624.753 37.8977C626.221 38.2236 627.444 37.8155 628.463 36.735C628.544 36.6539 628.666 36.5927 628.83 36.5116H629.726C630.5 35.818 631.173 35.1865 631.824 34.5952C632.477 34.4518 633.088 34.3296 633.68 34.2073C634.209 34.493 634.719 34.7375 635.228 35.0021C635.575 34.9009 635.921 34.7786 636.165 34.7175C636.613 34.2484 636.573 33.4736 637.368 33.5147C638.305 33.9016 638.713 34.8187 639.405 35.7568C639.63 35.0432 639.813 34.5541 639.997 34.0038C640.404 34.065 640.771 34.1261 641.117 34.1873C641.321 33.9427 641.524 33.7182 641.79 33.4125C642.93 33.4536 643.827 32.3731 645.193 32.5355C645.6 33.0868 646.007 33.6771 646.518 34.3707C646.863 33.8816 647.129 33.4937 647.312 33.188C648.535 32.4954 649.676 32.9023 650.674 33.1068C651.163 33.3925 651.285 33.9427 651.815 33.9016C652.386 33.657 651.877 33.0868 652.202 32.78C652.386 32.74 652.569 32.6989 652.733 32.6788C652.794 32.4543 652.855 32.2298 652.957 31.9441C653.405 32.0263 653.813 32.1075 654.18 32.1687C654.689 32.0053 655.219 31.9441 655.606 31.6795C656.727 30.8637 657.949 30.6402 659.294 30.9048C659.539 30.5379 659.722 30.2323 659.845 30.0489C660.68 29.7832 661.373 29.5597 662.107 29.3352C662.738 29.4775 663.146 30.2323 663.941 30.0689C664.144 29.8444 664.328 29.6209 664.531 29.4164C665.604 29.8654 666.691 29.8791 667.792 29.4575C668.036 30.0077 668.261 30.558 668.505 31.1093C668.791 31.007 669.075 30.8848 669.381 30.8025C669.483 30.7825 669.626 30.8436 669.748 30.8436C670.787 31.9441 670.848 31.9852 671.46 32.2298C671.765 32.3932 671.501 32.8823 671.97 32.8211C672.051 32.2098 672.132 31.5984 672.234 30.8848C674.048 30.6402 675.862 30.7214 677.41 29.7832C677.696 29.9055 677.919 29.9877 678.144 30.0689C678.45 29.682 678.755 29.2941 679.081 28.8862C680.284 29.3152 681.323 28.9473 682.28 28.377C682.769 28.805 683.32 28.9273 683.891 28.825C684.278 28.7439 684.603 28.805 684.95 29.0295C685.114 29.1518 685.398 29.0907 685.725 29.1318C685.786 28.377 685.847 27.7446 685.908 27.1543C687.171 26.7253 688.292 27.5 689.494 27.1543C690.676 26.8275 691.92 26.7052 693.183 26.4807C693.611 26.175 694.039 25.8082 694.508 25.5025C695.893 24.5443 695.995 24.5643 697.462 25.6448C698.889 25.3602 699.52 23.7495 700.906 23.4027C701.232 23.6473 701.518 23.8307 701.803 24.0552C702.068 23.4839 702.271 22.9748 702.516 22.4245C703.392 23.0559 702.78 24.0141 703.269 24.83C703.372 24.2797 703.453 23.8307 703.535 23.3827C703.535 23.3416 703.616 23.3005 703.677 23.2604C704.003 23.3827 704.35 23.505 704.615 23.5861C706.204 23.0159 707.691 22.4445 709.383 21.8332C711.115 20.6304 713.153 19.6311 715.456 19.2032C716.251 19.0609 717.107 18.9786 717.779 18.6118C718.696 18.1027 719.653 18.0415 720.673 17.8982C721.182 18.245 721.692 18.5918 722.181 18.9175H723.302C723.709 19.162 724.055 19.4277 724.442 19.6111C724.789 19.7734 725.034 20.3036 725.604 19.998C725.4 19.1621 724.381 18.7341 724.422 17.7759C724.911 16.6143 726.073 16.6954 727.071 16.3086C727.316 16.8588 727.662 17.1645 728.11 17.4291C729.252 18.1227 729.353 18.673 728.824 19.9168C728.477 20.7316 727.907 21.3841 727.316 22.0366C727.153 22.22 727.01 22.4445 727.214 22.6891C727.337 22.6891 727.479 22.7502 727.56 22.6891C728.233 22.2411 728.844 21.7109 729.15 20.915C729.394 20.2836 729.741 19.7123 730.393 19.2032C730.617 19.5089 730.882 19.7123 730.943 19.9779C731.147 20.6916 731.27 21.4252 731.432 22.1589C731.493 22.4646 731.554 22.7703 731.677 23.0559C731.799 23.3416 731.677 23.7284 732.043 23.953C732.329 22.9136 731.962 21.8943 732.37 20.875C732.655 20.8138 732.94 20.7727 733.347 20.6916C733.511 21.6698 733.674 22.5668 733.816 23.4438C734.061 23.525 734.224 23.5861 734.408 23.6673C734.428 23.0559 734.408 22.4445 734.489 21.8332C734.509 21.6497 734.733 21.4864 734.958 21.1807C735.243 21.772 735.467 22.18 735.692 22.648C735.264 23.077 735.019 23.6062 734.387 23.6673C734.611 23.9118 734.917 24.0752 735.223 23.9329C735.997 23.5861 736.71 23.8307 737.382 24.1163C738.116 24.4421 738.83 24.83 739.522 25.2379C740.175 25.6047 740.786 25.9916 741.601 26.4607C741.723 26.9298 741.887 27.5822 742.09 28.357C742.763 28.1125 742.946 28.805 743.415 29.0706C743.822 28.6416 744.23 28.2137 744.658 27.7657C745.473 28.1736 746.186 28.5404 746.777 28.825C747.042 29.2541 747.226 29.5597 747.368 29.8243C747.918 29.7632 748.346 29.682 748.774 29.682C749.08 29.682 749.385 29.8043 749.385 30.1912C749.1 30.7013 748.326 30.538 748.06 31.2316C748.305 31.3127 748.508 31.415 748.733 31.4761C749.1 31.5573 749.487 31.5573 749.813 31.6795C750.261 31.863 750.669 32.2098 751.117 32.3521C751.545 32.4954 752.034 32.4543 752.524 32.5154C752.381 32.8823 752.279 33.1479 752.157 33.4937H753.726C754.214 33.1679 754.622 32.8823 754.908 32.6989C755.926 32.6377 756.334 33.4125 757.17 33.7382C758.332 33.5147 759.228 34.3707 760.348 34.8187C760.492 35.39 760.614 35.9202 760.756 36.5316C761.082 36.4504 761.449 36.2059 761.632 36.3071C762.243 36.6539 762.815 36.5116 763.426 36.4293C763.874 36.3682 764.302 36.4705 764.526 37.0407C764.444 37.3264 764.342 37.6732 764.2 38.0811C764.587 38.1217 764.934 38.1421 765.28 38.1828C765.687 38.611 765.993 39.141 766.768 39.141C767.277 39.141 767.766 39.5895 768.276 39.7526C768.846 39.9157 769.478 39.9768 770.028 40.0992C770.558 40.7516 771.087 41.3835 771.576 41.9951C772.127 42.6678 773.146 42.8309 773.432 43.6668V44.6861C774.776 45.5424 776.142 46.3985 777.466 47.2344C777.507 47.3975 777.588 47.5198 777.568 47.6217C777.343 48.5188 777.649 49.1915 778.343 49.7419C778.771 50.0885 779.138 50.537 779.586 50.8632C780.013 51.1894 780.523 51.3932 781.053 51.699C780.971 52.331 780.87 52.9223 780.767 53.6562C781.42 53.5542 781.949 53.4726 782.459 53.3911C783.049 53.7581 783.518 54.1455 783.621 54.7977C783.58 54.9405 783.538 55.0629 783.518 55.1851C783.477 55.3482 783.416 55.4909 783.355 55.7151C784.68 55.8375 785.903 55.8375 787.064 55.5725C787.39 55.7764 787.655 56.0414 787.92 56.0822C788.878 56.2044 789.469 56.8364 790.039 57.4888C790.325 57.815 790.548 58.1819 790.793 58.5285C791.303 58.7935 791.792 59.0382 792.26 59.2624C792.749 58.8751 793.177 58.5081 793.666 58.1004C794.238 58.3042 794.828 58.4877 795.297 58.6508C795.725 59.2829 796.051 59.8129 796.438 60.3021C796.662 60.5672 796.968 60.771 797.212 60.9952C797.763 60.7914 798.211 60.6487 798.516 60.5264C799.922 61.7699 801.226 62.932 802.551 64.094C802.837 65.0725 803.122 66.0715 803.387 67.0092C803.204 67.58 803.04 68.0285 802.877 68.4974C803.468 68.7625 803.855 68.7217 803.999 68.3955C804.1 68.1713 804.161 67.9266 804.202 67.682C804.344 66.9481 804.467 66.2142 804.61 65.5007C804.344 65.4395 803.999 65.6433 803.855 65.1949C804.039 65.1337 804.202 65.0522 804.406 64.9706C804.488 65.1744 804.549 65.3375 804.61 65.5007C805.119 65.2764 805.608 65.0725 806.179 64.8279C806.403 65.2152 806.586 65.521 806.81 65.8676C806.525 66.2549 806.26 66.5812 806.036 66.9481C805.914 67.1519 805.792 67.3762 806.159 67.5393C806.749 67.1316 807.36 66.7034 807.952 66.2957C808.543 66.3568 809.072 66.3976 809.683 66.4588C809.745 66.0104 809.806 65.6638 809.867 65.1949C810.173 65.3172 810.499 65.3375 810.703 65.521C810.967 65.7657 811.151 66.0918 811.334 66.4181C811.843 67.3558 812.353 67.9674 813.393 68.7625C813.515 68.6401 813.637 68.5179 813.76 68.3751C813.372 67.8655 812.965 67.3966 812.679 66.8665C812.435 66.4181 812.394 65.9084 813.046 65.6026C813.963 66.051 814.88 66.52 815.96 67.05C816.409 67.7024 816.959 68.5179 817.468 69.2722C817.855 69.2314 817.896 68.7217 818.324 68.8848C818.61 69.3537 818.365 69.7002 818.079 70.0468C817.876 70.2915 817.693 70.5565 818.079 70.9438C818.63 70.638 819.2 70.3526 819.913 70.3526C821.849 70.3526 822.032 70.4341 822.787 72.2689C822.807 72.3301 822.99 72.3301 823.113 72.3709C823.337 72.0243 823.582 71.6573 823.846 71.2496H825.191C825.783 71.5554 825.864 72.2893 826.515 72.3097C826.699 72.1263 826.842 71.9427 827.026 71.7592C828.309 72.534 828.065 74.1445 828.982 75.1638C830.184 75.1434 831.426 74.9192 832.568 75.5715C832.649 76.1016 832.71 76.5705 832.813 77.2024C833.199 76.7743 833.505 76.4074 833.791 76.0812C834.708 75.9997 835.564 75.9181 836.399 76.0812C836.46 76.5093 836.521 76.8559 836.562 77.1821C837.276 76.9374 837.907 76.7132 838.538 76.4889C839.232 76.5297 839.538 77.4063 840.23 77.2637C840.333 76.9171 840.414 76.5705 840.516 76.1831C841.229 76.4074 841.187 76.9171 841.249 77.3859C841.29 77.8548 841.126 78.3645 841.636 78.7518C842.023 78.5888 842.146 78.2217 842.309 77.8956C842.431 77.6306 842.471 77.284 842.982 77.3451C843.348 77.8345 843.755 78.3849 844.163 78.9353C844.204 78.9761 844.367 78.9353 844.489 78.9149C844.652 78.2422 844.102 77.7733 843.98 77.1821C843.899 76.8151 843.816 76.4482 844.204 76.1831C845.244 76.3258 846.283 76.4482 847.199 76.5705C847.648 76.3666 847.587 75.7754 848.116 75.8162C848.341 76.02 848.565 76.2239 848.81 76.4482H850.195C850.542 77.019 849.645 77.5287 850.297 78.1198C850.928 77.6714 851.581 77.2432 852.253 76.7743C853.088 76.9782 853.66 77.5287 854.169 78.181C854.78 78.9761 855.595 79.3634 856.614 79.1391C856.715 79.1188 856.839 79.2411 857.062 79.343C857.205 79.975 857.368 80.6682 857.571 81.6263C858.754 81.1166 859.772 81.4837 860.628 82.1564C861.389 81.7759 862.198 81.6535 863.054 81.7895C863.318 82.1359 863.624 82.5233 863.869 82.8495C864.541 82.7068 865.111 82.5641 865.744 82.4214C865.845 82.3195 865.988 82.1564 866.131 81.9933C866.946 83.3184 868.066 82.4622 869.289 82.5437C870.349 83.1146 871.592 83.7873 873.079 84.6028C873.304 84.6028 873.793 84.6028 874.302 84.6028C875.056 84.5823 875.749 84.6842 876.422 85.1124C877.033 85.4997 877.807 85.6221 878.5 85.8667C878.866 85.7036 879.193 85.4997 879.539 85.4182C879.906 85.3366 880.273 85.3571 880.66 85.3571C881.781 85.3571 882.901 85.2347 884.002 85.5609C884.288 85.6424 884.633 85.6016 884.919 85.5201C885.775 85.2551 886.509 85.5201 887.242 85.9279C887.67 86.1725 888.098 86.3967 888.505 86.6006C889.85 86.0501 890.177 85.9482 890.87 86.3356C892.112 87.0287 893.477 87.1103 894.822 87.2122C895.883 87.2733 895.883 87.253 896.942 87.7422C897.268 87.5791 897.595 87.4364 898.023 87.2325C898.899 87.8849 899.958 88.3946 900.651 89.21C901.873 90.6371 903.382 91.738 904.808 92.9408C904.91 93.0223 905.134 92.9408 905.297 92.9408C905.216 92.1457 904.258 91.9622 904.278 91.2079C904.93 90.6575 905.439 91.2487 905.99 91.4117C906.723 90.9633 907.457 90.6982 908.232 91.3711C908.741 92.268 908.293 93.3281 908.68 94.429C908.843 93.8786 908.944 93.5116 909.088 93.002C909.902 93.532 910.616 94.0008 911.289 94.4494C911.594 94.3679 911.818 94.2863 912.022 94.2251C912.206 94.429 912.348 94.6124 912.572 94.8571C913.02 94.3474 913.407 93.8989 913.774 93.4708C914.793 93.3281 915.16 94.3271 915.914 94.5309C916.322 94.4086 916.709 94.2863 917.096 94.1844C917.748 95.224 918.318 96.1619 918.91 97.12C919.317 97.2627 919.705 97.4054 920.132 97.5685C920.234 98.4451 920.356 99.2809 920.458 100.198C920.662 100.056 920.866 99.9945 920.947 99.8517C921.151 99.546 921.273 99.179 921.456 98.8732C921.498 98.7916 921.661 98.7916 921.803 98.7509C922.068 99.0771 922.312 99.4032 922.679 99.8517C923.128 99.4032 923.291 98.6286 924.126 98.7102C924.452 99.0567 924.819 99.4645 925.166 99.8314C925.92 99.9129 926.592 99.9741 927.081 100.035C927.448 100.382 927.651 100.749 927.876 100.749C928.834 100.749 929.282 101.483 929.811 102.053C930.403 102.685 930.933 103.379 931.523 104.031C931.687 104.214 931.911 104.337 932.196 104.113C932.012 102.726 931.034 101.768 930.28 100.708C930.994 99.8925 931.177 99.8314 933.052 99.8722C932.99 100.423 932.889 100.953 932.868 101.483C932.868 101.809 933.073 102.074 933.562 101.992C933.785 101.727 934.071 101.422 934.397 101.075C934.825 101.258 935.191 101.503 935.599 101.585C936.006 101.666 936.455 101.564 936.862 101.523C937.229 101.931 937.535 102.359 938.126 102.42C937.901 102.787 937.718 103.073 937.474 103.481C939.063 103.358 939.878 102.094 940.917 101.503C942.018 101.401 942.589 102.196 943.363 102.645C943.506 102.339 943.648 102.074 943.791 101.788C944.566 102.135 945.319 102.502 946.033 102.828C946.501 102.584 946.868 102.38 947.296 102.135C947.561 102.359 947.785 102.543 948.009 102.747C948.213 102.93 948.234 103.338 948.702 103.256C948.743 102.584 947.989 102.074 948.254 101.36C948.417 101.36 948.56 101.36 948.621 101.401C949.415 102.135 950.291 102.38 951.372 102.176C951.779 102.094 952.309 102.115 952.635 102.339C953.389 102.849 954.428 102.91 954.917 103.848C954.999 103.99 955.182 104.153 955.345 104.194C956.12 104.357 956.589 104.969 957.159 105.478C957.587 105.275 957.974 105.091 958.463 104.846C958.687 105.295 958.871 105.703 959.095 106.151C960.195 105.56 961.52 105.805 962.559 104.948C963.129 104.479 963.924 104.867 964.23 105.601C964.413 106.049 964.474 106.559 964.577 107.028C964.658 107.395 964.638 107.762 964.76 108.108C964.841 108.353 965.086 108.455 965.412 108.21C965.269 107.66 965.106 107.069 964.984 106.6C965.208 106.029 965.392 105.58 965.595 105.152C965.636 105.071 965.758 105.01 965.861 104.928C966.206 105.234 966.573 105.56 966.9 105.845C967.368 105.621 967.735 105.438 968.082 105.295C969.06 105.988 969.957 106.64 970.812 107.272C971.056 107.191 971.261 107.171 971.423 107.089C972.687 106.437 973.971 105.825 975.214 105.132C975.886 104.765 976.62 104.561 977.353 104.663C978.087 104.765 978.699 104.581 979.351 104.378C979.697 104.276 980.064 104.174 980.43 104.051C980.899 104.214 981.367 104.378 981.795 104.52C982.367 104.296 982.428 103.481 983.243 103.583C983.324 103.746 983.487 103.949 983.487 104.153C983.487 104.52 983.345 104.887 983.284 105.234C983.202 105.621 983.284 105.968 983.59 106.253C983.691 105.866 983.773 105.458 983.895 104.989C985.545 104.704 987.115 104.418 988.745 104.133C989.01 104.418 989.274 104.663 989.479 104.948C989.662 105.193 989.397 105.662 989.825 105.845C990.049 105.336 990.253 104.887 990.477 104.439C990.701 103.97 991.006 103.603 991.679 103.501C992.168 103.623 992.779 103.766 993.351 103.909C993.676 103.766 993.962 103.644 994.207 103.542C994.532 103.501 994.777 103.929 995.185 103.603C995.327 103.297 995.51 102.91 995.714 102.502C996.244 102.624 996.773 102.726 997.283 102.359C997.406 102.278 997.711 102.441 997.935 102.502C997.854 102.889 997.793 103.175 997.731 103.46C998.262 103.623 998.607 103.297 998.832 102.95C999.26 102.319 999.891 102.135 1000.56 101.972C1000.67 101.952 1000.79 102.013 1000.91 102.033C1001.16 102.319 1001.38 102.584 1001.54 102.767C1002.42 102.747 1002.13 101.952 1002.5 101.687C1002.85 101.503 1003.17 101.36 1003.44 101.218C1003.78 101.442 1004.03 101.585 1004.29 101.768C1004.72 101.585 1005.13 101.422 1005.47 101.279C1007.8 102.522 1009.53 101.055 1011.41 100.096C1011.61 100.382 1011.83 100.606 1011.98 100.871C1012.16 101.157 1012.28 101.483 1012.42 101.748C1013.59 101.666 1013.69 100.484 1014.36 100.137C1015.2 99.9537 1015.93 99.8722 1016.64 99.6275C1018.23 99.0771 1019.78 98.4655 1021.37 97.8947C1022.1 97.6297 1022.84 97.5889 1023.47 98.1597C1024.37 98.9955 1025.36 98.9548 1026.38 98.4452C1026.81 98.8936 1026.26 99.709 1027.08 100.137C1027.38 99.6071 1027.69 99.1179 1028.03 98.5471C1028.18 98.8732 1028.28 99.1382 1028.38 99.3829C1028.48 99.4032 1028.54 99.4237 1028.6 99.4237C1028.99 99.4237 1029.11 99.1382 1029.24 98.8529C1029.54 98.18 1030.03 97.9355 1030.58 98.1597C1031.19 98.4858 1030.91 99.281 1031.68 99.3421C1032.01 98.9955 1032.37 98.6082 1032.86 98.0781C1033.94 99.2402 1035.35 99.179 1036.76 99.3421C1036.98 98.9955 1037.2 98.649 1037.47 98.2413C1037.98 98.0781 1038.51 97.915 1039.02 97.752C1039.32 97.9355 1039.59 98.0781 1039.85 98.2616C1040.1 98.4247 1040.34 98.6082 1040.65 98.8121C1041.26 98.4247 1041.81 98.0781 1042.34 97.7316C1043.3 98.0374 1044.17 98.3024 1045.09 98.5878C1045.37 99.0974 1045.66 99.6071 1045.99 100.178C1047.47 99.5052 1048.86 98.8529 1050.25 98.2208C1051.35 98.3839 1052.49 98.7305 1053.26 97.6092C1053.87 97.5685 1054.43 97.5278 1054.97 97.4665C1055.36 97.6297 1055.72 97.8131 1056.07 97.9558C1056.42 97.6297 1056.7 97.385 1056.79 97.2831C1057.58 97.12 1058.17 96.9977 1058.86 96.8549C1059.01 96.8754 1059.21 97.3239 1059.56 96.9773C1059.38 96.4269 1058.86 95.8969 1059.45 95.1833C1059.62 95.1833 1059.93 95.0609 1060.06 95.1833C1060.92 95.7949 1061.9 95.8356 1062.92 95.8969C1063.25 95.6522 1063.57 95.3872 1063.94 95.1017C1064.51 95.2037 1065.04 95.3056 1065.61 95.4279C1066.18 95.0814 1066.71 94.5717 1067.46 94.8367C1067.99 94.5309 1068.47 94.5717 1069.01 94.8775C1069.34 95.0609 1069.85 94.9182 1070.28 94.8775C1070.83 94.8163 1071.42 94.5309 1071.9 94.6329C1072.7 94.8163 1073.47 94.7348 1074.21 94.9387C1074.64 94.4698 1075.02 94.0621 1075.29 93.7562C1076.11 93.4708 1076.41 94.0824 1076.86 94.3474C1077.16 94.1028 1077.43 93.8786 1077.75 93.6136C1078.21 93.695 1078.61 93.797 1079.04 93.8174C1079.52 93.8582 1080 93.8174 1080.48 93.8174C1081.02 94.2047 1080.39 94.9182 1080.85 95.3056C1081.33 95.3056 1081.38 94.9998 1081.46 94.7144C1081.57 94.3679 1081.66 94.0416 1081.77 93.7562C1083.56 93.0834 1085.28 93.0223 1086.9 93.4912C1087.53 93.4505 1087.99 92.7981 1088.58 93.3078C1088.66 93.3892 1088.95 93.2873 1089.11 93.2262C1089.56 93.0428 1090 92.6962 1090.45 92.6757C1091.02 92.6757 1091.53 92.533 1092.03 92.3088C1092.25 92.5126 1092.45 92.7165 1092.65 92.9C1093.18 92.7165 1093.56 92.1661 1094.3 92.3904C1094.39 92.6146 1094.48 92.9 1094.59 93.1854C1094.93 93.0427 1095.26 92.9 1095.63 92.7369C1095.87 92.8388 1096.16 92.9407 1096.44 93.0631C1097.2 92.7777 1097.91 92.4107 1098.82 92.5942C1099.28 93.1854 1099.74 93.797 1100.26 94.4698C1100.9 93.002 1101.58 92.1253 1102.17 91.9826C1102.43 92.1049 1102.7 92.2273 1103.02 92.3699C1103.39 92.1661 1103.76 91.9419 1104.13 91.7175C1104.57 91.7583 1105 91.7991 1105.59 91.8399C1106.16 91.004 1107.3 91.3098 1108.16 90.7798C1109.06 90.2498 1110.07 89.9236 1111.03 89.5158H1115.13C1116.27 88.8023 1117.69 88.7615 1118.89 88.048C1119.28 87.8238 1119.74 88.048 1120.12 88.2927C1120.53 88.5577 1120.63 89.1692 1121.2 89.21C1121.93 88.7615 1121.86 87.7219 1122.65 87.3549C1123.22 87.6199 1123.76 87.8849 1124.34 88.1499C1124.7 87.7219 1125.03 87.3549 1125.34 86.988C1125.85 87.0287 1126.34 87.0695 1126.77 87.0899C1127.05 86.7433 1127.27 86.4783 1127.5 86.1929C1127.8 86.4783 1128.02 86.6822 1128.15 86.7841C1128.89 86.9675 1129.48 87.1511 1130.07 87.2325C1130.94 87.3549 1131.71 87.3345 1132.41 86.5598C1132.82 86.0909 1133.53 85.8871 1134.06 85.6016C1134.55 85.8871 1134.98 86.1317 1135.4 86.3764C1135.79 86.0298 1136.12 85.7648 1136.4 85.5201C1137.19 85.6221 1137.93 85.724 1138.79 85.8463C1139.2 86.2745 1139.64 86.7841 1140.16 87.3345C1140.95 87.0083 1141.84 86.7637 1142.62 86.2132C1143.25 85.7648 1143.96 85.6221 1144.74 85.9074C1144.96 85.989 1145.23 85.989 1145.39 86.0094C1145.8 85.8259 1146.12 85.6832 1146.36 85.5813C1147.12 86.2337 1147.78 86.7841 1148.41 87.3345C1148.76 87.1918 1149.04 87.0899 1149.31 86.988C1149.79 87.1714 1150.24 87.3549 1150.73 87.4976C1150.81 87.518 1150.95 87.4364 1151.08 87.3753C1151.1 87.0899 1151.14 86.8045 1151.16 86.4987C1152.83 87.2733 1152.63 87.2122 1154.79 86.7637C1154.85 86.8656 1154.99 86.9675 1154.99 87.0695C1154.94 87.3753 1154.85 87.6607 1154.79 87.9461C1155.36 87.7015 1155.93 87.4772 1156.54 87.2325C1157.25 87.5791 1157.96 87.9461 1158.57 88.2519C1159.11 88.8839 1159.33 89.6382 1160.14 90.0459C1160.25 89.7197 1160.35 89.4955 1160.36 89.2712C1160.43 88.8431 1160.41 88.3946 1160.49 87.9665C1160.57 87.4976 1160.9 87.3549 1161.73 87.4569C1161.47 87.9054 1161.19 88.2926 1160.97 88.7004C1160.92 88.8228 1160.97 89.0266 1161 89.2508C1161.98 89.1489 1162.49 88.2927 1163.41 88.0684C1163.79 88.2315 1164.24 88.4354 1164.64 88.5984C1165.05 88.415 1165.36 88.2519 1165.75 88.0888C1166.14 88.8228 1166.14 89.7401 1166.95 90.1479C1167.11 89.6994 1167.26 89.2305 1167.38 88.8839C1168.74 88.1907 1169.92 88.782 1170.86 88.945C1172.23 88.7615 1173.33 88.6189 1174.31 88.4762C1175.14 89.1489 1174.84 90.5963 1176.28 90.6982C1176.14 90.2905 1176.04 89.9644 1175.92 89.577C1176.12 89.3731 1176.34 89.1489 1176.56 88.9247C1177.04 89.0878 1177.43 89.2508 1177.83 89.3528C1178.3 89.475 1178.79 89.5158 1179.05 89.5566C1179.53 89.9236 1179.27 90.4944 1179.81 90.5556C1180.27 90.2905 1180.18 89.8216 1180.21 89.4139C1180.12 89.2712 1179.99 89.1286 1179.93 88.9654C1179.85 88.7412 1180.05 88.517 1180.19 88.6189C1180.27 88.68 1180.38 88.8228 1180.38 88.9042C1180.38 89.0878 1180.27 89.2508 1180.21 89.4343C1181.13 89.475 1182.07 89.5158 1183.03 89.577C1183.54 89.9847 1184.07 90.4129 1184.55 90.8002C1185.19 90.9021 1185.74 90.9837 1186.21 91.0653C1186.52 91.4117 1186.76 91.6768 1187.02 91.9622C1187.78 92.0234 1188.51 92.0846 1189.25 92.1457C1189.01 92.8524 1188.95 93.4912 1189.06 94.0621C1190.36 92.9408 1191.98 92.7369 1193.57 92.4311C1193.85 92.5942 1194.12 92.7573 1194.38 92.8796C1194.71 93.002 1195.05 93.0834 1195.48 93.2262C1195.23 93.695 1194.99 94.1232 1194.77 94.5717C1194.73 94.6532 1194.79 94.7959 1194.81 94.8979C1195.15 94.9387 1195.58 94.7756 1195.78 95.3872C1195.64 95.8561 1195.48 96.4269 1195.3 97.0384C1196.15 96.9705 1197.07 96.5288 1198.03 95.7133C1198.74 95.9172 1198.25 96.9569 1198.99 97.12C1199.9 96.9773 1199.92 95.8153 1200.86 95.5095C1200.8 95.958 1200.74 96.3046 1200.67 96.753C1201.1 96.9162 1201.55 97.0792 1202 97.2627C1202.67 97.0792 1203.33 96.8957 1203.92 96.7327C1204.36 96.1619 1204.75 95.693 1205.1 95.2445C1206.26 94.9998 1207.35 94.7756 1208.44 94.5513C1208.95 94.7756 1209.44 95.0202 1209.86 95.2037C1210.58 95.0814 1211.19 95.0406 1211.8 94.8775C1212.48 94.7144 1213.13 94.5513 1213.82 94.7756C1214.19 95.0814 1214.58 95.3872 1214.9 95.6725C1215.17 95.5706 1215.34 95.5095 1215.51 95.4279C1216.53 94.8571 1217.67 94.959 1218.75 94.7756C1219.53 95.2037 1220.32 94.8979 1221.13 94.7959C1221.54 95.1017 1221.91 95.4075 1222.26 95.6725C1222.24 96.1822 1222.22 96.6104 1222.2 97.0181C1223.27 97.2627 1223.31 96.0395 1224.09 95.8969C1224.71 95.9375 1224.95 96.488 1225.3 96.8754C1225.39 97.3239 1225.5 97.7316 1225.58 98.1597C1226.09 98.5674 1226.56 98.9344 1227.11 99.3829C1227.48 98.9752 1227.79 98.6286 1228.1 98.282C1228.99 98.8324 1229.45 99.8925 1230.65 99.7906C1231.18 100.463 1231.69 101.177 1232.66 101.544C1234.18 100.912 1235.78 100.239 1237.52 99.5256C1237.99 99.6887 1238.56 99.8925 1238.99 100.035C1239.36 100.626 1238.86 101.197 1239.34 101.585C1239.45 101.687 1239.64 101.748 1239.8 101.829C1239.95 101.503 1240.06 101.238 1240.19 100.973C1240.58 100.932 1240.92 100.892 1241.2 100.851C1241.41 100.606 1241.55 100.443 1241.7 100.259C1242.09 100.892 1242.33 101.564 1243.18 101.422C1243.31 100.688 1242.42 100.423 1242.47 99.6479C1244.12 100.321 1245.65 100.953 1247.16 101.564C1247.22 101.585 1247.26 101.625 1247.22 101.605C1247.64 101.931 1247.64 102.502 1248.16 102.584C1248.49 102.4 1248.79 102.217 1249.15 102.013C1249.28 102.482 1249.38 102.869 1249.5 103.277C1249.87 103.012 1250.15 102.808 1250.46 102.563C1250.96 102.91 1251.42 103.236 1251.81 103.481C1252.55 103.297 1253.21 103.134 1253.86 102.971C1254.52 103.399 1255.13 102.665 1255.88 102.828C1255.8 103.623 1255.37 104.235 1255.29 104.948C1255.23 105.417 1254.67 105.825 1254.35 106.233C1254.43 106.722 1254.67 106.905 1255.24 106.722C1256.02 105.723 1256.83 104.622 1257.35 103.358C1257.38 103.277 1257.55 103.236 1257.66 103.154C1257.88 103.256 1258.1 103.358 1258.3 103.46C1258.61 103.338 1258.9 103.215 1259.08 103.134C1259.85 103.358 1260.57 103.582 1261.34 103.807C1261.64 104.255 1262.07 104.724 1262.32 105.275C1262.64 105.988 1263.16 106.314 1263.87 106.457C1264.69 106.335 1265.28 105.886 1265.72 105.275C1266.23 104.561 1266.86 104.174 1267.58 104.133C1268.67 104.235 1268.98 105.05 1269.39 105.662C1271.09 105.478 1271.29 105.152 1272.73 106.498C1272.79 107.13 1272.86 107.802 1272.95 108.475C1272.97 108.638 1273.14 108.781 1273.28 109.026C1273.77 109.168 1274.28 109.331 1274.79 109.474C1275.07 109.311 1275.28 109.168 1275.5 109.066C1275.7 108.985 1275.96 108.944 1276.22 108.883C1276.28 109.148 1276.26 109.372 1276.36 109.474C1277.01 110.106 1277.68 110.718 1278.4 111.309C1278.48 111.391 1278.74 111.268 1279.01 111.227C1279.09 110.881 1279.17 110.534 1279.26 110.167C1279.32 109.862 1279.39 109.556 1279.98 109.474C1280.17 109.719 1280.48 110.025 1280.72 110.392C1281.33 111.248 1280.94 112.328 1281.29 113.307C1281.46 112.675 1281.62 112.084 1282.19 111.737C1282.33 111.656 1282.51 111.676 1282.71 111.656C1282.75 112.063 1282.8 112.41 1282.82 112.736C1283.82 113.246 1284.52 112.267 1285.37 112.349C1286.35 112.451 1287.16 112.063 1287.91 111.615C1289.15 112.247 1290.4 112.634 1291.4 113.551C1291.73 113.837 1292.36 113.98 1292.8 113.898C1294.31 113.613 1295.7 114.652 1297.21 114.245C1297.88 114.897 1298.74 114.469 1299.48 114.632C1299.69 114.367 1299.89 114.122 1300.06 113.898C1301.01 113.735 1301.53 114.387 1301.97 115.06C1302.81 114.754 1303.56 114.489 1304.32 114.224C1304.65 113.585 1305.02 113.11 1305.44 112.797C1305.88 112.94 1306.34 113.225 1306.8 113.225C1307.34 113.225 1307.84 112.96 1308.32 112.838C1308.72 112.981 1308.87 113.47 1309.33 113.327C1309.52 113.083 1309.7 112.858 1309.85 112.695C1310.76 112.573 1311.16 113.225 1311.66 113.511C1312.73 113.755 1313.69 114 1314.77 114.245C1315.16 114.795 1315.57 115.407 1316.01 115.998C1316.05 116.059 1316.22 116.018 1316.36 116.018C1316.4 115.611 1316.42 115.203 1316.47 114.836C1317.42 114.102 1318.17 114.734 1319.03 114.958V116.222C1319.68 116.813 1320.25 117.364 1320.83 117.894H1321.82C1322.08 118.2 1322.36 118.505 1322.62 118.811C1323.11 118.811 1323.54 118.811 1323.96 118.811C1324.02 118.811 1324.07 118.872 1324.11 118.893C1324.48 119.321 1324.81 119.749 1325.2 120.218H1328.79C1329.48 120.727 1329.26 122.032 1330.57 121.726C1330.6 121.359 1330.64 121.033 1330.69 120.646C1331.38 120.952 1331.69 121.543 1331.79 122.134C1331.95 123.011 1332.58 123.439 1333.13 124.03C1333.76 123.704 1334.35 123.418 1335.03 123.092C1335.38 123.704 1335.66 124.234 1335.97 124.744C1337.58 125.885 1339.18 126.374 1341.91 126.558C1342.26 126.803 1342.61 127.047 1342.93 127.272C1343.87 126.701 1344.92 126.823 1345.79 126.395C1345.86 126.354 1346.01 126.456 1346.14 126.497C1346.01 127.19 1346.44 127.475 1347.01 127.7C1347.67 127.373 1347.91 126.456 1348.92 126.497C1349.13 126.66 1349.4 126.884 1349.72 127.149C1349.76 128.515 1349.82 129.861 1349.86 131.226C1349.86 131.593 1349.86 131.981 1349.9 132.348C1349.92 132.592 1350.03 132.817 1350.47 132.715C1350.51 132.388 1350.58 132.042 1350.6 131.675C1350.62 130.982 1350.58 130.309 1350.62 129.616C1350.68 128.76 1350.86 127.903 1351.45 127.272C1352.25 127.149 1352.69 127.924 1353.46 127.761C1354.18 127.598 1354.94 127.72 1355.55 127.72C1355.93 128.026 1356.22 128.311 1356.54 128.434C1356.85 128.556 1357.22 128.515 1357.65 128.556C1357.41 129.127 1357.24 129.575 1356.8 129.881C1356.43 130.126 1355.86 129.82 1355.57 130.431C1356.24 130.411 1356.83 130.37 1357.26 130.35C1357.93 129.881 1358.11 129.147 1358.99 129.045C1359.46 129.351 1360.01 129.718 1360.5 130.044C1360.4 131.172 1360.57 131.858 1360.99 132.103C1361.3 131.593 1361.6 131.084 1361.87 130.615C1362.56 130.37 1363.17 130.309 1363.7 130.717C1364.49 132.388 1364.47 132.368 1364.21 133.938C1364.13 134.427 1364.13 134.916 1364.14 135.406C1364.14 135.528 1364.35 135.65 1364.57 135.895C1364.82 134.916 1365.01 134.081 1365.23 133.265C1365.31 133 1365.47 132.735 1365.6 132.511C1366.58 132.674 1367.41 132.796 1368.35 132.959C1369.14 134.346 1370.45 135.181 1372.17 135.487C1372.06 136.119 1371.93 136.67 1371.85 137.057C1371.47 137.75 1370.56 137.872 1370.65 138.851C1371.06 138.729 1371.38 138.647 1371.73 138.545C1372.2 138.79 1372.67 139.218 1373.22 138.688C1373.7 138.076 1373.13 137.179 1373.81 136.527C1374.36 136.649 1374.95 136.792 1375.47 136.914C1376.19 137.709 1376.84 138.443 1377.48 139.157C1379.27 139.198 1380.76 139.728 1381.74 141.277C1381.87 141.562 1381.61 142.011 1382.2 142.317C1382.55 142.215 1383 142.052 1383.53 141.889C1384.18 142.357 1384.91 142.786 1385.87 142.541C1386.13 142.48 1386.52 142.826 1386.89 143.01C1387.56 142.398 1388.4 142.582 1389.09 142.439C1389.44 142.663 1389.68 142.826 1389.99 143.03C1390.84 142.745 1391.65 142.459 1392.48 142.194C1393.07 141.991 1393.66 141.685 1394.25 141.664C1395.91 141.603 1397.59 141.481 1399.3 141.746C1399.56 142.092 1399.81 142.439 1400.08 142.786C1400.48 142.928 1400.89 143.051 1401.26 143.173C1401.91 142.745 1402.4 142.154 1403.13 141.99C1403.4 142.215 1403.6 142.398 1403.88 142.622C1404.93 142.072 1405.96 141.522 1406.92 141.012C1407.81 141.379 1408.59 141.705 1409.38 142.031C1409.86 141.624 1409.86 140.828 1410.65 140.686C1411.08 140.951 1411.52 141.257 1412.07 141.583C1412.46 141.195 1412.79 140.869 1413.03 140.645C1414.01 140.4 1414.82 140.176 1415.85 139.911C1416.56 140.115 1417.44 140.38 1418.38 140.665C1418.45 140.298 1418.53 139.952 1418.62 139.565H1419.9C1420.06 139.768 1420.23 139.952 1420.41 140.156C1421.29 139.585 1422.11 138.851 1423.34 139.116C1423.55 140.196 1423.67 141.216 1423.08 142.194C1422.96 142.398 1422.86 142.643 1422.83 142.887C1422.79 143.193 1422.83 143.519 1423.33 143.499C1423.77 143.051 1423.79 142.419 1423.94 141.807C1424.1 141.155 1424.41 140.543 1424.58 140.095C1425.67 139.544 1426.55 139.096 1427.38 138.668C1427.87 138.708 1428.3 138.749 1428.71 138.79C1429.03 138.443 1429.32 138.137 1429.48 137.934C1430.37 137.75 1431.11 137.607 1431.83 137.424C1432.57 137.24 1433.27 136.792 1434.39 136.874C1433.8 137.424 1433.41 137.811 1433.01 138.158C1432.55 138.566 1432.07 138.933 1431.57 139.361C1431.78 139.422 1431.92 139.503 1431.98 139.463C1432.55 139.198 1433.12 138.953 1433.64 138.606C1434.17 138.28 1434.65 137.934 1435.35 137.974C1435.55 137.974 1435.8 137.628 1435.98 137.465C1437 137.159 1437.94 138.137 1438.73 137.669C1439.22 137.098 1439.58 136.69 1439.95 136.282L1439.91 136.405ZM1199.9 93.1447C1199.82 93.9397 1199.78 94.5309 1199.71 95.1017C1199.47 95.1017 1199.29 95.1425 1199.25 95.1017C1199.12 94.9182 1198.99 94.694 1198.96 94.4698C1198.9 93.6339 1198.96 93.5116 1199.88 93.165L1199.9 93.1447ZM507.213 54.6958C507.152 55.0629 507.172 55.2667 507.091 55.3686C506.785 55.6948 506.399 55.8579 505.889 55.5725C506.296 55.3074 506.684 55.0424 507.213 54.6958ZM213.364 85.0105C213.73 85.1328 214.118 85.2347 214.647 85.3978C214.015 85.6629 213.608 85.6424 213.364 85.0105ZM36.6254 67.8451C36.7883 67.2878 36.9921 67.1723 37.2366 67.4985C37.0329 67.6208 36.8291 67.7228 36.6254 67.8451ZM892.887 85.8463C893.091 85.6424 893.294 85.6832 893.457 85.8871C893.498 85.9279 893.416 86.1521 893.376 86.1725C893.111 86.254 892.928 86.1521 892.887 85.8463ZM1426.26 138.504C1426.11 138.423 1426.02 138.382 1425.91 138.341C1426.02 138.219 1426.09 138.076 1426.22 137.995C1426.26 137.974 1426.4 138.076 1426.5 138.117C1426.42 138.239 1426.35 138.382 1426.26 138.504ZM829.633 73.7164C829.633 73.7164 829.471 73.8183 829.389 73.8591C829.389 73.8591 829.288 73.7775 829.288 73.7572C829.328 73.6756 829.389 73.6145 829.43 73.5329C829.491 73.5941 829.552 73.6553 829.613 73.7367L829.633 73.7164ZM956.976 103.297C956.976 103.297 956.914 103.542 956.833 103.583C956.772 103.623 956.65 103.542 956.548 103.501C956.609 103.358 956.67 103.236 956.731 103.093C956.812 103.154 956.894 103.236 956.976 103.297Z" fill="#FF0056"/>
</svg>
