<svg width="390" height="59" viewBox="0 0 390 59" fill="none" xmlns="http://www.w3.org/2000/svg">
<rect width="390" height="54.8069" fill="#FBF8E6"/>
<path d="M0.0605469 58.7079C0.0605474 55.6158 0.060548 52.5236 0.0605485 49.4315C0.126716 49.368 0.187369 49.3103 0.25905 49.2411C0.435496 49.293 0.617455 49.3449 0.810442 49.4026C0.904179 49.2411 0.975861 49.12 1.031 49.0277C1.15231 49.12 1.26258 49.2007 1.3894 49.3046C1.4813 48.8315 1.67797 48.5642 1.9794 48.5027V48.2258C2.09519 48.3527 2.16687 48.4335 2.24406 48.52C2.32677 48.4854 2.40397 48.4508 2.48116 48.4219C2.58041 48.5315 2.67415 48.6354 2.75686 48.7335C2.8892 48.6642 2.97742 48.6238 3.03257 48.595C3.18695 48.7623 3.30825 48.9238 3.46263 49.045C3.51777 49.0854 3.64461 49.0277 3.72179 49.0219C3.77142 49.1546 3.81552 49.27 3.87066 49.4142C4.01954 49.2007 4.12431 49.045 4.21253 48.918C4.46618 49.12 4.74738 48.993 4.97346 49.1603C5.19953 49.3276 5.51384 49.3565 5.80607 49.4488C5.91636 49.2526 5.98803 49.12 6.08176 48.9469C6.39052 49.0911 6.71033 49.2411 7.04119 49.3911C7.04669 49.3796 7.09082 49.3103 7.15698 49.2065C7.2452 49.3103 7.31687 49.3911 7.38857 49.4661C7.57052 49.4199 7.75247 49.3738 7.93442 49.3276C7.97855 49.2065 8.01714 49.0854 8.03369 49.045H9.16403C9.29087 48.9757 9.48387 48.8777 9.60517 48.8084C9.8202 49.0334 9.9856 49.2123 10.1179 49.3565C10.4212 49.2123 10.6528 49.0969 10.8954 48.9815C11.0277 49.1834 11.127 49.3334 11.2593 49.5353C11.4523 49.3969 11.6288 49.2642 11.7942 49.143C11.8604 49.1719 11.932 49.1949 12.0368 49.2354C12.0699 48.9873 12.0975 48.7796 12.136 48.5085C12.2463 48.8488 12.329 49.1026 12.4062 49.3449C12.6544 49.4199 12.8639 49.4776 13.0734 49.5411C13.3216 49.4546 13.5642 49.368 13.7792 49.2873C13.8564 49.1142 13.9226 48.9757 14.0328 48.7392C14.3361 49.8007 15.097 49.5122 15.7146 49.5815C15.7752 49.4949 15.8359 49.4142 15.8634 49.3738C16.1888 49.4026 16.3211 49.7084 16.6574 49.6276C16.8284 49.5873 17.0765 49.8757 17.286 50.0141C17.479 49.7142 17.0821 49.3449 17.446 49.1026C17.5011 49.368 17.5066 49.6622 17.6279 49.8872C17.7548 50.118 17.9919 50.2737 18.1848 50.4641C18.2675 50.343 18.3447 50.2391 18.4274 50.1238C18.6921 50.2391 18.9292 50.3488 19.1608 50.4468C19.4475 50.1738 19.7177 50.0565 19.9713 50.0949C19.7783 50.2391 19.5964 50.3776 19.3538 50.5622C19.6846 50.7353 19.9272 50.9083 20.236 50.7064C20.5889 50.9545 21.0906 50.9199 21.3498 51.3468C21.3664 51.3698 21.427 51.3698 21.4987 51.3872C21.5152 51.2545 21.5318 51.1333 21.5483 50.9718C22.2596 51.1737 22.9599 50.6949 23.6657 50.9776C23.7759 51.2026 23.8752 51.3987 23.991 51.6294C24.1729 51.5717 24.3273 51.5198 24.4266 51.491C24.7354 51.7968 25.0221 52.091 25.2206 52.2871C25.7665 52.2871 26.2076 52.3275 26.6487 52.2929C27.156 52.2525 27.5254 52.5063 27.8948 52.8698C28.2532 52.7717 28.6062 52.6736 29.0032 52.564C29.0968 52.6217 29.2513 52.714 29.5104 52.8698C29.4442 52.5755 29.4057 52.4083 29.356 52.189C29.8247 52.3044 30.2548 52.414 30.7454 52.5352C30.8228 52.4832 30.9606 52.3909 31.1039 52.2929C31.1096 52.3217 31.1204 52.3563 31.1262 52.3852C31.4624 52.3563 31.8043 52.3333 32.08 52.3102C32.3777 52.3506 32.67 52.3102 32.8683 52.4313C33.3096 52.7025 33.6569 52.5467 33.9269 52.3217C34.2415 52.3736 34.4949 52.3794 34.7267 52.4602C35.118 52.6044 35.4765 52.5871 35.8238 52.339C35.8681 52.3044 35.9728 52.2698 35.9837 52.2929C36.2651 52.639 36.4358 52.1717 36.6729 52.189C36.9101 52.7486 37.274 52.2467 37.5717 52.3102C37.5771 52.189 37.5883 52.0736 37.6048 51.8198C37.7704 52.1256 37.8751 52.3102 37.9964 52.5294C38.4265 52.4717 38.8567 52.4083 39.3088 52.3448C39.7112 52.5063 40.1359 52.6967 40.5769 52.8409C40.7147 52.8871 40.8968 52.7832 41.0455 52.8179C41.4151 52.8986 41.779 53.0198 42.1484 53.1121C42.2531 53.1351 42.3798 53.1409 42.4738 53.1005C42.9644 52.864 43.4165 52.9851 43.8632 53.2678C43.9736 53.1582 44.0672 53.0659 44.1666 52.9621C44.4092 53.1467 44.6518 53.3255 44.8887 53.5101C45.0873 53.4351 45.2745 53.3082 45.4566 53.314C45.655 53.314 45.8537 53.4467 46.0358 53.5159C46.1625 53.4698 46.2784 53.4063 46.394 53.3832C46.6257 53.337 46.9123 53.5909 47.0778 53.2275C47.4306 53.314 47.5245 52.9563 47.6954 52.7948C48.109 52.8409 48.4895 52.8813 48.8919 52.9275C49.2724 52.8063 49.6914 52.6679 50.1104 52.5467C50.4192 52.4602 50.7503 52.4198 51.0591 52.3621C51.3456 52.3044 51.6379 52.166 51.9467 52.0967C52.0846 52.0679 52.2333 51.9987 52.3435 51.9006C52.509 51.7506 52.6414 51.566 52.7958 51.3872C53.0219 51.4391 53.2534 51.4968 53.4906 51.5487C53.6061 51.3468 53.7055 51.1737 53.7551 51.0814H55.7017C56.0433 50.6949 56.6444 50.7987 57.0471 50.4814C57.5047 50.118 58.0892 50.1699 58.5302 49.8584C58.8224 50.1468 59.1204 50.1526 59.4181 50.0084C59.8536 49.8007 60.2672 49.6565 60.7744 49.7026C61.1768 49.743 61.585 49.4546 62.0205 49.4661C62.0371 49.4661 62.059 49.443 62.0756 49.4315C62.8091 48.8373 63.6363 48.895 64.5185 49.0046C64.2373 49.368 64.4688 49.4892 64.6783 49.6276C64.8273 49.5469 64.954 49.443 65.0973 49.4084C65.5274 49.293 65.9518 49.1834 66.2718 48.8315C66.6191 48.9065 66.757 48.4854 67.154 48.5085C67.8433 48.5546 68.5434 48.4162 69.2712 48.3469C69.7233 48.7969 70.2528 48.9065 70.8373 48.6527C70.8924 48.4623 70.9421 48.2719 71.0026 48.0527C71.4273 48.295 71.83 48.3296 72.2544 48.2027C72.2821 48.1969 72.3206 48.2431 72.3646 48.2777C72.3095 48.4335 72.249 48.5892 72.1939 48.7508C72.5744 48.9296 72.8772 48.82 73.1252 48.6354C73.2796 48.7104 73.3955 48.7623 73.4783 48.8027C73.8644 48.6296 74.2064 48.4796 74.4821 48.3527C75.0609 48.9123 75.6346 49.2642 76.3844 49.1834C76.5111 49.1719 76.6712 49.1488 76.7594 49.2123C77.1507 49.5007 77.5312 49.3103 77.884 49.2296C77.9887 49.3449 78.0718 49.443 78.1488 49.5296C78.7277 49.0854 79.3838 49.218 79.9738 49.0565C79.9961 49.1546 80.0069 49.195 80.0123 49.2411C80.0123 49.3046 80.0123 49.368 80.0123 49.4373C80.5472 49.3911 80.9996 49.1834 81.402 48.7969C81.3523 48.6239 81.3084 48.4623 81.2642 48.295C81.325 48.272 81.3912 48.2489 81.4848 48.2143C81.5233 48.4739 81.5564 48.7162 81.5895 48.9584C82.0913 49.4026 82.6207 49.5411 83.2381 49.2469C83.1996 48.9469 83.1719 48.6815 83.1388 48.4162C83.2932 48.5488 83.3428 48.6988 83.4091 48.8431C83.4753 48.9758 83.5581 49.1027 83.6571 49.2642C83.7895 49.1315 83.8834 49.0392 83.9936 48.9354C84.1977 48.9354 84.4126 48.9411 84.6275 48.9354C84.9198 48.9238 84.9032 48.6008 85.0245 48.3873C85.3059 48.595 85.5428 48.7738 85.7854 48.9527C85.9399 48.6527 85.482 48.4969 85.7412 48.2258C85.8848 48.4104 86.0169 48.5835 86.1493 48.7508C86.6788 48.52 87.3572 48.7681 87.6769 48.0873C87.7762 48.1854 87.8424 48.2489 87.881 48.2892C87.8587 48.4508 87.8367 48.5835 87.8202 48.7219C88.1016 48.5488 88.4655 48.6758 88.6365 48.3585C88.6473 48.3412 88.675 48.3354 88.6916 48.3296C89.0166 48.3815 89.364 48.4335 89.6563 48.3354C89.9871 48.2258 90.3016 48.5315 90.6101 48.3066C90.6267 47.9662 90.9135 47.2047 91.2001 46.8297C91.1119 47.3374 91.0402 47.7701 90.9629 48.2027C91.0071 48.22 91.0568 48.2315 91.1008 48.2489C91.2001 48.0296 91.2994 47.8047 91.4042 47.5797C91.4978 47.8162 91.3933 48.1277 91.6967 48.2546C92.2424 48.122 92.8047 48.0066 92.9648 47.2739C93.0199 47.3662 93.0584 47.4239 93.0807 47.4585C93.4774 47.0951 93.8744 46.7316 94.244 46.3913C94.8506 46.5355 95.3632 46.8816 96.0305 46.697C96.1021 46.5067 96.1903 46.2817 96.2839 46.0394C96.4164 46.1548 96.5596 46.2817 96.6921 46.397C96.7803 46.3509 96.8411 46.299 96.9016 46.2932C97.3705 46.2759 97.8446 46.2355 98.3132 46.2701C98.6497 46.2932 98.8592 46.1317 99.0687 45.9124C99.1955 46.3797 99.4877 46.6336 99.9564 46.6682C100.127 46.6797 100.276 46.7086 100.403 46.8759C100.612 47.1586 100.982 47.1932 101.274 47.3547C101.671 47.5739 102.063 47.2797 102.471 47.1182C102.647 47.3605 103.039 47.1989 103.204 47.5277C103.292 47.4816 103.381 47.4354 103.463 47.3893C103.551 47.5105 103.629 47.6201 103.689 47.7066C104.18 47.5277 104.594 47.3777 105.035 47.222C105.195 47.2797 105.393 47.3316 105.564 47.4239C105.757 47.5277 105.856 47.1528 106.093 47.3547C106.187 47.4354 106.474 47.3258 106.634 47.2335C106.794 47.1355 106.904 46.9509 107.025 46.8182C107.295 46.9797 107.532 47.1297 107.764 47.2681C108.211 47.1124 108.624 46.9682 109.054 46.8182C109.082 46.8528 109.132 46.9162 109.22 47.0374C109.27 46.8239 109.308 46.6509 109.369 46.3913C109.44 46.6797 109.49 46.8759 109.545 47.1066C109.997 47.1412 110.433 47.1586 110.863 47.2047C111.072 47.2278 111.282 47.2739 111.486 47.3258C111.756 47.3951 112.026 47.522 112.296 47.5335C112.512 47.5451 112.727 47.8335 112.947 47.5566C113.124 47.8393 113.388 47.6893 113.62 47.7354C113.885 47.7873 114.133 47.9604 114.359 48.0643C114.491 47.9431 114.601 47.845 114.706 47.7527C114.965 47.972 115.186 48.1566 115.434 48.3643C115.699 48.3239 115.98 48.2892 116.255 48.2431C116.52 48.1969 116.785 48.1335 117.049 48.0758C117.066 48.2143 117.072 48.3008 117.083 48.3815C117.232 48.3643 117.353 48.3527 117.468 48.3412C117.579 48.52 117.667 48.6642 117.789 48.8546C117.838 48.6758 117.866 48.5777 117.91 48.4104C117.992 48.5546 118.042 48.6469 118.103 48.7508C118.218 48.6988 118.329 48.6123 118.45 48.6008C118.979 48.5719 119.481 48.8488 120.027 48.7623C120.132 48.745 120.253 48.895 120.375 48.9296C120.589 48.9931 120.81 49.0507 120.893 48.7104C120.909 48.6354 121.08 48.6008 121.174 48.5546C121.201 48.422 121.229 48.2892 121.273 48.0585C121.334 48.2777 121.361 48.3873 121.395 48.5027C121.51 48.4969 121.615 48.4912 121.709 48.4854C121.775 48.0758 121.83 47.7066 121.891 47.3316L121.968 47.3431C121.995 47.5451 122.029 47.747 122.045 47.8624C122.359 48.3181 122.723 47.8104 123.021 48.0527C123.126 47.8796 123.225 47.7124 123.347 47.5162C123.429 47.6431 123.49 47.7297 123.551 47.8162C123.865 47.9143 124.08 47.7354 124.24 47.4816C124.471 47.6547 124.664 47.7931 124.83 47.9143C125.094 47.7585 125.354 47.6085 125.64 47.4412C125.673 47.3143 125.718 47.1643 125.745 47.0547C126.434 47.222 126.87 46.847 127.311 46.2701C127.256 46.622 127.217 46.8874 127.184 47.1124C127.344 47.3085 127.471 47.4758 127.576 47.6028C127.785 47.6201 127.962 47.6374 128.177 47.6547C128.249 47.5105 128.337 47.3258 128.425 47.147C128.982 47.3201 129.533 47.147 129.88 46.7662C130.151 46.4663 130.459 46.3394 130.735 46.1432C131.082 46.3048 131.292 46.3278 131.91 46.2817C132.009 46.2759 132.13 46.299 132.213 46.3509C132.577 46.5932 132.913 46.4836 133.2 46.3278C133.459 46.3971 133.674 46.449 133.878 46.5009C133.878 46.5759 133.889 46.6393 133.889 46.6855H134.639C134.76 46.9855 134.975 47.1874 135.306 47.2162C135.361 47.147 135.405 47.0835 135.411 47.0778C135.549 47.297 135.687 47.5105 135.791 47.6777C136.188 47.7008 136.233 47.4412 136.315 47.1758C136.536 47.4931 136.767 47.5162 137.043 47.3605C137.076 47.1355 137.104 46.922 137.153 46.5816C137.484 47.1932 137.765 47.6893 138.245 47.9777C138.978 47.8624 139.282 47.8797 139.53 48.0701C139.579 47.9201 139.624 47.7816 139.695 47.5797C139.927 47.597 140.17 47.5681 140.379 47.6431C141.245 47.9373 142.105 48.1162 142.976 47.7354C143.351 48.1796 143.847 48.3354 144.388 48.1854C144.84 48.0527 145.292 47.9604 145.705 48.2546C146.014 47.9662 146.053 47.6201 146.009 47.2681H146.427C146.471 47.4931 146.51 47.6893 146.549 47.8797C146.731 48.0066 146.896 48.122 147.018 48.2027H148.595C148.898 48.6988 149.212 48.7623 150.265 48.4392C150.32 48.5143 150.42 48.6585 150.568 48.8662C150.822 48.8315 151.158 48.7911 151.506 48.745C151.853 49.1027 152.036 49.0911 152.752 48.6585C152.824 48.7911 152.896 48.9239 152.973 49.0681C153.276 48.7335 153.348 49.4373 153.657 49.1315C153.673 49.0335 153.695 48.8892 153.728 48.6585C153.971 48.7508 154.158 48.8315 154.351 48.9008C154.406 48.9239 154.473 48.9181 154.561 48.9239C154.622 48.7335 154.677 48.5546 154.765 48.272C154.936 48.595 155.063 48.8258 155.19 49.0623C155.2 49.0623 155.222 49.0738 155.245 49.0796C155.664 49.1834 156.088 49.2815 156.502 49.4027C156.921 49.5238 157.351 49.2411 157.759 49.4719C157.803 49.495 157.902 49.4834 157.935 49.443C158.062 49.293 158.172 49.3623 158.332 49.3911C158.702 49.4488 159.137 49.5354 159.451 49.3911C159.7 49.2758 159.92 49.2354 160.168 49.2123C160.372 49.195 160.576 49.1661 160.808 49.1373C160.857 49.1892 160.929 49.27 161.012 49.3623C161.321 49.3046 161.613 49.2815 161.811 49.6334C161.856 49.7142 162.038 49.7084 162.154 49.743C162.203 49.593 162.236 49.4892 162.253 49.4373C163.03 49.8007 163.891 49.6334 164.64 49.87C165.054 49.7257 165.445 49.593 165.815 49.4661C166.063 49.5123 166.311 49.5296 166.537 49.6046C166.956 49.743 167.215 49.5815 167.386 49.1892C167.397 49.1604 167.441 49.1488 167.485 49.1258C167.519 49.293 167.546 49.443 167.579 49.6219C168.02 49.8238 168.561 49.8411 168.803 50.3026C169.316 50.4526 169.608 50.0949 169.956 49.8296C170.154 50.0026 170.33 50.1584 170.496 50.2968C170.733 50.0603 170.948 49.8411 171.163 49.6219C171.257 49.743 171.328 49.8296 171.416 49.9392C171.56 49.8123 171.681 49.7084 171.764 49.6392C171.957 49.7257 172.128 49.8238 172.304 49.8873C172.553 49.9738 172.845 49.9853 173.055 50.1296C173.363 50.3372 173.711 50.0776 173.992 50.2911C174.444 50.0084 174.813 50.3084 175.188 50.4988C175.525 50.3488 175.828 50.2161 176.203 50.3776C176.567 50.5334 177.035 50.2161 177.383 50.6026C177.383 50.6026 177.421 50.5795 177.438 50.5738C177.835 50.4699 178.21 50.5564 178.58 50.6776C178.684 50.5622 178.789 50.4468 178.855 50.3776C179.252 50.6199 179.616 50.8449 180.007 51.0814C180.096 50.9083 180.156 50.7872 180.245 50.6257C180.399 50.9718 180.52 51.1045 180.774 51.1564C181.529 51.3122 182.229 51.0526 182.946 50.9257C182.99 50.9949 183.029 51.0641 183.051 51.1045C183.333 51.0007 183.57 50.9141 183.807 50.8276C183.884 50.9545 183.928 51.0353 183.972 51.1218C184.066 51.093 184.165 51.0699 184.253 51.0411C184.303 51.1218 184.347 51.1968 184.364 51.2314C184.777 51.1334 185.169 51.0699 185.538 50.9488C185.88 50.8334 186.2 50.7757 186.564 50.868C186.861 50.943 187.192 50.9949 187.495 50.7238C187.534 50.9141 187.562 51.0583 187.6 51.2372C187.722 51.191 187.826 51.1853 187.87 51.1276C188.157 50.7815 188.493 50.7526 188.885 50.9026C189.15 51.0007 189.436 51.0295 189.701 51.0872C189.767 50.9834 189.811 50.9141 189.85 50.8564C190.401 50.8968 190.572 51.6179 191.157 51.6929C191.124 51.5199 191.102 51.416 191.063 51.2257C191.256 51.3814 191.372 51.4795 191.488 51.5718C191.752 51.5026 192 51.4333 192.237 51.3699C192.43 51.491 192.601 51.5949 192.8 51.7218C193.147 51.6468 193.505 51.5602 193.93 51.4679C194.206 51.6526 194.548 51.6987 194.895 51.4449C194.961 51.3987 195.061 51.393 195.143 51.3641C195.11 51.4679 195.077 51.566 195.028 51.7102C195.259 51.7679 195.425 52.0564 195.667 51.7679C196.136 51.5833 196.599 51.3007 197.095 51.7218C197.15 51.7679 197.277 51.7795 197.349 51.7449C197.718 51.5833 198.077 51.6756 198.446 51.7564C198.606 51.791 198.81 51.7679 198.959 51.6987C199.29 51.543 199.609 51.4333 199.951 51.6122C199.99 51.4564 200.012 51.3641 200.039 51.2603C200.525 51.5199 200.525 51.5141 200.993 51.4622C201.616 51.3987 202.24 51.2718 202.874 51.4737C203.045 51.5256 203.26 51.4276 203.452 51.393C203.811 51.3295 204.17 51.266 204.616 51.1853C204.738 51.093 204.942 50.9372 205.151 50.7757C205.206 50.966 205.25 51.116 205.283 51.2199C205.873 51.6122 206.496 51.4391 207.042 51.5545C207.346 51.3007 207.528 50.9718 207.925 50.7987C207.847 51.0699 207.798 51.2545 207.748 51.4333C208.05 51.5949 208.335 51.5564 208.603 51.318C208.807 51.4737 209 51.6583 209.22 51.7852C209.502 51.9526 209.799 52.0102 210.058 51.7102C210.114 51.6526 210.202 51.5718 210.262 51.5833C210.72 51.6583 211.112 51.4333 211.547 51.2545C211.806 51.5083 212.054 51.7564 212.313 52.0045C212.589 52.016 212.876 52.0333 213.223 52.0449C213.289 51.8083 214.012 51.8775 213.681 51.2314C213.477 51.2545 213.29 51.2718 213.074 51.2949C213.251 50.9141 213.808 51.2718 213.846 50.7468C214.216 51.2776 214.58 51.7391 215.225 51.7564C215.203 51.8949 215.192 51.9987 215.159 52.2179C215.462 52.016 215.672 51.8833 215.887 51.7449C216.212 51.9179 216.394 52.3852 216.896 52.2641C217.001 52.0795 217.122 51.8718 217.221 51.6987C217.447 51.7622 217.662 51.9064 217.811 51.8487C218.269 51.6872 218.578 51.9352 218.815 52.2352C219.03 52.5064 219.211 52.4891 219.421 52.316C219.57 52.1891 219.68 52.0045 219.818 51.8314C219.901 51.9526 220 52.0968 220.116 52.2756C220.331 52.1314 220.529 51.9929 220.695 51.8775C221.263 52.3045 221.858 52.3333 222.426 52.1429C223.242 52.939 224.092 52.6564 224.93 52.3968C224.963 52.5294 225.001 52.6679 225.057 52.8525C225.211 52.7833 225.321 52.7313 225.448 52.6737C225.591 52.7544 225.746 52.8467 225.889 52.9275C226.33 52.7775 226.832 52.7544 227.08 52.1948C227.256 52.7602 227.72 52.5814 227.979 52.7833C228.536 52.4545 228.249 51.8775 228.442 51.3583C228.657 51.8718 228.321 52.3621 228.607 52.7602C228.85 52.5756 229.153 52.4487 229.291 52.2179C229.434 51.9872 229.418 51.6468 229.49 51.2718C229.539 51.6526 229.578 51.9352 229.622 52.2352C230.405 52.3391 230.984 51.8314 231.756 51.7564C231.877 51.8141 232.097 51.9122 232.329 52.0218C232.539 51.8775 232.737 51.7449 232.941 51.6064C232.969 51.3583 232.997 51.1391 233.024 50.9141C233.046 50.9141 233.068 50.9141 233.096 50.9141C233.112 51.1103 233.134 51.3064 233.151 51.4564C233.388 51.6122 233.586 51.7449 233.796 51.8833C234.039 51.7853 234.342 51.7506 234.507 51.5718C234.838 51.2257 235.246 51.1391 235.66 51.018C235.649 50.9545 235.638 50.8968 235.616 50.7815C235.974 50.718 236.327 50.6488 236.691 50.5795C236.652 50.5449 236.602 50.493 236.547 50.4411C236.586 50.4238 236.625 50.3776 236.658 50.3892C237.027 50.5045 237.391 50.6372 237.794 50.5565C237.882 50.5392 237.998 50.6315 238.091 50.6892C238.273 50.8045 238.45 50.9372 238.654 51.0757C238.819 50.9603 238.979 50.8507 239.167 50.7238C239.348 51.1795 239.646 51.1103 239.961 50.9084C240.099 51.2603 240.357 51.093 240.578 51.1276C240.744 50.8911 240.892 50.6776 241.085 50.4122C241.377 50.6776 241.659 50.9372 241.978 51.2257C242.227 51.0641 242.464 50.9084 242.706 50.7526C242.949 50.9487 243.142 50.8103 243.329 50.6315C243.567 50.4122 243.737 50.5507 243.892 50.8045C244.372 50.5276 244.824 50.2622 245.276 49.9969C245.298 50.0777 245.325 50.1815 245.364 50.3373C245.551 50.1642 245.701 50.0315 245.839 49.9046C246.407 50.0142 246.677 49.6046 246.947 49.2873C247.145 49.3565 247.322 49.42 247.515 49.4892C247.735 49.1719 247.934 48.8777 248.077 48.6643C248.706 48.5085 249.345 48.7681 249.737 48.1451C249.852 48.2201 249.979 48.3008 250.106 48.3816C250.437 48.2835 250.691 47.8912 251.027 48.1912C251.225 48.422 251.418 48.6469 251.623 48.8892C252.03 48.7277 252.378 48.595 252.747 48.4508C252.979 48.52 253.227 48.5893 253.514 48.67C253.58 48.422 253.635 48.2143 253.695 47.9893C253.762 48.2027 253.817 48.3931 253.872 48.5893C253.993 48.6066 254.076 48.6066 254.159 48.6296C254.418 48.6989 254.688 48.4277 254.936 48.67C255.135 48.5431 255.339 48.4162 255.532 48.2835C255.681 48.1797 255.824 48.0643 255.978 47.9547C256.078 48.0701 256.15 48.1566 256.26 48.2777C256.481 48.2201 256.723 48.1566 256.96 48.0931C256.999 48.1854 257.037 48.2835 257.093 48.422C257.694 48.0066 258.239 48.1624 258.746 48.5085C258.846 48.4162 258.917 48.347 259.033 48.2431V48.7335C259.314 48.6181 259.563 48.5143 259.811 48.4162C259.86 48.5143 259.899 48.5893 259.938 48.67C260.119 48.6123 260.285 48.572 260.445 48.5085C260.869 48.3412 261.344 48.2431 261.707 47.9777C262.016 47.747 262.242 47.7297 262.54 47.9028C262.909 48.1105 263.218 48.0354 263.461 47.6778C263.499 47.6258 263.554 47.5855 263.599 47.5451C264.216 47.9951 264.321 48.0008 264.696 47.6143C264.734 47.7181 264.768 47.822 264.768 47.8278C265.539 48.1508 266.301 47.9489 267.051 48.0989C267.106 47.9028 267.155 47.7181 267.199 47.5509C267.563 47.6432 267.916 47.8624 268.198 47.7874C268.843 47.6086 269.526 47.4528 270.017 46.899C270.034 46.8817 270.089 46.9047 270.149 46.9105C270.149 47.0201 270.138 47.1297 270.133 47.3201C270.695 46.997 270.535 47.6547 270.745 47.822C271.092 47.6605 270.971 47.3316 271.031 47.1124C271.142 47.0547 271.219 47.0201 271.285 46.9855V46.4432C271.451 46.5067 271.572 46.5528 271.699 46.6047C271.783 46.874 271.941 47.1067 272.173 47.3028V46.7547C272.333 46.8643 272.509 46.922 272.598 47.049C272.89 47.4643 272.912 47.5335 273.281 47.3316C273.656 47.1297 274.13 47.3316 274.439 46.9567C274.891 47.0836 275.183 46.8586 275.382 46.4317C275.437 46.5298 275.453 46.6163 275.503 46.6394C275.553 46.6624 275.63 46.6278 275.707 46.6221C275.685 46.8124 275.674 46.9624 275.657 47.0778C276.115 47.4182 276.308 46.5817 276.743 46.8701C276.694 47.0201 276.65 47.1413 276.606 47.2739C276.7 47.3316 276.771 47.3951 276.848 47.4182C277.141 47.4932 277.422 47.7066 277.737 47.5335C278.012 47.3893 278.288 47.5335 278.558 47.5162C278.795 47.5047 279.032 47.4759 279.269 47.4643C279.551 47.447 279.832 47.4297 280.108 47.4124C280.146 47.3374 280.19 47.2682 280.223 47.199C280.808 47.3893 281.37 47.6028 281.955 47.3259C282.302 47.1643 282.633 47.0028 283.024 46.9394C283.559 46.8586 284.077 46.6913 284.618 46.8528C285.075 46.9855 285.589 46.8817 285.985 47.2624C286.068 47.3374 286.265 47.3893 286.345 47.3432C286.665 47.1355 286.921 47.372 287.227 47.4182C287.318 47.3547 287.424 47.2797 287.552 47.1932C287.683 47.2567 287.82 47.3259 287.96 47.3893C288.363 47.124 288.808 47.2105 289.21 47.3259C289.57 47.4297 289.89 47.4239 290.181 47.2682C290.54 47.5105 290.872 47.6489 291.263 47.6432C291.779 47.6432 292.304 47.6489 292.821 47.6835C292.944 47.6893 293.052 47.8162 293.246 47.9374C293.318 47.8335 293.418 47.6893 293.472 47.6028C294.08 47.7643 294.339 47.1816 294.773 47.0836C294.825 47.1528 294.867 47.2163 294.89 47.2509C295.204 47.2047 295.495 47.1586 295.766 47.1124C295.844 47.2451 295.895 47.3316 295.972 47.4701C296.08 47.2682 296.152 47.1355 296.22 47.0143C296.54 46.8817 296.842 46.7605 297.191 46.6163C297.345 46.8297 297.499 47.0374 297.67 47.2682C297.753 47.124 297.819 47.0086 297.89 46.8759C297.939 47.0028 297.984 47.124 298.027 47.2336C298.558 47.1413 299.063 46.9971 299.583 47.1643C300.182 47.3605 300.79 47.3086 301.412 47.2624C301.96 47.2163 302.517 47.3086 303.122 47.349C303.287 47.2451 303.51 47.1009 303.712 46.974C304.044 47.0432 304.326 47.2567 304.634 47.0259C304.694 46.9855 304.817 46.9855 304.888 47.0201C305.302 47.222 305.699 47.0778 306.11 47.0201C306.404 46.9797 306.718 47.0605 307.02 47.0894C307.28 47.1124 307.551 47.1932 307.8 47.1586C308.356 47.0778 308.907 46.9336 309.464 46.8182C309.564 46.6855 309.663 46.5528 309.789 46.3855C309.823 46.5471 309.843 46.6452 309.855 46.7086C310.303 46.8759 310.328 46.3105 310.705 46.2528C311.031 46.2067 311.327 45.9183 311.636 45.7337C311.664 45.7625 311.687 45.7971 311.713 45.826C311.521 46.0452 311.327 46.2644 311.125 46.4952C311.433 46.5759 311.778 46.4548 312.167 46.1317C312.635 46.2413 313.14 46.2875 313.611 46.5817C313.885 46.7547 314.239 46.8067 314.558 46.8817C314.635 46.899 314.741 46.7951 314.841 46.7432C314.712 46.5413 314.613 46.3798 314.51 46.2182C314.53 46.1952 314.553 46.1721 314.581 46.149C314.818 46.3567 315.055 46.5586 315.309 46.7836C315.38 46.6452 315.417 46.5644 315.463 46.4836C317.267 47.199 317.238 47.0317 318.925 46.524C319.456 46.8528 320.421 46.8528 321.074 46.5701C321.483 46.674 321.814 46.7605 322.185 46.8586C322.216 46.9163 322.279 47.0317 322.339 47.147C322.978 47.2682 323.6 47.1471 324.231 47.4182C324.788 47.6605 325.521 47.3259 326.061 47.8393C326.623 47.6951 327.162 47.3778 327.776 47.597C327.813 47.6086 327.864 47.597 327.907 47.5855C328.427 47.4297 328.949 47.274 329.468 47.124C329.528 47.1067 329.594 47.1124 329.683 47.1009C329.745 47.2163 329.8 47.3316 329.859 47.4586C330.664 47.4586 331.469 47.4297 332.274 47.4701C332.694 47.4874 333.002 47.3778 333.233 47.0143C333.267 46.9682 333.316 46.9336 333.379 46.8759C333.41 47.0605 333.433 47.2163 333.45 47.3143C333.67 47.4009 333.912 47.5855 334.001 47.522C334.298 47.3086 334.546 47.5047 334.777 47.522C335.026 47.4009 335.237 47.297 335.468 47.1874C335.633 47.4413 335.765 47.6432 335.888 47.8278C336.538 47.9201 336.581 47.274 336.944 46.9105C336.935 47.1182 336.924 47.2394 336.924 47.297C337.132 47.4009 337.309 47.4816 337.497 47.5739C337.563 47.5278 337.677 47.4182 337.817 47.372C337.965 47.3259 338.131 47.3432 338.316 47.3374C338.399 47.6432 338.593 47.897 338.93 47.9951C339.178 47.9258 339.427 47.8509 339.675 47.7816C339.741 47.8912 339.783 47.9662 339.846 48.0643C340.177 48.0239 340.523 47.9835 340.902 47.9374C341.367 48.1508 341.864 48.3758 342.415 48.1739C342.475 48.272 342.515 48.3931 342.569 48.4105C342.966 48.5085 343.368 48.5489 343.765 48.6816C344.062 48.7796 344.45 48.7854 344.73 48.67C345.066 48.5316 345.349 48.6354 345.657 48.6643C345.712 48.6643 345.789 48.6354 345.829 48.595C346.197 48.2374 346.439 48.5374 346.682 48.8316C346.847 48.6239 346.987 48.4508 347.141 48.2605C347.239 48.2893 347.367 48.3181 347.487 48.347C347.538 48.2662 347.581 48.1912 347.627 48.1278C347.872 48.4624 348.315 48.2951 348.563 48.595C348.877 48.4162 349.165 48.2547 349.445 48.0932C349.71 48.3585 350.018 48.3528 350.244 48.0932C350.481 47.8278 350.675 48.047 350.912 48.0585C351.017 47.7297 351.226 47.4874 351.617 47.349C351.568 47.5855 351.528 47.7759 351.503 47.9143C352.088 48.0989 352.587 47.8278 353.124 47.8162C353.669 47.7989 354.208 47.7355 354.756 47.6951C354.739 47.7874 354.722 47.8797 354.694 48.0239C355.125 47.9201 355.404 47.6316 355.681 47.4413C355.735 47.2163 355.775 47.0432 355.824 46.8298C356.041 47.0144 356.212 47.1643 356.375 47.3143C356.846 47.1874 357.103 46.824 357.331 46.3856C357.502 46.4721 357.651 46.5471 357.81 46.6221C358.042 46.449 358.267 46.299 358.473 46.1259C358.752 45.8779 359.023 45.9125 359.309 46.1259C359.437 45.9586 359.563 45.7856 359.694 45.6067C359.783 45.7221 359.834 45.7914 359.882 45.849C360.159 45.7452 360.428 45.6471 360.622 45.5721C360.799 45.8086 360.924 45.9817 361.024 46.1202C361.381 46.1029 361.692 46.0856 362.006 46.0683C362.143 45.9183 362.277 45.7683 362.326 45.7106C362.7 45.601 362.971 45.526 363.219 45.4567C363.333 45.2145 363.427 45.0183 363.522 44.8279C363.818 45.0356 363.918 45.5318 364.432 45.4625C364.663 45.0529 364.9 44.6375 365.131 44.228C365.186 44.5164 365.106 44.7472 365.089 44.9895C365.071 45.1971 365.414 45.4914 365.588 45.4971C365.759 45.4394 365.905 45.3933 366.036 45.3471C366.113 45.4683 366.17 45.5606 366.242 45.6817C366.744 45.3125 367.272 45.0414 367.509 44.4299C367.543 44.4876 367.58 44.5395 367.626 44.6145C367.674 44.5453 367.717 44.4818 367.723 44.4703C367.957 44.5914 368.177 44.7068 368.456 44.8568C368.628 44.5799 368.776 44.3318 368.93 44.0953C369.053 43.9049 369.19 43.7318 369.527 43.8011C369.378 43.9799 369.256 44.1068 369.17 44.251C369.07 44.4068 368.999 44.5799 368.845 44.8799C369.147 44.6722 369.307 44.5626 369.467 44.453C369.615 44.5453 369.741 44.6203 369.869 44.701C370.06 44.551 370.237 44.4126 370.414 44.2799C371.059 44.5568 371.687 44.3549 372.161 43.7088C372.384 43.778 372.604 43.8472 372.818 43.9107C372.846 43.853 372.88 43.7895 372.929 43.6915C372.989 43.8588 373.04 43.9972 373.077 44.1068C373.597 44.3203 373.774 43.7434 374.196 43.6568C374.687 44.078 375.301 43.8472 375.88 43.8876C375.94 43.8876 376.046 43.8761 376.06 43.8357C376.214 43.4665 376.531 43.6453 376.773 43.5934C377.093 44.003 377.125 43.9972 377.427 43.4319C377.687 43.8126 378.012 43.703 378.349 43.5876C378.634 43.4895 378.928 43.4203 379.279 43.3222C379.391 43.2242 379.556 43.08 379.727 42.93C379.793 43.0626 379.85 43.1665 379.922 43.3107C380.024 43.0396 380.101 42.8261 380.19 42.6011C380.295 42.803 380.384 42.9819 380.504 43.2126C380.555 43.0569 380.581 42.9703 380.621 42.8434C381.112 43.005 381.586 42.8953 382.048 42.7338C382.171 42.6934 382.313 42.5377 382.39 42.5723C382.756 42.7396 382.981 42.2896 383.312 42.3646C383.663 42.0185 384.117 41.9954 384.562 41.9089C384.993 41.8281 385.396 41.6839 385.733 41.332C385.987 41.0666 387.08 41.3446 387.371 41.16C387.636 41.31 388.085 41.7306 388.227 41.588C388.299 41.8014 388.989 41.6377 389.083 41.9089C389.757 41.4185 389.94 41.3027 389.94 41.3027C389.94 41.3027 389.934 52.8587 389.94 58.708L0.0605469 58.7079Z" fill="#FF0056"/>
</svg>
