<svg width="1440" height="122" viewBox="0 0 1440 122" fill="none" xmlns="http://www.w3.org/2000/svg">
<rect width="1440" height="119.25" fill="#FBF8E6"/>
<path d="M0.00390625 121.831C0.00390825 110.407 0.00391024 98.9831 0.00391224 87.5592C0.248296 87.3248 0.472314 87.1116 0.737063 86.8559C1.38876 87.0476 2.06081 87.2395 2.77359 87.4526C3.1198 86.8559 3.38456 86.4083 3.58821 86.0672C4.03624 86.4083 4.44354 86.7066 4.91195 87.0903C5.25137 85.3426 5.97774 84.3551 7.09105 84.1277V83.1047C7.51872 83.5736 7.78347 83.8719 8.06858 84.1917C8.37405 84.0638 8.65917 83.9359 8.94428 83.8293C9.31086 84.2343 9.65708 84.618 9.96257 84.9803C10.4513 84.7244 10.7772 84.5753 10.9808 84.4687C11.551 85.0869 11.9991 85.6836 12.5693 86.1312C12.7729 86.2804 13.2414 86.0672 13.5265 86.0459C13.7098 86.5361 13.8726 86.9624 14.0763 87.4952C14.6262 86.7066 15.0131 86.1312 15.339 85.6622C16.2758 86.4083 17.3144 85.9394 18.1494 86.5574C18.9844 87.1755 20.1452 87.2821 21.2246 87.6231C21.6319 86.8984 21.8966 86.4083 22.2428 85.7688C23.3832 86.3017 24.5644 86.8559 25.7864 87.4099C25.8068 87.3673 25.9697 87.1116 26.2141 86.728C26.5399 87.1116 26.8046 87.4099 27.0694 87.6871C27.7415 87.5165 28.4135 87.346 29.0855 87.1755C29.2485 86.728 29.391 86.2804 29.4522 86.1312H33.627C34.0955 85.8754 34.8083 85.5131 35.2563 85.2573C36.0505 86.0885 36.6614 86.7493 37.1502 87.2821C38.2703 86.7493 39.1257 86.323 40.0218 85.8968C40.5105 86.6427 40.877 87.1969 41.3658 87.9428C42.0787 87.4313 42.7303 86.9411 43.3413 86.4935C43.5857 86.6001 43.8504 86.6853 44.2373 86.8346C44.3596 85.9181 44.4614 85.1507 44.6039 84.1491C45.0112 85.4065 45.3167 86.3443 45.6019 87.2395C46.5183 87.5165 47.2921 87.7297 48.066 87.9641C48.9825 87.6445 49.8785 87.3248 50.6728 87.0263C50.9579 86.387 51.2023 85.8754 51.6096 85.0016C52.7296 88.9232 55.5401 87.8575 57.8211 88.1134C58.0451 87.7936 58.269 87.4952 58.3708 87.346C59.5725 87.4526 60.0612 88.5823 61.3034 88.2838C61.9347 88.1347 62.8512 89.2003 63.6251 89.7118C64.3379 88.6036 62.8717 87.2395 64.2157 86.3443C64.4194 87.3248 64.4398 88.4117 64.8878 89.2429C65.3562 90.0955 66.2319 90.6709 66.9447 91.3742C67.2502 90.9267 67.5352 90.543 67.8407 90.1168C68.8182 90.543 69.694 90.948 70.5494 91.3103C71.6084 90.3015 72.6062 89.8681 73.543 90.0102C72.8302 90.543 72.1582 91.0546 71.2621 91.7367C72.4841 92.376 73.38 93.0155 74.5205 92.2694C75.8239 93.1859 77.6771 93.058 78.6343 94.6352C78.6955 94.7205 78.9194 94.7205 79.1842 94.7845C79.2452 94.2942 79.3063 93.8467 79.3675 93.2499C81.9946 93.9958 84.581 92.2268 87.1878 93.2712C87.595 94.1024 87.9616 94.827 88.3893 95.6796C89.0614 95.4664 89.6316 95.2746 89.9981 95.1681C91.1386 96.2977 92.1975 97.3847 92.9307 98.1093C94.9469 98.1093 96.5761 98.2585 98.2053 98.1306C100.079 97.9814 101.443 98.9192 102.808 100.262C104.132 99.8996 105.435 99.5373 106.902 99.1324C107.247 99.3455 107.818 99.6865 108.775 100.262C108.53 99.175 108.388 98.5569 108.205 97.747C109.936 98.1733 111.524 98.5782 113.336 99.0258C113.622 98.8339 114.131 98.4929 114.66 98.1306C114.681 98.2372 114.721 98.365 114.743 98.4716C115.984 98.365 117.247 98.2799 118.266 98.1946C119.365 98.3437 120.445 98.1946 121.177 98.6422C122.807 99.6439 124.09 99.0684 125.087 98.2372C126.249 98.429 127.185 98.4503 128.041 98.7488C129.486 99.2815 130.81 99.2176 132.093 98.3012C132.257 98.1733 132.643 98.0454 132.683 98.1306C133.723 99.4094 134.353 97.6831 135.229 97.747C136.105 99.8144 137.449 97.9601 138.549 98.1946C138.569 97.747 138.61 97.3207 138.671 96.3829C139.283 97.5125 139.669 98.1946 140.117 99.0045C141.706 98.7913 143.295 98.5569 144.964 98.3225C146.451 98.9192 148.019 99.6226 149.648 100.155C150.157 100.326 150.83 99.9423 151.379 100.07C152.744 100.369 154.088 100.816 155.452 101.157C155.839 101.242 156.307 101.264 156.654 101.115C158.466 100.241 160.136 100.688 161.786 101.733C162.194 101.328 162.54 100.987 162.906 100.603C163.802 101.285 164.698 101.946 165.573 102.628C166.307 102.351 166.999 101.882 167.671 101.903C168.404 101.903 169.138 102.393 169.81 102.649C170.278 102.479 170.706 102.244 171.133 102.159C171.989 101.988 173.047 102.926 173.659 101.583C174.962 101.903 175.309 100.582 175.94 99.9849C177.468 100.155 178.873 100.305 180.359 100.475C181.764 100.028 183.312 99.516 184.859 99.0684C186 98.7488 187.223 98.5995 188.363 98.3864C189.422 98.1733 190.501 97.6617 191.642 97.406C192.151 97.2994 192.7 97.0436 193.107 96.6813C193.719 96.1272 194.208 95.4451 194.778 94.7845C195.613 94.9762 196.468 95.1894 197.344 95.3812C197.771 94.6353 198.138 93.9958 198.321 93.6548H205.511C206.772 92.2268 208.992 92.6105 210.48 91.4382C212.17 90.0955 214.329 90.2873 215.957 89.1364C217.037 90.2021 218.137 90.2234 219.237 89.6905C220.846 88.9233 222.373 88.3904 224.246 88.561C225.733 88.7101 227.24 87.6445 228.849 87.6871C228.91 87.6871 228.991 87.6018 229.052 87.5592C231.761 85.3639 234.816 85.577 238.075 85.9821C237.036 87.3248 237.891 87.7724 238.665 88.2838C239.215 87.9855 239.683 87.6018 240.213 87.4739C241.801 87.0477 243.369 86.6427 244.551 85.3426C245.833 85.6197 246.343 84.0638 247.809 84.1491C250.355 84.3195 252.941 83.8081 255.629 83.5523C257.299 85.2147 259.254 85.6197 261.413 84.682C261.616 83.9785 261.8 83.2752 262.023 82.4654C263.592 83.3605 265.079 83.4883 266.647 83.0194C266.749 82.9981 266.892 83.1687 267.054 83.2966C266.85 83.872 266.627 84.4475 266.423 85.0443C267.829 85.7049 268.947 85.3 269.863 84.618C270.434 84.895 270.862 85.0869 271.167 85.236C272.594 84.5967 273.856 84.0425 274.875 83.5736C277.013 85.641 279.131 86.9411 281.901 86.6427C282.369 86.6001 282.96 86.5148 283.286 86.7493C284.731 87.8149 286.136 87.1116 287.439 86.8133C287.826 87.2395 288.133 87.6019 288.418 87.9215C290.555 86.2804 292.979 86.7706 295.158 86.1738C295.24 86.5361 295.28 86.6854 295.3 86.8559C295.3 87.0903 295.3 87.3248 295.3 87.5805C297.276 87.41 298.947 86.6427 300.433 85.2147C300.25 84.5754 300.087 83.9786 299.924 83.3605C300.148 83.2753 300.393 83.19 300.739 83.0621C300.881 84.0212 301.003 84.9164 301.126 85.8115C302.979 87.4526 304.934 87.9642 307.214 86.8772C307.072 85.7689 306.97 84.7885 306.848 83.8081C307.418 84.2982 307.601 84.8524 307.846 85.3853C308.09 85.8755 308.396 86.3444 308.762 86.9411C309.251 86.451 309.598 86.1099 310.005 85.7263C310.759 85.7263 311.552 85.7476 312.346 85.7263C313.426 85.6836 313.364 84.4901 313.812 83.7015C314.852 84.4688 315.727 85.1294 316.623 85.7902C317.193 84.682 315.502 84.1065 316.459 83.1047C316.99 83.7868 317.478 84.4261 317.967 85.0443C319.922 84.1917 322.428 85.1082 323.609 82.5932C323.976 82.9555 324.22 83.19 324.363 83.3392C324.28 83.9359 324.199 84.4261 324.138 84.9377C325.177 84.2982 326.521 84.7671 327.153 83.5949C327.193 83.531 327.295 83.5097 327.356 83.4883C328.557 83.6802 329.84 83.872 330.919 83.5097C332.141 83.1047 333.303 84.2344 334.443 83.4031C334.504 82.1456 335.563 79.3323 336.621 77.9469C336.296 79.8225 336.031 81.421 335.745 83.0194C335.909 83.0834 336.092 83.126 336.255 83.19C336.621 82.3801 336.988 81.5489 337.375 80.7177C337.721 81.5915 337.335 82.7424 338.456 83.2113C340.471 82.7211 342.548 82.2948 343.139 79.588C343.343 79.929 343.485 80.1422 343.567 80.2701C345.033 78.9273 346.499 77.5846 347.864 76.3271C350.104 76.8599 351.998 78.1387 354.462 77.4567C354.727 76.7534 355.053 75.9221 355.398 75.027C355.887 75.4533 356.417 75.9221 356.906 76.3483C357.231 76.1779 357.456 75.986 357.68 75.9647C359.411 75.9009 361.162 75.7516 362.893 75.8795C364.136 75.9647 364.91 75.368 365.684 74.5581C366.152 76.2845 367.231 77.2223 368.962 77.3501C369.593 77.3927 370.143 77.4993 370.611 78.1175C371.385 79.1618 372.75 79.2897 373.829 79.8864C375.296 80.6964 376.742 79.6093 378.249 79.0125C378.901 79.9077 380.346 79.311 380.958 80.5258C381.283 80.3553 381.609 80.1848 381.915 80.0143C382.241 80.4619 382.525 80.8668 382.75 81.1866C384.562 80.5258 386.089 79.9716 387.719 79.3963C388.309 79.6093 389.042 79.8012 389.673 80.1422C390.386 80.5258 390.753 79.1404 391.629 79.8864C391.975 80.1848 393.033 79.7799 393.624 79.4388C394.215 79.0765 394.622 78.3945 395.07 77.9043C396.068 78.5011 396.944 79.0552 397.8 79.5667C399.45 78.9912 400.976 78.4585 402.565 77.9043C402.667 78.0322 402.851 78.2666 403.176 78.7142C403.36 77.9256 403.502 77.2862 403.725 76.3271C403.99 77.3927 404.175 78.1174 404.378 78.97C406.048 79.0978 407.655 79.1618 409.244 79.3323C410.018 79.4176 410.793 79.588 411.545 79.7799C412.544 80.0356 413.542 80.5045 414.539 80.5471C415.334 80.5898 416.129 81.6554 416.943 80.6324C417.595 81.6767 418.572 81.1226 419.427 81.2931C420.406 81.4849 421.322 82.1243 422.157 82.5079C422.646 82.0604 423.053 81.698 423.439 81.357C424.397 82.1669 425.212 82.849 426.128 83.6163C427.105 83.467 428.143 83.3392 429.161 83.1687C430.139 82.9981 431.117 82.7637 432.094 82.5506C432.155 83.0621 432.176 83.3819 432.216 83.6802C432.767 83.6163 433.215 83.5736 433.642 83.531C434.05 84.1918 434.376 84.7245 434.824 85.4279C435.008 84.7672 435.109 84.4048 435.272 83.7868C435.577 84.3196 435.761 84.6607 435.984 85.0443C436.412 84.8524 436.82 84.5328 437.268 84.4901C439.222 84.3835 441.076 85.4066 443.092 85.0869C443.479 85.023 443.927 85.5771 444.375 85.705C445.169 85.9395 445.984 86.1525 446.289 84.8951C446.35 84.618 446.981 84.4901 447.328 84.3196C447.429 83.8295 447.531 83.3392 447.694 82.4867C447.918 83.2966 448.021 83.7015 448.143 84.1278C448.57 84.1065 448.957 84.0852 449.303 84.0639C449.548 82.5506 449.75 81.1866 449.975 79.8012L450.261 79.8438C450.362 80.5898 450.484 81.3357 450.545 81.762C451.706 83.4457 453.051 81.5702 454.151 82.4654C454.537 81.8259 454.904 81.2078 455.352 80.4832C455.658 80.9521 455.881 81.2718 456.106 81.5915C457.267 81.9539 458.06 81.2931 458.652 80.3553C459.507 80.9947 460.219 81.5063 460.83 81.9539C461.808 81.3784 462.765 80.8242 463.824 80.2062C463.946 79.7373 464.109 79.1831 464.21 78.7781C466.756 79.3963 468.365 78.0109 469.994 75.8796C469.79 77.1797 469.648 78.16 469.526 78.9912C470.117 79.7159 470.585 80.334 470.972 80.8029C471.746 80.8668 472.398 80.9308 473.192 80.9947C473.458 80.4619 473.783 79.7799 474.109 79.1191C476.166 79.7586 478.201 79.1191 479.484 77.7124C480.483 76.6042 481.623 76.1353 482.641 75.4107C483.924 76.0074 484.698 76.0926 486.979 75.9221C487.345 75.9009 487.793 75.9861 488.099 76.1779C489.443 77.0731 490.686 76.6681 491.744 76.0926C492.701 76.3485 493.496 76.5402 494.25 76.7321C494.25 77.0091 494.291 77.2435 494.291 77.4141H497.06C497.508 78.5224 498.302 79.2684 499.524 79.375C499.727 79.1191 499.891 78.8847 499.911 78.8634C500.42 79.6733 500.929 80.4619 501.316 81.08C502.782 81.1653 502.946 80.2062 503.25 79.2257C504.065 80.3979 504.921 80.4832 505.94 79.9077C506.061 79.0765 506.163 78.2879 506.347 77.0304C507.568 79.2897 508.607 81.1227 510.379 82.1883C513.087 81.762 514.207 81.826 515.125 82.5293C515.307 81.9752 515.47 81.4636 515.735 80.7177C516.591 80.7816 517.487 80.6751 518.261 80.9521C521.458 82.0391 524.634 82.6998 527.852 81.2931C529.237 82.9343 531.071 83.5097 533.066 82.9555C534.736 82.4654 536.405 82.1243 537.932 83.2113C539.073 82.1456 539.215 80.8668 539.053 79.5667H540.6C540.762 80.3979 540.905 81.1227 541.048 81.826C541.72 82.2949 542.332 82.7211 542.78 83.0195H548.604C549.724 84.8524 550.885 85.0869 554.775 83.8933C554.978 84.1705 555.345 84.7033 555.894 85.4706C556.832 85.3427 558.073 85.1934 559.356 85.023C560.639 86.3444 561.313 86.3018 563.961 84.7033C564.226 85.1934 564.49 85.6837 564.775 86.2165C565.895 84.9804 566.16 87.5806 567.301 86.451C567.362 86.0886 567.443 85.5559 567.565 84.7033C568.461 85.0443 569.154 85.3427 569.866 85.5984C570.07 85.6837 570.314 85.6623 570.64 85.6837C570.865 84.9804 571.068 84.3196 571.394 83.2753C572.025 84.4688 572.493 85.3214 572.962 86.1952C573.003 86.1952 573.084 86.2378 573.166 86.2592C574.713 86.6428 576.281 87.0051 577.808 87.4527C579.356 87.9003 580.945 86.856 582.451 87.7085C582.614 87.7938 582.981 87.7511 583.104 87.6019C583.572 87.0477 583.979 87.3035 584.569 87.41C585.934 87.6232 587.543 87.9429 588.703 87.41C589.62 86.9838 590.434 86.8347 591.35 86.7494C592.104 86.6854 592.858 86.5788 593.714 86.4722C593.896 86.6641 594.161 86.9625 594.466 87.3036C595.607 87.0904 596.687 87.0051 597.419 88.3052C597.583 88.6037 598.255 88.5823 598.683 88.7102C598.867 88.1561 598.989 87.7725 599.05 87.5806C601.922 88.9233 605.099 88.3052 607.868 89.1791C609.396 88.6463 610.841 88.1561 612.205 87.6872C613.122 87.8576 614.038 87.9216 614.873 88.1987C616.422 88.7102 617.378 88.1134 618.009 86.6641C618.05 86.5575 618.214 86.5149 618.376 86.4297C618.498 87.0477 618.601 87.6019 618.723 88.2626C620.352 89.0086 622.347 89.0726 623.243 90.7776C625.137 91.3317 626.217 90.0103 627.5 89.0299C628.232 89.6693 628.884 90.2448 629.494 90.7563C630.37 89.8825 631.165 89.0726 631.959 88.2626C632.306 88.7102 632.569 89.0299 632.895 89.4349C633.425 88.966 633.873 88.5824 634.179 88.3265C634.892 88.6463 635.523 89.0086 636.174 89.243C637.092 89.5627 638.171 89.6053 638.946 90.1382C640.086 90.9054 641.368 89.9464 642.408 90.735C644.078 89.6906 645.442 90.799 646.827 91.5023C648.069 90.9481 649.188 90.4579 650.573 91.0547C651.917 91.6302 653.648 90.4579 654.932 91.8859C654.932 91.8859 655.074 91.8006 655.135 91.7793C656.601 91.3957 657.986 91.7154 659.351 92.163C659.738 91.7368 660.125 91.3105 660.369 91.0547C661.835 91.9498 663.18 92.781 664.625 93.6549C664.951 93.0155 665.176 92.568 665.501 91.9712C666.072 93.25 666.52 93.7402 667.456 93.932C670.246 94.5074 672.832 93.5483 675.479 93.0794C675.643 93.3352 675.787 93.5909 675.868 93.7402C676.908 93.3565 677.782 93.0369 678.657 92.7171C678.943 93.186 679.107 93.4845 679.269 93.8041C679.616 93.6975 679.981 93.6123 680.307 93.5058C680.491 93.8041 680.654 94.0812 680.715 94.2091C682.243 93.8468 683.688 93.6123 685.053 93.1647C686.315 92.7384 687.497 92.5253 688.841 92.8663C689.94 93.1434 691.162 93.3352 692.281 92.3335C692.425 93.0369 692.527 93.5696 692.669 94.2304C693.117 94.0598 693.504 94.0385 693.667 93.8254C694.726 92.5467 695.968 92.4401 697.414 92.9942C698.391 93.3565 699.45 93.4631 700.428 93.6762C700.672 93.2926 700.835 93.0369 700.977 92.8237C703.014 92.9729 703.645 95.6371 705.804 95.9141C705.682 95.2747 705.601 94.8911 705.459 94.1878C706.171 94.7633 706.598 95.1256 707.026 95.4666C708.003 95.2108 708.919 94.955 709.795 94.7206C710.508 95.1682 711.139 95.5518 711.872 96.0207C713.156 95.7436 714.479 95.4239 716.048 95.0829C717.066 95.7649 718.329 95.9355 719.612 94.9977C719.856 94.8272 720.223 94.8059 720.528 94.6993C720.406 95.0829 720.284 95.4452 720.101 95.9781C720.956 96.1912 721.568 97.2569 722.464 96.1912C724.195 95.5092 725.905 94.4648 727.738 96.0207C727.942 96.1912 728.411 96.2338 728.676 96.106C730.04 95.5092 731.364 95.8502 732.728 96.1485C733.318 96.2765 734.072 96.1912 734.621 95.9355C735.843 95.36 737.023 94.955 738.286 95.6158C738.429 95.0403 738.511 94.6993 738.612 94.3157C740.404 95.2747 740.404 95.2535 742.135 95.0616C744.436 94.8271 746.739 94.3583 749.08 95.1043C749.711 95.296 750.505 94.9337 751.218 94.8059C752.542 94.5714 753.867 94.337 755.517 94.0385C755.965 93.6976 756.718 93.1221 757.492 92.5253C757.696 93.2286 757.858 93.7828 757.98 94.1665C760.159 95.6158 762.461 94.9763 764.477 95.4026C765.598 94.4648 766.269 93.25 767.736 92.6106C767.45 93.6123 767.268 94.2944 767.084 94.955C768.197 95.5518 769.249 95.4097 770.24 94.5288C770.994 95.1043 771.707 95.7862 772.521 96.2551C773.56 96.8733 774.659 97.0864 775.617 95.9781C775.82 95.7649 776.146 95.4666 776.37 95.5092C778.06 95.7862 779.506 94.955 781.115 94.2944C782.072 95.2322 782.988 96.1485 783.945 97.065C784.964 97.1077 786.022 97.1716 787.305 97.2143C787.55 96.3404 790.218 96.5961 788.996 94.2091C788.242 94.2944 787.551 94.3583 786.756 94.4435C787.407 93.0369 789.464 94.3583 789.606 92.4188C790.972 94.3796 792.317 96.0847 794.699 96.1487C794.618 96.6601 794.578 97.0437 794.456 97.8537C795.575 97.1077 796.349 96.6175 797.144 96.106C798.345 96.7454 799.017 98.4717 800.87 98.0242C801.257 97.3422 801.705 96.5749 802.071 95.9355C802.906 96.1699 803.701 96.7027 804.251 96.4896C805.941 95.8928 807.081 96.8093 807.957 97.9177C808.751 98.9193 809.423 98.8554 810.196 98.216C810.747 97.7471 811.155 97.065 811.664 96.4257C811.968 96.8733 812.335 97.4061 812.763 98.0668C813.557 97.5339 814.29 97.0225 814.901 96.5961C816.999 98.1734 819.198 98.28 821.296 97.5766C824.31 100.518 827.448 99.4735 830.543 98.5144C830.665 99.0046 830.807 99.5161 831.012 100.198C831.582 99.9424 831.989 99.7505 832.457 99.5375C832.986 99.8358 833.557 100.177 834.086 100.475C835.715 99.9211 837.569 99.8358 838.485 97.7684C839.136 99.8571 840.847 99.1965 841.805 99.9424C843.861 98.7276 842.802 96.5961 843.514 94.678C844.309 96.5749 843.066 98.3865 844.126 99.8571C845.022 99.1751 846.141 98.7062 846.651 97.8537C847.18 97.0012 847.12 95.7436 847.384 94.3583C847.568 95.7649 847.71 96.8093 847.872 97.9177C850.765 98.3013 852.903 96.4257 855.754 96.1487C856.202 96.3617 857.016 96.7241 857.871 97.129C858.646 96.5961 859.378 96.106 860.132 95.5945C860.234 94.678 860.337 93.8681 860.438 93.0369C860.519 93.0369 860.6 93.0369 860.703 93.0369C860.764 93.7615 860.845 94.4861 860.906 95.0403C861.782 95.6158 862.515 96.106 863.289 96.6175C864.185 96.2552 865.305 96.1273 865.915 95.4666C867.137 94.1878 868.647 93.8681 870.173 93.4205C870.133 93.186 870.092 92.9729 870.011 92.5467C871.335 92.3122 872.638 92.0565 873.982 91.8006C873.84 91.6728 873.655 91.481 873.452 91.2892C873.594 91.2253 873.737 91.0547 873.86 91.0973C875.224 91.5236 876.568 92.0138 878.054 91.7155C878.381 91.6515 878.808 91.9925 879.155 92.2057C879.826 92.632 880.478 93.1221 881.231 93.6336C881.843 93.2074 882.433 92.8024 883.126 92.3335C883.797 94.0172 884.897 93.7615 886.058 93.0156C886.568 94.3157 887.524 93.6976 888.339 93.8255C888.95 92.9516 889.499 92.1631 890.212 91.1826C891.291 92.1631 892.33 93.1221 893.51 94.1878C894.427 93.591 895.303 93.0156 896.199 92.4401C897.096 93.1647 897.808 92.6532 898.501 91.9925C899.377 91.1826 900.007 91.6942 900.577 92.632C902.349 91.6089 904.019 90.6284 905.689 89.648C905.77 89.9465 905.872 90.3301 906.015 90.9055C906.707 90.2661 907.259 89.7759 907.768 89.307C909.866 89.712 910.864 88.1988 911.861 87.0265C912.595 87.2823 913.246 87.5167 913.959 87.7725C914.773 86.6002 915.507 85.5133 916.036 84.7247C918.358 84.1492 920.719 85.1083 922.166 82.8065C922.593 83.0835 923.062 83.382 923.53 83.6803C924.752 83.318 925.689 81.8687 926.931 82.9769C927.664 83.8295 928.377 84.6607 929.131 85.5559C930.637 84.9591 931.92 84.4689 933.284 83.936C934.14 84.1918 935.056 84.4476 936.115 84.7459C936.36 83.8295 936.564 83.0622 936.787 82.231C937.032 83.0195 937.235 83.7229 937.44 84.4476C937.888 84.5115 938.192 84.5115 938.498 84.5968C939.455 84.8525 940.452 83.8509 941.368 84.7459C942.102 84.2771 942.856 83.8082 943.568 83.318C944.119 82.9344 944.648 82.5081 945.218 82.1031C945.585 82.5293 945.852 82.8491 946.259 83.2967C947.074 83.0835 947.97 82.8491 948.845 82.6146C948.987 82.9557 949.13 83.318 949.334 83.8295C951.554 82.2949 953.569 82.8704 955.443 84.1492C955.809 83.8082 956.074 83.5524 956.501 83.1688V84.9804C957.54 84.5542 958.456 84.1705 959.373 83.8082C959.556 84.1705 959.699 84.4476 959.842 84.7459C960.513 84.5328 961.125 84.3836 961.715 84.1492C963.283 83.5311 965.034 83.1688 966.379 82.1883C967.519 81.3358 968.354 81.2719 969.453 81.9113C970.818 82.6786 971.958 82.4015 972.854 81.0801C972.997 80.8882 973.2 80.7391 973.363 80.5899C975.645 82.2523 976.031 82.2736 977.416 80.8456C977.558 81.2292 977.681 81.6129 977.681 81.6343C980.532 82.8278 983.343 82.0819 986.114 82.6359C986.317 81.9113 986.5 81.2292 986.663 80.6112C988.007 80.9522 989.31 81.7621 990.349 81.485C992.732 80.8243 995.257 80.2489 997.07 78.2027C997.131 78.1389 997.334 78.2241 997.558 78.2454C997.558 78.6503 997.518 79.0553 997.496 79.7587C999.574 78.5651 998.984 80.9948 999.758 81.613C1001.04 81.0161 1000.59 79.8013 1000.82 78.9914C1001.22 78.7782 1001.51 78.6503 1001.75 78.5225V76.519C1002.36 76.7535 1002.81 76.9239 1003.28 77.1158C1003.59 78.1104 1004.18 78.9701 1005.03 79.6947V77.67C1005.62 78.0749 1006.27 78.288 1006.6 78.7569C1007.68 80.2915 1007.76 80.5472 1009.12 79.8013C1010.51 79.0553 1012.26 79.8013 1013.4 78.4159C1015.07 78.8848 1016.15 78.0536 1016.88 76.4764C1017.09 76.8387 1017.15 77.1584 1017.33 77.2437C1017.52 77.3289 1017.8 77.2011 1018.09 77.1798C1018 77.8831 1017.96 78.4372 1017.9 78.8635C1019.59 80.121 1020.3 77.0305 1021.91 78.0962C1021.73 78.6503 1021.57 79.0979 1021.41 79.5881C1021.75 79.8013 1022.02 80.0357 1022.3 80.121C1023.38 80.398 1024.42 81.1867 1025.58 80.5472C1026.6 80.0144 1027.62 80.5472 1028.62 80.4833C1029.49 80.4407 1030.37 80.3342 1031.24 80.2915C1032.28 80.2276 1033.32 80.1636 1034.34 80.0997C1034.48 79.8226 1034.64 79.5668 1034.77 79.3111C1036.92 80.0144 1039 80.803 1041.16 79.78C1042.44 79.1832 1043.66 78.5864 1045.11 78.352C1047.09 78.0536 1049 77.4355 1051 78.0323C1052.69 78.5225 1054.58 78.1388 1056.05 79.5455C1056.35 79.8226 1057.08 80.0144 1057.38 79.8439C1058.56 79.0766 1059.5 79.9504 1060.63 80.121C1060.97 79.8866 1061.36 79.6094 1061.83 79.2898C1062.32 79.5242 1062.83 79.78 1063.34 80.0144C1064.83 79.034 1066.47 79.3537 1067.96 79.78C1069.29 80.1636 1070.47 80.1423 1071.54 79.5668C1072.87 80.462 1074.09 80.9735 1075.54 80.9522C1077.45 80.9522 1079.39 80.9735 1081.29 81.1014C1081.75 81.1227 1082.15 81.5916 1082.86 82.0392C1083.13 81.6556 1083.5 81.1227 1083.7 80.803C1085.94 81.3998 1086.9 79.2471 1088.5 78.8848C1088.69 79.1406 1088.85 79.3751 1088.94 79.5029C1090.1 79.3324 1091.17 79.1619 1092.17 78.9914C1092.46 79.4815 1092.65 79.8013 1092.93 80.3129C1093.33 79.5668 1093.6 79.0766 1093.85 78.629C1095.03 78.1388 1096.15 77.6912 1097.43 77.1585C1098 77.947 1098.57 78.7143 1099.2 79.5668C1099.51 79.034 1099.75 78.6077 1100.02 78.1176C1100.2 78.5864 1100.36 79.034 1100.52 79.439C1102.48 79.0979 1104.35 78.5652 1106.27 79.1832C1108.48 79.9078 1110.73 79.716 1113.02 79.5455C1115.05 79.3751 1117.1 79.716 1119.34 79.8653C1119.95 79.4815 1120.77 78.9488 1121.52 78.4799C1122.74 78.7356 1123.79 79.5242 1124.93 78.6717C1125.15 78.5225 1125.6 78.5225 1125.86 78.6503C1127.39 79.3964 1128.86 78.8635 1130.38 78.6503C1131.46 78.5012 1132.62 78.7996 1133.74 78.9062C1134.7 78.9914 1135.7 79.2898 1136.62 79.1619C1138.67 78.8635 1140.71 78.3307 1142.76 77.9044C1143.13 77.4142 1143.5 76.924 1143.96 76.3059C1144.09 76.9026 1144.16 77.2651 1144.21 77.4995C1145.86 78.1176 1145.96 76.0288 1147.35 75.8157C1148.55 75.6452 1149.65 74.5796 1150.79 73.8975C1150.89 74.0041 1150.97 74.132 1151.07 74.2385C1150.36 75.0485 1149.65 75.8584 1148.9 76.7109C1150.04 77.0092 1151.31 76.5617 1152.75 75.3681C1154.47 75.7731 1156.34 75.9435 1158.08 77.0306C1159.09 77.67 1160.4 77.8618 1161.58 78.1388C1161.86 78.2028 1162.25 77.8191 1162.62 77.6274C1162.15 76.8813 1161.78 76.2846 1161.4 75.6878C1161.47 75.6025 1161.56 75.5173 1161.66 75.4321C1162.54 76.1993 1163.41 76.9453 1164.35 77.7765C1164.62 77.2651 1164.75 76.9666 1164.92 76.6682C1171.58 79.3111 1171.48 78.693 1177.71 76.8175C1179.67 78.0323 1183.23 78.0323 1185.65 76.9879C1187.15 77.3716 1188.38 77.6912 1189.75 78.0536C1189.86 78.2667 1190.09 78.693 1190.32 79.1192C1192.68 79.5668 1194.98 79.1193 1197.31 80.121C1199.36 81.0162 1202.07 79.78 1204.06 81.6768C1206.14 81.1441 1208.13 79.9718 1210.4 80.7817C1210.54 80.8243 1210.72 80.7818 1210.88 80.7391C1212.8 80.1636 1214.73 79.5882 1216.65 79.034C1216.87 78.9701 1217.11 78.9914 1217.44 78.9488C1217.67 79.3751 1217.87 79.8013 1218.09 80.2702C1221.07 80.2702 1224.04 80.1636 1227.01 80.3129C1228.56 80.3767 1229.7 79.9718 1230.55 78.629C1230.68 78.4586 1230.86 78.3307 1231.09 78.1176C1231.21 78.7996 1231.29 79.3751 1231.35 79.7374C1232.17 80.0571 1233.06 80.7391 1233.39 80.5046C1234.49 79.7161 1235.4 80.4407 1236.26 80.5046C1237.17 80.0571 1237.95 79.6734 1238.81 79.2685C1239.42 80.2063 1239.9 80.9522 1240.36 81.6343C1242.76 81.9753 1242.92 79.5882 1244.26 78.2454C1244.23 79.0128 1244.18 79.4604 1244.18 79.6734C1244.95 80.0571 1245.61 80.3554 1246.3 80.6965C1246.55 80.526 1246.97 80.121 1247.48 79.9505C1248.03 79.78 1248.64 79.844 1249.33 79.8227C1249.63 80.9522 1250.35 81.89 1251.59 82.2523C1252.51 81.9966 1253.43 81.7195 1254.35 81.4638C1254.59 81.8687 1254.75 82.1457 1254.98 82.5082C1256.2 82.3589 1257.48 82.2097 1258.88 82.0393C1260.6 82.8278 1262.43 83.659 1264.47 82.9131C1264.69 83.2754 1264.84 83.723 1265.04 83.787C1266.5 84.1493 1267.99 84.2985 1269.45 84.7886C1270.55 85.151 1271.98 85.1723 1273.02 84.746C1274.26 84.2345 1275.3 84.6182 1276.44 84.7248C1276.64 84.7248 1276.93 84.6182 1277.07 84.4689C1278.43 83.1475 1279.33 84.2559 1280.23 85.3428C1280.84 84.5755 1281.35 83.9361 1281.92 83.2328C1282.28 83.3394 1282.76 83.4459 1283.2 83.5525C1283.39 83.2541 1283.55 82.9771 1283.72 82.7426C1284.62 83.9787 1286.26 83.3607 1287.17 84.4689C1288.33 83.8083 1289.4 83.2115 1290.43 82.6147C1291.41 83.5951 1292.55 83.5738 1293.38 82.6147C1294.26 81.6343 1294.97 82.4442 1295.85 82.4868C1296.24 81.2719 1297.01 80.3767 1298.45 79.8653C1298.27 80.7392 1298.13 81.4425 1298.03 81.954C1300.19 82.636 1302.04 81.6343 1304.02 81.5917C1306.03 81.5277 1308.02 81.2932 1310.05 81.1441C1309.99 81.4851 1309.92 81.8261 1309.82 82.3589C1311.41 81.9753 1312.44 80.9096 1313.46 80.2063C1313.66 79.3751 1313.81 78.7356 1313.99 77.9471C1314.79 78.6291 1315.42 79.1832 1316.03 79.7374C1317.77 79.2685 1318.71 77.9257 1319.56 76.306C1320.19 76.6256 1320.74 76.9027 1321.33 77.1798C1322.18 76.5404 1323.01 75.9862 1323.77 75.3468C1324.81 74.4304 1325.81 74.5583 1326.86 75.3468C1327.34 74.7287 1327.8 74.0894 1328.29 73.4286C1328.61 73.8549 1328.8 74.1107 1328.98 74.3238C1330 73.9401 1330.99 73.5778 1331.71 73.3008C1332.37 74.1745 1332.83 74.814 1333.2 75.3255C1334.52 75.2616 1335.66 75.1976 1336.82 75.1337C1337.33 74.5796 1337.83 74.0254 1338.01 73.8122C1339.39 73.4073 1340.39 73.1303 1341.3 72.8744C1341.73 71.9794 1342.07 71.2546 1342.42 70.5513C1343.52 71.3186 1343.89 73.1516 1345.78 72.8958C1346.64 71.3826 1347.51 69.8479 1348.37 68.3348C1348.57 69.4004 1348.27 70.2529 1348.21 71.1481C1348.15 71.9154 1349.41 73.0023 1350.05 73.0237C1350.69 72.8106 1351.22 72.64 1351.71 72.4695C1351.99 72.9171 1352.2 73.2582 1352.47 73.7057C1354.32 72.3417 1356.27 71.3399 1357.15 69.0807C1357.28 69.2939 1357.41 69.4856 1357.58 69.7628C1357.76 69.507 1357.92 69.2726 1357.94 69.2299C1358.8 69.6775 1359.62 70.1038 1360.65 70.6578C1361.28 69.6349 1361.83 68.7184 1362.4 67.8445C1362.85 67.1412 1363.36 66.5018 1364.6 66.7575C1364.05 67.4183 1363.6 67.8872 1363.28 68.42C1362.91 68.9954 1362.65 69.6349 1362.08 70.7431C1363.2 69.9759 1363.79 69.5709 1364.38 69.166C1364.93 69.507 1365.39 69.7841 1365.87 70.0824C1366.57 69.5283 1367.23 69.0167 1367.88 68.5265C1370.26 69.5496 1372.58 68.8037 1374.33 66.4165C1375.15 66.6723 1375.97 66.928 1376.76 67.1625C1376.86 66.9494 1376.99 66.7149 1377.17 66.3526C1377.39 66.9707 1377.58 67.4822 1377.72 67.8872C1379.63 68.6757 1380.29 66.5444 1381.85 66.2247C1383.66 67.7806 1385.93 66.9281 1388.07 67.0772C1388.29 67.0772 1388.68 67.0346 1388.73 66.8854C1389.3 65.5214 1390.47 66.1821 1391.37 65.9903C1392.55 67.5035 1392.66 67.4822 1393.78 65.3935C1394.74 66.8002 1395.94 66.3952 1397.19 65.969C1398.24 65.6066 1399.33 65.3509 1400.62 64.9885C1401.03 64.6262 1401.65 64.0934 1402.28 63.5392C1402.52 64.0294 1402.73 64.4131 1402.99 64.9459C1403.37 63.9442 1403.66 63.1556 1403.99 62.3244C1404.38 63.0703 1404.7 63.731 1405.14 64.5836C1405.33 64.0081 1405.43 63.6884 1405.58 63.2195C1407.39 63.8163 1409.14 63.4113 1410.85 62.8146C1411.3 62.6654 1411.83 62.0899 1412.11 62.2178C1413.46 62.8359 1414.3 61.1734 1415.52 61.4505C1416.81 60.1717 1418.49 60.0865 1420.14 59.7668C1421.73 59.4684 1423.21 58.9355 1424.46 57.6354C1425.4 56.655 1429.43 57.682 1430.51 57C1431.49 57.5541 1433.14 59.1084 1433.67 58.5813C1433.93 59.3699 1436.49 58.765 1436.83 59.7668C1439.32 57.9551 1440 57.5271 1440 57.5271C1440 57.5271 1439.97 100.221 1440 121.831L0.00390625 121.831Z" fill="#FF0056"/>
</svg>
