<svg width="390" height="77" viewBox="0 0 390 77" fill="none" xmlns="http://www.w3.org/2000/svg">
<rect width="390" height="75.0247" transform="translate(0 1.97534)" fill="#FBF8E6"/>
<path d="M389.949 37.3039V0.404449C259.978 0.404449 130.011 0.404449 0.0390625 0.404449C0.0390625 6.46593 0.0390625 12.5332 0.0390625 18.6003C0.199092 18.6334 0.359124 18.6665 0.497081 18.6941C0.657111 18.5671 0.78403 18.4622 0.877842 18.3849C1.03787 18.3463 1.1372 18.4733 1.26412 18.4015C1.36345 18.3463 1.47933 18.3242 1.5897 18.2911C1.73869 18.3629 1.87113 18.4291 2.00909 18.5009C2.3457 18.3629 2.68784 18.3573 2.98583 18.534C3.33898 18.7383 3.71423 18.8266 4.13915 18.8707C4.00119 19.0143 3.85219 19.1192 3.8853 19.3124C4.01775 19.2517 4.15017 19.1965 4.29366 19.1302V19.3786C4.45919 19.4118 4.4923 19.2682 4.57508 19.1965C4.67993 19.1137 4.77926 19.0253 4.94482 19.075C5.00551 19.1302 5.01102 19.2682 5.14347 19.2627C5.29247 19.1854 5.43594 19.1137 5.56839 19.0419C5.66772 19.0861 5.74496 19.1192 5.81119 19.1523C5.94363 19.075 6.07054 18.9977 6.17539 18.9425C6.44579 18.9812 6.67755 19.0198 6.82655 19.2351C6.84311 19.2572 6.88173 19.2793 6.91484 19.2793C6.95897 19.2793 6.99762 19.2627 7.04729 19.2517C7.00313 19.1247 6.96451 19.0198 6.9314 18.926C7.15213 18.6058 7.34527 18.4015 7.46116 18.3684C7.57702 18.4125 7.69842 18.4512 7.81432 18.4954C7.78671 18.6113 7.76465 18.6941 7.74258 18.7824C8.10128 18.8155 8.28336 18.5671 8.55377 18.4015C8.68068 18.4015 8.82968 18.4015 8.97869 18.4015C9.06144 18.4015 9.14422 18.4291 9.21044 18.4401C9.55258 18.937 9.69605 19.0805 10.1651 19.4062C10.1927 19.351 10.2203 19.2958 10.2479 19.2406C10.4465 19.2682 10.6286 19.3621 10.8163 19.2296C10.8494 19.1247 10.888 19.0033 10.9211 18.8818C11.0591 18.9039 11.1473 19.0364 11.2743 18.9646C11.2687 18.9039 11.2577 18.8431 11.2522 18.7879C11.4122 18.5727 11.6385 18.5947 11.8096 18.5616C11.9916 18.6279 12.1296 18.6775 12.2676 18.7327C12.2952 18.7438 12.3117 18.7824 12.3448 18.8211V19.0419C12.6152 19.1026 12.6152 18.7493 12.8359 18.7548C12.9794 18.81 13.0181 19.0088 13.1946 19.0088C13.2112 18.9646 13.2222 18.9204 13.2443 18.8818C13.2554 18.8707 13.294 18.8763 13.3216 18.8763C13.3216 18.9039 13.3271 18.9425 13.316 18.9536C13.2774 18.9812 13.2333 18.9922 13.1946 19.0088C13.2057 19.1026 13.1836 19.2186 13.316 19.2627C13.5037 19.2296 13.6968 19.1965 13.8734 19.1633C13.9838 19.1909 14.0665 19.202 14.1438 19.2351C14.3921 19.3455 14.5963 19.2958 14.7673 19.0805C14.7784 19.064 14.8281 19.0805 14.8777 19.0805C14.9274 19.213 14.9771 19.3566 15.0322 19.4946C15.1095 19.6823 15.2419 19.743 15.4295 19.6712C15.5068 19.5608 15.5841 19.4615 15.6613 19.3621C15.8158 19.4007 15.9483 19.4283 16.0642 19.4559C16.0917 19.5277 16.1083 19.5719 16.1304 19.616C16.2518 19.5719 16.3787 19.5277 16.5277 19.4725C16.6325 19.6381 16.914 19.5608 17.0023 19.7927C16.9746 19.8865 16.9526 19.9749 16.914 20.1074C17.0354 20.0963 17.1292 20.0853 17.2119 20.0742C17.3113 19.9197 17.3996 19.7816 17.4879 19.6492C18.2384 19.732 18.9005 20.0356 19.6014 20.2178C19.7338 20.1295 19.8497 20.019 19.9876 19.9749C20.1256 19.9307 20.2746 19.9307 20.3574 19.7816C20.4126 19.7927 20.4622 19.7982 20.5119 19.8092C20.9478 19.9473 21.3893 20.0466 21.8528 20.0135C22.057 20.0025 22.2501 20.0522 22.4157 20.1626C22.4377 20.2343 22.4598 20.2951 22.4819 20.3558C22.4819 20.3668 22.5095 20.3613 22.5371 20.3723C22.7358 20.2398 22.9454 20.0963 23.1662 19.9473C23.3593 20.0246 23.5414 20.1018 23.6959 20.1626H24.1208C24.1815 20.2951 24.2312 20.411 24.2919 20.538C24.4133 20.411 24.5071 20.3061 24.6064 20.2012C24.7113 20.3723 24.8437 20.3944 24.9927 20.3171C25.07 20.4055 25.07 20.5601 25.2466 20.5601C25.3018 20.4993 25.368 20.4276 25.4232 20.3668C25.517 20.3668 25.5997 20.3668 25.677 20.3503C25.7653 20.3227 25.848 20.2675 25.9143 20.2288C26.0136 20.2895 26.0853 20.3282 26.1461 20.3668C26.3852 20.1202 26.6666 20.0282 26.9903 20.0908C27.04 20.1018 27.0897 20.0798 27.1504 20.0742C27.2111 20.0025 27.2773 19.9252 27.3601 19.8258C27.5035 19.7982 27.6636 19.7706 27.796 19.7485C28.0498 19.9252 27.8843 20.2012 28.0167 20.422C28.105 20.1681 28.0664 19.9086 28.2816 19.7264H28.5465C28.6623 19.8258 28.7617 19.9141 28.8113 19.9583C29.1701 20.0246 29.4624 20.0798 29.7716 20.135C29.8324 20.1074 29.904 20.0742 29.9922 20.0356C30.0473 20.146 30.0861 20.2288 30.1301 20.3171C30.224 20.2233 30.3122 20.1295 30.4061 20.0301C30.5828 20.1571 30.7318 20.2619 30.8751 20.3668C31.0407 20.4165 31.2008 20.4552 31.3552 20.5104C31.3995 20.5269 31.4326 20.5711 31.4326 20.5656C31.5262 20.7422 31.4492 20.9134 31.5651 21.0403C31.7029 20.9465 31.6809 20.825 31.7029 20.7146C31.7141 20.6705 31.7415 20.6263 31.7637 20.5821C31.8685 20.5601 31.9678 20.5435 32.0837 20.5214C32.4314 20.7864 32.8673 20.7146 33.2646 20.8029C33.2866 20.8692 33.3031 20.9299 33.3197 20.9851C33.5295 21.0293 33.7228 21.1011 33.9214 21.1121C34.1421 21.1232 34.2965 21.2446 34.4509 21.3605C34.5283 21.2501 34.5945 21.1618 34.6662 21.0569C34.9699 21.2943 35.2899 21.4654 35.6375 21.5041C35.9687 21.5427 36.2501 21.6586 36.5204 21.8408C36.5535 21.8629 36.6086 21.8519 36.6474 21.8574C36.7633 21.6807 36.4488 21.5538 36.6474 21.366C36.7357 21.4047 36.835 21.4654 36.9397 21.493C37.0668 21.5317 37.2046 21.5482 37.3425 21.5703C37.4807 21.7359 37.6185 21.896 37.751 22.0561C37.878 22.0064 37.9828 21.9623 38.0875 21.9236C38.3416 22.023 38.54 22.1721 38.7386 22.3321C38.8326 22.415 38.943 22.4426 39.0863 22.3874C39.1525 22.3156 39.2299 22.2328 39.3015 22.1445C39.3789 22.1389 39.4451 22.1279 39.5113 22.1279C39.7486 22.1169 39.9858 22.0727 40.2121 22.1003C40.499 22.1334 40.6646 21.8905 40.9186 21.8629C41.0453 21.8519 41.1724 21.7911 41.3214 21.747C41.3545 21.8298 41.3765 21.885 41.3984 21.9457C41.4207 22.0175 41.3984 22.1169 41.5255 22.1555C41.6633 22.023 41.5806 21.7525 41.8346 21.6531C41.9505 21.6862 42.0938 21.7194 42.2428 21.7635C42.2759 21.8519 42.3036 21.9291 42.3421 22.0009C42.3918 22.0893 42.4637 22.1113 42.5739 22.0175C42.5959 21.896 42.6182 21.7525 42.6401 21.6255C43.0817 21.4268 43.523 21.6034 43.9646 21.5317C44.0251 21.6531 44.0859 21.769 44.1467 21.8905C44.2846 21.7966 44.4059 21.7138 44.5384 21.6255C44.9083 21.8132 45.3607 21.5869 45.7193 21.9291C45.5925 22.1997 45.4544 22.4757 45.3219 22.7572C45.6199 22.6413 45.6753 22.2935 45.9236 22.1555C46.2325 22.1058 46.3318 22.3211 46.4146 22.5143C46.7018 22.4481 46.8616 22.2493 47.0272 22.0341C47.3694 22.1941 47.7006 22.3487 48.0371 22.5088C48.0813 22.5861 48.1307 22.6689 48.1804 22.7517C48.2797 22.7186 48.3571 22.691 48.4233 22.6689C48.6054 22.7076 48.6771 22.8345 48.7159 22.9891C48.7267 23.0222 48.7821 23.0443 48.8207 23.083C48.9034 22.9781 48.9751 22.8897 49.0413 22.8069C49.1849 22.8456 49.1738 22.9615 49.2014 23.0554C49.218 23.1216 49.24 23.1823 49.3339 23.1658C49.4295 23.0075 49.4975 22.9247 49.538 22.9173C49.6593 22.9836 49.7752 23.0498 49.8691 23.105C49.985 23.0498 50.0678 23.0057 50.1451 22.967C50.2279 23.0388 50.2941 23.094 50.3547 23.1437C50.454 23.0498 50.5533 22.956 50.6638 22.8511C50.857 22.8456 51.0554 22.8345 51.2598 22.829C51.8501 22.818 52.435 22.8124 53.0256 22.8014C53.1361 22.8014 53.2685 22.7186 53.3456 22.7572C53.5831 22.8676 53.8037 22.818 54.0298 22.7517C54.1237 22.7241 54.223 22.7076 54.3335 22.68C54.4052 22.7904 54.466 22.8842 54.5487 23.0001C54.7251 22.9008 54.8025 23.0774 54.9238 23.1547C54.99 23.1382 55.0508 23.1216 55.1059 23.105C55.3488 23.2706 55.1667 23.6129 55.4205 23.8006C55.531 23.6681 55.6357 23.5467 55.7405 23.4252C55.6634 23.3038 55.6026 23.2044 55.5418 23.105C55.5418 23.105 55.5641 23.083 55.5915 23.0498C55.68 23.1271 55.7736 23.1934 55.8564 23.2762C55.9557 23.3755 56.0716 23.4307 56.2152 23.4473C56.2317 23.4473 56.2483 23.486 56.2594 23.5025C56.1655 23.5964 56.0716 23.6847 55.978 23.7785C56.0882 23.9442 56.204 23.9442 56.3422 23.8889C56.4689 23.7509 56.5848 23.6129 56.7227 23.4915C56.7558 23.4584 56.8443 23.486 56.9048 23.4915C56.9214 23.4915 56.9271 23.5467 56.9491 23.6019C56.8663 23.6902 56.7724 23.7841 56.6787 23.8779C56.5903 23.9607 56.4413 23.9718 56.3807 24.1263C56.8055 24.1319 56.9602 23.7785 57.2305 23.6019C57.2636 23.6019 57.3022 23.5964 57.3299 23.6074C57.6775 23.7896 58.0526 23.7344 58.4225 23.7178C58.5107 23.7178 58.6047 23.6405 58.6874 23.5909C58.7094 23.5798 58.7206 23.5356 58.7314 23.5025C58.7425 23.4252 58.6155 23.37 58.7148 23.2541C58.7591 23.2651 58.8419 23.2651 58.8696 23.3038C59.0682 23.5633 59.3551 23.5577 59.6474 23.6129C59.6971 23.4915 59.7413 23.3866 59.791 23.2762C59.813 23.2541 59.8352 23.2265 59.8626 23.2099C60.238 22.9505 60.3262 22.956 60.6904 23.2596C60.7124 23.2762 60.7512 23.2706 60.8063 23.2762C60.8945 23.1768 60.9939 23.0664 61.0712 22.9725C61.2037 22.9725 61.3307 23.0112 61.4023 22.967C61.6064 22.84 61.8108 22.8511 62.0149 22.8732C62.0423 22.8897 62.0592 22.8952 62.07 22.9063C62.3829 23.175 62.7083 23.1878 63.0468 22.9449C63.0468 22.9449 63.1019 22.9394 63.1296 22.9339C63.2069 23.0167 63.1958 23.2265 63.411 23.1326C63.4496 23.0112 63.4827 22.8842 63.5269 22.7462C63.7256 22.7628 63.902 22.7793 64.0733 22.7904C64.1834 22.6524 64.2828 22.5364 64.349 22.4536C64.5091 22.4315 64.6085 22.4094 64.7078 22.4094C64.9836 22.4094 65.2265 22.3597 65.4802 22.2383C65.7894 22.0837 66.1259 21.9347 66.4902 22.1003C66.606 22.0009 66.7054 21.9126 66.7993 21.8353C67.3456 21.7249 67.9194 21.7414 68.3498 21.355C68.4492 21.3992 68.5265 21.4323 68.6259 21.4709C68.7803 21.3053 69.0672 21.3936 69.2108 21.1618C69.3267 21.1839 69.4425 21.2004 69.5527 21.2336C69.6797 21.2722 69.768 21.3881 69.917 21.3826C70.0274 21.3826 70.1379 21.4157 70.2538 21.4323C70.32 21.3936 70.3917 21.355 70.4687 21.3164C70.5846 21.3826 70.684 21.4433 70.789 21.4986C71.0647 21.6476 71.1972 21.6255 71.4621 21.3937C71.5009 21.3605 71.5449 21.3384 71.6057 21.2943C71.7216 21.3053 71.854 21.3164 71.9865 21.3274C72.0692 21.3384 72.152 21.3716 72.2348 21.366C72.3672 21.355 72.4997 21.3108 72.6321 21.2998C72.7589 21.2888 72.8913 21.2998 73.046 21.2998C73.0238 20.941 73.1893 20.7201 73.4985 20.5821C73.5647 20.549 73.6032 20.4552 73.6418 20.3944C73.8296 20.3834 73.9894 20.3392 74.1219 20.3779C74.3317 20.4441 74.5138 20.4165 74.7068 20.3282C74.751 20.2399 74.7953 20.1515 74.8392 20.0577C75.1538 20.0632 75.4352 20.1571 75.7001 20.3558C75.8988 20.1295 76.1252 20.1626 76.3569 20.2509C76.5445 20.3227 76.732 20.3944 76.9584 20.4828C77.1516 20.411 77.3669 20.3337 77.6041 20.2509C77.7916 20.3613 77.9903 20.4717 78.1835 20.5821C78.2552 20.5214 78.3325 20.4607 78.4427 20.3723C78.6856 20.5325 78.9505 20.4607 79.2097 20.3999C79.3918 20.5601 79.5354 20.7533 79.7783 20.8085C79.8003 20.7477 79.8169 20.6981 79.85 20.5987C79.9108 20.7367 79.9493 20.8195 79.9878 20.9134C80.1534 20.8747 80.1976 20.7533 80.225 20.6153C80.2527 20.4938 80.1976 20.3447 80.3409 20.2399C80.4294 20.3503 80.5122 20.4496 80.5839 20.5545C80.6115 20.5932 80.6224 20.6484 80.6389 20.6925C80.7052 20.5987 80.7771 20.5049 80.8542 20.3999C80.937 20.4165 81.0143 20.4276 81.0751 20.4386C81.1413 20.6649 81.1799 20.7312 81.2846 20.8526C81.5607 20.6815 81.5495 20.2674 81.8752 20.135C81.9249 20.1902 81.9634 20.2399 82.0077 20.2895C82.1178 20.1902 82.2283 20.0963 82.3442 19.9859C82.6973 20.0963 82.9899 20.0632 83.2656 19.7816C83.4369 19.6105 83.7018 19.5277 83.9556 19.6381C84.0272 19.7375 84.0934 19.8203 84.1597 19.9141C84.2701 19.7982 84.3583 19.7044 84.43 19.6216C84.7722 19.6216 84.9875 19.8037 85.175 20.0632C85.2578 19.9638 85.324 19.8921 85.3959 19.7982C85.5558 19.7485 85.7325 19.6878 85.8923 19.6381C86.0139 19.7044 86.1076 19.7651 86.2126 19.8258C86.3119 19.6712 86.4001 19.5332 86.4829 19.4062C86.8417 19.3676 87.1728 19.3345 87.5148 19.3014C87.603 19.3455 87.6915 19.3897 87.7851 19.4394C87.8956 19.4283 88.0115 19.4173 88.1328 19.4062C88.2653 19.5498 88.4034 19.6712 88.4088 19.9086C88.3095 20.0025 88.199 20.0963 88.0997 20.2012C88.0831 20.2178 88.0888 20.2619 88.0777 20.3227C88.1328 20.3337 88.1882 20.3503 88.2379 20.3613C88.4419 20.135 88.6349 19.9252 88.8393 19.7044C89.0268 19.8203 89.1924 19.9252 89.3634 20.0301C89.3856 20.0411 89.4242 20.0301 89.4519 20.0301C89.4738 19.9694 89.4904 19.9086 89.5124 19.8424C89.6614 19.8037 89.8104 19.7761 89.9483 19.7154C90.0864 19.6547 90.2077 19.5664 90.3402 19.4891C90.6436 19.5829 90.9085 19.5222 91.1626 19.351C91.2839 19.2682 91.4383 19.2351 91.5762 19.1744C91.6646 19.1358 91.7583 19.0916 91.8468 19.0419C91.9184 19.0033 91.9792 18.9149 92.0563 18.9039C92.3985 18.8542 92.6249 18.6279 92.8456 18.3905C93.127 18.3573 93.4085 18.3297 93.7339 18.2911C93.8166 18.2193 93.9271 18.1255 94.0319 18.0316C94.1755 18.0427 94.3022 18.0703 94.4181 17.9599C94.5285 17.8494 94.661 17.855 94.7989 17.9433C94.8708 18.0592 94.9479 18.1862 95.0364 18.3076C95.0418 18.3187 95.0914 18.3076 95.1246 18.3076C95.1411 18.1807 94.9479 18.0868 95.0749 17.9433C95.4888 17.9599 95.4888 17.9543 95.9193 17.739C96.1122 17.6452 96.3055 17.5293 96.5427 17.6066C96.598 17.6231 96.6751 17.5955 96.7248 17.5624C96.9457 17.4244 97.1718 17.4409 97.3982 17.5237C97.4201 17.5348 97.4367 17.5734 97.4532 17.601C97.4532 17.6728 97.3262 17.739 97.4532 17.8439C97.5249 17.8218 97.6188 17.7942 97.7127 17.7722C97.8063 17.7501 97.9114 17.7004 97.9996 17.717C98.2479 17.7666 98.4632 17.6894 98.6453 17.5845C98.8217 17.6121 98.9707 17.6342 99.0923 17.6507C99.291 17.5569 99.2687 17.2201 99.5559 17.3029C99.7377 17.4133 99.7157 17.6231 99.7985 17.7832C99.8758 17.8494 99.9529 17.9157 100.03 17.9764C100.052 18.142 100.069 18.2966 100.091 18.4512C100.108 18.4512 100.124 18.4512 100.141 18.4512C100.157 18.1034 100.168 17.7556 100.179 17.4464C100.328 17.2863 100.439 17.1704 100.565 17.0324C100.615 17.0711 100.681 17.0987 100.714 17.1483C100.759 17.2146 100.781 17.2919 100.808 17.3692C100.847 17.325 100.875 17.2808 100.919 17.2587C100.979 17.2311 101.046 17.2256 101.106 17.2091C101.222 17.049 101.25 16.8116 101.537 16.8061C101.614 16.8723 101.697 16.9496 101.785 17.0324C101.873 17.1152 101.912 17.2808 102.127 17.2256C102.039 17.0987 101.951 16.9993 101.895 16.8889C101.862 16.8226 101.862 16.7398 101.84 16.6405C101.967 16.6128 102.067 16.5742 102.16 16.5797C102.326 16.5963 102.486 16.6404 102.646 16.6736C102.95 16.3092 103.523 16.4031 103.888 16.9054C103.965 16.8502 104.048 16.795 104.125 16.7398C104.097 16.657 104.075 16.6018 104.042 16.5135C104.252 16.5356 104.434 16.5687 104.616 16.5687C104.842 16.5687 105.052 16.6018 105.234 16.7453C105.361 16.8447 105.504 16.8723 105.659 16.8668C105.775 16.8613 105.891 16.8447 105.996 16.8337C106.222 16.9496 106.443 17.1042 106.669 17.049C106.917 16.9882 107.132 17.0655 107.347 17.1097C107.75 16.8668 108.181 17.0103 108.595 16.9827C108.694 16.8833 108.65 16.668 108.882 16.646C108.981 16.7453 109.086 16.8944 109.29 16.8116C109.345 16.7453 109.406 16.668 109.467 16.5963C109.825 16.5466 110.118 16.2926 110.454 16.2982C110.697 16.4031 110.907 16.519 111.133 16.5852C111.365 16.6515 111.525 16.922 111.806 16.8392C111.845 16.7564 111.878 16.6901 111.911 16.6184C112.11 16.7729 112.297 16.9109 112.474 17.0545C112.756 17.0214 113.02 16.9827 113.302 16.9496C113.506 16.795 113.715 16.6349 113.903 16.4914C114.19 16.5356 114.439 16.5742 114.637 16.6073C114.897 16.7177 114.935 17.0379 115.222 17.0379C115.261 16.933 115.299 16.8337 115.349 16.7067C115.465 16.7564 115.564 16.8447 115.636 16.8226C115.868 16.7564 116.055 16.8723 116.249 16.9496C116.293 16.8557 116.32 16.7895 116.359 16.7012C116.491 16.7509 116.618 16.795 116.718 16.8337C116.894 16.9993 116.949 17.2367 117.198 17.3029C117.209 17.1152 117.082 16.933 117.209 16.7564C117.463 16.6625 117.391 16.9938 117.578 17.0214C117.65 16.9551 117.738 16.8833 117.827 16.8116C118.047 16.784 118.263 16.7564 118.478 16.7288C118.544 16.8005 118.61 16.8668 118.688 16.9441C118.743 16.8281 118.787 16.7398 118.826 16.657C118.919 16.6846 119.002 16.7122 119.079 16.7343C119.195 16.6128 119.3 16.4914 119.405 16.3865C119.697 16.4417 119.913 16.646 120.205 16.6184C120.189 16.508 120.177 16.3975 120.161 16.2761C120.266 16.2485 120.343 16.2098 120.426 16.2098C120.773 16.2098 121.127 16.2098 121.474 16.1822C121.662 16.1657 121.838 16.1491 121.982 16.0332C122.181 16.0774 122.363 16.116 122.528 16.1491C122.628 16.2485 122.721 16.3368 122.815 16.4307C122.903 16.3313 122.964 16.2595 123.042 16.1767C123.323 16.2264 123.604 16.2485 123.886 16.254C124.167 16.254 124.449 16.3202 124.719 16.3589C124.874 16.2319 125.017 16.116 125.177 15.9835C125.437 16.1546 125.718 16.2154 126.01 16.1602C126.402 16.0884 126.794 15.9945 127.202 15.9007C127.324 15.8179 127.213 15.6026 127.406 15.5087C127.495 15.5805 127.594 15.6578 127.693 15.7295C127.815 15.6688 127.92 15.6191 128.024 15.5695C128.124 15.6081 128.218 15.6412 128.328 15.6854C128.477 15.3928 128.747 15.4149 129.018 15.4425C129.073 15.3928 129.128 15.3486 129.172 15.3045C129.343 15.1278 129.57 15.0064 129.796 15.0119C130.061 15.0119 130.287 14.9622 130.491 14.8297C130.673 14.8683 130.844 14.8904 131.021 15.0837C131.06 15.1278 130.966 15.3265 131.159 15.4149C131.203 15.2658 131.242 15.1444 131.286 15.0008C131.413 14.9843 131.529 14.9677 131.644 14.9567C131.793 14.9456 131.948 14.9401 132.097 14.9291C132.125 14.9291 132.147 14.8904 132.174 14.8683C132.229 14.769 132.103 14.631 132.235 14.5371C132.345 14.4874 132.423 14.5371 132.489 14.6254C132.572 14.9677 132.66 15.31 132.743 15.6523C132.776 15.8068 132.858 15.9062 133.057 15.989C132.974 15.7295 132.952 15.5143 132.853 15.3155C132.765 15.1333 132.721 14.9346 132.666 14.7469C132.632 14.6254 132.66 14.515 132.754 14.4212C132.974 14.2666 133.234 14.3328 133.482 14.2997C133.504 14.3825 133.526 14.4433 133.548 14.5206C133.67 14.5426 133.797 14.5702 133.962 14.6034C134.006 14.6641 134.067 14.7469 134.106 14.8076C134.343 14.8131 134.541 14.8904 134.74 14.7303C134.839 14.8407 134.945 14.9512 135.038 15.0671C135.127 15.1775 135.243 15.2382 135.38 15.2548C135.629 15.2824 135.877 15.3155 136.153 15.3486C136.236 15.3155 136.341 15.2713 136.44 15.2272C136.87 15.724 137.461 15.6743 137.737 15.1389C138.062 15.2879 138.371 15.1554 138.68 15.0616C138.73 15.0892 138.774 15.1333 138.818 15.1389C139.116 15.1665 139.309 15.3321 139.458 15.575C139.486 15.6191 139.519 15.6578 139.558 15.6854C139.574 15.7019 139.618 15.6854 139.652 15.6854C139.663 15.5971 139.674 15.5032 139.679 15.4149C139.933 15.3818 139.861 15.7019 140.065 15.713C140.236 15.6302 140.303 15.3707 140.562 15.4149C140.683 15.5198 140.805 15.6302 140.926 15.7295C141.13 15.6302 141.307 15.5419 141.478 15.459C141.76 15.5474 142.013 15.6302 142.223 15.6964H143.001C143.034 15.6799 143.111 15.6412 143.189 15.6026C143.282 15.6523 143.365 15.7075 143.459 15.7406C143.553 15.7737 143.652 15.7903 143.729 15.8068C144.022 15.5529 144.337 15.4204 144.684 15.3597C144.717 15.31 144.751 15.2658 144.784 15.2161C144.817 15.2658 144.85 15.31 144.883 15.3597C145.181 15.3873 145.479 15.2658 145.782 15.3265C145.799 15.3265 145.826 15.2824 145.849 15.2548C145.826 15.183 145.799 15.1057 145.771 15.0119H146.213C146.273 15.1554 146.285 15.3486 146.555 15.3486C146.77 15.1499 147.068 15.1389 147.377 15.1609C147.526 15.172 147.681 15.1609 147.83 15.1665C147.912 15.1665 147.99 15.1996 148.017 15.2051C148.199 15.3707 148.001 15.5529 148.111 15.724C148.271 15.6191 148.409 15.5253 148.53 15.448C148.558 15.3431 148.58 15.2658 148.597 15.2051C148.867 15.1223 148.983 15.3431 149.16 15.4204C149.182 15.4314 149.193 15.4756 149.204 15.5032C149.248 15.6523 149.027 15.7461 149.099 15.9117C149.303 15.8896 149.27 15.6412 149.463 15.6081C149.529 15.6523 149.607 15.7019 149.7 15.7682C149.789 15.5253 149.678 15.3045 149.645 15.0726C149.728 15.0285 149.794 14.9843 149.866 14.9456C149.982 14.8186 149.905 14.5978 150.087 14.5095C150.329 14.4433 150.291 14.7358 150.456 14.791C150.517 14.7248 150.583 14.653 150.66 14.5758H150.936C151.025 14.6751 151.102 14.7579 151.185 14.8462C151.29 14.791 151.378 14.7524 151.461 14.7082C151.543 14.7469 151.615 14.7855 151.681 14.8186C151.819 14.7248 151.946 14.642 152.023 14.5868C152.415 14.5371 152.691 14.7358 153 14.8297C153.133 14.7193 153.265 14.6199 153.403 14.504C153.486 14.5978 153.552 14.6806 153.629 14.769C153.684 14.653 153.723 14.5647 153.756 14.4985C153.916 14.4543 154.06 14.4488 154.17 14.3825C154.38 14.2556 154.612 14.2003 154.838 14.1728C155.103 14.1396 155.323 14.0458 155.494 13.8691C155.693 13.8415 155.875 13.8139 156.079 13.7808C156.124 13.8912 156.168 13.9906 156.212 14.112C156.278 14.0292 156.339 13.9575 156.361 13.9298C156.648 13.7808 156.891 13.6593 157.128 13.5379C157.216 13.4937 157.31 13.444 157.398 13.4054C157.547 13.3391 157.691 13.3336 157.834 13.4219C157.889 13.4551 157.95 13.4882 158.016 13.4993C158.055 13.5048 158.105 13.4661 158.143 13.4496C158.132 13.3612 158.121 13.2894 158.11 13.2122C158.358 13.1073 158.43 13.3888 158.668 13.3999C158.712 13.3888 158.811 13.3612 158.905 13.3281C158.966 13.306 159.026 13.2674 159.081 13.2342C159.357 13.0742 159.633 12.9196 159.92 12.754C160.174 12.8699 160.417 12.8092 160.654 12.7098C160.864 12.6215 161.074 12.6104 161.294 12.6877C161.449 12.7374 161.62 12.7595 161.785 12.7926C161.846 12.6712 161.896 12.5663 161.956 12.4448C162.144 12.489 162.321 12.5276 162.497 12.5718C162.591 12.5442 162.685 12.5221 162.751 12.5C162.966 12.616 163.055 12.8588 163.27 12.8975C163.413 12.8092 163.347 12.6325 163.507 12.5608C163.629 12.5055 163.695 12.3344 163.8 12.224C163.888 12.1246 163.993 12.0418 164.07 11.9645C164.131 11.9535 164.164 11.9369 164.197 11.9369C164.451 11.9369 164.682 11.9038 164.914 11.7603C165.124 11.6333 165.383 11.5891 165.615 11.4953C165.736 11.4456 165.858 11.3793 165.968 11.302C166.316 11.0592 166.399 11.0592 166.768 11.3131C166.818 11.3462 166.884 11.3628 166.967 11.3959C167.022 11.2689 167.072 11.164 167.116 11.0647C167.353 10.9487 167.602 10.9487 167.834 11.004C168.048 10.899 168.187 10.6229 168.473 10.7886C168.507 10.8604 168.54 10.9322 168.584 11.026C168.617 10.9763 168.644 10.9377 168.661 10.8935C168.772 10.6617 168.965 10.5789 169.207 10.6286C169.605 10.7169 169.936 10.6063 170.212 10.3138C170.234 10.2918 170.267 10.2752 170.311 10.2533H170.554C170.764 10.0654 170.946 9.89444 171.122 9.73431C171.299 9.69549 171.464 9.66237 171.625 9.62926C171.768 9.70662 171.906 9.77284 172.044 9.84449C172.138 9.81709 172.231 9.78398 172.298 9.76742C172.419 9.6404 172.408 9.43059 172.623 9.44172C172.877 9.54648 172.988 9.79482 173.175 10.0489C173.236 9.85562 173.286 9.72318 173.335 9.57417C173.445 9.59073 173.545 9.60728 173.639 9.62384C173.694 9.55762 173.749 9.49682 173.821 9.41404C174.13 9.42517 174.373 9.13259 174.742 9.17654C174.853 9.32583 174.963 9.48568 175.101 9.67351C175.195 9.54106 175.267 9.43601 175.316 9.35324C175.647 9.1657 175.956 9.27588 176.227 9.33126C176.359 9.40861 176.392 9.55762 176.536 9.54648C176.69 9.48026 176.552 9.32583 176.64 9.24277C176.69 9.23192 176.74 9.22079 176.784 9.21536C176.801 9.15456 176.817 9.09376 176.845 9.01641C176.966 9.03867 177.077 9.06065 177.176 9.07721C177.314 9.03296 177.457 9.01641 177.562 8.94476C177.866 8.72382 178.197 8.66331 178.561 8.73495C178.627 8.63562 178.677 8.55284 178.71 8.50317C178.936 8.43124 179.124 8.37072 179.323 8.30992C179.493 8.34846 179.604 8.55284 179.819 8.50859C179.874 8.44779 179.924 8.38728 179.979 8.3319C180.27 8.4535 180.564 8.45721 180.862 8.34303C180.928 8.49204 180.989 8.64104 181.055 8.79033C181.133 8.76264 181.21 8.72953 181.292 8.70727C181.32 8.70184 181.359 8.7184 181.392 8.7184C181.673 9.01641 181.69 9.02754 181.855 9.09376C181.938 9.13801 181.866 9.27045 181.993 9.2539C182.015 9.08834 182.037 8.92278 182.065 8.72953C182.556 8.66331 183.047 8.68529 183.467 8.43124C183.544 8.46435 183.605 8.48662 183.665 8.50859C183.748 8.40384 183.831 8.29879 183.919 8.18832C184.245 8.3045 184.526 8.20488 184.785 8.05045C184.918 8.16634 185.067 8.19946 185.222 8.17177C185.326 8.14979 185.415 8.16634 185.508 8.22714C185.553 8.26026 185.63 8.2437 185.718 8.25483C185.735 8.05045 185.751 7.87918 185.768 7.71933C186.11 7.60316 186.413 7.81296 186.739 7.71933C187.059 7.63084 187.396 7.59773 187.738 7.53693C187.854 7.45415 187.97 7.35481 188.097 7.27204C188.472 7.01256 188.499 7.01799 188.897 7.31057C189.283 7.2335 189.454 6.79734 189.829 6.70342C189.917 6.76965 189.995 6.81931 190.072 6.88012C190.144 6.7254 190.199 6.58753 190.265 6.43853C190.502 6.60951 190.337 6.86898 190.469 7.08992C190.497 6.94091 190.519 6.81931 190.541 6.698C190.541 6.68687 190.563 6.67574 190.58 6.66489C190.668 6.698 190.762 6.73111 190.833 6.75309C191.264 6.59866 191.667 6.44395 192.125 6.27839C192.594 5.9527 193.146 5.68209 193.769 5.5662C193.985 5.52766 194.216 5.5054 194.398 5.40606C194.647 5.26819 194.906 5.25164 195.182 5.21281C195.32 5.30673 195.458 5.40064 195.59 5.48884H195.894C196.004 5.55507 196.098 5.627 196.203 5.67667C196.297 5.72063 196.363 5.86421 196.517 5.78143C196.462 5.55507 196.186 5.43917 196.197 5.1797C196.33 4.86514 196.644 4.88712 196.915 4.78236C196.981 4.93136 197.075 5.01414 197.196 5.08579C197.505 5.27362 197.533 5.42262 197.389 5.75945C197.295 5.9801 197.141 6.15679 196.981 6.33348C196.937 6.38315 196.898 6.44395 196.953 6.51017C196.987 6.51017 197.025 6.52673 197.047 6.51017C197.229 6.38886 197.395 6.24528 197.478 6.02977C197.544 5.85878 197.638 5.70407 197.814 5.5662C197.875 5.64898 197.947 5.70407 197.963 5.776C198.018 5.96925 198.052 6.16792 198.096 6.3666C198.112 6.44938 198.129 6.53215 198.162 6.60951C198.195 6.68687 198.162 6.79163 198.261 6.85242C198.338 6.57098 198.239 6.29495 198.35 6.01892C198.427 6.00237 198.504 5.99123 198.614 5.96925C198.658 6.23415 198.703 6.47707 198.741 6.71456C198.807 6.73654 198.852 6.75309 198.901 6.77507C198.907 6.60951 198.901 6.44395 198.923 6.27839C198.929 6.22873 198.99 6.18448 199.05 6.1017C199.127 6.26184 199.188 6.3723 199.249 6.49904C199.133 6.61522 199.067 6.75851 198.896 6.77507C198.956 6.84129 199.039 6.88554 199.122 6.847C199.332 6.75309 199.525 6.81932 199.707 6.89667C199.906 6.98487 200.099 7.08992 200.286 7.20039C200.463 7.29972 200.629 7.40448 200.849 7.53151C200.882 7.65853 200.927 7.83522 200.982 8.04503C201.164 7.9788 201.214 8.16634 201.341 8.23828C201.451 8.1221 201.561 8.00621 201.677 7.88489C201.898 7.99536 202.091 8.0947 202.251 8.17177C202.323 8.28794 202.372 8.37072 202.411 8.44237C202.56 8.42581 202.676 8.40384 202.792 8.40384C202.875 8.40384 202.957 8.43695 202.957 8.54171C202.88 8.67986 202.67 8.63562 202.598 8.82344C202.665 8.84542 202.72 8.87311 202.781 8.88967C202.88 8.91165 202.985 8.91165 203.073 8.94476C203.195 8.99443 203.305 9.08834 203.426 9.12687C203.542 9.1657 203.675 9.15456 203.807 9.17112C203.769 9.27045 203.741 9.34239 203.708 9.43601H204.133C204.265 9.34781 204.375 9.27046 204.453 9.22079C204.729 9.20423 204.839 9.41404 205.065 9.50224C205.38 9.44172 205.623 9.67351 205.926 9.79482C205.965 9.94954 205.998 10.0931 206.036 10.2587C206.125 10.2367 206.224 10.1705 206.274 10.1979C206.439 10.2918 206.594 10.2533 206.759 10.231C206.881 10.2144 206.997 10.2421 207.057 10.3965C207.035 10.4739 207.008 10.5678 206.969 10.6783C207.074 10.6893 207.168 10.6948 207.262 10.7058C207.372 10.8218 207.455 10.9653 207.664 10.9653C207.802 10.9653 207.935 11.0868 208.073 11.1309C208.227 11.1751 208.398 11.1916 208.547 11.2248C208.691 11.4014 208.834 11.5726 208.967 11.7382C209.116 11.9204 209.392 11.9645 209.469 12.1909V12.4669C209.833 12.6988 210.203 12.9306 210.561 13.157C210.572 13.2011 210.594 13.2342 210.589 13.2618C210.528 13.5048 210.611 13.6869 210.799 13.836C210.915 13.9298 211.014 14.0513 211.135 14.1396C211.251 14.228 211.389 14.2831 211.533 14.366C211.51 14.5371 211.483 14.6972 211.455 14.8959C211.632 14.8683 211.775 14.8462 211.914 14.8242C212.073 14.9235 212.2 15.0285 212.228 15.2051C212.217 15.2437 212.206 15.2769 212.2 15.31C212.189 15.3541 212.173 15.3928 212.156 15.4535C212.515 15.4867 212.846 15.4867 213.161 15.4149C213.249 15.4701 213.32 15.5419 213.392 15.5529C213.652 15.586 213.812 15.7571 213.966 15.9338C214.044 16.0222 214.104 16.1215 214.17 16.2154C214.308 16.2871 214.441 16.3534 214.568 16.4141C214.7 16.3092 214.816 16.2098 214.948 16.0994C215.103 16.1546 215.263 16.2043 215.39 16.2485C215.506 16.4196 215.594 16.5632 215.699 16.6956C215.76 16.7674 215.842 16.8226 215.909 16.8833C216.058 16.8281 216.179 16.7895 216.262 16.7564C216.643 17.0931 216.996 17.4078 217.354 17.7225C217.432 17.9875 217.509 18.258 217.581 18.5119C217.531 18.6665 217.487 18.7879 217.443 18.9149C217.603 18.9867 217.708 18.9756 217.746 18.8873C217.774 18.8266 217.79 18.7603 217.801 18.6941C217.84 18.4954 217.873 18.2966 217.912 18.1034C217.84 18.0868 217.746 18.142 217.708 18.0206C217.757 18.004 217.801 17.9819 217.857 17.9599C217.879 18.0151 217.895 18.0592 217.912 18.1034C218.05 18.0427 218.182 17.9875 218.337 17.9212C218.397 18.0261 218.447 18.1089 218.508 18.2028C218.431 18.3076 218.359 18.396 218.298 18.4954C218.265 18.5506 218.232 18.6113 218.331 18.6555C218.491 18.5451 218.657 18.4291 218.817 18.3187C218.977 18.3352 219.12 18.3463 219.286 18.3629C219.302 18.2414 219.319 18.1476 219.335 18.0206C219.418 18.0537 219.507 18.0592 219.562 18.1089C219.633 18.1752 219.683 18.2635 219.733 18.3518C219.871 18.6058 220.009 18.7714 220.29 18.9867C220.323 18.9536 220.356 18.9204 220.39 18.8818C220.285 18.7438 220.174 18.6168 220.097 18.4733C220.031 18.3518 220.02 18.2138 220.196 18.131C220.445 18.2524 220.693 18.3794 220.985 18.523C221.107 18.6996 221.256 18.9204 221.394 19.1247C221.499 19.1137 221.51 18.9757 221.626 19.0198C221.703 19.1468 221.637 19.2406 221.559 19.3345C221.504 19.4007 221.455 19.4725 221.559 19.5774C221.708 19.4946 221.863 19.4173 222.056 19.4173C222.58 19.4173 222.63 19.4394 222.834 19.9362C222.84 19.9528 222.889 19.9528 222.922 19.9638C222.983 19.87 223.049 19.7706 223.121 19.6602H223.485C223.645 19.743 223.667 19.9417 223.844 19.9473C223.893 19.8976 223.932 19.8479 223.982 19.7982C224.33 20.008 224.263 20.4441 224.512 20.7201C224.837 20.7146 225.174 20.6539 225.483 20.8305C225.505 20.9741 225.521 21.1011 225.549 21.2722C225.654 21.1563 225.737 21.0569 225.814 20.9686C226.062 20.9465 226.294 20.9244 226.52 20.9686C226.537 21.0845 226.553 21.1784 226.564 21.2667C226.758 21.2004 226.929 21.1397 227.1 21.079C227.287 21.09 227.37 21.3274 227.558 21.2888C227.585 21.1949 227.607 21.1011 227.635 20.9962C227.828 21.0569 227.817 21.1949 227.834 21.3219C227.845 21.4489 227.8 21.5869 227.939 21.6918C228.043 21.6476 228.076 21.5482 228.121 21.4599C228.154 21.3881 228.165 21.2943 228.303 21.3108C228.402 21.4433 228.512 21.5924 228.623 21.7414C228.634 21.7525 228.678 21.7414 228.711 21.7359C228.755 21.5538 228.606 21.4268 228.573 21.2667C228.551 21.1673 228.529 21.068 228.634 20.9962C228.915 21.0348 229.197 21.068 229.445 21.1011C229.566 21.0459 229.55 20.8858 229.693 20.8968C229.754 20.952 229.815 21.0072 229.881 21.068H230.256C230.35 21.2225 230.107 21.3605 230.284 21.5206C230.455 21.3992 230.631 21.2832 230.814 21.1563C231.04 21.2115 231.194 21.3605 231.332 21.5372C231.498 21.7525 231.718 21.8574 231.994 21.7966C232.022 21.7911 232.055 21.8242 232.116 21.8519C232.154 22.023 232.199 22.2107 232.254 22.4702C232.574 22.3321 232.85 22.4315 233.081 22.6137C233.288 22.5107 233.506 22.4775 233.738 22.5143C233.81 22.6082 233.893 22.7131 233.959 22.8014C234.141 22.7628 234.295 22.7241 234.467 22.6855C234.494 22.6579 234.533 22.6137 234.572 22.5696C234.792 22.9284 235.096 22.6965 235.427 22.7186C235.714 22.8732 236.05 23.0554 236.453 23.2762C236.514 23.2762 236.646 23.2762 236.784 23.2762C236.988 23.2706 237.176 23.2982 237.358 23.4142C237.524 23.5191 237.733 23.5522 237.921 23.6185C238.02 23.5743 238.109 23.5191 238.202 23.497C238.302 23.4749 238.401 23.4804 238.506 23.4804C238.81 23.4804 239.113 23.4473 239.411 23.5356C239.488 23.5577 239.582 23.5467 239.659 23.5246C239.891 23.4528 240.09 23.5246 240.288 23.635C240.404 23.7013 240.52 23.762 240.63 23.8172C240.995 23.6681 241.083 23.6405 241.271 23.7454C241.607 23.9331 241.977 23.9552 242.341 23.9828C242.628 23.9994 242.628 23.9938 242.915 24.1263C243.003 24.0822 243.092 24.0435 243.208 23.9883C243.445 24.165 243.732 24.303 243.919 24.5238C244.25 24.9103 244.659 25.2084 245.045 25.5341C245.073 25.5562 245.133 25.5341 245.178 25.5341C245.156 25.3188 244.896 25.2691 244.902 25.0648C245.078 24.9158 245.216 25.0759 245.365 25.12C245.564 24.9986 245.762 24.9268 245.972 25.109C246.11 25.3519 245.989 25.639 246.094 25.9371C246.138 25.788 246.165 25.6887 246.204 25.5507C246.425 25.6942 246.618 25.8211 246.8 25.9426C246.883 25.9205 246.943 25.8984 246.999 25.8819C247.048 25.9371 247.087 25.9868 247.148 26.053C247.269 25.915 247.374 25.7935 247.473 25.6776C247.749 25.639 247.849 25.9095 248.053 25.9647C248.163 25.9316 248.268 25.8984 248.373 25.8708C248.549 26.1524 248.704 26.4063 248.864 26.6658C248.974 26.7044 249.079 26.7431 249.195 26.7872C249.222 27.0246 249.255 27.251 249.283 27.4994C249.338 27.4608 249.394 27.4442 249.416 27.4056C249.471 27.3227 249.504 27.2234 249.554 27.1406C249.565 27.1185 249.609 27.1185 249.647 27.1075C249.719 27.1958 249.785 27.2841 249.885 27.4056C250.006 27.2841 250.05 27.0743 250.277 27.0964C250.365 27.1903 250.464 27.3007 250.558 27.4C250.762 27.4221 250.944 27.4387 251.077 27.4552C251.176 27.5491 251.231 27.6485 251.292 27.6485C251.551 27.6485 251.673 27.8472 251.816 28.0018C251.976 28.1729 252.12 28.3606 252.28 28.5373C252.324 28.587 252.385 28.6201 252.462 28.5594C252.412 28.184 252.147 27.9245 251.943 27.6374C252.136 27.4166 252.186 27.4 252.693 27.4111C252.677 27.5601 252.649 27.7037 252.644 27.8472C252.644 27.9355 252.699 28.0073 252.832 27.9852C252.892 27.9134 252.969 27.8306 253.058 27.7368C253.174 27.7865 253.273 27.8527 253.383 27.8748C253.494 27.8969 253.615 27.8693 253.725 27.8582C253.825 27.9687 253.907 28.0846 254.068 28.1012C254.007 28.2005 253.957 28.2778 253.891 28.3882C254.321 28.3551 254.542 28.0128 254.823 27.8527C255.121 27.8251 255.276 28.0404 255.486 28.1619C255.525 28.0791 255.563 28.0073 255.602 27.93C255.811 28.0239 256.015 28.1232 256.209 28.2116C256.335 28.1453 256.435 28.0901 256.551 28.0239C256.623 28.0846 256.683 28.1343 256.744 28.1895C256.799 28.2392 256.805 28.3496 256.931 28.3275C256.943 28.1453 256.739 28.0073 256.81 27.8141C256.854 27.8141 256.893 27.8141 256.909 27.8251C257.125 28.0239 257.362 28.0901 257.655 28.0349C257.765 28.0128 257.908 28.0183 257.996 28.0791C258.201 28.2171 258.482 28.2336 258.614 28.4876C258.637 28.5262 258.686 28.5704 258.73 28.5815C258.94 28.6256 259.067 28.7912 259.222 28.9292C259.338 28.874 259.442 28.8243 259.575 28.7581C259.636 28.8795 259.685 28.99 259.746 29.1114C260.044 28.9513 260.403 29.0176 260.684 28.7857C260.838 28.6587 261.054 28.7636 261.136 28.9624C261.186 29.0838 261.203 29.2218 261.23 29.3488C261.252 29.4482 261.247 29.5476 261.28 29.6414C261.302 29.7076 261.368 29.7352 261.456 29.669C261.418 29.5199 261.374 29.3598 261.34 29.2329C261.401 29.0783 261.451 28.9568 261.506 28.8409C261.517 28.8188 261.55 28.8023 261.578 28.7802C261.672 28.863 261.771 28.9513 261.859 29.0286C261.986 28.9679 262.086 28.9182 262.179 28.8795C262.444 29.0673 262.687 29.2439 262.919 29.415C262.985 29.393 263.04 29.3874 263.084 29.3653C263.427 29.1887 263.774 29.0231 264.111 28.8354C264.293 28.736 264.492 28.6808 264.69 28.7084C264.889 28.736 265.054 28.6863 265.231 28.6311C265.325 28.6035 265.424 28.5759 265.523 28.5428C265.65 28.587 265.777 28.6311 265.893 28.6698C266.048 28.6091 266.064 28.3882 266.285 28.4158C266.307 28.46 266.351 28.5152 266.351 28.5704C266.351 28.6698 266.313 28.7691 266.296 28.863C266.274 28.9679 266.296 29.0617 266.379 29.139C266.406 29.0341 266.429 28.9237 266.462 28.7967C266.908 28.7194 267.333 28.6422 267.775 28.5649C267.847 28.6422 267.918 28.7084 267.974 28.7857C268.023 28.8519 267.951 28.9789 268.067 29.0286C268.128 28.8906 268.183 28.7691 268.244 28.6477C268.305 28.5207 268.387 28.4213 268.569 28.3937C268.702 28.4269 268.867 28.4655 269.022 28.5042C269.11 28.4655 269.188 28.4324 269.254 28.4048C269.342 28.3937 269.408 28.5097 269.519 28.4213C269.557 28.3385 269.607 28.2336 269.662 28.1232C269.806 28.1564 269.949 28.184 270.087 28.0846C270.12 28.0625 270.203 28.1067 270.264 28.1232C270.242 28.2281 270.225 28.3054 270.208 28.3827C270.352 28.4269 270.446 28.3385 270.507 28.2447C270.622 28.0736 270.793 28.0239 270.975 27.9797C271.003 27.9742 271.036 27.9907 271.069 27.9963C271.136 28.0736 271.196 28.1453 271.24 28.195C271.478 28.1895 271.401 27.9742 271.5 27.9024C271.594 27.8527 271.682 27.8141 271.754 27.7754C271.848 27.8361 271.914 27.8748 271.985 27.9245C272.101 27.8748 272.212 27.8306 272.305 27.792C272.935 28.1288 273.404 27.7313 273.911 27.4718C273.966 27.5491 274.027 27.6098 274.066 27.6816C274.115 27.7589 274.149 27.8472 274.187 27.919C274.502 27.8969 274.529 27.5767 274.711 27.4828C274.938 27.4332 275.136 27.4111 275.329 27.3448C275.76 27.1958 276.179 27.0302 276.61 26.8756C276.808 26.8038 277.007 26.7928 277.178 26.9473C277.421 27.1737 277.691 27.1627 277.967 27.0246C278.083 27.1461 277.934 27.3669 278.155 27.4828C278.238 27.3393 278.32 27.2068 278.414 27.0523C278.453 27.1406 278.48 27.2123 278.508 27.2786C278.536 27.2841 278.552 27.2896 278.569 27.2896C278.673 27.2896 278.707 27.2123 278.74 27.1351C278.822 26.9529 278.955 26.8866 279.104 26.9473C279.269 27.0357 279.192 27.251 279.402 27.2675C279.49 27.1737 279.589 27.0688 279.722 26.9253C280.014 27.2399 280.395 27.2234 280.776 27.2675C280.837 27.1737 280.897 27.0799 280.969 26.9694C281.107 26.9253 281.25 26.8811 281.389 26.8369C281.471 26.8866 281.543 26.9253 281.615 26.975C281.681 27.0191 281.747 27.0688 281.83 27.124C281.996 27.0191 282.145 26.9253 282.288 26.8314C282.547 26.9142 282.785 26.986 283.033 27.0633C283.11 27.2013 283.188 27.3393 283.276 27.4939C283.679 27.3117 284.054 27.1351 284.429 26.9639C284.727 27.0081 285.036 27.1019 285.246 26.7983C285.411 26.7872 285.561 26.7762 285.709 26.7596C285.815 26.8038 285.912 26.8535 286.006 26.8921C286.101 26.8038 286.178 26.7376 286.2 26.71C286.415 26.6658 286.574 26.6327 286.763 26.594C286.803 26.5996 286.857 26.721 286.951 26.6272C286.903 26.4781 286.763 26.3346 286.923 26.1414C286.968 26.1414 287.051 26.1082 287.088 26.1414C287.319 26.307 287.585 26.318 287.862 26.3346C287.95 26.2683 288.039 26.1966 288.139 26.1193C288.293 26.1469 288.435 26.1745 288.59 26.2076C288.744 26.1138 288.887 25.9757 289.092 26.0475C289.235 25.9647 289.363 25.9757 289.512 26.0586C289.6 26.1082 289.737 26.0696 289.854 26.0586C290.003 26.042 290.162 25.9647 290.294 25.9923C290.511 26.042 290.719 26.0199 290.919 26.0751C291.036 25.9481 291.139 25.8377 291.21 25.7549C291.433 25.6776 291.515 25.8432 291.635 25.915C291.718 25.8487 291.789 25.788 291.878 25.7163C292.001 25.7383 292.109 25.7659 292.226 25.7715C292.358 25.7825 292.486 25.7715 292.617 25.7715C292.763 25.8763 292.592 26.0696 292.717 26.1745C292.846 26.1745 292.86 26.0917 292.883 26.0144C292.911 25.9205 292.937 25.8322 292.966 25.7549C293.451 25.5727 293.916 25.5562 294.356 25.6831C294.527 25.6721 294.65 25.4954 294.81 25.6335C294.832 25.6555 294.909 25.6279 294.952 25.6114C295.075 25.5617 295.195 25.4678 295.318 25.4623C295.472 25.4623 295.609 25.4237 295.743 25.3629C295.803 25.4181 295.857 25.4734 295.911 25.5231C296.057 25.4734 296.16 25.3243 296.359 25.385C296.382 25.4458 296.408 25.5231 296.437 25.6003C296.531 25.5617 296.619 25.5231 296.719 25.4789C296.785 25.5065 296.862 25.5341 296.939 25.5672C297.145 25.4899 297.336 25.3905 297.584 25.4402C297.707 25.6003 297.832 25.7659 297.972 25.9481C298.146 25.5507 298.329 25.3132 298.489 25.2746C298.56 25.3077 298.635 25.3409 298.72 25.3795C298.82 25.3243 298.92 25.2636 299.02 25.2028C299.14 25.2139 299.257 25.2249 299.417 25.236C299.571 25.0096 299.879 25.0924 300.113 24.9489C300.356 24.8054 300.63 24.717 300.89 24.6066H302C302.308 24.4134 302.694 24.4024 303.019 24.2091C303.125 24.1484 303.247 24.2091 303.35 24.2754C303.461 24.3471 303.49 24.5128 303.644 24.5238C303.841 24.4024 303.821 24.1208 304.035 24.0215C304.189 24.0932 304.338 24.165 304.495 24.2367C304.592 24.1208 304.68 24.0215 304.763 23.9221C304.903 23.9331 305.034 23.9442 305.151 23.9497C305.228 23.8558 305.288 23.7841 305.348 23.7068C305.431 23.7841 305.491 23.8393 305.525 23.8669C305.725 23.9166 305.885 23.9662 306.045 23.9883C306.282 24.0215 306.49 24.0159 306.678 23.8061C306.79 23.6792 306.981 23.624 307.127 23.5467C307.258 23.624 307.375 23.6902 307.489 23.7565C307.595 23.6626 307.683 23.5909 307.76 23.5246C307.974 23.5522 308.174 23.5798 308.405 23.6129C308.517 23.7289 308.637 23.8669 308.776 24.0159C308.991 23.9276 309.233 23.8613 309.444 23.7123C309.616 23.5909 309.807 23.5522 310.018 23.6295C310.078 23.6516 310.15 23.6516 310.195 23.6571C310.304 23.6074 310.392 23.5688 310.458 23.5412C310.663 23.7178 310.84 23.8669 311.012 24.0159C311.106 23.9773 311.183 23.9497 311.254 23.9221C311.385 23.9718 311.508 24.0215 311.64 24.0601C311.662 24.0656 311.699 24.0435 311.734 24.027C311.739 23.9497 311.751 23.8724 311.757 23.7896C312.208 23.9994 312.153 23.9828 312.738 23.8613C312.756 23.8889 312.793 23.9166 312.793 23.9442C312.781 24.027 312.756 24.1043 312.738 24.1815C312.893 24.1153 313.047 24.0546 313.212 23.9883C313.406 24.0822 313.598 24.1815 313.763 24.2643C313.909 24.4355 313.969 24.6398 314.189 24.7502C314.217 24.6618 314.246 24.6011 314.249 24.5404C314.266 24.4244 314.26 24.303 314.283 24.1871C314.306 24.0601 314.394 24.0215 314.62 24.0491C314.548 24.1705 314.471 24.2754 314.414 24.3858C314.4 24.4189 314.414 24.4741 314.42 24.5349C314.685 24.5073 314.825 24.2754 315.073 24.2147C315.176 24.2588 315.299 24.314 315.407 24.3582C315.519 24.3085 315.602 24.2643 315.707 24.2202C315.813 24.4189 315.813 24.6674 316.033 24.7778C316.075 24.6563 316.115 24.5293 316.15 24.4355C316.518 24.2478 316.838 24.4079 317.092 24.4521C317.463 24.4024 317.76 24.3637 318.025 24.3251C318.25 24.5073 318.168 24.8992 318.559 24.9268C318.522 24.8164 318.493 24.7281 318.462 24.6232C318.516 24.568 318.576 24.5073 318.636 24.4465C318.764 24.4907 318.87 24.5349 318.978 24.5625C319.107 24.5956 319.238 24.6066 319.31 24.6177C319.438 24.717 319.369 24.8716 319.515 24.8882C319.641 24.8164 319.615 24.6894 319.624 24.579C319.598 24.5404 319.564 24.5017 319.546 24.4576C319.526 24.3968 319.581 24.3361 319.618 24.3637C319.641 24.3803 319.669 24.4189 319.669 24.441C319.669 24.4907 319.641 24.5349 319.624 24.5846C319.872 24.5956 320.126 24.6066 320.386 24.6232C320.526 24.7336 320.668 24.8495 320.8 24.9544C320.971 24.982 321.119 25.0041 321.248 25.0262C321.331 25.12 321.396 25.1918 321.467 25.2691C321.673 25.2857 321.87 25.3022 322.07 25.3188C322.007 25.5101 321.99 25.6831 322.018 25.8377C322.372 25.5341 322.809 25.4789 323.24 25.3961C323.317 25.4402 323.389 25.4844 323.46 25.5175C323.548 25.5507 323.643 25.5727 323.757 25.6114C323.691 25.7383 323.625 25.8543 323.566 25.9757C323.554 25.9978 323.571 26.0365 323.577 26.0641C323.668 26.0751 323.785 26.0309 323.84 26.1966C323.802 26.3235 323.757 26.4781 323.708 26.6437C323.939 26.6253 324.188 26.5057 324.448 26.2849C324.642 26.3401 324.508 26.6216 324.707 26.6658C324.956 26.6272 324.961 26.3125 325.215 26.2297C325.198 26.3511 325.181 26.445 325.164 26.5664C325.281 26.6106 325.401 26.6548 325.524 26.7044C325.706 26.6548 325.883 26.6051 326.043 26.5609C326.163 26.4063 326.269 26.2794 326.363 26.1579C326.677 26.0917 326.974 26.0309 327.268 25.9702C327.405 26.0309 327.539 26.0972 327.653 26.1469C327.847 26.1138 328.013 26.1027 328.178 26.0586C328.361 26.0144 328.538 25.9702 328.724 26.0309C328.823 26.1138 328.929 26.1966 329.018 26.2738C329.089 26.2462 329.137 26.2297 329.183 26.2076C329.457 26.053 329.768 26.0806 330.059 26.0309C330.271 26.1469 330.485 26.0641 330.705 26.0365C330.816 26.1193 330.916 26.2021 331.01 26.2738C331.004 26.4118 330.999 26.5278 330.993 26.6382C331.284 26.7044 331.295 26.3732 331.507 26.3346C331.672 26.3456 331.738 26.4947 331.832 26.5996C331.858 26.721 331.886 26.8314 331.909 26.9473C332.046 27.0578 332.175 27.1571 332.323 27.2786C332.423 27.1682 332.509 27.0743 332.591 26.9805C332.831 27.1295 332.957 27.4166 333.282 27.389C333.425 27.5712 333.565 27.7644 333.827 27.8638C334.238 27.6926 334.672 27.5105 335.143 27.3172C335.269 27.3614 335.423 27.4166 335.54 27.4552C335.64 27.6153 335.506 27.7699 335.634 27.8748C335.666 27.9024 335.717 27.919 335.76 27.9411C335.8 27.8527 335.831 27.7809 335.865 27.7092C335.971 27.6981 336.062 27.6871 336.139 27.6761C336.197 27.6098 336.234 27.5657 336.274 27.516C336.379 27.6871 336.445 27.8693 336.676 27.8306C336.71 27.6319 336.471 27.5601 336.482 27.3503C336.93 27.5325 337.344 27.7037 337.752 27.8693C337.769 27.8748 337.781 27.8858 337.769 27.8803C337.884 27.9687 337.884 28.1232 338.023 28.1453C338.112 28.0956 338.195 28.046 338.292 27.9907C338.326 28.1177 338.355 28.2226 338.386 28.333C338.486 28.2612 338.563 28.206 338.646 28.1398C338.783 28.2336 338.906 28.322 339.011 28.3882C339.214 28.3385 339.391 28.2944 339.568 28.2502C339.745 28.3661 339.91 28.1674 340.113 28.2116C340.093 28.4269 339.976 28.5925 339.953 28.7857C339.939 28.9127 339.788 29.0231 339.699 29.1335C339.722 29.266 339.788 29.3157 339.942 29.266C340.153 28.9955 340.373 28.6974 340.513 28.3551C340.521 28.333 340.567 28.322 340.595 28.2999C340.655 28.3275 340.715 28.3551 340.77 28.3827C340.852 28.3496 340.932 28.3164 340.981 28.2944C341.189 28.3551 341.383 28.4158 341.592 28.4766C341.674 28.598 341.791 28.725 341.857 28.874C341.946 29.0673 342.085 29.1556 342.277 29.1942C342.499 29.1611 342.659 29.0397 342.779 28.874C342.916 28.6808 343.087 28.5759 343.281 28.5649C343.578 28.5925 343.661 28.8133 343.772 28.9789C344.232 28.9292 344.286 28.8409 344.677 29.2053C344.694 29.3764 344.711 29.5586 344.737 29.7408C344.743 29.7849 344.789 29.8236 344.826 29.8898C344.96 29.9285 345.097 29.9726 345.234 30.0113C345.311 29.9671 345.368 29.9285 345.428 29.9008C345.482 29.8788 345.551 29.8677 345.622 29.8512C345.639 29.9229 345.634 29.9837 345.659 30.0113C345.836 30.1824 346.019 30.348 346.213 30.5081C346.233 30.5302 346.304 30.4971 346.379 30.486C346.398 30.3922 346.421 30.2983 346.444 30.199C346.461 30.1162 346.481 30.0334 346.641 30.0113C346.693 30.0775 346.775 30.1603 346.841 30.2597C347.007 30.4916 346.901 30.7841 346.995 31.0491C347.041 30.878 347.084 30.7179 347.238 30.6241C347.278 30.602 347.326 30.6075 347.38 30.602C347.392 30.7124 347.403 30.8062 347.409 30.8945C347.68 31.0326 347.869 30.7676 348.1 30.7897C348.365 30.8173 348.585 30.7124 348.788 30.5909C349.125 30.7621 349.461 30.8669 349.733 31.1154C349.821 31.1927 349.992 31.2313 350.112 31.2092C350.52 31.1319 350.897 31.4135 351.305 31.3031C351.488 31.4797 351.719 31.3638 351.922 31.408C351.979 31.3362 352.033 31.2699 352.079 31.2092C352.336 31.1651 352.476 31.3417 352.596 31.5239C352.824 31.4411 353.027 31.3693 353.232 31.2975C353.321 31.1246 353.421 30.9958 353.535 30.9111C353.655 30.9498 353.777 31.0271 353.903 31.0271C354.049 31.0271 354.186 30.9553 354.314 30.9222C354.422 30.9608 354.462 31.0933 354.588 31.0547C354.639 30.9884 354.688 30.9277 354.728 30.8835C354.976 30.8504 355.085 31.0271 355.219 31.1043C355.51 31.1706 355.77 31.2368 356.061 31.3031C356.167 31.4521 356.278 31.6178 356.398 31.7778C356.409 31.7944 356.455 31.7834 356.492 31.7834C356.503 31.673 356.509 31.5626 356.52 31.4632C356.78 31.2644 356.983 31.4356 357.214 31.4963V31.8386C357.391 31.9987 357.545 32.1477 357.702 32.2913H357.971C358.042 32.3741 358.116 32.4569 358.187 32.5397C358.319 32.5397 358.436 32.5397 358.55 32.5397C358.567 32.5397 358.579 32.5563 358.59 32.5618C358.69 32.6777 358.781 32.7936 358.887 32.9206H359.857C360.046 33.0586 359.986 33.4119 360.34 33.3291C360.348 33.2298 360.36 33.1414 360.371 33.0365C360.56 33.1194 360.642 33.2794 360.671 33.4395C360.714 33.6769 360.885 33.7928 361.033 33.953C361.205 33.8646 361.365 33.7873 361.547 33.699C361.641 33.8646 361.718 34.0082 361.801 34.1462C362.238 34.4553 362.672 34.5878 363.411 34.6375C363.505 34.7037 363.6 34.77 363.688 34.8307C363.942 34.6761 364.225 34.7093 364.462 34.5933C364.482 34.5823 364.522 34.6099 364.556 34.6209C364.522 34.8086 364.639 34.8859 364.793 34.9467C364.97 34.8583 365.035 34.6099 365.309 34.6209C365.367 34.6651 365.438 34.7258 365.526 34.7976C365.538 35.1675 365.552 35.5318 365.563 35.9017C365.563 36.0011 365.563 36.106 365.575 36.2053C365.581 36.2716 365.609 36.3323 365.729 36.3047C365.74 36.2164 365.758 36.1225 365.763 36.0232C365.769 35.8355 365.758 35.6533 365.769 35.4656C365.786 35.2337 365.835 35.0019 365.995 34.8307C366.211 34.7976 366.331 35.0074 366.54 34.9632C366.734 34.919 366.939 34.9522 367.105 34.9522C367.208 35.035 367.285 35.1123 367.373 35.1454C367.456 35.1785 367.556 35.1675 367.673 35.1785C367.607 35.3331 367.562 35.4545 367.442 35.5374C367.342 35.6036 367.188 35.5208 367.111 35.6864C367.29 35.6809 367.45 35.6699 367.567 35.6643C367.75 35.5374 367.798 35.3386 368.035 35.311C368.164 35.3938 368.312 35.4932 368.444 35.5815C368.418 35.887 368.464 36.0729 368.578 36.1391C368.661 36.0011 368.743 35.8631 368.815 35.7361C369.003 35.6699 369.169 35.6533 369.311 35.7637C369.525 36.2164 369.52 36.2109 369.448 36.6359C369.428 36.7684 369.428 36.9009 369.431 37.0334C369.431 37.0666 369.488 37.0997 369.548 37.1659C369.614 36.9009 369.665 36.6746 369.725 36.4538C369.748 36.382 369.791 36.3102 369.825 36.2495C370.091 36.2937 370.316 36.3268 370.57 36.371C370.784 36.7464 371.138 36.9727 371.606 37.0555C371.575 37.2266 371.541 37.3757 371.518 37.4806C371.415 37.6683 371.17 37.7014 371.193 37.9664C371.304 37.9333 371.392 37.9112 371.487 37.8836C371.612 37.9498 371.741 38.0658 371.889 37.9222C372.02 37.7566 371.866 37.5137 372.049 37.3371C372.197 37.3702 372.357 37.4088 372.5 37.442C372.694 37.6573 372.871 37.856 373.042 38.0492C373.527 38.0603 373.93 38.2038 374.195 38.6234C374.233 38.7006 374.161 38.8221 374.321 38.9049C374.415 38.8773 374.538 38.8331 374.681 38.789C374.858 38.9159 375.055 39.0319 375.314 38.9656C375.386 38.9491 375.491 39.0429 375.591 39.0926C375.774 38.927 375.999 38.9767 376.188 38.938C376.282 38.9988 376.348 39.0429 376.43 39.0981C376.662 39.0208 376.881 38.9435 377.104 38.8718C377.264 38.8166 377.424 38.7338 377.584 38.7282C378.035 38.7117 378.489 38.6786 378.951 38.7503C379.022 38.8442 379.091 38.938 379.162 39.0319C379.271 39.0705 379.382 39.1036 379.482 39.1368C379.659 39.0208 379.79 38.8607 379.99 38.8166C380.061 38.8773 380.116 38.927 380.193 38.9877C380.475 38.8387 380.755 38.6896 381.015 38.5516C381.257 38.651 381.469 38.7393 381.683 38.8276C381.811 38.7172 381.811 38.5019 382.025 38.4633C382.142 38.535 382.262 38.6178 382.411 38.7062C382.516 38.6013 382.605 38.5129 382.67 38.4522C382.936 38.386 383.156 38.3252 383.432 38.2535C383.627 38.3087 383.864 38.3804 384.118 38.4577C384.138 38.3584 384.16 38.2645 384.183 38.1596H384.531C384.574 38.2148 384.62 38.2645 384.668 38.3197C384.905 38.1651 385.128 37.9664 385.462 38.0382C385.519 38.3308 385.551 38.6068 385.391 38.8718C385.359 38.927 385.331 38.9932 385.325 39.0595C385.314 39.1423 385.325 39.2306 385.459 39.2251C385.579 39.1036 385.585 38.9325 385.625 38.7669C385.668 38.5902 385.75 38.4246 385.799 38.3032C386.093 38.1541 386.33 38.0327 386.555 37.9167C386.689 37.9278 386.804 37.9388 386.915 37.9498C387.003 37.856 387.081 37.7732 387.123 37.718C387.366 37.6683 387.566 37.6297 387.76 37.58C387.963 37.5303 388.151 37.4088 388.454 37.4309C388.294 37.58 388.188 37.6849 388.08 37.7787C387.957 37.8891 387.826 37.9885 387.691 38.1044C387.748 38.121 387.786 38.1431 387.803 38.132C387.957 38.0603 388.111 37.994 388.251 37.9002C388.394 37.8118 388.525 37.718 388.713 37.729C388.768 37.729 388.836 37.6352 388.885 37.591C389.161 37.5082 389.415 37.7732 389.63 37.6462C389.761 37.4916 389.861 37.3812 389.961 37.2708L389.949 37.3039ZM324.956 25.5893C324.933 25.8046 324.921 25.9647 324.904 26.1193C324.839 26.1193 324.79 26.1303 324.779 26.1193C324.744 26.0696 324.707 26.0089 324.702 25.9481C324.685 25.7218 324.702 25.6887 324.95 25.5948L324.956 25.5893ZM137.378 15.1775C137.361 15.2769 137.367 15.3321 137.345 15.3597C137.262 15.448 137.157 15.4922 137.019 15.4149C137.13 15.3431 137.235 15.2713 137.378 15.1775ZM57.8046 23.3866C57.9036 23.4197 58.0086 23.4473 58.1519 23.4915C57.981 23.5633 57.8708 23.5577 57.8046 23.3866ZM9.94438 18.7383C9.98851 18.5874 10.0437 18.5561 10.1099 18.6444C10.0547 18.6775 9.99956 18.7051 9.94438 18.7383ZM241.817 23.6129C241.872 23.5577 241.927 23.5688 241.971 23.624C241.983 23.635 241.96 23.6957 241.949 23.7013C241.878 23.7233 241.828 23.6957 241.817 23.6129ZM386.253 37.8726C386.213 37.8505 386.187 37.8394 386.159 37.8284C386.187 37.7953 386.207 37.7566 386.241 37.7345C386.253 37.729 386.29 37.7566 386.318 37.7677C386.296 37.8008 386.276 37.8394 386.253 37.8726ZM224.688 20.3282C224.688 20.3282 224.644 20.3558 224.622 20.3668C224.622 20.3668 224.595 20.3447 224.595 20.3392C224.605 20.3171 224.622 20.3006 224.633 20.2785C224.65 20.2951 224.666 20.3116 224.683 20.3337L224.688 20.3282ZM259.172 28.3385C259.172 28.3385 259.155 28.4048 259.133 28.4158C259.117 28.4269 259.084 28.4048 259.056 28.3937C259.073 28.3551 259.089 28.322 259.106 28.2833C259.128 28.2999 259.15 28.322 259.172 28.3385Z" fill="#FF0056"/>
</svg>
