<svg width="88" height="16" viewBox="0 0 88 16" fill="none" xmlns="http://www.w3.org/2000/svg">
<g clip-path="url(#clip0_13847_33071)">
<g clip-path="url(#clip1_13847_33071)">
<g clip-path="url(#clip2_13847_33071)">
<path d="M12 0H4C1.79086 0 0 1.79086 0 4V12C0 14.2091 1.79086 16 4 16H12C14.2091 16 16 14.2091 16 12V4C16 1.79086 14.2091 0 12 0Z" fill="#F7DF1E"/>
<path d="M9.748 11.4996C10.0703 12.0258 10.4896 12.4126 11.2312 12.4126C11.8542 12.4126 12.2521 12.1013 12.2521 11.671C12.2521 11.1555 11.8432 10.9729 11.1575 10.673L10.7817 10.5117C9.6967 10.0495 8.97594 9.47041 8.97594 8.24629C8.97594 7.11867 9.83511 6.26025 11.1778 6.26025C12.1338 6.26025 12.821 6.59295 13.3163 7.46406L12.1455 8.21581C11.8877 7.75359 11.6096 7.57149 11.1778 7.57149C10.7375 7.57149 10.4584 7.85086 10.4584 8.21581C10.4584 8.66686 10.7377 8.84946 11.3828 9.12882L11.7587 9.28984C13.0361 9.83765 13.7574 10.3961 13.7574 11.6517C13.7574 13.0054 12.694 13.747 11.266 13.747C9.86965 13.747 8.96756 13.0816 8.52616 12.2095L9.748 11.4996ZM4.43676 11.6299C4.67295 12.049 4.88781 12.4032 5.40438 12.4032C5.89835 12.4032 6.20997 12.21 6.20997 11.4585V6.34609H7.71346V11.4788C7.71346 13.0356 6.8007 13.7442 5.46838 13.7442C4.26457 13.7442 3.56743 13.1212 3.21289 12.3709L4.43676 11.6299Z" fill="#131313"/>
</g>
</g>
</g>
<path d="M25.0104 1.80682H26.2145V8.91464C26.2145 9.54904 26.098 10.0879 25.8649 10.5314C25.6319 10.9748 25.3034 11.3114 24.8793 11.5412C24.4553 11.771 23.9553 11.8859 23.3791 11.8859C22.8354 11.8859 22.3515 11.7872 21.9275 11.5898C21.5035 11.3891 21.1701 11.1043 20.9273 10.7353C20.6846 10.3663 20.5632 9.92773 20.5632 9.41957H21.7478C21.7478 9.70116 21.8174 9.94715 21.9566 10.1575C22.099 10.3647 22.2932 10.5265 22.5392 10.643C22.7852 10.7596 23.0652 10.8178 23.3791 10.8178C23.7255 10.8178 24.02 10.745 24.2628 10.5993C24.5055 10.4537 24.69 10.2401 24.8162 9.95848C24.9457 9.67365 25.0104 9.3257 25.0104 8.91464V1.80682ZM30.6666 11.9248C30.194 11.9248 29.7652 11.8358 29.38 11.6578C28.9948 11.4765 28.689 11.2159 28.4624 10.8761C28.2358 10.533 28.1225 10.1187 28.1225 9.63319C28.1225 9.20594 28.2067 8.85962 28.375 8.5942C28.5433 8.32556 28.7683 8.11517 29.0498 7.96305C29.3314 7.81092 29.6422 7.69764 29.982 7.62319C30.3251 7.54551 30.6698 7.48401 31.0162 7.4387C31.4693 7.38044 31.8367 7.33674 32.1183 7.30761C32.4031 7.27524 32.6102 7.22184 32.7397 7.14739C32.8724 7.07295 32.9388 6.94348 32.9388 6.75899V6.72015C32.9388 6.24111 32.8077 5.86889 32.5455 5.60348C32.2866 5.33807 31.8933 5.20537 31.3657 5.20537C30.8187 5.20537 30.3898 5.32512 30.0791 5.56464C29.7684 5.80416 29.5499 6.05986 29.4237 6.33174L28.3362 5.94334C28.5304 5.4902 28.7893 5.1374 29.113 4.88493C29.4399 4.62923 29.7959 4.45121 30.1811 4.35087C30.5695 4.2473 30.9514 4.19551 31.3269 4.19551C31.5664 4.19551 31.8415 4.22464 32.1522 4.2829C32.4662 4.33793 32.7688 4.45283 33.0601 4.62761C33.3547 4.8024 33.599 5.06619 33.7933 5.41899C33.9875 5.77179 34.0846 6.24435 34.0846 6.83667V11.75H32.9388V10.7401H32.8805C32.8028 10.902 32.6733 11.0751 32.4921 11.2596C32.3108 11.4441 32.0697 11.6011 31.7687 11.7306C31.4677 11.86 31.1003 11.9248 30.6666 11.9248ZM30.8414 10.8955C31.2945 10.8955 31.6764 10.8065 31.9872 10.6285C32.3011 10.4505 32.5374 10.2207 32.696 9.93906C32.8578 9.65747 32.9388 9.36131 32.9388 9.05058V8.00189C32.8902 8.06015 32.7834 8.11355 32.6183 8.1621C32.4565 8.20742 32.2688 8.24788 32.0551 8.28348C31.8448 8.31585 31.6392 8.34498 31.4385 8.37087C31.2411 8.39353 31.0809 8.41295 30.9579 8.42913C30.6601 8.46797 30.3818 8.53109 30.1228 8.61848C29.8671 8.70263 29.66 8.83048 29.5014 9.00203C29.346 9.17034 29.2683 9.40015 29.2683 9.69145C29.2683 10.0896 29.4156 10.3906 29.7101 10.5945C30.0079 10.7952 30.385 10.8955 30.8414 10.8955ZM42.0068 4.29261L39.2491 11.75H38.0839L35.3262 4.29261H36.5691L38.6277 10.2352H38.7054L40.7639 4.29261H42.0068ZM45.4867 11.9248C45.0141 11.9248 44.5853 11.8358 44.2001 11.6578C43.8149 11.4765 43.5091 11.2159 43.2825 10.8761C43.0559 10.533 42.9426 10.1187 42.9426 9.63319C42.9426 9.20594 43.0268 8.85962 43.1951 8.5942C43.3634 8.32556 43.5884 8.11517 43.8699 7.96305C44.1515 7.81092 44.4623 7.69764 44.8021 7.62319C45.1452 7.54551 45.4899 7.48401 45.8363 7.4387C46.2894 7.38044 46.6568 7.33674 46.9384 7.30761C47.2232 7.27524 47.4303 7.22184 47.5598 7.14739C47.6925 7.07295 47.7589 6.94348 47.7589 6.75899V6.72015C47.7589 6.24111 47.6278 5.86889 47.3656 5.60348C47.1067 5.33807 46.7134 5.20537 46.1858 5.20537C45.6388 5.20537 45.2099 5.32512 44.8992 5.56464C44.5885 5.80416 44.37 6.05986 44.2438 6.33174L43.1563 5.94334C43.3505 5.4902 43.6094 5.1374 43.9331 4.88493C44.26 4.62923 44.616 4.45121 45.0012 4.35087C45.3896 4.2473 45.7715 4.19551 46.147 4.19551C46.3865 4.19551 46.6616 4.22464 46.9723 4.2829C47.2863 4.33793 47.5889 4.45283 47.8802 4.62761C48.1748 4.8024 48.4191 5.06619 48.6134 5.41899C48.8076 5.77179 48.9047 6.24435 48.9047 6.83667V11.75H47.7589V10.7401H47.7006C47.6229 10.902 47.4934 11.0751 47.3122 11.2596C47.1309 11.4441 46.8898 11.6011 46.5888 11.7306C46.2878 11.86 45.9204 11.9248 45.4867 11.9248ZM45.6615 10.8955C46.1146 10.8955 46.4965 10.8065 46.8073 10.6285C47.1212 10.4505 47.3575 10.2207 47.5161 9.93906C47.6779 9.65747 47.7589 9.36131 47.7589 9.05058V8.00189C47.7103 8.06015 47.6035 8.11355 47.4384 8.1621C47.2766 8.20742 47.0889 8.24788 46.8752 8.28348C46.6648 8.31585 46.4593 8.34498 46.2586 8.37087C46.0612 8.39353 45.901 8.41295 45.778 8.42913C45.4802 8.46797 45.2019 8.53109 44.9429 8.61848C44.6872 8.70263 44.4801 8.83048 44.3215 9.00203C44.1661 9.17034 44.0884 9.40015 44.0884 9.69145C44.0884 10.0896 44.2357 10.3906 44.5302 10.5945C44.828 10.7952 45.2051 10.8955 45.6615 10.8955ZM56.589 4.29261C56.5308 3.80063 56.2945 3.4187 55.8802 3.14682C55.4659 2.87493 54.9577 2.73899 54.3557 2.73899C53.9155 2.73899 53.5303 2.8102 53.2002 2.95261C52.8733 3.09503 52.6176 3.29085 52.4331 3.54008C52.2518 3.7893 52.1612 4.07252 52.1612 4.38971C52.1612 4.65512 52.2243 4.88331 52.3505 5.07428C52.48 5.26201 52.6451 5.41899 52.8458 5.54522C53.0464 5.66822 53.2568 5.77017 53.4769 5.85109C53.697 5.92877 53.8993 5.99189 54.0838 6.04044L55.0937 6.31232C55.3526 6.38029 55.6407 6.47416 55.9579 6.59392C56.2783 6.71367 56.5842 6.87713 56.8755 7.08428C57.17 7.28819 57.4128 7.55036 57.6037 7.8708C57.7947 8.19123 57.8902 8.58449 57.8902 9.05058C57.8902 9.58788 57.7494 10.0734 57.4678 10.5071C57.1894 10.9408 56.7816 11.2855 56.2443 11.5412C55.7102 11.7969 55.0613 11.9248 54.2974 11.9248C53.5853 11.9248 52.9688 11.8099 52.4476 11.5801C51.9298 11.3503 51.5219 11.0298 51.2242 10.6188C50.9296 10.2077 50.7629 9.73029 50.7241 9.18652H51.967C51.9994 9.56198 52.1256 9.87271 52.3457 10.1187C52.569 10.3615 52.8506 10.5427 53.1905 10.6625C53.5336 10.779 53.9025 10.8372 54.2974 10.8372C54.757 10.8372 55.1697 10.7628 55.5355 10.6139C55.9012 10.4618 56.1909 10.2514 56.4045 9.98275C56.6181 9.71087 56.725 9.39367 56.725 9.03116C56.725 8.70102 56.6327 8.43237 56.4482 8.22522C56.2637 8.01807 56.021 7.84976 55.72 7.72029C55.4189 7.59082 55.0937 7.47754 54.7441 7.38044L53.5206 7.03087C52.7438 6.80754 52.1288 6.48872 51.6757 6.07442C51.2225 5.66012 50.996 5.11798 50.996 4.44798C50.996 3.89126 51.1465 3.40575 51.4475 2.99146C51.7517 2.57392 52.1596 2.25025 52.671 2.02044C53.1856 1.7874 53.7601 1.67088 54.3945 1.67088C55.0354 1.67088 55.6051 1.78578 56.1035 2.01559C56.602 2.24216 56.9968 2.55288 57.2881 2.94776C57.5827 3.34264 57.738 3.79092 57.7542 4.29261H56.589ZM62.744 11.9054C62.0449 11.9054 61.4429 11.7403 60.9379 11.4101C60.433 11.08 60.0446 10.6252 59.7727 10.0459C59.5008 9.4665 59.3649 8.80459 59.3649 8.06015C59.3649 7.30276 59.5041 6.63438 59.7824 6.055C60.064 5.4724 60.4557 5.01764 60.9574 4.69073C61.4623 4.36058 62.0514 4.19551 62.7246 4.19551C63.249 4.19551 63.7215 4.29261 64.1423 4.48682C64.5631 4.68102 64.9078 4.9529 65.1764 5.30247C65.4451 5.65203 65.6118 6.05986 65.6765 6.52595H64.5307C64.4433 6.18609 64.2491 5.88508 63.9481 5.6229C63.6503 5.35749 63.249 5.22479 62.744 5.22479C62.2974 5.22479 61.9057 5.34131 61.5691 5.57435C61.2357 5.80416 60.9752 6.12945 60.7874 6.55022C60.6029 6.96776 60.5107 7.45812 60.5107 8.02131C60.5107 8.59744 60.6013 9.09913 60.7826 9.52638C60.9671 9.95362 61.226 10.2854 61.5594 10.5217C61.896 10.7579 62.2909 10.8761 62.744 10.8761C63.0418 10.8761 63.3121 10.8243 63.5548 10.7207C63.7976 10.6172 64.0031 10.4683 64.1714 10.2741C64.3397 10.0799 64.4595 9.84681 64.5307 9.57493H65.6765C65.6118 10.0151 65.4515 10.4116 65.1958 10.7644C64.9434 11.114 64.6084 11.3923 64.1908 11.5995C63.7765 11.8034 63.2943 11.9054 62.744 11.9054ZM67.3515 11.75V4.29261H68.4584V5.41899H68.5361C68.6721 5.05 68.9181 4.75061 69.2741 4.5208C69.6301 4.29099 70.0315 4.17609 70.4782 4.17609C70.5623 4.17609 70.6675 4.17771 70.7937 4.18095C70.92 4.18418 71.0154 4.18904 71.0802 4.19551V5.36073C71.0413 5.35102 70.9523 5.33645 70.8132 5.31703C70.6772 5.29438 70.5332 5.28305 70.3811 5.28305C70.0185 5.28305 69.6949 5.35911 69.41 5.51124C69.1284 5.66012 68.9051 5.86727 68.74 6.13268C68.5782 6.39486 68.4973 6.69425 68.4973 7.03087V11.75H67.3515ZM72.4384 11.75V4.29261H73.5842V11.75H72.4384ZM73.021 3.04972C72.7977 3.04972 72.6051 2.97365 72.4432 2.82153C72.2846 2.6694 72.2053 2.48653 72.2053 2.2729C72.2053 2.05928 72.2846 1.87641 72.4432 1.72428C72.6051 1.57216 72.7977 1.49609 73.021 1.49609C73.2443 1.49609 73.4353 1.57216 73.5939 1.72428C73.7557 1.87641 73.8366 2.05928 73.8366 2.2729C73.8366 2.48653 73.7557 2.6694 73.5939 2.82153C73.4353 2.97365 73.2443 3.04972 73.021 3.04972ZM75.6828 14.5465V4.29261H76.7897V5.47725H76.9257C77.0098 5.34778 77.1264 5.18271 77.2753 4.98203C77.4274 4.77812 77.6442 4.59686 77.9258 4.43827C78.2107 4.27643 78.5958 4.19551 79.0813 4.19551C79.7093 4.19551 80.2627 4.35249 80.7418 4.66645C81.2208 4.98041 81.5946 5.42546 81.8633 6.0016C82.1319 6.57773 82.2663 7.25744 82.2663 8.04073C82.2663 8.83049 82.1319 9.51505 81.8633 10.0944C81.5946 10.6706 81.2224 11.1172 80.7466 11.4344C80.2708 11.7484 79.7222 11.9054 79.1008 11.9054C78.6217 11.9054 78.2382 11.8261 77.9501 11.6675C77.662 11.5056 77.4403 11.3228 77.285 11.1188C77.1296 10.9117 77.0098 10.7401 76.9257 10.6042H76.8286V14.5465H75.6828ZM76.8092 8.02131C76.8092 8.58449 76.8917 9.08133 77.0568 9.51181C77.2218 9.93906 77.463 10.2741 77.7802 10.5168C78.0974 10.7563 78.4858 10.8761 78.9454 10.8761C79.4244 10.8761 79.8242 10.7499 80.1446 10.4974C80.4683 10.2417 80.711 9.8986 80.8729 9.46812C81.0379 9.0344 81.1205 8.55213 81.1205 8.02131C81.1205 7.49696 81.0395 7.0244 80.8777 6.60363C80.7191 6.17962 80.478 5.84462 80.1543 5.59863C79.8339 5.3494 79.4309 5.22479 78.9454 5.22479C78.4793 5.22479 78.0877 5.34293 77.7705 5.57921C77.4533 5.81225 77.2138 6.13916 77.0519 6.55993C76.8901 6.97747 76.8092 7.46459 76.8092 8.02131ZM87.2573 4.29261V5.26363H83.3926V4.29261H87.2573ZM84.519 2.50595H85.6648V9.61377C85.6648 9.93744 85.7117 10.1802 85.8056 10.342C85.9027 10.5006 86.0257 10.6074 86.1746 10.6625C86.3267 10.7143 86.4869 10.7401 86.6552 10.7401C86.7815 10.7401 86.8851 10.7337 86.966 10.7207C87.0469 10.7045 87.1116 10.6916 87.1602 10.6819L87.3932 11.7112C87.3155 11.7403 87.2071 11.7694 87.0679 11.7986C86.9287 11.8309 86.7523 11.8471 86.5387 11.8471C86.2151 11.8471 85.8979 11.7775 85.5871 11.6383C85.2796 11.4992 85.0239 11.2872 84.82 11.0023C84.6194 10.7175 84.519 10.3582 84.519 9.92449V2.50595Z" fill="#FBF8E6"/>
<defs>
<clipPath id="clip0_13847_33071">
<rect width="16" height="16" fill="white"/>
</clipPath>
<clipPath id="clip1_13847_33071">
<rect width="16" height="16" fill="white"/>
</clipPath>
<clipPath id="clip2_13847_33071">
<rect width="16" height="16" fill="white"/>
</clipPath>
</defs>
</svg>
