 <svg
      width="139"
      height="44"
      viewBox="0 0 139 44"
      fill="none"
      xmlns="http://www.w3.org/2000/svg"
    >
      <path
        d="M2.01645 2.03634C2.01645 1.71365 1.12921 0.826256 0.806578 0.826256H0V0.0195312H4.67815L9.51762 12.2011H9.59828L14.6797 0.0195312H18.8739V0.826256H18.0674C17.7447 0.826256 16.8575 1.71365 16.8575 2.03634V14.1372C16.8575 14.4599 17.8254 15.3473 18.0674 15.3473H18.8739V16.154H12.6633V15.3473H13.4699C13.7925 15.3473 14.6797 14.4599 14.6797 14.1372V2.35903L8.87236 16.396L2.98434 2.11701V14.0565C2.98434 14.3792 3.95223 15.2666 4.19421 15.2666H5.00079V16.0733H0V15.2666H0.806578C1.12921 15.2666 2.01645 14.3792 2.01645 14.0565V2.03634Z"
        fill="white"
      />
      <path
        d="M25.728 9.21543C26.0506 7.60198 25.728 6.14988 23.9535 6.14988C21.8564 6.14988 20.8885 7.844 20.8885 10.2642C20.8885 12.6037 22.3404 14.5398 24.7601 14.5398C26.5346 14.5398 27.3412 13.8944 28.0671 12.6843H28.7124C28.0671 14.9432 26.6153 16.3953 24.0342 16.3953C21.1305 16.3953 19.2754 13.8944 19.2754 10.9902C19.2754 7.60198 21.5338 5.42383 24.2762 5.42383C25.8893 5.42383 27.0185 5.90786 27.9864 6.87593L26.4539 9.21543H25.728Z"
        fill="white"
      />
      <path
        d="M46.7815 3.16638C47.5882 3.16638 48.1528 2.60162 48.1528 1.7948C48.1528 0.987993 47.5075 0.503906 46.7815 0.503906C45.9748 0.503906 45.4102 0.987993 45.4102 1.7948C45.4102 2.60162 45.9748 3.16638 46.7815 3.16638Z"
        fill="white"
      />
      <path
        d="M61.5414 15.3473C61.2188 15.3473 60.4122 14.6212 60.4122 14.2179V8.40946C60.4122 6.63467 59.1217 5.42458 57.5085 5.42458C55.6534 5.42458 54.6855 6.47333 53.395 7.76408L52.9917 5.6666H49.6847V6.47332H50.33C50.6526 6.47332 51.4592 7.28005 51.4592 7.60274V14.2985C51.4592 14.6212 50.6526 15.428 50.33 15.428H49.6847H49.0395C48.7168 15.428 47.9102 14.7019 47.9102 14.2985V5.6666H44.2V6.47332H44.8452C45.1679 6.47332 45.9745 7.19938 45.9745 7.52207V14.2179C45.9745 14.5406 45.1679 15.3473 44.8452 15.3473H44.2H43.6354C43.3128 15.3473 42.0222 14.3792 41.6996 13.9759L36.0535 6.47332L40.0058 2.27836C40.2478 2.03634 41.7803 0.826255 42.1029 0.826255H42.9095V0.0195312H37.1021V0.826255H37.9087C38.2313 0.826255 39.1185 1.95567 38.8766 2.19769L33.1499 8.65148V2.03634C33.1499 1.71365 34.1178 0.826255 34.3597 0.826255H35.1663V0.0195312H28.875V0.826255H29.6816C30.0042 0.826255 30.8914 1.71365 30.8914 2.03634V14.1372C30.8914 14.4599 29.9236 15.3473 29.6816 15.3473H28.875V16.154H35.1663V15.3473H34.3597C34.0371 15.3473 33.1499 14.4599 33.1499 14.1372V9.86157L34.763 8.08677L40.3284 16.154H44.2806H49.846H55.3308V15.3473H54.7662C54.4435 15.3473 53.637 14.6212 53.637 14.2179V8.8935C53.637 8.16745 55.5727 6.71534 57.0246 6.71534C58.1538 6.71534 58.7184 7.52207 58.7184 8.49014V14.2179C58.7184 14.5406 57.9118 15.3473 57.5892 15.3473H57.0246V16.154H62.106V15.3473H61.5414Z"
        fill="white"
      />
      <path
        d="M63.4767 12.4449C63.4767 13.4129 64.9286 15.5104 67.187 15.5104C68.4775 15.5104 69.2034 15.0264 69.2034 14.0583C69.2034 12.8482 68.1549 12.5255 67.2676 12.1222C66.5417 11.7995 65.9771 11.5575 65.0899 11.1541C63.7993 10.5894 62.9121 9.70201 62.9121 8.33058C62.9121 6.47512 64.0413 5.3457 66.0578 5.3457C67.187 5.3457 67.8322 5.91041 68.6388 5.91041C68.9614 5.91041 69.1228 5.82974 69.2034 5.58772H69.768V8.81462H69.1228C69.1228 7.92722 67.9129 6.15243 65.9771 6.15243C64.7672 6.15243 64.2026 6.71713 64.2026 7.52386C64.2026 8.41126 64.8479 8.73394 65.8964 9.21798C66.703 9.54067 67.2676 9.78269 68.1549 10.186C69.2841 10.5894 70.5746 11.5575 70.5746 13.2516C70.5746 15.2684 69.2034 16.3978 67.2676 16.3978C65.9771 16.3978 65.1705 15.7524 64.2833 15.7524C63.88 15.7524 63.7187 15.8331 63.4767 16.0751H62.9928V12.3642H63.4767V12.4449Z"
        fill="white"
      />
      <path
        d="M71.1387 10.9096C71.1387 7.844 73.2358 5.42383 75.9781 5.42383C78.3172 5.42383 79.6884 7.03728 79.7691 9.13476L79.8497 9.86081L72.9131 10.4255C72.9131 12.523 74.365 14.6205 76.7041 14.6205C78.4785 14.6205 79.2851 13.9751 79.9304 12.765H80.5756C79.8497 15.0238 78.5592 16.476 76.0588 16.476C73.0745 16.3953 71.1387 13.8138 71.1387 10.9096ZM77.9946 9.21543C78.1559 7.76333 77.9139 6.23055 75.8975 6.23055C73.7197 6.23055 72.8325 8.00535 72.8325 9.61879L77.9946 9.21543Z"
        fill="white"
      />
      <path
        d="M81.6266 7.60411C81.4653 7.28142 80.4974 6.47469 80.2554 6.47469H79.7715V5.66797H85.3369V6.47469H84.6916C84.369 6.47469 83.7237 7.20074 83.7237 7.60411L86.1435 13.1705L88.5632 7.60411C88.5632 7.20074 87.9179 6.47469 87.6759 6.47469H87.0307V5.66797H91.2249V6.47469H90.7409C90.499 6.47469 89.7731 7.28142 89.5311 7.60411L85.9821 15.6713L83.3204 21.4798L82.3525 21.0764L85.1756 15.3487L81.6266 7.60411Z"
        fill="white"
      />
      <path
        d="M31.1346 24.4626C31.1346 25.7534 32.0218 26.8021 33.393 27.2862C35.4901 29.545 37.9905 31.8845 40.1683 33.8206C40.8135 32.7719 40.9748 31.7231 40.9748 30.3517C40.9748 28.8996 40.0069 28.0122 38.3938 27.9315V27.1248H44.1205V27.9315H43.5559C43.2333 27.9315 42.104 29.2223 42.104 29.7063C42.0234 31.0778 41.7008 32.7719 40.6522 34.224C41.8621 35.2727 42.9913 36.1601 43.9592 36.8055H44.9271V37.6122H43.1526C41.6201 37.6122 40.4909 37.2089 39.1197 35.9988C37.8292 37.2089 36.216 37.9349 33.7963 37.9349C31.2152 37.9349 28.7148 35.9988 28.7148 33.1753C28.7148 30.9164 29.8441 29.303 31.2959 28.2542C30.4893 27.2862 30.0054 26.3181 30.0054 24.866C30.0054 22.5265 31.5379 21.3164 33.8769 21.3164C35.3288 21.3164 36.1354 21.8004 36.7806 21.8004C37.1033 21.8004 37.3452 21.8004 37.5065 21.4778H38.2325V25.2694H37.5065C37.5065 24.2206 35.8934 22.0425 33.7963 22.0425C32.1831 22.1231 31.1346 23.0105 31.1346 24.4626ZM30.4087 32.2072C30.4087 34.5467 32.8284 36.7248 35.1675 36.7248C36.6193 36.7248 37.7485 36.3215 38.6358 35.6761C36.2967 33.6593 33.7156 31.1584 31.6992 28.8189C30.8926 29.6257 30.4087 30.5131 30.4087 32.2072Z"
        fill="white"
      />
      <path
        d="M61.4612 27.2862C61.4612 25.592 59.606 22.2845 56.541 22.2845C53.718 22.2845 52.1049 23.8173 51.7822 27.4475C51.7016 28.8996 51.7016 30.1097 51.8629 31.5618C52.1049 34.3853 54.0406 36.7248 57.3476 36.7248C60.1706 36.7248 61.4612 35.5148 62.5097 33.4173H63.3163C62.2677 36.3215 60.0093 38.0156 56.783 38.0156C52.1855 38.0156 49.2012 34.224 49.2012 29.6257C49.2012 25.0273 51.8629 21.3164 56.3797 21.3164C58.0735 21.3164 59.2027 22.0425 60.4126 22.0425C60.8966 22.0425 61.1385 21.8811 61.3805 21.6391H62.1064V27.3668H61.4612V27.2862Z"
        fill="white"
      />
      <path
        d="M64.4473 32.4486C64.4473 29.0604 66.867 26.9629 69.6094 26.9629C72.3517 26.9629 74.7715 29.0604 74.7715 32.4486C74.7715 35.8369 72.3517 38.015 69.6094 38.015C66.867 38.015 64.4473 35.8369 64.4473 32.4486ZM72.755 34.2234C72.9163 33.1747 72.9163 31.7226 72.755 30.6738C72.5937 28.9797 71.6258 27.8503 69.69 27.8503C67.8349 27.8503 66.867 28.9797 66.625 30.6738C66.4637 31.7226 66.4637 33.1747 66.625 34.2234C66.867 35.8369 67.7542 37.0469 69.69 37.0469C71.6258 36.9663 72.5937 35.8369 72.755 34.2234Z"
        fill="white"
      />
      <path
        d="M91.7878 35.7548C91.7878 36.0775 92.5943 36.8842 92.917 36.8842H93.4009V37.691H88.1582V36.8842H88.7228C89.0454 36.8842 89.852 36.1582 89.852 35.7548V29.9464C89.852 28.8977 89.368 28.2523 88.2388 28.2523C86.8676 28.2523 85.1738 29.5431 85.1738 30.2691V35.7548C85.1738 36.0775 85.9804 36.8842 86.303 36.8842H86.8676V37.691H81.5442V36.8842H82.1088C82.4314 36.8842 83.238 36.1582 83.238 35.7548V29.9464C83.238 28.8977 82.6734 28.2523 81.5442 28.2523C80.173 28.2523 78.4792 29.6237 78.4792 30.3498V35.7548C78.4792 36.0775 79.2858 36.8842 79.6084 36.8842H80.173V37.691H74.8496V36.8842H75.4142C75.7368 36.8842 76.5434 36.1582 76.5434 35.7548V29.059C76.5434 28.7363 75.7368 27.9296 75.4142 27.9296H74.8496V27.1229H78.0759L78.4792 29.1397C79.6891 27.8489 80.415 26.8809 82.2701 26.8809C83.6413 26.8809 84.8512 27.6069 85.0125 29.059C86.303 27.7683 87.1096 26.8809 88.8841 26.8809C90.4166 26.8809 91.7071 27.9296 91.7071 29.8657V35.7548H91.7878Z"
        fill="white"
      />
      <path
        d="M96.4671 27.2049L96.7898 29.3831C97.677 27.6889 98.8062 26.9629 100.581 26.9629C103.162 26.9629 104.694 29.141 104.694 32.2873C104.694 35.4335 102.92 37.9343 100.419 37.9343C98.5642 37.9343 97.5963 37.2083 96.8704 35.8369V40.8385C96.8704 41.1612 97.677 41.968 97.9996 41.968H98.7255V42.7747H93.1602V41.968H93.8861C94.2087 41.968 95.0153 41.2419 95.0153 40.8385V29.141C95.0153 28.8184 94.2087 28.0116 93.8861 28.0116H93.1602V27.2049H96.4671ZM96.8704 30.9965V33.7394C96.8704 35.3528 98.1609 36.8049 99.9354 36.8049C101.71 36.8049 102.597 35.6755 102.758 33.9814C102.92 33.0133 102.92 31.8032 102.758 30.8352C102.516 29.141 101.629 28.0923 100.097 28.0923C98.3223 28.173 97.3544 29.3831 96.8704 30.9965Z"
        fill="white"
      />
      <path
        d="M127.44 36.8842C127.117 36.8842 126.311 36.1582 126.311 35.7548V29.9464C126.311 28.1716 125.02 26.9615 123.407 26.9615C121.552 26.9615 120.584 28.0103 119.293 29.301L118.89 27.1229H115.583V27.9296H116.228C116.551 27.9296 117.357 28.7363 117.357 29.059V35.7548C117.357 36.0775 116.551 36.8842 116.228 36.8842H115.583H114.938C114.615 36.8842 113.809 36.1582 113.809 35.7548V30.0271C113.809 27.9296 112.115 26.8809 109.856 26.8809C107.759 26.8809 106.549 27.6069 105.662 28.4943L107.033 30.5918H107.759C106.953 28.817 107.598 27.6876 109.372 27.6876C111.228 27.6876 111.873 28.4943 111.792 30.0271V31.3178L109.13 31.8826C107.679 32.2052 105.743 32.9313 105.743 35.0288C105.743 36.7229 106.953 37.8523 108.404 37.8523C109.937 37.8523 111.066 36.6422 111.873 35.5128L112.115 37.6103H115.502H120.987V36.8036H120.422C120.1 36.8036 119.293 36.0775 119.293 35.6742V30.3498C119.293 29.6237 121.229 28.1716 122.681 28.1716C123.81 28.1716 124.375 28.9783 124.375 29.9464V35.6742C124.375 35.9968 123.568 36.8036 123.246 36.8036H122.6V37.6103H127.924V36.8036H127.44V36.8842ZM111.873 34.6254C111.469 35.4321 110.34 36.4809 109.292 36.4809C108.243 36.4809 107.598 35.6742 107.598 34.7868C107.598 33.738 108.001 33.012 109.372 32.6893L111.873 32.0439V34.6254Z"
        fill="white"
      />
      <path
        d="M128.732 29.2238C128.571 28.9012 127.684 28.0138 127.361 28.0138H126.877V27.207H132.442V28.0138H131.797C131.474 28.0138 130.829 28.7398 130.829 29.1432L133.249 34.7096L135.669 29.1432C135.669 28.7398 135.023 28.0138 134.781 28.0138H134.136V27.207H138.33V28.0138H137.846C137.604 28.0138 136.879 28.8205 136.637 29.1432L133.088 37.2104L130.426 43.0188L129.458 42.6155L132.281 36.8877L128.732 29.2238Z"
        fill="white"
      />
    </svg>