 <svg
      width="140"
      height="32"
      viewBox="0 0 140 32"
      fill="none"
      xmlns="http://www.w3.org/2000/svg"
    >
      <g clipPath="url(#clip0_13736_1597)">
        <g clipPath="url(#clip1_13736_1597)">
          <path
            d="M126.077 16.3532C126.077 12.6932 128.832 10.1392 132.482 10.1392C136.132 10.1392 138.887 12.7282 138.887 16.3532C138.887 19.9432 136.132 22.5662 132.482 22.5662C128.832 22.5662 126.077 19.9432 126.077 16.3532ZM135.237 16.3532C135.237 14.6262 134.169 13.3832 132.482 13.3832C130.795 13.3832 129.727 14.6262 129.727 16.3532C129.727 18.0792 130.795 19.3212 132.482 19.3212C134.169 19.3212 135.237 18.0792 135.237 16.3532ZM123.667 13.4532C123.908 13.9362 124.011 14.4532 124.011 15.0062C124.011 16.3532 123.322 17.5262 122.22 18.4932C123.735 19.2532 124.631 20.9782 124.631 22.6702C124.631 25.8112 122.117 27.8822 118.295 27.8822C114.473 27.8822 111.959 25.8112 111.959 22.6702C111.959 20.9782 112.854 19.2522 114.369 18.4932C113.233 17.5262 112.579 16.3532 112.579 15.0062C112.579 12.2792 114.714 10.2422 118.088 10.2422C120.085 10.2422 120.671 10.5882 121.807 10.5882C122.565 10.5882 123.081 10.4842 124.011 10.0012C124.321 9.82822 124.562 9.75922 124.769 9.75922C125.216 9.75922 125.457 10.2082 125.457 10.7952C125.492 12.0032 124.906 13.0042 123.667 13.4532ZM121.05 22.5662C121.05 21.1512 119.982 20.1842 118.295 20.1842C116.608 20.1842 115.54 21.1512 115.54 22.5662C115.54 23.9122 116.711 24.9482 118.295 24.9482C119.879 24.9482 121.05 23.8782 121.05 22.5662ZM116.091 15.2132C116.091 16.3872 117.09 17.3532 118.295 17.3532C119.535 17.3532 120.499 16.3872 120.499 15.2132C120.499 13.9362 119.603 13.0732 118.295 13.0732C116.986 13.1082 116.091 13.9712 116.091 15.2132ZM110.306 16.5942V20.9442C110.306 21.7722 109.996 22.1522 109.101 22.1522H107.896C107 22.1522 106.69 21.8072 106.69 20.9442V16.6982C106.69 15.6282 106.518 14.8682 106.139 14.3502C105.726 13.8322 105.106 13.5562 104.314 13.5562C103.557 13.5562 102.868 13.8332 102.42 14.3502C102.007 14.8342 101.732 15.6272 101.732 16.6632V20.9092C101.732 21.8072 101.387 22.1172 100.526 22.1172H99.3206C98.4946 22.1172 98.1156 21.8072 98.1156 20.9092V11.1742C98.1156 10.6222 98.3916 10.3462 98.8046 10.3462C99.4246 10.3462 100.286 10.8642 100.94 11.8652C101.904 10.7252 103.385 10.1392 104.831 10.1392C106.587 10.1392 107.999 10.7602 108.929 11.8302C109.824 12.9002 110.306 14.2812 110.306 16.5942ZM91.5046 6.79122C91.5046 5.68722 92.3996 4.82422 93.5706 4.82422C94.6726 4.82422 95.6366 5.68722 95.6366 6.79122C95.6366 7.86122 94.6726 8.75922 93.5706 8.75922C92.3996 8.75922 91.5046 7.86222 91.5046 6.79122ZM91.7446 20.9452V11.7972C91.7446 10.9682 92.0546 10.5892 92.9506 10.5892H94.1556C95.0506 10.5892 95.3606 10.9342 95.3606 11.7972V20.9452C95.3606 21.7732 95.0506 22.1532 94.1556 22.1532H92.9506C92.0556 22.1182 91.7446 21.7732 91.7446 20.9452ZM85.3746 20.9452V9.44822C85.3746 6.58322 86.9936 4.92622 88.3016 4.92622C88.7146 4.92622 88.9906 5.20222 88.9906 5.75522V20.9442C88.9906 21.8412 88.6456 22.1522 87.7856 22.1522H86.5796C85.7536 22.1172 85.3746 21.8082 85.3746 20.9452ZM70.4646 16.3542C70.4646 12.6942 73.2196 10.1402 76.8696 10.1402C80.5196 10.1402 83.2746 12.7292 83.2746 16.3542C83.2746 19.9442 80.5196 22.5672 76.8696 22.5672C73.2196 22.5672 70.4646 19.9442 70.4646 16.3542ZM79.6586 16.3542C79.6586 14.6272 78.5906 13.3842 76.9036 13.3842C75.2166 13.3842 74.1496 14.6272 74.1496 16.3542C74.1496 18.0802 75.2166 19.3222 76.9036 19.3222C78.5916 19.3222 79.6586 18.0802 79.6586 16.3542ZM68.6386 11.7972V21.5662C68.6386 22.1182 68.3646 22.3942 67.9506 22.3942C67.3306 22.3942 66.4706 21.8772 65.8506 20.9102C64.9546 21.9802 63.5776 22.6362 62.0276 22.6362C60.4776 22.6362 59.2386 22.0842 58.3096 21.2212C57.2416 20.1852 56.6556 18.5632 56.6556 16.2502V11.7972C56.6556 10.9682 56.9656 10.5892 57.8616 10.5892H59.0666C59.9616 10.5892 60.2716 10.9342 60.2716 11.7972V15.9052C60.2716 17.2852 60.5126 18.0452 60.9606 18.5282C61.3396 18.9422 61.8906 19.1502 62.5786 19.1502C63.2676 19.1502 63.9216 18.8732 64.3006 18.4252C64.7486 17.9412 64.9896 17.1472 64.9896 16.0082V11.7972C64.9896 10.8992 65.3336 10.5892 66.1946 10.5892H67.3996C68.2606 10.5892 68.6386 10.8992 68.6386 11.7972ZM54.1776 5.75522V21.5652C54.1776 22.1172 53.9026 22.3932 53.4896 22.3932C52.8696 22.3932 52.0086 21.8762 51.3886 20.9092C50.6306 21.8072 49.0816 22.6012 47.2906 22.6012C43.7106 22.6012 41.2996 19.9422 41.2996 16.3872C41.2996 12.8662 43.7436 10.1732 47.2906 10.1732C48.468 10.1678 49.6199 10.5165 50.5966 11.1742V9.48322C50.5966 6.61822 52.2156 4.96122 53.5236 4.96122C53.9366 4.92622 54.1776 5.20222 54.1776 5.75522ZM50.5626 16.3532C50.5626 14.5572 49.3226 13.3832 47.7726 13.3832C46.1886 13.3832 44.9496 14.5572 44.9496 16.3532C44.9496 18.1472 46.1896 19.3212 47.7736 19.3212C49.3236 19.3212 50.5626 18.1472 50.5626 16.3532Z"
            fill="#58CC02"
          />
          <path
            d="M11.1348 29.1593C11.2065 28.9868 11.3116 28.8303 11.4441 28.6986C11.5766 28.567 11.7338 28.4628 11.9067 28.3922C12.0795 28.3216 12.2647 28.2858 12.4514 28.287C12.6382 28.2882 12.8229 28.3264 12.9948 28.3993L15.0598 29.2623C15.7828 29.5723 16.1278 30.4023 15.8178 31.1263C15.746 31.2986 15.6408 31.4551 15.5083 31.5866C15.3758 31.7182 15.2186 31.8223 15.0458 31.8929C14.873 31.9636 14.6879 31.9993 14.5011 31.9982C14.3144 31.997 14.1298 31.959 13.9578 31.8863L11.8918 31.0233C11.7196 30.9507 11.5633 30.845 11.432 30.712C11.3007 30.579 11.197 30.4214 11.1266 30.2483C11.0563 30.0751 11.0209 29.8898 11.0223 29.703C11.0237 29.5161 11.0619 29.3313 11.1348 29.1593ZM34.3778 20.7013C33.6898 20.3563 32.8278 20.6323 32.4838 21.3223L31.4508 23.3253C31.1068 24.0153 31.3818 24.8783 32.0708 25.2233C32.7598 25.5683 33.6208 25.2933 33.9648 24.6023L34.9978 22.6003C35.3428 21.9103 35.0678 21.0463 34.3778 20.7013Z"
            fill="#F49000"
          />
          <path
            d="M34.4797 4.37317C34.425 4.17628 34.3243 3.9952 34.186 3.84485C34.0476 3.6945 33.8754 3.57918 33.6837 3.50838C33.4921 3.43758 33.2863 3.41334 33.0834 3.43764C32.8805 3.46194 32.6863 3.5341 32.5167 3.64817L27.8337 6.82417L26.2497 2.44017C26.0861 1.96759 25.8282 1.53315 25.4917 1.16317C24.0797 -0.321835 21.7387 -0.390835 20.2577 0.990165C18.0537 3.06117 16.4357 4.30417 15.4377 4.65017C14.4377 5.02917 12.3717 5.13217 9.27273 4.96017C8.7782 4.92137 8.28169 5.00446 7.82674 5.20217C5.89874 5.89217 4.93473 7.99816 5.62274 9.93116L7.24173 14.3492L1.55974 14.9362C0.698735 15.0402 0.147735 15.9722 0.526735 16.7662C2.21374 20.5982 6.17374 22.9452 10.4437 22.5662C13.0957 26.9842 18.5707 29.0892 23.5977 27.2602C28.6257 25.4302 31.4837 20.2872 30.6577 15.1782C34.1347 12.7272 35.6157 8.41217 34.4797 4.37317Z"
            fill="#58CC02"
          />
          <path
            d="M27.3187 9.30959L26.4237 6.82359C26.146 6.08623 25.6658 5.44223 25.0383 4.96566C24.4108 4.48909 23.6616 4.19929 22.8767 4.12959C22.697 3.80537 22.4641 3.51364 22.1877 3.26659C22.0507 3.12859 21.7407 3.19759 21.6377 3.43959L21.2577 4.33659H21.2237C21.0517 3.85359 20.7767 3.37059 20.3287 3.02559C20.1907 2.85259 19.8807 2.95559 19.7787 3.19759L18.0557 7.40958C17.3677 8.34159 16.0937 8.78958 14.9567 8.47958L10.9627 6.40959C10.7557 6.27059 10.5497 6.37459 10.4807 6.65059C10.3767 7.20359 10.4807 7.75559 10.6867 8.27359H10.6527L9.72273 7.78959C9.67034 7.75675 9.61037 7.73796 9.5486 7.73503C9.48684 7.73211 9.42536 7.74514 9.37009 7.77287C9.31483 7.8006 9.26764 7.84211 9.23307 7.89337C9.1985 7.94464 9.17772 8.00395 9.17273 8.06559C9.10273 8.48059 9.13773 8.89459 9.24073 9.30859C8.27673 10.4136 7.89773 11.9666 8.44873 13.4516L9.34373 15.9366C9.72025 16.9582 10.4857 17.7893 11.4729 18.2485C12.46 18.7077 13.5888 18.7577 14.6127 18.3876L14.9227 18.2836C15.6734 18.0047 16.3269 17.5137 16.8037 16.8703C17.2806 16.227 17.5602 15.4589 17.6087 14.6596C18.8487 14.2106 19.7087 13.8996 20.2597 13.6926C21.3617 14.7976 23.0497 15.2466 24.5987 14.6936L24.8737 14.5906C27.0087 13.7966 28.0767 11.4496 27.3187 9.30859V9.30959Z"
            fill="#89E219"
          />
          <path
            d="M18.1232 12.071C18.5121 11.9409 18.9362 11.965 19.3078 12.1384C19.6794 12.3118 19.9702 12.6214 20.1202 13.003L21.0152 15.42C21.1457 15.8094 21.1221 16.2339 20.9491 16.6063C20.7761 16.9787 20.4669 17.2706 20.0852 17.422C19.6964 17.5522 19.2723 17.5281 18.9007 17.3547C18.5291 17.1812 18.2383 16.8717 18.0882 16.49L17.1932 14.073C16.9182 13.245 17.3312 12.347 18.1232 12.071Z"
            fill="#F49000"
          />
          <path
            d="M18.3328 12.6242C18.9528 12.3832 19.6408 12.7282 19.8828 13.3492L20.4678 14.9722C20.7078 15.5932 20.3638 16.2842 19.7448 16.5252C19.1248 16.7672 18.4358 16.4222 18.1948 15.8002L17.6098 14.1782C17.5089 13.8758 17.5276 13.5463 17.662 13.2573C17.7965 12.9682 18.0365 12.7417 18.3328 12.6242Z"
            fill="#B66E28"
          />
          <path
            d="M16.5754 14.0384C16.4034 13.0374 16.9884 12.0364 18.0554 11.6214C18.9854 11.2764 20.1224 11.6914 20.6044 12.5534L20.6384 12.6574L18.7454 13.7614L16.6094 14.1414L16.5754 14.0384Z"
            fill="#FFC200"
          />
          <path
            d="M17.7478 12.7953C17.7023 12.7968 17.657 12.7882 17.6152 12.7703C17.5733 12.7523 17.536 12.7253 17.5058 12.6913C17.4528 12.6265 17.4268 12.5437 17.4334 12.4603C17.4399 12.3768 17.4784 12.2991 17.5408 12.2433C17.8508 11.9663 18.2288 11.8633 18.6428 11.8633C18.8148 11.8633 18.9528 12.0013 18.9528 12.1733C18.9529 12.2141 18.945 12.2545 18.9295 12.2922C18.9139 12.3299 18.8911 12.3642 18.8623 12.3931C18.8335 12.422 18.7993 12.4449 18.7616 12.4606C18.7239 12.4762 18.6836 12.4843 18.6428 12.4843C18.3907 12.4747 18.1445 12.5612 17.9538 12.7263C17.8848 12.7603 17.8168 12.7953 17.7478 12.7953Z"
            fill="#FFDE00"
          />
          <path
            d="M25.8368 9.06767L25.3548 7.75567C24.8048 6.20267 23.0478 5.37367 21.4988 5.96067C19.9488 6.54767 19.1228 8.27367 19.7088 9.82667L20.3278 11.5187C20.4998 12.0017 20.8098 12.4157 21.1538 12.7617C22.8068 11.2077 24.3908 9.99967 25.8368 9.06767ZM16.1258 14.5907C16.2061 14.0897 16.147 13.5763 15.9548 13.1067L15.3348 11.4147C14.7838 9.86167 13.0278 9.03267 11.4778 9.61967C9.92785 10.2067 9.10185 11.9327 9.68785 13.4857L10.1698 14.7637C12.1433 14.4899 14.1398 14.4319 16.1258 14.5907Z"
            fill="white"
          />
          <path
            d="M12.2357 14.5574C13.0267 14.5224 13.8877 14.4874 14.7837 14.5224C14.8713 14.3531 14.9226 14.1673 14.9343 13.9771C14.946 13.7868 14.9179 13.5962 14.8517 13.4174L14.3357 11.9674C14.0597 11.2084 13.2337 10.8284 12.5107 11.1054C12.3164 11.1667 12.1393 11.2729 11.9937 11.4154C12.1144 11.4652 12.223 11.5404 12.3122 11.6358C12.4014 11.7312 12.4691 11.8446 12.5107 11.9684C12.5524 12.0815 12.5712 12.2018 12.5661 12.3223C12.5609 12.4428 12.5318 12.561 12.4805 12.6701C12.4293 12.7793 12.3568 12.8771 12.2674 12.958C12.178 13.0389 12.0734 13.1013 11.9597 13.1414C11.8907 13.1764 11.8217 13.1764 11.7527 13.1764L12.1667 14.3844C12.2007 14.4534 12.2357 14.4884 12.2357 14.5574ZM22.1187 11.8984C22.743 11.3472 23.386 10.8175 24.0467 10.3104C24.0396 10.2263 24.0162 10.1444 23.9777 10.0694L23.4607 8.61939C23.1857 7.85939 22.3597 7.47939 21.6357 7.75639C21.3957 7.86039 21.1887 7.99839 21.0507 8.17039C21.1576 8.22042 21.2527 8.29241 21.3299 8.38166C21.4071 8.47091 21.4646 8.57543 21.4987 8.68839C21.5404 8.80159 21.5593 8.92196 21.5541 9.0425C21.5489 9.16304 21.5199 9.28136 21.4686 9.39058C21.4174 9.4998 21.3449 9.59775 21.2555 9.67874C21.1661 9.75974 21.0614 9.82216 20.9477 9.86239H20.8777L21.2917 11.0354C21.4297 11.4504 21.7397 11.7604 22.1177 11.8984H22.1187Z"
            fill="#122431"
          />
          <path
            d="M17.4021 21.2538L19.9851 20.3218C20.1221 20.2878 20.2601 20.3568 20.2601 20.4948C20.2601 21.1848 19.8121 21.8068 19.1241 22.0478C18.4351 22.2898 17.6781 22.1178 17.2641 21.5648C17.1951 21.4608 17.2641 21.2878 17.4021 21.2538ZM21.9131 19.5978L24.4951 18.6648C24.6331 18.6308 24.7711 18.6998 24.7711 18.8378C24.7711 19.5278 24.3231 20.1498 23.6351 20.3908C22.9451 20.6328 22.1881 20.4608 21.7751 19.9078C21.7411 19.8048 21.7751 19.6318 21.9131 19.5978ZM20.4671 22.6008L23.0491 21.6688C23.1871 21.6338 23.3241 21.7028 23.3241 21.8408C23.3241 22.5308 22.8771 23.1528 22.1881 23.3948C21.4991 23.6358 20.7421 23.4638 20.3281 22.9108C20.2601 22.8078 20.3291 22.6698 20.4671 22.6008Z"
            fill="#89E219"
          />
        </g>
      </g>
      <defs>
        <clipPath id="clip0_13736_1597">
          <rect
            width="140"
            height="32"
            fill="white"
            transform="translate(0.0065918)"
          />
        </clipPath>
        <clipPath id="clip1_13736_1597">
          <rect
            width="140"
            height="32"
            fill="white"
            transform="translate(0.0065918)"
          />
        </clipPath>
      </defs>
    </svg>