 <svg
      width="124"
      height="24"
      viewBox="0 0 124 24"
      fill="none"
      xmlns="http://www.w3.org/2000/svg"
    >
      <path
        d="M117.428 20.2806C117.428 18.4662 118.901 16.9941 120.714 16.9941C122.529 16.9941 124 18.4662 124 20.2806C124 22.095 122.529 23.5662 120.714 23.5662C118.901 23.5662 117.428 22.095 117.428 20.2806Z"
        fill="#86BC24"
      />
      <path
        d="M12.6135 11.5768C12.6135 9.49512 12.2113 7.95072 11.4069 6.94454C10.6013 5.93948 9.38136 5.43737 7.74078 5.43737H5.99593V18.1669H7.33106C9.15305 18.1669 10.4882 17.6266 11.3384 16.5426C12.1875 15.4605 12.6135 13.8048 12.6135 11.5768ZM18.8366 11.3598C18.8366 15.1523 17.8173 18.0747 15.7783 20.1258C13.7395 22.1779 10.8734 23.204 7.17876 23.204H0V0.479119H7.68003C11.2423 0.479119 13.9925 1.41209 15.9305 3.27691C17.8677 5.14271 18.8366 7.83579 18.8366 11.3601M38.722 23.2038H44.4343V0.383652H38.722V23.2038ZM52.4592 14.6918C52.4592 16.1467 52.6493 17.2565 53.029 18.0191C53.4093 18.7828 54.0463 19.1641 54.9421 19.1641C55.8284 19.1641 56.4551 18.7828 56.8203 18.0191C57.1854 17.2565 57.3671 16.1467 57.3671 14.6918C57.3671 13.2444 57.1826 12.1527 56.8128 11.4158C56.4418 10.6767 55.8094 10.3069 54.9127 10.3069C54.0358 10.3069 53.4093 10.675 53.0288 11.4071C52.6495 12.1403 52.4592 13.2348 52.4592 14.6918ZM63.1812 14.6918C63.1812 17.4638 62.4547 19.6264 60.9978 21.1764C59.542 22.7273 57.504 23.5034 54.8841 23.5034C52.3718 23.5034 50.3718 22.7103 48.8874 21.124C47.401 19.5379 46.6583 17.3944 46.6583 14.6919C46.6583 11.9283 47.3859 9.78096 48.8427 8.25C50.2995 6.71889 52.3422 5.95348 54.9725 5.95348C56.5978 5.95348 58.0356 6.30819 59.2813 7.01663C60.528 7.72493 61.4905 8.73979 62.1666 10.0616C62.8437 11.3815 63.1812 12.9259 63.1812 14.6918ZM65.4499 23.2038H71.1632V6.25304H65.4499V23.2038ZM65.4496 4.2026H71.163V0.382812H65.4496V4.2026ZM82.7382 18.8804C83.5094 18.8804 84.428 18.6844 85.4997 18.2956V22.5606C84.7294 22.8991 83.9971 23.1415 83.301 23.2852C82.605 23.4307 81.7881 23.503 80.8533 23.503C78.9352 23.503 77.5526 23.0209 76.7033 22.0584C75.8578 21.0962 75.4338 19.6184 75.4338 17.6242V10.6364H73.4329V6.25458H75.4338V1.92568L81.1909 0.924397V6.25444H84.836V10.6365H81.1909V17.2342C81.1909 18.3317 81.7073 18.8804 82.7382 18.8804ZM95.9609 18.8804C96.7321 18.8804 97.6508 18.6844 98.7225 18.2956V22.5606C97.9532 22.8991 97.22 23.1415 96.5238 23.2852C95.8268 23.4307 95.0129 23.503 94.0761 23.503C92.1581 23.503 90.7754 23.0209 89.928 22.0584C89.0808 21.0962 88.6567 19.6184 88.6567 17.6242V10.6364H86.6549V6.25458H88.6567V1.86017L94.4127 0.924397V6.25444H98.0597V10.6365H94.4128V17.2342C94.4128 18.3317 94.9291 18.8804 95.9609 18.8804ZM105.931 12.6268C106.009 11.6987 106.275 11.0187 106.727 10.5842C107.182 10.1505 107.743 9.93368 108.414 9.93368C109.147 9.93368 109.729 10.1771 110.16 10.6677C110.595 11.1556 110.821 11.809 110.839 12.6268H105.931ZM113.988 7.95184C112.63 6.62062 110.703 5.9539 108.211 5.9539C105.591 5.9539 103.575 6.71945 102.162 8.25042C100.75 9.78152 100.043 11.9781 100.043 14.8407C100.043 17.6126 100.807 19.7504 102.33 21.251C103.854 22.7516 105.995 23.5028 108.752 23.5028C110.076 23.5028 111.215 23.4125 112.17 23.2328C113.119 23.055 114.037 22.7335 114.928 22.2695L114.051 18.4494C113.403 18.714 112.787 18.9174 112.205 19.0513C111.364 19.2464 110.442 19.3443 109.437 19.3443C108.336 19.3443 107.467 19.0753 106.83 18.537C106.193 17.9978 105.853 17.2541 105.814 16.307H116.026V13.7042C116.026 11.2004 115.347 9.28221 113.988 7.95184ZM26.4185 12.6268C26.4965 11.6987 26.7619 11.0187 27.2145 10.5842C27.668 10.1505 28.23 9.93368 28.9025 9.93368C29.6328 9.93368 30.2148 10.1771 30.6475 10.6677C31.082 11.1556 31.3073 11.809 31.3274 12.6268H26.4185ZM34.4759 7.95184C33.117 6.62062 31.1913 5.9539 28.698 5.9539C26.0771 5.9539 24.0621 6.71945 22.6498 8.25042C21.2377 9.78152 20.5302 11.9781 20.5302 14.8407C20.5302 17.6126 21.2929 19.7504 22.8182 21.251C24.3416 22.7516 26.4822 23.5028 29.2391 23.5028C30.5628 23.5028 31.7021 23.4125 32.6568 23.2328C33.6058 23.055 34.5245 22.7335 35.4165 22.2695L34.5378 18.4494C33.8901 18.714 33.2739 18.9174 32.6929 19.0513C31.8505 19.2464 30.929 19.3443 29.9246 19.3443C28.8244 19.3443 27.9544 19.0753 27.3172 18.537C26.679 17.9978 26.3406 17.2541 26.3016 16.307H36.5129V13.7042C36.5129 11.2004 35.834 9.28221 34.4759 7.95184Z"
        fill="white"
      />
    </svg>