<svg width="202" height="31" viewBox="0 0 202 31" fill="none" xmlns="http://www.w3.org/2000/svg">
<path d="M10.4748 20.9791C16.2598 20.9791 20.9495 16.2828 20.9495 10.4895C20.9495 4.69633 16.2598 0 10.4748 0C4.68971 0 0 4.69633 0 10.4895C0 16.2828 4.68971 20.9791 10.4748 20.9791Z" fill="#C3F570"/>
<path d="M10.5039 31C16.289 31 20.9787 29.6958 20.9787 28.087C20.9787 26.4782 16.289 25.1741 10.5039 25.1741C4.71889 25.1741 0.0291748 26.4782 0.0291748 28.087C0.0291748 29.6958 4.71889 31 10.5039 31Z" fill="#05082B"/>
<path d="M197.03 22.2272C197.03 22.8648 197.426 23.1672 198.119 23.1002L201.255 22.7307C201.585 22.6965 201.618 22.4625 201.421 22.1601C201.091 21.6566 200.694 20.5824 200.694 18.9035V1.51611C200.694 0.878469 200.298 0.576067 199.605 0.643116L196.469 1.01257C196.139 1.04677 196.106 1.28076 196.305 1.58316C196.634 2.08671 197.031 3.16085 197.031 4.83979V8.73406H196.866C195.941 7.49162 194.39 6.75409 192.673 6.75409C188.382 6.75409 185.247 10.3802 185.247 15.3144C185.247 20.2486 188.318 23.538 191.98 23.538C194.059 23.538 195.744 22.598 196.866 20.785H197.031V22.2285L197.03 22.2272ZM193.135 20.7836C190.692 20.7836 189.041 18.5683 189.041 15.0776C189.041 11.587 190.725 9.13635 193.3 9.13635C195.61 9.13635 197.03 11.1163 197.03 14.1048V16.2859C197.03 18.9049 195.313 20.7836 193.135 20.7836ZM174.649 23.0988H179.138C179.468 23.0988 179.501 22.8306 179.304 22.5282C179.04 22.1259 178.742 21.1517 178.742 19.2716V16.3844C178.742 12.1549 180.987 10.4773 183.165 10.4773C183.561 10.4773 183.858 10.4773 184.188 10.5444C184.485 10.6114 184.649 10.5102 184.649 10.2091V7.2891C184.649 6.9867 184.518 6.81977 184.254 6.78556C184.022 6.75135 183.759 6.75135 183.461 6.75135C181.151 6.75135 179.666 8.32903 178.873 11.2491H178.741V8.02663C178.741 7.38899 178.346 7.08659 177.653 7.15364L174.484 7.52309C174.154 7.5573 174.12 7.79128 174.318 8.09368C174.648 8.59723 175.043 9.67137 175.043 11.3503V19.273C175.043 21.153 174.746 22.1259 174.482 22.5296C174.285 22.832 174.317 23.1002 174.647 23.1002L174.649 23.0988ZM162.866 23.5353C164.879 23.5353 166.63 22.5282 167.652 20.7822H167.816V22.2258C167.816 22.8635 168.212 23.1659 168.905 23.0988L172.074 22.7294C172.403 22.6951 172.437 22.4612 172.239 22.1588C171.91 21.6552 171.513 20.5811 171.513 18.9021V7.18921H169.003L168.277 9.03509H168.112C167.122 7.62571 165.439 6.75272 163.49 6.75272C159.364 6.75272 156.162 10.3788 156.162 15.313C156.162 20.2472 159.431 23.5367 162.863 23.5367L162.866 23.5353ZM164.021 20.7822C161.578 20.7822 159.993 18.467 159.993 14.975C159.993 11.483 161.677 9.13498 164.152 9.13498C166.297 9.13498 167.816 10.9809 167.816 14.1034V16.2517C167.816 18.9377 166.067 20.7836 164.021 20.7836V20.7822ZM146.36 20.9834C143.818 20.9834 142.267 18.7352 142.267 15.1091C142.267 11.483 143.851 9.30192 146.36 9.30192C148.87 9.30192 150.487 11.4502 150.487 15.1091C150.487 18.768 148.87 20.9834 146.36 20.9834ZM146.36 23.5353C150.981 23.5353 154.415 20.0447 154.415 15.1091C154.415 10.1735 150.981 6.74998 146.36 6.74998C141.739 6.74998 138.305 10.2078 138.305 15.1091C138.305 20.0105 141.738 23.5353 146.36 23.5353ZM129.394 23.5353C133.521 23.5353 136.788 20.0447 136.788 14.9422C136.788 9.83967 133.717 6.75135 129.989 6.75135C127.942 6.75135 126.259 7.75844 125.169 9.50443H125.003V1.51611C125.003 0.878469 124.608 0.576067 123.915 0.643116L120.778 1.01257C120.448 1.04677 120.415 1.28076 120.613 1.58316C120.942 2.08671 121.339 3.16085 121.339 4.83979V23.1015H123.849L124.509 21.2215H124.675C125.697 22.665 127.448 23.5367 129.395 23.5367L129.394 23.5353ZM128.767 21.1517C126.424 21.1517 125.003 19.2045 125.003 16.0834V14.0363C125.003 11.4516 126.653 9.50443 128.899 9.50443C131.373 9.50443 132.992 11.7526 132.992 15.2104C132.992 18.6681 131.374 21.1517 128.767 21.1517ZM110.744 15.6127C108.995 15.6127 107.839 14.3702 107.839 12.289C107.839 10.2078 108.994 8.86542 110.744 8.86542C112.495 8.86542 113.649 10.1749 113.649 12.289C113.649 14.4031 112.495 15.6127 110.744 15.6127ZM86.812 23.0974H91.2685C91.5981 23.0974 91.6318 22.8292 91.434 22.5268C91.1702 22.1246 90.8729 21.1503 90.8729 19.2702V13.8653C90.8729 11.0123 92.6557 9.53453 94.6028 9.53453C96.352 9.53453 97.376 10.7086 97.376 13.0251V19.2688C97.376 21.1489 97.0786 22.1218 96.8149 22.5255C96.6171 22.8279 96.6494 23.0961 96.9804 23.0961H101.469C101.799 23.0961 101.833 22.8279 101.635 22.5255C101.371 22.1232 101.074 21.1489 101.074 19.2688V12.9253C101.074 8.86405 98.8951 6.74861 95.8246 6.74861C93.6461 6.74861 92.0946 7.7215 91.0384 9.50169H90.8729V8.02526C90.8729 7.38762 90.4773 7.08522 89.7843 7.15227L86.6478 7.52172C86.3181 7.55593 86.2845 7.78991 86.4823 8.09231C86.812 8.59586 87.2089 9.67 87.2089 11.3489V19.2716C87.2089 21.1517 86.9115 22.1246 86.6478 22.5282C86.45 22.8306 86.4823 23.0988 86.8133 23.0988L86.812 23.0974ZM81.497 5.23797C82.817 5.23797 83.8409 4.19804 83.8409 2.88855C83.8409 1.57905 82.8183 0.640379 81.497 0.640379C80.1756 0.640379 79.0884 1.61326 79.0884 2.88855C79.0884 4.16383 80.1447 5.23797 81.497 5.23797ZM79.2203 23.0961H83.6768C84.0064 23.0961 84.0401 22.8279 83.8423 22.5255C83.5786 22.1232 83.2812 21.1489 83.2812 19.2688V8.02937C83.2812 7.39173 82.8856 7.08933 82.1926 7.15637L79.0561 7.52582C78.7264 7.56003 78.6928 7.79402 78.8906 8.09642C79.2203 8.59996 79.6172 9.6741 79.6172 11.353V19.2757C79.6172 21.1558 79.3198 22.1287 79.0561 22.5323C78.8583 22.8347 78.8906 23.1029 79.2216 23.1029L79.2203 23.0961ZM67.3039 23.0947H71.7927C72.1224 23.0947 72.156 22.8265 71.9582 22.5241C71.6945 22.1218 71.3971 21.1476 71.3971 19.2675V16.3803C71.3971 12.1508 73.6415 10.4732 75.82 10.4732C76.2156 10.4732 76.513 10.4732 76.8426 10.5403C77.14 10.6073 77.3042 10.5061 77.3042 10.205V7.285C77.3042 6.9826 77.1723 6.81566 76.9086 6.78145C76.6771 6.74724 76.4134 6.74724 76.116 6.74724C73.8057 6.74724 72.3202 8.32493 71.5276 11.2449H71.3958V8.02253C71.3958 7.38489 71.0002 7.08248 70.3072 7.14953L67.1384 7.51898C66.8087 7.55319 66.7751 7.78718 66.9729 8.08958C67.3026 8.59312 67.6995 9.66726 67.6995 11.3462V19.2688C67.6995 21.1489 67.4021 22.1218 67.1384 22.5255C66.9406 22.8279 66.9729 23.0961 67.3026 23.0961L67.3039 23.0947ZM56.7412 21.1476C54.4645 21.1476 52.9777 19.3017 52.9777 16.0451V14.0309C52.9777 11.3448 54.7269 9.49896 56.8731 9.49896C59.3826 9.49896 60.9663 11.7471 60.9663 15.2049C60.9663 18.6627 59.3166 21.1462 56.7412 21.1462V21.1476ZM48.9181 29.8077H53.3746C53.7043 29.8077 53.7379 29.5395 53.5401 29.2371C53.2764 28.8349 52.979 27.8606 52.979 25.9805V21.5499H53.1445C54.1348 22.8593 55.6863 23.5298 57.3373 23.5298C61.3309 23.5298 64.7635 20.2404 64.7635 14.9025C64.7635 9.90125 61.6606 6.74588 58.0303 6.74588C55.8518 6.74588 54.2344 7.75297 53.1445 9.49896H52.979V8.02253C52.979 7.38489 52.5834 7.08248 51.8904 7.14953L48.7539 7.51898C48.4243 7.55319 48.3906 7.78718 48.5884 8.08958C48.9181 8.59312 49.315 9.66726 49.315 11.3462V25.9819C49.315 27.862 49.0177 28.8349 48.7539 29.2385C48.5561 29.5409 48.5884 29.8091 48.9194 29.8091L48.9181 29.8077ZM38.2894 23.5312C43.4712 23.5312 46.7073 21.1147 46.7073 17.0193C46.7073 14.0309 44.5288 11.4475 41.1945 10.205L38.058 9.03099C36.0114 8.25925 35.2848 7.28637 35.2848 5.80857C35.2848 3.99553 37.0004 2.72024 39.378 2.72024C41.9857 2.72024 44.066 3.89427 44.7912 5.74152C44.8908 5.97687 45.2528 5.90982 45.2528 5.64026V1.57769C43.9328 0.671851 42.0517 0 39.4439 0C34.4923 0 31.3894 2.55194 31.3894 6.34359C31.3894 9.29781 33.0067 11.4461 35.9118 12.6201L38.8828 13.8284C41.8216 15.0366 42.7783 16.0095 42.7783 17.8225C42.7783 19.6356 41.029 20.7767 38.4872 20.7767C35.2525 20.7767 32.6448 19.2333 31.6881 16.8154C31.5885 16.5801 31.2266 16.6471 31.2266 16.9167V21.2475C32.5466 22.4899 35.3534 23.5298 38.2908 23.5298L38.2894 23.5312ZM110.249 30.2784C115.563 30.2784 119.228 27.8291 119.228 24.4042C119.228 21.7524 117.083 20.3088 113.353 20.3088H108.599C107.378 20.3088 106.718 19.8052 106.718 19.0335C106.718 18.3288 107.246 17.724 108.104 17.3217C108.897 17.6241 109.788 17.7582 110.778 17.7582C114.574 17.7582 117.082 15.4088 117.082 12.2863C117.082 11.1122 116.554 10.138 115.927 9.60021V9.43191L118.898 9.46612C119.196 9.46612 119.427 9.23077 119.427 8.86132V6.98123C119.427 6.64599 119.229 6.51189 118.898 6.54473L113.32 7.14817C112.461 6.87997 111.604 6.74588 110.744 6.74588C106.948 6.74588 104.308 8.927 104.308 12.2849C104.308 13.9967 105.067 15.4403 106.355 16.4131V16.4802C104.54 17.4531 103.78 18.8296 103.78 20.1063C103.78 22.7581 106.355 23.4299 107.609 23.4299H113.056C114.805 23.4299 115.664 23.9663 115.664 25.2088C115.664 27.0547 113.154 28.0617 110.382 28.0617C107.61 28.0617 106.685 27.0218 106.124 25.4428C105.86 24.671 105.299 24.2687 104.606 24.2687C103.747 24.2687 102.988 24.8735 102.988 26.0818C102.988 28.4312 105.63 30.2784 110.25 30.2784H110.249Z" fill="white"/>
</svg>
