  <svg
      width="118"
      height="16"
      viewBox="0 0 118 16"
      fill="none"
      xmlns="http://www.w3.org/2000/svg"
    >
      <path
        d="M100.853 6.4117V15.6874H103.818V9.5036H114.661V15.6874H117.626V6.4117H100.853ZM103.479 3.40452H114.915C116.524 3.10803 117.668 1.66797 118.007 0.312622H100.387C100.726 1.66797 101.912 3.06568 103.479 3.40452ZM91.8315 15.6874C93.3139 15.0521 94.1186 13.9508 94.4575 12.6802H81.1157V0.354977H78.1085V15.6874H91.8315ZM55.8723 3.36216H66.461C68.0704 2.89626 69.3835 1.66797 69.7223 0.354977H52.9498V9.41889H66.6727V12.5955H55.9146C54.2205 13.0614 52.7804 14.205 52.0604 15.6874H69.6376V6.4117H55.9146L55.8723 3.36216ZM29.7818 3.40452H41.2176C42.827 3.10803 44.013 1.66797 44.3094 0.312622H26.6475C26.9864 1.66797 28.1723 3.06568 29.7818 3.40452ZM29.7818 9.46124H41.2176C42.827 9.16476 44.013 7.7247 44.3094 6.36935H26.6475C26.9864 7.7247 28.1723 9.12241 29.7818 9.46124ZM29.7818 15.6874H41.2176C42.827 15.3909 44.013 13.9508 44.3094 12.5955H26.6475C26.9864 13.9508 28.1723 15.3909 29.7818 15.6874Z"
        fill="white"
      />
      <path
        d="M0.00695801 0.354977C0.345796 1.71033 1.53173 3.06568 3.09885 3.40452H7.92729L8.18142 3.48923V15.645H11.1886V3.48923L11.4427 3.40452H16.2712C17.8807 2.98097 19.0242 1.71033 19.3631 0.354977V0.312622L0.00695801 0.354977Z"
        fill="white"
      />
    </svg>