 <svg
      width="155"
      height="34"
      viewBox="0 0 155 34"
      fill="none"
      xmlns="http://www.w3.org/2000/svg"
    >
      <path
        d="M54.7215 19.089L53.7975 21.707H53.7205C53.5665 21.1167 53.2842 20.2184 52.8222 19.1404L47.8686 6.69206H43.0176V26.5323H46.2259V14.2894C46.2259 13.5194 46.2259 12.6467 46.2002 11.5687C46.1746 11.0297 46.1232 10.619 46.0976 10.3111H46.1746C46.3286 11.081 46.5082 11.6457 46.6366 12.005L52.5912 26.481H54.8499L60.7532 11.8767C60.8815 11.543 61.0098 10.8757 61.1382 10.3111H61.2152C61.1382 11.774 61.0868 13.083 61.0612 13.8787V26.4553H64.4748V6.64073H59.8035L54.7215 19.089ZM67.7088 12.236H71.0455V26.4553H67.7088V12.236ZM69.4028 6.23006C68.8382 6.23006 68.3762 6.4354 67.9912 6.79473C67.6062 7.15406 67.4008 7.61606 67.4008 8.18072C67.4008 8.71972 67.6062 9.18172 67.9912 9.54105C68.3762 9.90038 68.8382 10.0801 69.4028 10.0801C69.9675 10.0801 70.4552 9.87472 70.8145 9.54105C71.1995 9.18172 71.4048 8.71972 71.4048 8.18072C71.4048 7.64173 71.1995 7.17973 70.8145 6.79473C70.4808 6.4354 69.9932 6.23006 69.4028 6.23006ZM82.8778 12.1077C82.2618 11.9794 81.6201 11.9024 81.0041 11.9024C79.4898 11.9024 78.1038 12.236 76.9488 12.9034C75.7938 13.5707 74.8698 14.4947 74.2795 15.6497C73.6635 16.8304 73.3555 18.1907 73.3555 19.7564C73.3555 21.1167 73.6635 22.323 74.2538 23.4267C74.8441 24.5047 75.6655 25.3773 76.7691 25.9677C77.8215 26.558 79.0535 26.866 80.4395 26.866C82.0308 26.866 83.3911 26.5323 84.4691 25.9163L84.4948 25.8907V22.8107L84.3664 22.9133C83.8788 23.2727 83.3141 23.5807 82.7494 23.7603C82.1591 23.9657 81.6201 24.0683 81.1581 24.0683C79.8235 24.0683 78.7711 23.6833 78.0268 22.8363C77.2568 22.015 76.8718 20.8857 76.8718 19.474C76.8718 18.011 77.2568 16.856 78.0525 16.009C78.8481 15.162 79.9005 14.7257 81.1838 14.7257C82.2618 14.7257 83.3654 15.085 84.3664 15.8037L84.4948 15.9064V12.6467L84.4691 12.621C84.0328 12.4414 83.5451 12.236 82.8778 12.1077ZM93.8887 12.005C93.0674 12.005 92.2974 12.2617 91.6301 12.8007C91.0654 13.2627 90.6804 13.93 90.3468 14.7257H90.3211V12.236H86.9844V26.4553H90.3211V19.1917C90.3211 17.9597 90.5778 16.933 91.1424 16.1887C91.7071 15.4187 92.4257 15.0337 93.2984 15.0337C93.6064 15.0337 93.9144 15.1107 94.2994 15.162C94.6587 15.2647 94.9154 15.3674 95.0951 15.4957L95.2234 15.5984V12.2617L95.1464 12.236C94.9154 12.082 94.4534 12.005 93.8887 12.005ZM102.975 11.928C100.639 11.928 98.7654 12.621 97.4564 13.9814C96.1217 15.3417 95.4801 17.2154 95.4801 19.5767C95.4801 21.784 96.1474 23.5807 97.4307 24.8897C98.7141 26.173 100.459 26.8403 102.641 26.8403C104.925 26.8403 106.748 26.1473 108.057 24.7613C109.391 23.3753 110.033 21.5273 110.033 19.243C110.033 16.9844 109.417 15.1877 108.159 13.8787C106.953 12.5697 105.182 11.928 102.975 11.928ZM105.644 22.862C105.028 23.6577 104.053 24.0427 102.846 24.0427C101.64 24.0427 100.665 23.6577 99.9717 22.8107C99.2787 22.015 98.9451 20.86 98.9451 19.397C98.9451 17.8827 99.3044 16.7277 99.9717 15.9064C100.665 15.085 101.614 14.6744 102.821 14.6744C104.001 14.6744 104.925 15.0594 105.593 15.855C106.26 16.6507 106.619 17.8057 106.619 19.32C106.568 20.86 106.286 22.0663 105.644 22.862ZM117.476 18.1394C116.424 17.703 115.757 17.3694 115.449 17.087C115.192 16.8304 115.064 16.471 115.064 16.009C115.064 15.624 115.218 15.239 115.603 14.9824C115.988 14.7257 116.424 14.5974 117.066 14.5974C117.63 14.5974 118.221 14.7 118.785 14.854C119.35 15.008 119.863 15.239 120.274 15.547L120.402 15.6497V12.5184L120.325 12.4927C119.94 12.3387 119.427 12.1847 118.811 12.0564C118.195 11.9537 117.63 11.9024 117.168 11.9024C115.577 11.9024 114.268 12.2874 113.241 13.1344C112.215 13.93 111.727 15.008 111.727 16.2657C111.727 16.933 111.83 17.5234 112.061 18.011C112.292 18.4987 112.625 18.9607 113.087 19.3457C113.549 19.705 114.217 20.1157 115.141 20.5007C115.911 20.8344 116.501 21.091 116.86 21.2963C117.22 21.5017 117.451 21.7327 117.63 21.9123C117.759 22.1177 117.836 22.3743 117.836 22.708C117.836 23.6577 117.117 24.1197 115.654 24.1197C115.089 24.1197 114.499 24.017 113.806 23.786C113.113 23.555 112.471 23.2213 111.932 22.8363L111.804 22.7337V25.9933L111.881 26.019C112.369 26.25 112.959 26.404 113.678 26.5837C114.396 26.712 115.038 26.8147 115.603 26.8147C117.322 26.8147 118.734 26.4297 119.735 25.5827C120.762 24.7613 121.301 23.709 121.301 22.3487C121.301 21.399 121.044 20.552 120.479 19.9104C119.735 19.2944 118.811 18.6527 117.476 18.1394ZM130.104 11.928C127.769 11.928 125.895 12.621 124.586 13.9814C123.277 15.3417 122.61 17.2154 122.61 19.5767C122.61 21.784 123.277 23.5807 124.56 24.8897C125.844 26.173 127.589 26.8403 129.771 26.8403C132.055 26.8403 133.877 26.1473 135.186 24.7613C136.521 23.3753 137.163 21.5273 137.163 19.243C137.163 16.9844 136.547 15.1877 135.289 13.8787C134.083 12.5697 132.312 11.928 130.104 11.928ZM132.748 22.862C132.132 23.6577 131.157 24.0427 129.95 24.0427C128.718 24.0427 127.769 23.6577 127.076 22.8107C126.383 22.015 126.049 20.86 126.049 19.397C126.049 17.8827 126.408 16.7277 127.076 15.9064C127.769 15.085 128.718 14.6744 129.925 14.6744C131.08 14.6744 132.029 15.0594 132.697 15.855C133.364 16.6507 133.723 17.8057 133.723 19.32C133.723 20.86 133.39 22.0663 132.748 22.862ZM155.001 14.9824V12.236H151.639V8.02673L151.536 8.05239L148.353 9.00206L148.276 9.02772V12.236H143.246V10.4394C143.246 9.61805 143.451 8.97639 143.81 8.56572C144.17 8.15506 144.709 7.94973 145.376 7.94973C145.838 7.94973 146.326 8.05239 146.865 8.28339L146.993 8.36039V5.46007L146.916 5.4344C146.454 5.2804 145.838 5.17773 145.042 5.17773C144.041 5.17773 143.169 5.40873 142.373 5.79373C141.577 6.23006 140.987 6.8204 140.551 7.61606C140.114 8.38606 139.883 9.25872 139.883 10.2597V12.236H137.548V14.9567H139.883V26.4553H143.246V14.9824H148.276V22.2973C148.276 25.3003 149.688 26.8147 152.511 26.8147C152.973 26.8147 153.461 26.7377 153.923 26.6607C154.411 26.558 154.77 26.4297 154.975 26.327L155.001 26.3013V23.555L154.873 23.6577C154.667 23.786 154.488 23.8887 154.18 23.9657C153.923 24.0427 153.692 24.0683 153.512 24.0683C152.845 24.0683 152.383 23.9143 152.049 23.5293C151.741 23.17 151.587 22.5797 151.587 21.707V14.9824H155.001Z"
        fill="#737373"
      />
      <path d="M0 0.0195312H15.7336V15.7531H0V0.0195312Z" fill="#F25022" />
      <path
        d="M17.375 0.0195312H33.1086V15.7531H17.375V0.0195312Z"
        fill="#7FBA00"
      />
      <path d="M0 17.3945H15.7336V33.1281H0V17.3945Z" fill="#00A4EF" />
      <path
        d="M17.375 17.3945H33.1086V33.1281H17.375V17.3945Z"
        fill="#FFB900"
      />
    </svg>