 <svg
      width="90"
      height="28"
      viewBox="0 0 90 28"
      fill="none"
      xmlns="http://www.w3.org/2000/svg"
    >
      <path
        d="M19.1548 6.92228V15.6295C19.1548 15.7706 19.0987 15.906 18.9989 16.0058C18.8991 16.1056 18.7638 16.1617 18.6226 16.1617H15.874C15.7329 16.1616 15.5976 16.1055 15.4978 16.0057C15.398 15.9059 15.3419 15.7706 15.3418 15.6295V1.4668C15.3418 1.32566 15.3979 1.19029 15.4977 1.09049C15.5975 0.990691 15.7329 0.934623 15.874 0.934623H18.4176C18.5587 0.934623 18.6941 0.990691 18.7939 1.09049C18.8937 1.19029 18.9497 1.32566 18.9497 1.4668V3.46128C18.9497 3.46128 19.859 0.61621 22.5574 0.61621C22.5574 0.61621 25.2265 0.293574 26.3117 3.25596C26.3117 3.25596 27.221 0.61621 29.978 0.61621C29.978 0.61621 34.0782 0.372414 34.0782 4.61502L34.1094 6.95161V15.6588C34.1094 15.7999 34.0534 15.9353 33.9535 16.0351C33.8537 16.1349 33.7184 16.191 33.5772 16.191H30.8284C30.6873 16.1909 30.5519 16.1348 30.4521 16.035C30.3524 15.9353 30.2963 15.7999 30.2962 15.6588L30.2711 6.15969C30.3492 4.0087 28.6091 4.16521 28.6091 4.16521C26.4192 4.2044 26.6299 6.95161 26.6299 6.95161V15.6588C26.6299 15.7999 26.5738 15.9353 26.474 16.0351C26.3742 16.1349 26.2389 16.191 26.0977 16.191H23.3491C23.208 16.1909 23.0726 16.1348 22.9729 16.035C22.8731 15.9353 22.817 15.7999 22.8169 15.6588V6.37462C22.8169 6.37462 22.9776 4.1455 21.0221 4.1455C21.0224 4.1455 19.0865 3.89138 19.1548 6.92228ZM90.0069 6.89624V15.6032C90.0069 15.7443 89.9508 15.8796 89.851 15.9794C89.7512 16.0792 89.6159 16.1353 89.4748 16.1354L86.6161 16.1907C86.475 16.1907 86.3396 16.1346 86.2398 16.0348C86.1401 15.935 86.084 15.7997 86.0839 15.6586V6.37462C86.0839 6.37462 86.2446 4.1455 84.2893 4.1455C84.2893 4.1455 82.4218 4.05352 82.4218 7.54855V15.6292C82.4217 15.7704 82.3656 15.9057 82.2659 16.0055C82.1661 16.1053 82.0307 16.1614 81.8896 16.1614H79.1408C78.9996 16.1614 78.8643 16.1053 78.7645 16.0055C78.6647 15.9057 78.6087 15.7704 78.6086 15.6292V1.4668C78.6087 1.32567 78.6647 1.19035 78.7645 1.09056C78.8643 0.990773 78.9996 0.934685 79.1408 0.934623H81.6843C81.8255 0.934623 81.9608 0.990691 82.0606 1.09049C82.1604 1.19029 82.2165 1.32566 82.2165 1.4668V3.46128C82.2165 3.46128 83.1257 0.61621 85.8242 0.61621C85.8242 0.61621 88.7147 0.177659 89.6883 3.20082C89.6885 3.20059 90.0069 3.82427 90.0069 6.89624ZM70.1607 0.557549C66.6457 0.557549 63.7959 3.51994 63.7959 8.50613C63.7959 12.8961 65.9957 16.4547 70.1607 16.4547C74.091 16.4547 76.5254 12.8961 76.5254 8.50613C76.5254 3.60793 73.6759 0.557549 70.1607 0.557549ZM72.3792 8.68212C72.3792 10.5593 72.1446 11.5565 72.1446 11.5565C71.8107 13.5409 70.3702 13.5437 70.1579 13.5332C69.9286 13.5423 68.4759 13.5217 68.1754 11.5565C68.1754 11.5565 67.9407 10.5593 67.9407 8.68212V8.36934C67.9407 6.49218 68.1754 5.49494 68.1754 5.49494C68.4759 3.52979 69.9289 3.50914 70.1579 3.51806C70.3702 3.5075 71.8107 3.51008 72.1446 5.49494C72.1446 5.49494 72.3792 6.49218 72.3792 8.36934V8.68212ZM62.2006 3.44157V1.40954C62.2005 1.26842 62.1445 1.1331 62.0447 1.03331C61.9449 0.93352 61.8096 0.877432 61.6684 0.877369H52.583C52.4418 0.877369 52.3065 0.933438 52.2067 1.03324C52.1069 1.13304 52.0508 1.2684 52.0508 1.40954V3.42584C52.0509 3.56697 52.107 3.70229 52.2067 3.80208C52.3065 3.90187 52.4419 3.95796 52.583 3.95802H57.3221L51.7127 12.0955C51.7127 12.0955 51.4917 12.4254 51.4989 12.7898V15.2651C51.4989 15.2651 51.4623 16.1138 52.4248 15.6213C52.4248 15.6213 54.1345 14.5884 57.0011 14.5884C57.0011 14.5884 59.8321 14.5532 61.7196 15.7102C61.7196 15.7102 62.5031 16.0664 62.5031 15.2831V13.1286C62.5031 13.1286 62.5742 12.5584 61.8263 12.2025C61.8263 12.2025 59.654 11.0096 56.8052 11.2053L62.2006 3.44157ZM13.2204 13.6289L12.36 12.3191C12.0861 11.8301 12.1059 11.2824 12.1059 11.2824V5.24059C12.2232 0.0197433 6.4352 0.469557 6.4352 0.469557C1.28992 0.469557 0.529903 4.47377 0.529903 4.47377C0.315438 5.27883 0.939123 5.29831 0.939123 5.29831L3.45334 5.55337C3.45334 5.55337 3.88204 5.65145 4.03807 5.1411C4.03807 5.1411 4.36916 3.39417 6.22074 3.39417C8.2354 3.39417 8.21451 5.12326 8.21451 5.12326V6.57079C4.19271 6.70524 2.32892 7.82168 2.32892 7.82168C-0.15432 9.22954 0.00195301 12.0258 0.00195301 12.0258C0.00195301 16.5817 4.34288 16.386 4.34288 16.386C7.11943 16.386 8.76194 14.3525 8.76194 14.3525C9.2507 15.2132 10.1503 16.034 10.1503 16.034C10.6004 16.5221 11.0694 16.1124 11.0694 16.1124L13.1031 14.3722C13.5527 14.0395 13.2204 13.6289 13.2204 13.6289ZM5.69795 13.5726C4.39192 13.5726 3.90644 12.2748 4.12325 10.9992C4.3403 9.72371 5.46753 8.7213 8.21475 8.75063V9.52613C8.31213 12.9139 6.78506 13.5726 5.69795 13.5726ZM49.7466 13.6289L48.8864 12.3191C48.6126 11.8301 48.632 11.2824 48.632 11.2824V5.24059C48.7494 0.0197433 42.9614 0.469557 42.9614 0.469557C37.8161 0.469557 37.0561 4.47377 37.0561 4.47377C36.8416 5.27883 37.4653 5.29831 37.4653 5.29831L39.9795 5.55337C39.9795 5.55337 40.4082 5.65145 40.5643 5.1411C40.5643 5.1411 40.8953 3.39417 42.7469 3.39417C44.7616 3.39417 44.7407 5.12326 44.7407 5.12326V6.57079C40.7191 6.70524 38.8551 7.82168 38.8551 7.82168C36.3719 9.22954 36.5281 12.0258 36.5281 12.0258C36.5281 16.5817 40.8691 16.386 40.8691 16.386C43.6456 16.386 45.2881 14.3525 45.2881 14.3525C45.7771 15.2132 46.6763 16.034 46.6763 16.034C47.1263 16.5221 47.5956 16.1124 47.5956 16.1124L49.629 14.3722C50.0789 14.0395 49.7466 13.6289 49.7466 13.6289ZM42.2241 13.5726C40.9181 13.5726 40.4326 12.2748 40.6494 10.9992C40.8665 9.72371 41.9937 8.7213 44.7407 8.75063V9.52613C44.8383 12.9139 43.3115 13.5726 42.2241 13.5726Z"
        fill="#B8B8B8"
      />
      <path
        d="M56.6694 25.0647C56.6694 25.0647 56.4395 25.4648 56.722 25.5542C56.722 25.5542 57.0411 25.6788 57.4391 25.3094C57.4391 25.3094 60.3414 22.7741 60.4113 18.1582C60.4113 18.1582 60.4327 17.5816 60.2013 17.424C60.2013 17.424 59.292 16.6196 56.0225 16.8643C56.0225 16.8643 53.1725 17.0567 51.6166 18.4381C51.6166 18.4381 51.4767 18.5603 51.4767 18.7176C51.4767 18.7176 51.4432 19.0571 52.2985 18.91C52.2985 18.91 55.1482 18.5075 56.8442 18.7176C56.8442 18.7176 57.7188 18.8224 57.9635 19.12C57.9635 19.12 58.3657 19.4522 58.1557 20.5534C58.1557 20.5539 57.5784 23.3513 56.6694 25.0647Z"
        fill="#F3971B"
      />
      <path
        d="M56.0932 20.6364C56.0932 20.6364 56.5189 21.1878 55.8321 21.6634C55.8321 21.6634 48.4954 27.5319 36.1766 27.5319C36.1766 27.5319 23.4959 28.1574 12.9076 18.537C12.9076 18.537 12.5364 18.2111 12.7668 17.9082C12.7668 17.9082 12.9728 17.6294 13.5062 17.9326C13.5062 17.9326 23.4666 24.1392 36.548 24.1392C36.548 24.1392 45.6405 24.4911 54.9676 20.5022C54.9676 20.5022 55.7107 20.1171 56.0932 20.6364Z"
        fill="#F3971B"
      />
    </svg>