<svg width="194" height="27" viewBox="0 0 194 27" fill="none" xmlns="http://www.w3.org/2000/svg">
<path d="M7.77815 13.4998L15.5504 26.999H0.00585938L7.77815 13.4998Z" fill="white"/>
<path d="M7.77815 0L15.5504 13.4992H0.00585938L7.77815 0Z" fill="white"/>
<path d="M35.3467 7.36328C37.1305 7.36328 38.701 7.64241 40.0582 8.20067C41.4348 8.73967 42.6272 9.53856 43.6355 10.5973L41.2215 13.8025C40.3878 12.9362 39.4863 12.2913 38.5168 11.8678C37.5668 11.4251 36.481 11.2037 35.2595 11.2037C34.5421 11.2037 33.9604 11.2807 33.5145 11.4347C33.0686 11.5887 32.7486 11.8005 32.5548 12.07C32.3609 12.3395 32.2639 12.6475 32.2639 12.994C32.2639 13.3982 32.4481 13.7447 32.8165 14.0335C33.2043 14.303 33.8247 14.534 34.6778 14.7265L37.9061 15.4484C39.8256 15.8911 41.2312 16.536 42.1231 17.383C43.015 18.23 43.461 19.3562 43.461 20.7615C43.461 22.109 43.112 23.2544 42.414 24.1976C41.716 25.1216 40.7562 25.8243 39.5347 26.3055C38.3132 26.7675 36.9172 26.9985 35.3467 26.9985C34.0671 26.9985 32.8456 26.8638 31.6823 26.5943C30.5189 26.3055 29.4719 25.9013 28.5413 25.3815C27.6106 24.8618 26.8254 24.265 26.1855 23.5912L28.5995 20.2706C29.0842 20.8288 29.6755 21.3293 30.3735 21.7721C31.0909 22.1956 31.8665 22.5325 32.7002 22.7827C33.5533 23.033 34.4161 23.1581 35.2886 23.1581C35.9672 23.1581 36.5295 23.0907 36.9754 22.956C37.4407 22.8212 37.78 22.6191 37.9933 22.3496C38.2066 22.0801 38.3132 21.7625 38.3132 21.3967C38.3132 20.9925 38.1678 20.6556 37.877 20.3861C37.5862 20.0973 37.0336 19.8567 36.2192 19.6642L32.6711 18.8846C31.5853 18.6343 30.6159 18.307 29.7628 17.9028C28.9291 17.4793 28.2698 16.921 27.7851 16.228C27.3004 15.5158 27.058 14.6303 27.058 13.5715C27.058 12.378 27.3877 11.3192 28.0469 10.3952C28.7061 9.45193 29.6561 8.7108 30.897 8.17179C32.1379 7.63278 33.6211 7.36328 35.3467 7.36328ZM63.3525 7.65204L56.5761 19.7508V26.7098H51.5738V19.7508L44.7974 7.65204H49.9743L52.679 12.8785L54.1041 16.0548L55.5582 12.8785L58.263 7.65204H63.3525ZM83.4319 7.65204V26.7098H77.877L71.915 16.4013L70.4608 13.5715H70.4317L70.548 17.0943V26.7098H66.1274V7.65204H71.6823L77.6443 17.9605L79.0985 20.7903H79.1276L79.0113 17.2675V7.65204H83.4319ZM104.407 7.65204V11.4925H98.1542V26.7098H93.1519V11.4925H86.8699V7.65204H104.407ZM125.182 7.65204V26.7098H120.18V7.65204H125.182ZM112.85 7.65204V26.7098H107.848V7.65204H112.85ZM122.856 15.1885V19.0289H110.291V15.1885H122.856ZM130.015 26.7098V7.65204H144.964V11.4925H135.017V15.3618H142.928V18.9712H135.017V22.8694H145.342V26.7098H130.015ZM156.448 7.36328C158.232 7.36328 159.802 7.64241 161.159 8.20067C162.536 8.73967 163.728 9.53856 164.737 10.5973L162.323 13.8025C161.489 12.9362 160.587 12.2913 159.618 11.8678C158.668 11.4251 157.582 11.2037 156.361 11.2037C155.643 11.2037 155.062 11.2807 154.616 11.4347C154.17 11.5887 153.85 11.8005 153.656 12.07C153.462 12.3395 153.365 12.6475 153.365 12.994C153.365 13.3982 153.549 13.7447 153.918 14.0335C154.305 14.303 154.926 14.534 155.779 14.7265L159.007 15.4484C160.927 15.8911 162.332 16.536 163.224 17.383C164.116 18.23 164.562 19.3562 164.562 20.7615C164.562 22.109 164.213 23.2544 163.515 24.1976C162.817 25.1216 161.857 25.8243 160.636 26.3055C159.414 26.7675 158.018 26.9985 156.448 26.9985C155.168 26.9985 153.947 26.8638 152.783 26.5943C151.62 26.3055 150.573 25.9013 149.642 25.3815C148.712 24.8618 147.926 24.265 147.287 23.5912L149.701 20.2706C150.185 20.8288 150.777 21.3293 151.475 21.7721C152.192 22.1956 152.968 22.5325 153.801 22.7827C154.654 23.033 155.517 23.1581 156.39 23.1581C157.068 23.1581 157.631 23.0907 158.077 22.956C158.542 22.8212 158.881 22.6191 159.094 22.3496C159.308 22.0801 159.414 21.7625 159.414 21.3967C159.414 20.9925 159.269 20.6556 158.978 20.3861C158.687 20.0973 158.135 19.8567 157.32 19.6642L153.772 18.8846C152.686 18.6343 151.717 18.307 150.864 17.9028C150.03 17.4793 149.371 16.921 148.886 16.228C148.402 15.5158 148.159 14.6303 148.159 13.5715C148.159 12.378 148.489 11.3192 149.148 10.3952C149.807 9.45193 150.757 8.7108 151.998 8.17179C153.239 7.63278 154.722 7.36328 156.448 7.36328ZM173.272 7.65204V26.7098H168.27V7.65204H173.272ZM185.615 7.36328C187.398 7.36328 188.969 7.64241 190.326 8.20067C191.703 8.73967 192.895 9.53856 193.903 10.5973L191.489 13.8025C190.656 12.9362 189.754 12.2913 188.785 11.8678C187.835 11.4251 186.749 11.2037 185.527 11.2037C184.81 11.2037 184.228 11.2807 183.782 11.4347C183.336 11.5887 183.017 11.8005 182.823 12.07C182.629 12.3395 182.532 12.6475 182.532 12.994C182.532 13.3982 182.716 13.7447 183.084 14.0335C183.472 14.303 184.093 14.534 184.946 14.7265L188.174 15.4484C190.093 15.8911 191.499 16.536 192.391 17.383C193.283 18.23 193.729 19.3562 193.729 20.7615C193.729 22.109 193.38 23.2544 192.682 24.1976C191.984 25.1216 191.024 25.8243 189.803 26.3055C188.581 26.7675 187.185 26.9985 185.615 26.9985C184.335 26.9985 183.113 26.8638 181.95 26.5943C180.787 26.3055 179.74 25.9013 178.809 25.3815C177.879 24.8618 177.093 24.265 176.453 23.5912L178.867 20.2706C179.352 20.8288 179.943 21.3293 180.641 21.7721C181.359 22.1956 182.134 22.5325 182.968 22.7827C183.821 23.033 184.684 23.1581 185.556 23.1581C186.235 23.1581 186.797 23.0907 187.243 22.956C187.709 22.8212 188.048 22.6191 188.261 22.3496C188.475 22.0801 188.581 21.7625 188.581 21.3967C188.581 20.9925 188.436 20.6556 188.145 20.3861C187.854 20.0973 187.301 19.8567 186.487 19.6642L182.939 18.8846C181.853 18.6343 180.884 18.307 180.031 17.9028C179.197 17.4793 178.538 16.921 178.053 16.228C177.568 15.5158 177.326 14.6303 177.326 13.5715C177.326 12.378 177.656 11.3192 178.315 10.3952C178.974 9.45193 179.924 8.7108 181.165 8.17179C182.406 7.63278 183.889 7.36328 185.615 7.36328Z" fill="white"/>
</svg>
