 <svg
      width="145"
      height="26"
      viewBox="0 0 145 26"
      fill="none"
      xmlns="http://www.w3.org/2000/svg"
    >
      <g clipPath="url(#clip0_13736_1590)">
        <path
          d="M26.6867 3.10352H15.6707V22.9005H26.6867V3.10352Z"
          fill="#F85C01"
        />
        <path
          d="M16.3704 13.0002C16.369 11.0938 16.8012 9.21215 17.6344 7.49751C18.4676 5.78286 19.6798 4.28018 21.1794 3.10317C18.9624 1.3553 16.2205 0.406476 13.3974 0.410167C6.44537 0.410167 0.807373 6.04717 0.807373 13.0002C0.807373 19.9532 6.44537 25.5902 13.3974 25.5902C16.3354 25.5902 19.0354 24.5832 21.1794 22.8972C19.6792 21.7207 18.4666 20.2181 17.6334 18.5033C16.8002 16.7886 16.3683 14.9066 16.3704 13.0002Z"
          fill="#E4011B"
        />
        <path
          d="M40.3484 20.8025V20.3975H40.5134V20.3135H40.0964V20.3975H40.2614V20.8025H40.3484ZM41.1564 20.8025V20.3125H41.0264L40.8804 20.6485L40.7334 20.3135H40.6034V20.8035H40.6944V20.4355L40.8314 20.7535H40.9254L41.0624 20.4355V20.8055H41.1564V20.8025Z"
          fill="#111111"
        />
        <path
          d="M41.5456 13.0002C41.5456 19.9532 35.9076 25.5902 28.9556 25.5902C26.1328 25.5936 23.3913 24.6448 21.1746 22.8972C22.674 21.72 23.886 20.2173 24.719 18.5027C25.552 16.7881 25.984 14.9064 25.9826 13.0002C25.9826 8.98517 24.1046 5.40717 21.1776 3.10317C23.3931 1.35546 26.1337 0.406593 28.9556 0.410166C35.9076 0.410166 41.5456 6.04717 41.5456 13.0002Z"
          fill="#EF991B"
        />
        <path
          d="M63.2045 17.2419V11.9859C63.2045 10.0059 61.9415 8.67386 59.9095 8.65586C58.8395 8.63886 57.7375 8.97086 56.9685 10.1459C56.3915 9.21886 55.4785 8.65586 54.2015 8.65586C53.3105 8.65586 52.4315 8.91886 51.7505 9.90086V8.86586H49.9285V17.2389H51.7685V12.5979C51.7685 11.1429 52.5725 10.3729 53.8175 10.3729C55.0275 10.3729 55.6395 11.1599 55.6395 12.5799V17.2389H57.4795V12.5979C57.4795 11.1429 58.3185 10.3729 59.5285 10.3729C60.7735 10.3729 61.3685 11.1599 61.3685 12.5799V17.2389H63.2045V17.2419ZM90.4255 8.86586H87.4495V6.32686H85.6095V8.86686H83.9095V10.5309H85.6095V14.3499C85.6095 16.2939 86.3615 17.4519 88.5165 17.4519C89.3035 17.4519 90.2165 17.2069 90.7925 16.8049L90.2685 15.2449C89.7265 15.5599 89.1285 15.7169 88.6565 15.7169C87.7465 15.7169 87.4465 15.1569 87.4465 14.3149V10.5299H90.4225V8.86586H90.4255ZM105.96 8.65586C104.907 8.65586 104.225 9.14586 103.753 9.88386V8.86586H101.949V17.2389H103.771V12.5449C103.771 11.1599 104.365 10.3909 105.558 10.3909C105.925 10.3909 106.31 10.4429 106.698 10.6009L107.258 8.88386C106.855 8.72586 106.331 8.65586 105.96 8.65586ZM82.4725 9.53386C81.5985 8.95686 80.3885 8.65986 79.0565 8.65986C76.9365 8.65986 75.5695 9.67386 75.5695 11.3389C75.5695 12.7059 76.5835 13.5459 78.4585 13.8079L79.3145 13.9299C80.3115 14.0699 80.7875 14.3319 80.7875 14.8049C80.7875 15.4509 80.1225 15.8189 78.8775 15.8189C77.6155 15.8189 76.7055 15.4159 76.0935 14.9439L75.2375 16.3639C76.2335 17.0989 77.4965 17.4519 78.8635 17.4519C81.2805 17.4519 82.6835 16.3119 82.6835 14.7199C82.6835 13.2479 81.5775 12.4789 79.7585 12.2159L78.9025 12.0939C78.1155 11.9889 77.4825 11.8319 77.4825 11.2719C77.4825 10.6599 78.0765 10.2929 79.0775 10.2929C80.1475 10.2929 81.1785 10.6949 81.6865 11.0099L82.4725 9.53386ZM131.273 8.65586C130.221 8.65586 129.539 9.14586 129.067 9.88386V8.86586H127.262V17.2389H129.084V12.5449C129.084 11.1599 129.679 10.3909 130.871 10.3909C131.238 10.3909 131.623 10.4429 132.011 10.6009L132.571 8.88386C132.155 8.73517 131.716 8.65808 131.273 8.65586ZM107.8 13.0559C107.8 15.5949 109.569 17.4519 112.266 17.4519C113.528 17.4519 114.368 17.1719 115.277 16.4519L114.402 14.9789C113.721 15.4689 113 15.7309 112.213 15.7309C110.758 15.7139 109.692 14.6609 109.692 13.0519C109.692 11.4399 110.762 10.3909 112.213 10.3729C113 10.3729 113.721 10.6359 114.402 11.1249L115.277 9.65286C114.368 8.93586 113.525 8.65286 112.266 8.65286C109.569 8.65586 107.8 10.5129 107.8 13.0559ZM124.863 13.0559V8.86586H123.041V9.88386C122.464 9.13186 121.586 8.65586 120.397 8.65586C118.05 8.65586 116.211 10.4959 116.211 13.0519C116.211 15.6089 118.05 17.4479 120.397 17.4479C121.589 17.4479 122.464 16.9759 123.041 16.2209V17.2349H124.863V13.0559ZM118.082 13.0559C118.082 11.5839 119.043 10.3759 120.621 10.3759C122.128 10.3759 123.142 11.5349 123.142 13.0559C123.142 14.5769 122.128 15.7349 120.621 15.7349C119.047 15.7349 118.082 14.5259 118.082 13.0559ZM96.1025 8.65586C93.6505 8.65586 91.9325 10.4429 91.9325 13.0519C91.9325 15.7139 93.7205 17.4479 96.2245 17.4479C97.4865 17.4479 98.6405 17.1339 99.6585 16.2729L98.7665 14.9229C98.0665 15.4829 97.1715 15.7979 96.3325 15.7979C95.1575 15.7979 94.0905 15.2559 93.8285 13.7479H100.046C100.064 13.5209 100.081 13.2939 100.081 13.0479C100.057 10.4429 98.4495 8.65586 96.1025 8.65586ZM96.0625 10.2859C97.2385 10.2859 97.9905 11.0199 98.1825 12.3179H93.8395C94.0315 11.1109 94.7685 10.2859 96.0625 10.2859ZM141.765 13.0559V5.50586H139.943V9.88386C139.366 9.13186 138.488 8.65586 137.299 8.65586C134.952 8.65586 133.113 10.4959 133.113 13.0519C133.113 15.6089 134.952 17.4479 137.299 17.4479C138.492 17.4479 139.366 16.9759 139.943 16.2209V17.2349H141.765V13.0559ZM143.895 16.4689C144.037 16.4691 144.173 16.525 144.274 16.6245C144.375 16.7241 144.432 16.8592 144.434 17.0009C144.435 17.0706 144.421 17.1397 144.394 17.204C144.366 17.2683 144.327 17.3264 144.276 17.3749C144.227 17.425 144.167 17.4646 144.102 17.4916C144.036 17.5185 143.966 17.5322 143.895 17.5319C143.807 17.5324 143.72 17.5113 143.642 17.4702C143.564 17.4292 143.498 17.3695 143.448 17.2965C143.399 17.2235 143.368 17.1395 143.359 17.0518C143.35 16.9641 143.362 16.8755 143.395 16.7939C143.421 16.7306 143.461 16.6737 143.51 16.6269C143.56 16.5756 143.62 16.5352 143.687 16.508C143.753 16.4808 143.824 16.4675 143.895 16.4689ZM143.895 17.4129C144.004 17.4128 144.108 17.3701 144.185 17.2939C144.224 17.2552 144.254 17.2093 144.274 17.1588C144.295 17.1083 144.305 17.0543 144.304 16.9999C144.305 16.9192 144.282 16.8402 144.237 16.7726C144.193 16.7051 144.13 16.652 144.056 16.6199C143.98 16.588 143.896 16.5793 143.814 16.5948C143.733 16.6102 143.658 16.6492 143.598 16.7069C143.56 16.7456 143.53 16.7915 143.51 16.8419C143.489 16.8924 143.479 16.9464 143.479 17.0009C143.479 17.0822 143.503 17.1618 143.548 17.2296C143.593 17.2974 143.656 17.3504 143.731 17.3819C143.784 17.403 143.839 17.4135 143.895 17.4129ZM143.926 16.7529C143.979 16.7494 144.031 16.7639 144.073 16.7939C144.091 16.8076 144.105 16.8253 144.114 16.8455C144.123 16.8656 144.127 16.8877 144.126 16.9099C144.127 16.9287 144.123 16.9474 144.116 16.9648C144.109 16.9822 144.098 16.9979 144.084 17.0109C144.052 17.0398 144.012 17.0574 143.968 17.0609L144.129 17.2459H144.003L143.853 17.0599H143.804V17.2459H143.699V16.7529H143.926ZM143.804 16.8429V16.9759H143.926C143.95 16.9764 143.973 16.9706 143.993 16.9589C144.01 16.9489 144.017 16.9309 144.017 16.9089C144.017 16.8889 144.01 16.8709 143.993 16.8609C143.973 16.8488 143.95 16.8426 143.926 16.8429H143.804ZM134.987 13.0559C134.987 11.5839 135.949 10.3759 137.526 10.3759C139.034 10.3759 140.048 11.5349 140.048 13.0559C140.048 14.5769 139.034 15.7349 137.526 15.7349C135.949 15.7349 134.987 14.5259 134.987 13.0559ZM73.4675 13.0559V8.86586H71.6455V9.88386C71.0685 9.13186 70.1905 8.65586 69.0015 8.65586C66.6545 8.65586 64.8155 10.4959 64.8155 13.0519C64.8155 15.6089 66.6555 17.4479 69.0015 17.4479C70.1935 17.4479 71.0685 16.9759 71.6455 16.2209V17.2349H73.4675V13.0559ZM66.6895 13.0559C66.6895 11.5839 67.6515 10.3759 69.2295 10.3759C70.7365 10.3759 71.7495 11.5349 71.7495 13.0559C71.7495 14.5769 70.7365 15.7349 69.2295 15.7349C67.6515 15.7349 66.6895 14.5259 66.6895 13.0559Z"
          fill="white"
        />
      </g>
      <defs>
        <clipPath id="clip0_13736_1590">
          <rect
            width="145"
            height="26"
            fill="white"
            transform="translate(0.0065918)"
          />
        </clipPath>
      </defs>
    </svg>