<svg
      width="68"
      height="45"
      viewBox="0 0 68 45"
      fill="none"
      xmlns="http://www.w3.org/2000/svg"
    >
      <path
        d="M67.699 12.7577C64.5122 -2.80394 34.2976 -3.79034 14.8231 8.06544V9.37604C34.2769 -0.627653 61.872 -0.562985 64.3846 13.7683C65.227 18.5106 62.5558 23.4512 57.7833 26.2966V30.0155C63.5223 27.9107 69.4097 21.0999 67.699 12.7577ZM32.2989 39.9959C18.8652 41.2349 4.85989 39.2819 2.89658 28.7833C1.93604 23.6064 4.29771 18.1166 7.42592 14.7047V12.8819C1.79119 17.8225 -1.26373 24.0781 0.497828 31.464C2.74482 40.9417 14.7618 46.3075 33.1077 44.5261C40.3695 43.8216 49.8679 41.4841 56.4761 37.8567V32.7039C50.4775 36.277 40.5609 39.2311 32.2989 39.9959Z"
        fill="white"
      />
      <path
        d="M55.3894 10.4941H51.8671V26.1826C51.8671 28.0217 52.7552 29.6212 55.3894 29.8773V10.4941ZM13.4397 16.2229H9.9097L9.90625 26.4723C9.90625 28.3175 10.7995 29.9144 13.4397 30.167V16.2229ZM9.9097 14.3104H13.4294V10.9692H9.9097V14.3104ZM34.5378 30.0057C31.6881 30.0057 30.4827 28.0217 30.4827 26.0679V12.4575H33.9722V16.2194H36.602V19.0424H33.9722V25.8523C33.9722 26.6508 34.349 27.0922 35.1811 27.0922H36.602V30.0057H34.5378ZM43.8026 18.8768C42.6075 18.8768 41.6918 19.4933 41.3012 20.3219C41.0753 20.8203 40.9908 21.2109 40.9675 21.824H46.3462C46.2789 20.3219 45.5986 18.8768 43.8026 18.8768ZM40.9675 24.2055C40.9675 25.9903 42.0824 27.3078 44.0595 27.3078C45.609 27.3078 46.3729 26.8767 47.2688 25.9903L49.4278 28.0485C48.0439 29.416 46.5919 30.2446 44.0354 30.2446C40.6916 30.2446 37.491 28.4227 37.491 23.1044C37.491 18.5569 40.2907 15.9875 43.9578 15.9875C47.687 15.9875 49.8296 18.995 49.8296 22.9457V24.2055H40.9675ZM22.9243 19.0424C23.9487 19.0424 24.3763 19.5477 24.3763 20.3694V30.0264H27.8684V20.3478C27.8684 18.3879 26.8251 16.2263 23.7555 16.2263L16.542 16.222V30.0247H20.0341V19.0424H22.9243Z"
        fill="white"
      />
    </svg>