<svg width="121" height="24" viewBox="0 0 121 24" fill="none" xmlns="http://www.w3.org/2000/svg">
<path d="M25.1449 7.54545H26.5114L29.7244 15.3935H29.8352L33.0483 7.54545H34.4148V17H33.3438V9.81676H33.2514L30.2969 17H29.2628L26.3082 9.81676H26.2159V17H25.1449V7.54545ZM38.7492 17.1662C38.2999 17.1662 37.8921 17.0816 37.5259 16.9123C37.1596 16.7399 36.8688 16.4922 36.6534 16.169C36.4379 15.8428 36.3302 15.4489 36.3302 14.9872C36.3302 14.581 36.4102 14.2517 36.5703 13.9993C36.7303 13.7438 36.9442 13.5438 37.2119 13.3991C37.4797 13.2545 37.7752 13.1468 38.0983 13.076C38.4245 13.0021 38.7523 12.9437 39.0816 12.9006C39.5125 12.8452 39.8618 12.8036 40.1296 12.7759C40.4004 12.7451 40.5974 12.6944 40.7205 12.6236C40.8467 12.5528 40.9097 12.4297 40.9097 12.2543V12.2173C40.9097 11.7618 40.7851 11.4079 40.5358 11.1555C40.2896 10.9032 39.9157 10.777 39.414 10.777C38.8939 10.777 38.4861 10.8909 38.1906 11.1186C37.8952 11.3464 37.6874 11.5895 37.5674 11.848L36.5333 11.4787C36.718 11.0478 36.9642 10.7124 37.272 10.4723C37.5828 10.2292 37.9213 10.0599 38.2876 9.96449C38.6569 9.866 39.0201 9.81676 39.3771 9.81676C39.6048 9.81676 39.8664 9.84446 40.1619 9.89986C40.4604 9.95218 40.7482 10.0614 41.0252 10.2276C41.3052 10.3938 41.5376 10.6446 41.7222 10.9801C41.9069 11.3156 41.9992 11.7649 41.9992 12.3281V17H40.9097V16.0398H40.8544C40.7805 16.1937 40.6574 16.3583 40.485 16.5337C40.3127 16.7092 40.0834 16.8584 39.7972 16.9815C39.511 17.1046 39.1616 17.1662 38.7492 17.1662ZM38.9154 16.1875C39.3463 16.1875 39.7095 16.1029 40.0049 15.9336C40.3035 15.7643 40.5281 15.5458 40.6789 15.2781C40.8328 15.0103 40.9097 14.7287 40.9097 14.4332V13.4361C40.8636 13.4915 40.762 13.5423 40.6051 13.5884C40.4512 13.6315 40.2727 13.67 40.0695 13.7038C39.8695 13.7346 39.6741 13.7623 39.4833 13.7869C39.2955 13.8085 39.1432 13.8269 39.0262 13.8423C38.7431 13.8793 38.4784 13.9393 38.2322 14.0224C37.9891 14.1024 37.7921 14.224 37.6413 14.3871C37.4936 14.5471 37.4197 14.7656 37.4197 15.0426C37.4197 15.4212 37.5597 15.7074 37.8398 15.9013C38.1229 16.0921 38.4815 16.1875 38.9154 16.1875ZM47.1716 9.90909V10.8324H43.4969V9.90909H47.1716ZM44.5679 8.21023H45.6574V14.9688C45.6574 15.2765 45.702 15.5073 45.7913 15.6612C45.8836 15.812 46.0005 15.9136 46.1421 15.9659C46.2868 16.0152 46.4391 16.0398 46.5991 16.0398C46.7192 16.0398 46.8177 16.0336 46.8946 16.0213C46.9715 16.0059 47.0331 15.9936 47.0793 15.9844L47.3009 16.9631C47.227 16.9908 47.1239 17.0185 46.9915 17.0462C46.8592 17.0769 46.6915 17.0923 46.4884 17.0923C46.1806 17.0923 45.879 17.0262 45.5835 16.8938C45.2911 16.7615 45.048 16.5599 44.8541 16.2891C44.6633 16.0182 44.5679 15.6766 44.5679 15.2642V8.21023ZM51.8073 17.1477C51.124 17.1477 50.5347 16.9969 50.0392 16.6953C49.5467 16.3906 49.1667 15.9659 48.8989 15.4212C48.6342 14.8733 48.5019 14.2363 48.5019 13.5099C48.5019 12.7836 48.6342 12.1435 48.8989 11.5895C49.1667 11.0324 49.539 10.5985 50.0161 10.2876C50.4962 9.97372 51.0563 9.81676 51.6965 9.81676C52.0658 9.81676 52.4305 9.87831 52.7906 10.0014C53.1507 10.1245 53.4784 10.3246 53.7739 10.6016C54.0694 10.8755 54.3048 11.2386 54.4802 11.6911C54.6556 12.1435 54.7434 12.7005 54.7434 13.3622V13.8239H49.2774V12.8821H53.6354C53.6354 12.482 53.5554 12.125 53.3953 11.8111C53.2384 11.4972 53.0137 11.2494 52.7213 11.0678C52.432 10.8862 52.0904 10.7955 51.6965 10.7955C51.2625 10.7955 50.8871 10.9032 50.5701 11.1186C50.2561 11.331 50.0145 11.608 49.8453 11.9496C49.676 12.2912 49.5914 12.6574 49.5914 13.0483V13.6761C49.5914 14.2116 49.6837 14.6656 49.8684 15.038C50.0561 15.4073 50.3162 15.6889 50.6485 15.8828C50.9809 16.0736 51.3672 16.169 51.8073 16.169C52.0935 16.169 52.352 16.129 52.5828 16.049C52.8167 15.9659 53.0183 15.8428 53.1876 15.6797C53.3569 15.5135 53.4877 15.3073 53.58 15.0611L54.6326 15.3565C54.5218 15.7135 54.3356 16.0275 54.074 16.2983C53.8124 16.5661 53.4892 16.7753 53.1045 16.9261C52.7198 17.0739 52.2874 17.1477 51.8073 17.1477ZM56.5007 17V9.90909H57.5532V10.9801H57.6271C57.7564 10.6293 57.9903 10.3446 58.3288 10.1261C58.6673 9.90755 59.049 9.79829 59.4737 9.79829C59.5537 9.79829 59.6537 9.79983 59.7738 9.80291C59.8938 9.80599 59.9846 9.81061 60.0461 9.81676V10.9247C60.0092 10.9155 59.9246 10.9016 59.7922 10.8832C59.663 10.8616 59.526 10.8509 59.3814 10.8509C59.0367 10.8509 58.7289 10.9232 58.4581 11.0678C58.1903 11.2094 57.9779 11.4064 57.821 11.6587C57.6671 11.908 57.5902 12.1927 57.5902 12.5128V17H56.5007ZM61.4376 17V9.90909H62.5271V17H61.4376ZM61.9916 8.72727C61.7792 8.72727 61.5961 8.65495 61.4422 8.5103C61.2914 8.36565 61.216 8.19176 61.216 7.98864C61.216 7.78551 61.2914 7.61162 61.4422 7.46697C61.5961 7.32232 61.7792 7.25 61.9916 7.25C62.2039 7.25 62.3855 7.32232 62.5363 7.46697C62.6902 7.61162 62.7671 7.78551 62.7671 7.98864C62.7671 8.19176 62.6902 8.36565 62.5363 8.5103C62.3855 8.65495 62.2039 8.72727 61.9916 8.72727ZM66.7092 17.1662C66.2599 17.1662 65.8521 17.0816 65.4858 16.9123C65.1196 16.7399 64.8288 16.4922 64.6133 16.169C64.3979 15.8428 64.2902 15.4489 64.2902 14.9872C64.2902 14.581 64.3702 14.2517 64.5302 13.9993C64.6903 13.7438 64.9042 13.5438 65.1719 13.3991C65.4397 13.2545 65.7351 13.1468 66.0583 13.076C66.3845 13.0021 66.7123 12.9437 67.0416 12.9006C67.4725 12.8452 67.8218 12.8036 68.0895 12.7759C68.3604 12.7451 68.5573 12.6944 68.6804 12.6236C68.8066 12.5528 68.8697 12.4297 68.8697 12.2543V12.2173C68.8697 11.7618 68.7451 11.4079 68.4958 11.1555C68.2496 10.9032 67.8756 10.777 67.374 10.777C66.8538 10.777 66.4461 10.8909 66.1506 11.1186C65.8551 11.3464 65.6474 11.5895 65.5274 11.848L64.4933 11.4787C64.6779 11.0478 64.9242 10.7124 65.2319 10.4723C65.5428 10.2292 65.8813 10.0599 66.2475 9.96449C66.6169 9.866 66.98 9.81676 67.337 9.81676C67.5648 9.81676 67.8264 9.84446 68.1218 9.89986C68.4204 9.95218 68.7081 10.0614 68.9851 10.2276C69.2652 10.3938 69.4975 10.6446 69.6822 10.9801C69.8669 11.3156 69.9592 11.7649 69.9592 12.3281V17H68.8697V16.0398H68.8143C68.7404 16.1937 68.6173 16.3583 68.445 16.5337C68.2726 16.7092 68.0434 16.8584 67.7571 16.9815C67.4709 17.1046 67.1216 17.1662 66.7092 17.1662ZM66.8754 16.1875C67.3063 16.1875 67.6694 16.1029 67.9649 15.9336C68.2634 15.7643 68.4881 15.5458 68.6389 15.2781C68.7928 15.0103 68.8697 14.7287 68.8697 14.4332V13.4361C68.8235 13.4915 68.722 13.5423 68.565 13.5884C68.4111 13.6315 68.2326 13.67 68.0295 13.7038C67.8295 13.7346 67.634 13.7623 67.4432 13.7869C67.2555 13.8085 67.1031 13.8269 66.9862 13.8423C66.703 13.8793 66.4384 13.9393 66.1922 14.0224C65.949 14.1024 65.752 14.224 65.6012 14.3871C65.4535 14.5471 65.3797 14.7656 65.3797 15.0426C65.3797 15.4212 65.5197 15.7074 65.7998 15.9013C66.0829 16.0921 66.4414 16.1875 66.8754 16.1875ZM73.1372 7.54545V17H72.0477V7.54545H73.1372ZM82.0543 17H79.1367V7.54545H82.1836C83.1007 7.54545 83.8855 7.73473 84.538 8.11328C85.1904 8.48875 85.6905 9.02888 86.0383 9.73366C86.3861 10.4354 86.56 11.2756 86.56 12.2543C86.56 13.2391 86.3846 14.087 86.0337 14.7979C85.6828 15.5058 85.172 16.0505 84.501 16.4322C83.8301 16.8107 83.0145 17 82.0543 17ZM80.2816 15.9844H81.9804C82.7622 15.9844 83.41 15.8336 83.924 15.532C84.4379 15.2304 84.8211 14.801 85.0735 14.244C85.3258 13.6869 85.452 13.0237 85.452 12.2543C85.452 11.491 85.3274 10.8339 85.0781 10.283C84.8288 9.72905 84.4564 9.30433 83.9609 9.00888C83.4654 8.71035 82.8483 8.56108 82.1097 8.56108H80.2816V15.9844ZM91.4057 17.1477C90.7225 17.1477 90.1331 16.9969 89.6376 16.6953C89.1452 16.3906 88.7651 15.9659 88.4973 15.4212C88.2327 14.8733 88.1003 14.2363 88.1003 13.5099C88.1003 12.7836 88.2327 12.1435 88.4973 11.5895C88.7651 11.0324 89.1375 10.5985 89.6145 10.2876C90.0946 9.97372 90.6548 9.81676 91.2949 9.81676C91.6642 9.81676 92.0289 9.87831 92.389 10.0014C92.7491 10.1245 93.0769 10.3246 93.3723 10.6016C93.6678 10.8755 93.9032 11.2386 94.0787 11.6911C94.2541 12.1435 94.3418 12.7005 94.3418 13.3622V13.8239H88.8759V12.8821H93.2338C93.2338 12.482 93.1538 12.125 92.9938 11.8111C92.8368 11.4972 92.6122 11.2494 92.3198 11.0678C92.0305 10.8862 91.6889 10.7955 91.2949 10.7955C90.861 10.7955 90.4855 10.9032 90.1685 11.1186C89.8546 11.331 89.613 11.608 89.4437 11.9496C89.2744 12.2912 89.1898 12.6574 89.1898 13.0483V13.6761C89.1898 14.2116 89.2821 14.6656 89.4668 15.038C89.6545 15.4073 89.9146 15.6889 90.247 15.8828C90.5794 16.0736 90.9656 16.169 91.4057 16.169C91.6919 16.169 91.9505 16.129 92.1813 16.049C92.4152 15.9659 92.6168 15.8428 92.786 15.6797C92.9553 15.5135 93.0861 15.3073 93.1784 15.0611L94.231 15.3565C94.1202 15.7135 93.934 16.0275 93.6724 16.2983C93.4108 16.5661 93.0877 16.7753 92.7029 16.9261C92.3182 17.0739 91.8858 17.1477 91.4057 17.1477ZM101.122 11.4972L100.143 11.7741C100.082 11.611 99.9908 11.4525 99.8708 11.2987C99.7538 11.1417 99.5938 11.0124 99.3907 10.9109C99.1875 10.8093 98.9275 10.7585 98.6105 10.7585C98.1765 10.7585 97.8149 10.8585 97.5256 11.0586C97.2394 11.2556 97.0963 11.5064 97.0963 11.8111C97.0963 12.0819 97.1948 12.2958 97.3917 12.4528C97.5887 12.6097 97.8965 12.7405 98.315 12.8452L99.3676 13.1037C100.002 13.2576 100.474 13.493 100.785 13.81C101.096 14.1239 101.251 14.5286 101.251 15.0241C101.251 15.4304 101.134 15.7936 100.9 16.1136C100.669 16.4337 100.346 16.6861 99.9308 16.8707C99.5153 17.0554 99.0321 17.1477 98.4812 17.1477C97.758 17.1477 97.1594 16.9908 96.6854 16.6768C96.2114 16.3629 95.9114 15.9044 95.7852 15.3011L96.8193 15.0426C96.9178 15.4242 97.104 15.7105 97.3779 15.9013C97.6549 16.0921 98.0165 16.1875 98.4627 16.1875C98.9706 16.1875 99.3737 16.0798 99.6723 15.8643C99.9739 15.6458 100.125 15.3842 100.125 15.0795C100.125 14.8333 100.039 14.6271 99.8662 14.4609C99.6938 14.2917 99.4291 14.1655 99.0721 14.0824L97.8903 13.8054C97.2409 13.6515 96.7639 13.413 96.4592 13.0898C96.1576 12.7636 96.0068 12.3558 96.0068 11.8665C96.0068 11.4664 96.1191 11.1125 96.3438 10.8047C96.5715 10.4969 96.8808 10.2553 97.2717 10.0799C97.6656 9.90447 98.1119 9.81676 98.6105 9.81676C99.3122 9.81676 99.8631 9.97064 100.263 10.2784C100.666 10.5862 100.953 10.9924 101.122 11.4972ZM102.991 17V9.90909H104.081V17H102.991ZM103.545 8.72727C103.333 8.72727 103.15 8.65495 102.996 8.5103C102.845 8.36565 102.77 8.19176 102.77 7.98864C102.77 7.78551 102.845 7.61162 102.996 7.46697C103.15 7.32232 103.333 7.25 103.545 7.25C103.757 7.25 103.939 7.32232 104.09 7.46697C104.244 7.61162 104.321 7.78551 104.321 7.98864C104.321 8.19176 104.244 8.36565 104.09 8.5103C103.939 8.65495 103.757 8.72727 103.545 8.72727ZM109.038 19.8068C108.512 19.8068 108.06 19.7391 107.681 19.6037C107.302 19.4714 106.987 19.2959 106.735 19.0774C106.485 18.862 106.287 18.6312 106.139 18.3849L107.007 17.7756C107.106 17.9048 107.23 18.0526 107.381 18.2188C107.532 18.388 107.738 18.5342 108 18.6573C108.264 18.7835 108.61 18.8466 109.038 18.8466C109.611 18.8466 110.083 18.7081 110.456 18.4311C110.828 18.1541 111.014 17.7202 111.014 17.1293V15.6889H110.922C110.842 15.8182 110.728 15.9782 110.58 16.169C110.436 16.3568 110.226 16.5245 109.952 16.6722C109.682 16.8169 109.315 16.8892 108.854 16.8892C108.281 16.8892 107.767 16.7538 107.312 16.483C106.859 16.2121 106.501 15.8182 106.236 15.3011C105.974 14.7841 105.844 14.1562 105.844 13.4176C105.844 12.6913 105.971 12.0588 106.227 11.5202C106.482 10.9786 106.838 10.56 107.293 10.2646C107.749 9.96603 108.275 9.81676 108.872 9.81676C109.334 9.81676 109.7 9.8937 109.971 10.0476C110.245 10.1984 110.454 10.3707 110.599 10.5646C110.746 10.7554 110.86 10.9124 110.94 11.0355H111.051V9.90909H112.104V17.2031C112.104 17.8125 111.965 18.308 111.688 18.6896C111.414 19.0743 111.045 19.3559 110.58 19.5344C110.119 19.716 109.605 19.8068 109.038 19.8068ZM109.001 15.9105C109.438 15.9105 109.808 15.8105 110.109 15.6104C110.411 15.4104 110.64 15.1226 110.797 14.7472C110.954 14.3717 111.033 13.9223 111.033 13.3991C111.033 12.8883 110.956 12.4374 110.802 12.0465C110.648 11.6557 110.42 11.3494 110.119 11.1278C109.817 10.9062 109.445 10.7955 109.001 10.7955C108.54 10.7955 108.155 10.9124 107.847 11.1463C107.543 11.3802 107.313 11.6941 107.159 12.0881C107.009 12.482 106.933 12.919 106.933 13.3991C106.933 13.8916 107.01 14.3271 107.164 14.7056C107.321 15.0811 107.552 15.3765 107.856 15.592C108.164 15.8043 108.546 15.9105 109.001 15.9105ZM115.287 12.7344V17H114.198V9.90909H115.25V11.017H115.343C115.509 10.657 115.761 10.3677 116.1 10.1491C116.438 9.92756 116.875 9.81676 117.411 9.81676C117.891 9.81676 118.311 9.91525 118.671 10.1122C119.031 10.3061 119.311 10.6016 119.512 10.9986C119.712 11.3925 119.812 11.8911 119.812 12.4943V17H118.722V12.5682C118.722 12.0111 118.577 11.5772 118.288 11.2663C117.999 10.9524 117.602 10.7955 117.097 10.7955C116.749 10.7955 116.438 10.8709 116.165 11.0217C115.894 11.1725 115.68 11.3925 115.523 11.6818C115.366 11.9711 115.287 12.322 115.287 12.7344Z" fill="#FBF8E6"/>
<g opacity="0.5">
<path d="M10.5 22C15.7465 22 20 17.7465 20 12.5C20 7.25346 15.7465 3 10.5 3C5.25346 3 1 7.25346 1 12.5C1 17.7465 5.25346 22 10.5 22Z" stroke="#202426" stroke-width="1.5"/>
<path d="M3.94238 5.94238H17.0578V19.0578H3.94304V5.94304L3.94238 5.94238Z" stroke="#202426" stroke-width="1.5"/>
<path d="M16.8693 5.94238H4.13184L10.5003 18.6799L16.8693 5.94238Z" stroke="#202426" stroke-width="1.5"/>
</g>
</svg>
