<svg width="48" height="24" viewBox="0 0 48 24" fill="none" xmlns="http://www.w3.org/2000/svg">
<path d="M3.46611 3.5H12.5339C14.1707 3.5 15.5 4.82926 15.5 6.46611V15.5339C15.5 17.1707 14.1707 18.5 12.5339 18.5H3.46611C1.82926 18.5 0.5 17.1707 0.5 15.5339V6.46611C0.5 4.82926 1.82926 3.5 3.46611 3.5Z" fill="#FEDD33" stroke="#FEDD33"/>
<path d="M9.94827 16.5016L11.3188 7.93707L10.7182 7.7846L11.2596 7.32193L10.2217 5.49805H10.9761L13.7428 7.21507L10.7543 16.5016H9.94827ZM2.95663 16.5016L4.58006 9.10644L4.61499 8.94736L4.54951 8.79822L3.10056 5.49805H3.89453L6.95041 8.35192L3.75084 16.5016H2.95663ZM7.43002 5.49805L10.3148 7.80164L7.25114 16.5016H6.45103L7.94979 8.51854L7.33627 8.34222L7.90342 7.91429L6.66619 5.49805H7.43002Z" fill="#202426" stroke="#202426"/>
<path d="M21.1449 7.54545H22.5114L25.7244 15.3935H25.8352L29.0483 7.54545H30.4148V17H29.3438V9.81676H29.2514L26.2969 17H25.2628L22.3082 9.81676H22.2159V17H21.1449V7.54545ZM32.5626 17V9.90909H33.6521V17H32.5626ZM33.1166 8.72727C32.9042 8.72727 32.7211 8.65495 32.5672 8.5103C32.4164 8.36565 32.341 8.19176 32.341 7.98864C32.341 7.78551 32.4164 7.61162 32.5672 7.46697C32.7211 7.32232 32.9042 7.25 33.1166 7.25C33.3289 7.25 33.5105 7.32232 33.6613 7.46697C33.8152 7.61162 33.8921 7.78551 33.8921 7.98864C33.8921 8.19176 33.8152 8.36565 33.6613 8.5103C33.5105 8.65495 33.3289 8.72727 33.1166 8.72727ZM35.6475 17V9.90909H36.7001V10.9801H36.774C36.9032 10.6293 37.1371 10.3446 37.4757 10.1261C37.8142 9.90755 38.1958 9.79829 38.6206 9.79829C38.7006 9.79829 38.8006 9.79983 38.9206 9.80291C39.0407 9.80599 39.1315 9.81061 39.193 9.81676V10.9247C39.1561 10.9155 39.0714 10.9016 38.9391 10.8832C38.8098 10.8616 38.6729 10.8509 38.5282 10.8509C38.1835 10.8509 37.8758 10.9232 37.6049 11.0678C37.3372 11.2094 37.1248 11.4064 36.9679 11.6587C36.814 11.908 36.737 12.1927 36.737 12.5128V17H35.6475ZM43.1493 17.1477C42.5092 17.1477 41.9475 16.9954 41.4643 16.6907C40.9842 16.386 40.6087 15.9598 40.3379 15.4119C40.0701 14.8641 39.9363 14.224 39.9363 13.4915C39.9363 12.7528 40.0701 12.1081 40.3379 11.5572C40.6087 11.0063 40.9842 10.5785 41.4643 10.2738C41.9475 9.96911 42.5092 9.81676 43.1493 9.81676C43.7895 9.81676 44.3496 9.96911 44.8297 10.2738C45.3129 10.5785 45.6884 11.0063 45.9561 11.5572C46.227 12.1081 46.3624 12.7528 46.3624 13.4915C46.3624 14.224 46.227 14.8641 45.9561 15.4119C45.6884 15.9598 45.3129 16.386 44.8297 16.6907C44.3496 16.9954 43.7895 17.1477 43.1493 17.1477ZM43.1493 16.169C43.6356 16.169 44.0357 16.0444 44.3496 15.7951C44.6635 15.5458 44.8959 15.218 45.0467 14.8118C45.1975 14.4055 45.2729 13.9654 45.2729 13.4915C45.2729 13.0175 45.1975 12.5759 45.0467 12.1665C44.8959 11.7572 44.6635 11.4264 44.3496 11.174C44.0357 10.9216 43.6356 10.7955 43.1493 10.7955C42.6631 10.7955 42.263 10.9216 41.949 11.174C41.6351 11.4264 41.4028 11.7572 41.252 12.1665C41.1011 12.5759 41.0257 13.0175 41.0257 13.4915C41.0257 13.9654 41.1011 14.4055 41.252 14.8118C41.4028 15.218 41.6351 15.5458 41.949 15.7951C42.263 16.0444 42.6631 16.169 43.1493 16.169Z" fill="#FBF8E6"/>
</svg>
