<svg width="93" height="17" viewBox="0 0 93 17" fill="none" xmlns="http://www.w3.org/2000/svg">
<g clip-path="url(#clip0_13847_33152)">
<g clip-path="url(#clip1_13847_33152)">
<g clip-path="url(#clip2_13847_33152)">
<path d="M8 16.2109C12.4183 16.2109 16 12.6292 16 8.21094C16 3.79266 12.4183 0.210938 8 0.210938C3.58172 0.210938 0 3.79266 0 8.21094C0 12.6292 3.58172 16.2109 8 16.2109Z" fill="#FBF8E6"/>
<path d="M10.7762 6.88679C10.1518 4.13212 8.85032 3.3988 8.51832 2.88041C8.38142 2.65205 8.26015 2.41468 8.15533 2.16992C8.13779 2.41464 8.10557 2.56881 7.89757 2.75438C7.47992 3.12676 5.70615 4.5722 5.55688 7.70209C5.4178 10.6203 7.7022 12.4197 8.00402 12.6057C8.23609 12.7199 8.51873 12.6082 8.65659 12.5033C9.7578 11.7476 11.2624 9.73281 10.7774 6.88679" fill="#00B67A"/>
<path d="M8.25057 11.0518C8.19307 11.7741 8.15187 12.1938 8.00586 12.6066C8.00586 12.6066 8.10171 13.2942 8.169 14.0226H8.40719C8.46401 13.5097 8.55076 13.0005 8.667 12.4977C8.35866 12.3459 8.2624 11.6856 8.25057 11.0518Z" fill="#B8C4C2"/>
<path d="M8.66609 12.4981C8.35449 12.3541 8.26435 11.6799 8.25048 11.0518C8.32754 10.0157 8.35001 8.9763 8.31778 7.93784C8.30146 7.39295 8.32553 2.89102 8.18359 2.23193C8.28068 2.45516 8.39255 2.67166 8.51844 2.88001C8.85044 3.3988 10.1523 4.13213 10.7763 6.8868C11.2625 9.72793 9.76608 11.7374 8.66609 12.4981Z" fill="#12924F"/>
</g>
</g>
</g>
<path d="M21.233 2.77912H22.7045L26.1648 11.2308H26.2841L29.7443 2.77912H31.2159V12.9609H30.0625V5.22514H29.9631L26.7812 12.9609H25.6676L22.4858 5.22514H22.3864V12.9609H21.233V2.77912ZM36.6312 13.12C35.9418 13.12 35.3369 12.956 34.8166 12.6278C34.2995 12.2997 33.8952 11.8407 33.6035 11.2507C33.3152 10.6607 33.171 9.97135 33.171 9.18253C33.171 8.38707 33.3152 7.69271 33.6035 7.09943C33.8952 6.50615 34.2995 6.04545 34.8166 5.71733C35.3369 5.3892 35.9418 5.22514 36.6312 5.22514C37.3206 5.22514 37.9238 5.3892 38.4409 5.71733C38.9612 6.04545 39.3656 6.50615 39.6539 7.09943C39.9456 7.69271 40.0914 8.38707 40.0914 9.18253C40.0914 9.97135 39.9456 10.6607 39.6539 11.2507C39.3656 11.8407 38.9612 12.2997 38.4409 12.6278C37.9238 12.956 37.3206 13.12 36.6312 13.12ZM36.6312 12.0661C37.1549 12.0661 37.5858 11.9318 37.9238 11.6634C38.2619 11.3949 38.5121 11.0419 38.6745 10.6044C38.8369 10.1669 38.9181 9.69294 38.9181 9.18253C38.9181 8.67211 38.8369 8.1965 38.6745 7.75568C38.5121 7.31487 38.2619 6.95857 37.9238 6.68679C37.5858 6.41501 37.1549 6.27912 36.6312 6.27912C36.1075 6.27912 35.6767 6.41501 35.3386 6.68679C35.0005 6.95857 34.7503 7.31487 34.5879 7.75568C34.4255 8.1965 34.3443 8.67211 34.3443 9.18253C34.3443 9.69294 34.4255 10.1669 34.5879 10.6044C34.7503 11.0419 35.0005 11.3949 35.3386 11.6634C35.6767 11.9318 36.1075 12.0661 36.6312 12.0661ZM43.0558 8.36719V12.9609H41.8825V5.32457H43.016V6.51776H43.1154C43.2944 6.12997 43.5662 5.81842 43.9308 5.5831C44.2953 5.34446 44.766 5.22514 45.3427 5.22514C45.8597 5.22514 46.3121 5.3312 46.6999 5.54332C47.0877 5.75213 47.3893 6.07031 47.6048 6.49787C47.8202 6.92211 47.9279 7.45904 47.9279 8.10866V12.9609H46.7546V8.18821C46.7546 7.5883 46.5988 7.12098 46.2873 6.78622C45.9757 6.44815 45.5482 6.27912 45.0046 6.27912C44.6301 6.27912 44.2953 6.36032 44.0004 6.52273C43.7087 6.68513 43.4783 6.92211 43.3093 7.23366C43.1403 7.54522 43.0558 7.92306 43.0558 8.36719ZM53.1543 15.9837C52.5875 15.9837 52.1003 15.9107 51.6926 15.7649C51.285 15.6224 50.9453 15.4335 50.6735 15.1982C50.405 14.9661 50.1912 14.7176 50.0321 14.4524L50.9668 13.7962C51.0729 13.9354 51.2071 14.0945 51.3695 14.2734C51.5319 14.4557 51.754 14.6132 52.0357 14.7457C52.3207 14.8816 52.6936 14.9496 53.1543 14.9496C53.7708 14.9496 54.2795 14.8004 54.6806 14.5021C55.0816 14.2038 55.2821 13.7365 55.2821 13.1001V11.549H55.1827C55.0965 11.6882 54.9739 11.8606 54.8148 12.0661C54.659 12.2682 54.4337 12.4489 54.1387 12.608C53.847 12.7637 53.4526 12.8416 52.9554 12.8416C52.339 12.8416 51.7855 12.6958 51.2949 12.4041C50.8077 12.1125 50.4216 11.6882 50.1365 11.1314C49.8548 10.5746 49.714 9.89844 49.714 9.10298C49.714 8.32079 49.8515 7.63968 50.1266 7.05966C50.4017 6.47633 50.7845 6.02557 51.275 5.70739C51.7656 5.38589 52.3323 5.22514 52.9753 5.22514C53.4725 5.22514 53.8669 5.308 54.1586 5.47372C54.4535 5.63613 54.6789 5.82173 54.8347 6.03054C54.9938 6.23603 55.1164 6.40507 55.2026 6.53764H55.3219V5.32457H56.4554V13.1797C56.4554 13.8359 56.3063 14.3696 56.008 14.7805C55.713 15.1948 55.3153 15.4981 54.8148 15.6903C54.3176 15.8859 53.7641 15.9837 53.1543 15.9837ZM53.1145 11.7876C53.5852 11.7876 53.9829 11.6799 54.3077 11.4645C54.6325 11.2491 54.8794 10.9392 55.0485 10.5348C55.2175 10.1304 55.302 9.64654 55.302 9.0831C55.302 8.53291 55.2192 8.04735 55.0534 7.62642C54.8877 7.20549 54.6425 6.87571 54.3176 6.63707C53.9928 6.39844 53.5918 6.27912 53.1145 6.27912C52.6174 6.27912 52.2031 6.40507 51.8716 6.65696C51.5435 6.90885 51.2966 7.24692 51.1309 7.67116C50.9685 8.09541 50.8873 8.56605 50.8873 9.0831C50.8873 9.6134 50.9701 10.0824 51.1358 10.4901C51.3049 10.8944 51.5534 11.2126 51.8816 11.4446C52.213 11.6733 52.624 11.7876 53.1145 11.7876ZM61.7054 13.12C61.016 13.12 60.4112 12.956 59.8908 12.6278C59.3738 12.2997 58.9694 11.8407 58.6777 11.2507C58.3894 10.6607 58.2452 9.97135 58.2452 9.18253C58.2452 8.38707 58.3894 7.69271 58.6777 7.09943C58.9694 6.50615 59.3738 6.04545 59.8908 5.71733C60.4112 5.3892 61.016 5.22514 61.7054 5.22514C62.3948 5.22514 62.998 5.3892 63.5151 5.71733C64.0355 6.04545 64.4398 6.50615 64.7282 7.09943C65.0198 7.69271 65.1657 8.38707 65.1657 9.18253C65.1657 9.97135 65.0198 10.6607 64.7282 11.2507C64.4398 11.8407 64.0355 12.2997 63.5151 12.6278C62.998 12.956 62.3948 13.12 61.7054 13.12ZM61.7054 12.0661C62.2291 12.0661 62.66 11.9318 62.998 11.6634C63.3361 11.3949 63.5864 11.0419 63.7488 10.6044C63.9112 10.1669 63.9924 9.69294 63.9924 9.18253C63.9924 8.67211 63.9112 8.1965 63.7488 7.75568C63.5864 7.31487 63.3361 6.95857 62.998 6.68679C62.66 6.41501 62.2291 6.27912 61.7054 6.27912C61.1818 6.27912 60.7509 6.41501 60.4128 6.68679C60.0748 6.95857 59.8245 7.31487 59.6621 7.75568C59.4997 8.1965 59.4185 8.67211 59.4185 9.18253C59.4185 9.69294 59.4997 10.1669 59.6621 10.6044C59.8245 11.0419 60.0748 11.3949 60.4128 11.6634C60.7509 11.9318 61.1818 12.0661 61.7054 12.0661ZM70.2578 12.9609H67.1158V2.77912H70.397C71.3847 2.77912 72.2299 2.98295 72.9325 3.39062C73.6352 3.79498 74.1738 4.37666 74.5483 5.13565C74.9228 5.89134 75.1101 6.79616 75.1101 7.85014C75.1101 8.91075 74.9212 9.82386 74.5433 10.5895C74.1655 11.3518 73.6153 11.9384 72.8928 12.3494C72.1702 12.7571 71.2919 12.9609 70.2578 12.9609ZM68.3487 11.8672H70.1783C71.0201 11.8672 71.7178 11.7048 72.2713 11.38C72.8248 11.0552 73.2375 10.5928 73.5092 9.9929C73.781 9.39299 73.9169 8.67874 73.9169 7.85014C73.9169 7.02817 73.7827 6.32055 73.5142 5.72727C73.2457 5.13068 72.8447 4.6733 72.3111 4.35511C71.7775 4.03362 71.1129 3.87287 70.3175 3.87287H68.3487V11.8672ZM77.1783 12.9609V2.77912H80.7379C81.4472 2.77912 82.0322 2.90175 82.4929 3.14702C82.9536 3.38897 83.2966 3.71544 83.522 4.12642C83.7474 4.53409 83.8601 4.98651 83.8601 5.48366C83.8601 5.92116 83.7822 6.28243 83.6264 6.56747C83.474 6.85251 83.2718 7.07789 83.0199 7.24361C82.7713 7.40933 82.5012 7.53196 82.2095 7.61151V7.71094C82.5211 7.73082 82.8343 7.8402 83.1491 8.03906C83.464 8.23793 83.7275 8.52296 83.9396 8.89418C84.1518 9.26539 84.2578 9.71946 84.2578 10.2564C84.2578 10.7668 84.1418 11.2259 83.9098 11.6335C83.6778 12.0412 83.3116 12.3643 82.8111 12.603C82.3106 12.8416 81.6593 12.9609 80.8572 12.9609H77.1783ZM78.4112 11.8672H80.8572C81.6626 11.8672 82.2344 11.7114 82.5724 11.3999C82.9138 11.085 83.0845 10.7038 83.0845 10.2564C83.0845 9.91169 82.9967 9.59351 82.821 9.30185C82.6454 9.00687 82.3951 8.77154 82.0703 8.59588C81.7455 8.4169 81.361 8.32741 80.9169 8.32741H78.4112V11.8672ZM78.4112 7.25355H80.6982C81.0694 7.25355 81.4041 7.18063 81.7024 7.0348C82.004 6.88897 82.2427 6.68348 82.4183 6.41832C82.5973 6.15317 82.6868 5.84162 82.6868 5.48366C82.6868 5.03622 82.531 4.65672 82.2195 4.34517C81.9079 4.0303 81.4141 3.87287 80.7379 3.87287H78.4112V7.25355Z" fill="#FBF8E6"/>
<defs>
<clipPath id="clip0_13847_33152">
<rect width="16" height="16" fill="white" transform="translate(0 0.210938)"/>
</clipPath>
<clipPath id="clip1_13847_33152">
<rect width="16" height="16" fill="white" transform="translate(0 0.210938)"/>
</clipPath>
<clipPath id="clip2_13847_33152">
<rect width="16" height="16" fill="white" transform="translate(0 0.210938)"/>
</clipPath>
</defs>
</svg>
