<svg width="68" height="16" viewBox="0 0 68 16" fill="none" xmlns="http://www.w3.org/2000/svg">
<g clip-path="url(#clip0_13847_33125)">
<g clip-path="url(#clip1_13847_33125)">
<g clip-path="url(#clip2_13847_33125)">
<path d="M12.639 3.04785H11.7402C11.5676 3.04785 11.4277 3.18776 11.4277 3.36035V3.49726C11.4277 3.66985 11.5676 3.80976 11.7402 3.80976H12.639C12.8116 3.80976 12.9515 3.66985 12.9515 3.49726V3.36035C12.9515 3.18776 12.8116 3.04785 12.639 3.04785Z" fill="#56B3B4"/>
<path d="M4.25893 15.2383H0.3125C0.139911 15.2383 0 15.3782 0 15.5508V15.6877C0 15.8603 0.139911 16.0002 0.3125 16.0002H4.25893C4.43152 16.0002 4.57143 15.8603 4.57143 15.6877V15.5508C4.57143 15.3782 4.43152 15.2383 4.25893 15.2383Z" fill="#EA5E5E"/>
<path d="M11.8777 9.14307H9.45508C9.28249 9.14307 9.14258 9.28298 9.14258 9.45557V9.59247C9.14258 9.76506 9.28249 9.90497 9.45508 9.90497H11.8777C12.0503 9.90497 12.1902 9.76506 12.1902 9.59247V9.45557C12.1902 9.28298 12.0503 9.14307 11.8777 9.14307Z" fill="#BF85BF"/>
<path d="M8.06929 9.14307H4.88477C4.71218 9.14307 4.57227 9.28298 4.57227 9.45557V9.59247C4.57227 9.76506 4.71218 9.90497 4.88477 9.90497H8.06929C8.24188 9.90497 8.38179 9.76506 8.38179 9.59247V9.45557C8.38179 9.28298 8.24188 9.14307 8.06929 9.14307Z" fill="#EA5E5E"/>
<path d="M3.49702 9.14307H0.3125C0.139911 9.14307 0 9.28298 0 9.45557V9.59247C0 9.76506 0.139911 9.90497 0.3125 9.90497H3.49702C3.66961 9.90497 3.80952 9.76506 3.80952 9.59247V9.45557C3.80952 9.28298 3.66961 9.14307 3.49702 9.14307Z" fill="#56B3B4"/>
<path d="M4.25893 12.1904H0.3125C0.139911 12.1904 0 12.3303 0 12.5029V12.6398C0 12.8124 0.139911 12.9523 0.3125 12.9523H4.25893C4.43152 12.9523 4.57143 12.8124 4.57143 12.6398V12.5029C4.57143 12.3303 4.43152 12.1904 4.25893 12.1904Z" fill="#BF85BF"/>
<path d="M4.25893 6.09521H0.3125C0.139911 6.09521 0 6.23513 0 6.40771V6.54462C0 6.71721 0.139911 6.85712 0.3125 6.85712H4.25893C4.43152 6.85712 4.57143 6.71721 4.57143 6.54462V6.40771C4.57143 6.23513 4.43152 6.09521 4.25893 6.09521Z" fill="#BF85BF"/>
<path d="M11.877 1.52393H4.12109C3.9485 1.52393 3.80859 1.66384 3.80859 1.83643V1.97333C3.80859 2.14592 3.9485 2.28583 4.12109 2.28583H11.877C12.0496 2.28583 12.1895 2.14592 12.1895 1.97333V1.83643C12.1895 1.66384 12.0496 1.52393 11.877 1.52393Z" fill="#FF6C37"/>
<path d="M2.73512 1.52393H0.3125C0.139911 1.52393 0 1.66384 0 1.83643V1.97333C0 2.14592 0.139911 2.28583 0.3125 2.28583H2.73512C2.90771 2.28583 3.04762 2.14592 3.04762 1.97333V1.83643C3.04762 1.66384 2.90771 1.52393 2.73512 1.52393Z" fill="#EA5E5E"/>
<path d="M4.25818 13.7144H3.35938C3.18678 13.7144 3.04688 13.8543 3.04688 14.0269V14.1638C3.04688 14.3363 3.18678 14.4763 3.35938 14.4763H4.25818C4.43077 14.4763 4.57068 14.3363 4.57068 14.1638V14.0269C4.57068 13.8543 4.43077 13.7144 4.25818 13.7144Z" fill="#FF6C37"/>
<path d="M4.25818 4.57129H3.35938C3.18678 4.57129 3.04688 4.7112 3.04688 4.88379V5.02069C3.04688 5.19328 3.18678 5.33319 3.35938 5.33319H4.25818C4.43077 5.33319 4.57068 5.19328 4.57068 5.02069V4.88379C4.57068 4.7112 4.43077 4.57129 4.25818 4.57129Z" fill="#56B3B4"/>
<path d="M1.97321 13.7144H0.3125C0.139911 13.7144 0 13.8543 0 14.0269V14.1638C0 14.3363 0.139911 14.4763 0.3125 14.4763H1.97321C2.1458 14.4763 2.28571 14.3363 2.28571 14.1638V14.0269C2.28571 13.8543 2.1458 13.7144 1.97321 13.7144Z" fill="#56B3B4"/>
<path d="M1.97321 4.57129H0.3125C0.139911 4.57129 0 4.7112 0 4.88379V5.02069C0 5.19328 0.139911 5.33319 0.3125 5.33319H1.97321C2.1458 5.33319 2.28571 5.19328 2.28571 5.02069V4.88379C2.28571 4.7112 2.1458 4.57129 1.97321 4.57129Z" fill="#FF6C37"/>
<path d="M12.6403 7.61914H6.4082C6.23561 7.61914 6.0957 7.75905 6.0957 7.93164V8.06855C6.0957 8.24113 6.23561 8.38105 6.4082 8.38105H12.6403C12.8129 8.38105 12.9528 8.24113 12.9528 8.06855V7.93164C12.9528 7.75905 12.8129 7.61914 12.6403 7.61914Z" fill="#56B3B4"/>
<path d="M5.02028 7.61914H2.59766C2.42507 7.61914 2.28516 7.75905 2.28516 7.93164V8.06855C2.28516 8.24113 2.42507 8.38105 2.59766 8.38105H5.02028C5.19286 8.38105 5.33278 8.24113 5.33278 8.06855V7.93164C5.33278 7.75905 5.19286 7.61914 5.02028 7.61914Z" fill="#FF6C37"/>
<path d="M1.21131 7.61914H0.3125C0.139911 7.61914 0 7.75905 0 7.93164V8.06855C0 8.24113 0.139911 8.38105 0.3125 8.38105H1.21131C1.3839 8.38105 1.52381 8.24113 1.52381 8.06855V7.93164C1.52381 7.75905 1.3839 7.61914 1.21131 7.61914Z" fill="#EA5E5E"/>
<path d="M10.3544 3.04785H7.16992C6.99733 3.04785 6.85742 3.18776 6.85742 3.36035V3.49726C6.85742 3.66985 6.99733 3.80976 7.16992 3.80976H10.3544C10.527 3.80976 10.6669 3.66985 10.6669 3.49726V3.36035C10.6669 3.18776 10.527 3.04785 10.3544 3.04785Z" fill="#BF85BF"/>
<path d="M5.78274 3.04785H0.3125C0.139911 3.04785 0 3.18776 0 3.36035V3.49726C0 3.66985 0.139911 3.80976 0.3125 3.80976H5.78274C5.95533 3.80976 6.09524 3.66985 6.09524 3.49726V3.36035C6.09524 3.18776 5.95533 3.04785 5.78274 3.04785Z" fill="#56B3B4"/>
<path d="M9.5917 10.6665H2.59766C2.42507 10.6665 2.28516 10.8064 2.28516 10.979V11.1159C2.28516 11.2885 2.42507 11.4284 2.59766 11.4284H9.5917C9.76429 11.4284 9.9042 11.2885 9.9042 11.1159V10.979C9.9042 10.8064 9.76429 10.6665 9.5917 10.6665Z" fill="#FF6C37"/>
<path d="M1.21131 10.6665H0.3125C0.139911 10.6665 0 10.8064 0 10.979V11.1159C0 11.2885 0.139911 11.4284 0.3125 11.4284H1.21131C1.3839 11.4284 1.52381 11.2885 1.52381 11.1159V10.979C1.52381 10.8064 1.3839 10.6665 1.21131 10.6665Z" fill="#BF85BF"/>
<path d="M13.4015 4.57129H9.45508C9.28249 4.57129 9.14258 4.7112 9.14258 4.88379V5.02069C9.14258 5.19328 9.28249 5.33319 9.45508 5.33319H13.4015C13.5741 5.33319 13.714 5.19328 13.714 5.02069V4.88379C13.714 4.7112 13.5741 4.57129 13.4015 4.57129Z" fill="#EA5E5E"/>
<path d="M13.4015 6.09521H9.45508C9.28249 6.09521 9.14258 6.23513 9.14258 6.40771V6.54462C9.14258 6.71721 9.28249 6.85712 9.45508 6.85712H13.4015C13.5741 6.85712 13.714 6.71721 13.714 6.54462V6.40771C13.714 6.23513 13.5741 6.09521 13.4015 6.09521Z" fill="#FF6C37"/>
<path d="M9.59226 0H0.3125C0.139911 0 0 0.139911 0 0.3125V0.449405C0 0.621994 0.139911 0.761905 0.3125 0.761905H9.59226C9.76485 0.761905 9.90476 0.621994 9.90476 0.449405V0.3125C9.90476 0.139911 9.76485 0 9.59226 0Z" fill="#56B3B4"/>
</g>
</g>
</g>
<path d="M21.1944 11.75V1.88636H24.5273C25.3011 1.88636 25.9336 2.02603 26.4248 2.30538C26.9193 2.58151 27.2853 2.95557 27.5229 3.42756C27.7606 3.89955 27.8794 4.42612 27.8794 5.00728C27.8794 5.58844 27.7606 6.11662 27.5229 6.59182C27.2886 7.06702 26.9257 7.4459 26.4345 7.72845C25.9432 8.00779 25.3139 8.14746 24.5465 8.14746H22.1577V7.08789H24.508C25.0378 7.08789 25.4632 6.99638 25.7843 6.81337C26.1054 6.63035 26.3382 6.38312 26.4826 6.07167C26.6303 5.75701 26.7042 5.40221 26.7042 5.00728C26.7042 4.61235 26.6303 4.25916 26.4826 3.94771C26.3382 3.63626 26.1038 3.39224 25.7795 3.21564C25.4552 3.03584 25.0249 2.94593 24.4887 2.94593H22.3888V11.75H21.1944ZM29.6493 11.75V4.35227H30.7474V5.46964H30.8245C30.9593 5.1036 31.2034 4.8066 31.5565 4.57863C31.9097 4.35067 32.3079 4.23668 32.751 4.23668C32.8344 4.23668 32.9388 4.23829 33.064 4.2415C33.1892 4.24471 33.284 4.24953 33.3482 4.25595V5.41184C33.3096 5.40221 33.2214 5.38776 33.0833 5.3685C32.9484 5.34602 32.8055 5.33478 32.6546 5.33478C32.295 5.33478 31.9739 5.41024 31.6914 5.56115C31.4121 5.70884 31.1905 5.91434 31.0268 6.17762C30.8662 6.4377 30.7859 6.7347 30.7859 7.06863V11.75H29.6493ZM37.572 11.9041C36.8592 11.9041 36.2443 11.7468 35.7274 11.4321C35.2137 11.1143 34.8171 10.6712 34.5378 10.1028C34.2617 9.53132 34.1236 8.86668 34.1236 8.10893C34.1236 7.35118 34.2617 6.68333 34.5378 6.10538C34.8171 5.52422 35.2056 5.0715 35.7033 4.7472C36.2042 4.4197 36.7886 4.25595 37.4564 4.25595C37.8417 4.25595 38.2222 4.32016 38.5979 4.4486C38.9735 4.57703 39.3155 4.78573 39.6237 5.07471C39.932 5.36047 40.1776 5.73935 40.3606 6.21134C40.5436 6.68333 40.6351 7.26449 40.6351 7.95481V8.43643H34.9327V7.45392H39.4792C39.4792 7.03652 39.3958 6.66406 39.2288 6.33656C39.065 6.00906 38.8307 5.75058 38.5256 5.56115C38.2238 5.37171 37.8674 5.27699 37.4564 5.27699C37.0037 5.27699 36.612 5.38937 36.2813 5.61412C35.9538 5.83567 35.7017 6.12464 35.5251 6.48105C35.3485 6.83745 35.2602 7.21953 35.2602 7.62731V8.28232C35.2602 8.841 35.3565 9.31459 35.5492 9.7031C35.7451 10.0884 36.0164 10.3822 36.3631 10.5845C36.7099 10.7835 37.1129 10.8831 37.572 10.8831C37.8706 10.8831 38.1403 10.8413 38.3811 10.7579C38.6252 10.6712 38.8355 10.5427 39.0121 10.3726C39.1887 10.1992 39.3251 9.98405 39.4214 9.72718L40.5195 10.0354C40.404 10.4079 40.2097 10.7354 39.9368 11.0179C39.6639 11.2973 39.3267 11.5156 38.9254 11.6729C38.524 11.8271 38.0729 11.9041 37.572 11.9041ZM45.5814 4.35227V5.31552H41.7477V4.35227H45.5814ZM42.865 2.5799H44.0017V9.63086C44.0017 9.95194 44.0482 10.1928 44.1413 10.3533C44.2377 10.5106 44.3597 10.6166 44.5074 10.6712C44.6583 10.7225 44.8172 10.7482 44.9842 10.7482C45.1094 10.7482 45.2122 10.7418 45.2924 10.729C45.3727 10.7129 45.4369 10.7001 45.4851 10.6904L45.7163 11.7115C45.6392 11.7404 45.5316 11.7693 45.3936 11.7982C45.2555 11.8303 45.0805 11.8463 44.8686 11.8463C44.5475 11.8463 44.2329 11.7773 43.9246 11.6392C43.6196 11.5012 43.3659 11.2909 43.1637 11.0083C42.9646 10.7257 42.865 10.3693 42.865 9.9391V2.5799ZM50.5084 4.35227V5.31552H46.6747V4.35227H50.5084ZM47.792 2.5799H48.9287V9.63086C48.9287 9.95194 48.9752 10.1928 49.0683 10.3533C49.1647 10.5106 49.2867 10.6166 49.4344 10.6712C49.5853 10.7225 49.7442 10.7482 49.9112 10.7482C50.0364 10.7482 50.1392 10.7418 50.2194 10.729C50.2997 10.7129 50.3639 10.7001 50.4121 10.6904L50.6433 11.7115C50.5662 11.7404 50.4586 11.7693 50.3206 11.7982C50.1825 11.8303 50.0075 11.8463 49.7956 11.8463C49.4745 11.8463 49.1599 11.7773 48.8516 11.6392C48.5466 11.5012 48.2929 11.2909 48.0907 11.0083C47.8916 10.7257 47.792 10.3693 47.792 9.9391V2.5799ZM52.2182 11.75V4.35227H53.3548V11.75H52.2182ZM52.7961 3.11932C52.5746 3.11932 52.3835 3.04386 52.223 2.89296C52.0656 2.74205 51.987 2.56064 51.987 2.34872C51.987 2.13681 52.0656 1.9554 52.223 1.80449C52.3835 1.65358 52.5746 1.57812 52.7961 1.57812C53.0177 1.57812 53.2071 1.65358 53.3644 1.80449C53.525 1.9554 53.6052 2.13681 53.6052 2.34872C53.6052 2.56064 53.525 2.74205 53.3644 2.89296C53.2071 3.04386 53.0177 3.11932 52.7961 3.11932ZM58.5383 11.9041C57.8255 11.9041 57.2106 11.7468 56.6936 11.4321C56.1799 11.1143 55.7834 10.6712 55.504 10.1028C55.2279 9.53132 55.0898 8.86668 55.0898 8.10893C55.0898 7.35118 55.2279 6.68333 55.504 6.10538C55.7834 5.52422 56.1719 5.0715 56.6696 4.7472C57.1704 4.4197 57.7548 4.25595 58.4227 4.25595C58.808 4.25595 59.1884 4.32016 59.5641 4.4486C59.9398 4.57703 60.2817 4.78573 60.59 5.07471C60.8982 5.36047 61.1438 5.73935 61.3269 6.21134C61.5099 6.68333 61.6014 7.26449 61.6014 7.95481V8.43643H55.899V7.45392H60.4455C60.4455 7.03652 60.362 6.66406 60.195 6.33656C60.0313 6.00906 59.7969 5.75058 59.4919 5.56115C59.1901 5.37171 58.8337 5.27699 58.4227 5.27699C57.9699 5.27699 57.5782 5.38937 57.2475 5.61412C56.92 5.83567 56.668 6.12464 56.4914 6.48105C56.3148 6.83745 56.2265 7.21953 56.2265 7.62731V8.28232C56.2265 8.841 56.3228 9.31459 56.5154 9.7031C56.7113 10.0884 56.9826 10.3822 57.3294 10.5845C57.6762 10.7835 58.0791 10.8831 58.5383 10.8831C58.8369 10.8831 59.1066 10.8413 59.3474 10.7579C59.5914 10.6712 59.8017 10.5427 59.9783 10.3726C60.1549 10.1992 60.2914 9.98405 60.3877 9.72718L61.4858 10.0354C61.3702 10.4079 61.1759 10.7354 60.903 11.0179C60.6301 11.2973 60.293 11.5156 59.8916 11.6729C59.4903 11.8271 59.0391 11.9041 58.5383 11.9041ZM63.3304 11.75V4.35227H64.4285V5.46964H64.5056C64.6404 5.1036 64.8844 4.8066 65.2376 4.57863C65.5908 4.35067 65.989 4.23668 66.4321 4.23668C66.5155 4.23668 66.6199 4.23829 66.7451 4.2415C66.8703 4.24471 66.9651 4.24953 67.0293 4.25595V5.41184C66.9907 5.40221 66.9024 5.38776 66.7644 5.3685C66.6295 5.34602 66.4866 5.33478 66.3357 5.33478C65.9761 5.33478 65.655 5.41024 65.3725 5.56115C65.0931 5.70884 64.8716 5.91434 64.7078 6.17762C64.5473 6.4377 64.467 6.7347 64.467 7.06863V11.75H63.3304Z" fill="#FBF8E6"/>
<defs>
<clipPath id="clip0_13847_33125">
<rect width="16" height="16" fill="white"/>
</clipPath>
<clipPath id="clip1_13847_33125">
<rect width="16" height="16" fill="white"/>
</clipPath>
<clipPath id="clip2_13847_33125">
<rect width="16" height="16" fill="white"/>
</clipPath>
</defs>
</svg>
