<svg width="172" height="175" viewBox="0 0 172 175" fill="none" xmlns="http://www.w3.org/2000/svg">
<path fill-rule="evenodd" clip-rule="evenodd" d="M171.024 87.5C171.024 39.1751 132.781 0 85.6071 0C38.4328 0 0.19043 39.1751 0.19043 87.5C0.19043 135.825 38.4328 175 85.6071 175C132.781 175 171.024 135.825 171.024 87.5ZM74.93 87.5C74.93 125.9 77.9484 158.522 82.1468 170.303C81.354 169.46 80.4972 168.3 79.593 166.732C77.2255 162.629 75.0009 156.51 73.097 148.709C69.2994 133.148 66.9222 111.506 66.9222 87.5C66.9222 63.4938 69.2994 41.852 73.097 26.2913C75.0009 18.49 77.2255 12.3706 79.593 8.26752C80.4972 6.70046 81.354 5.53965 82.1468 4.6975C77.9483 16.478 74.93 49.1004 74.93 87.5ZM91.6212 166.732C90.717 168.3 89.8602 169.46 89.0674 170.303C93.2658 158.522 96.2842 125.9 96.2842 87.5C96.2842 49.1004 93.2658 16.478 89.0674 4.69748C89.8602 5.53963 90.717 6.70045 91.6212 8.26752C93.9887 12.3706 96.2133 18.49 98.1172 26.2913C101.915 41.852 104.292 63.4938 104.292 87.5C104.292 111.506 101.915 133.148 98.1172 148.709C96.2133 156.51 93.9887 162.629 91.6212 166.732ZM77.8092 168.983C76.9198 168.229 76.028 167.34 75.1364 166.31C71.598 162.221 68.2895 156.15 65.4569 148.412C59.7991 132.956 56.2451 111.421 56.2451 87.5C56.2451 63.5786 59.7991 42.0437 65.4569 26.5883C68.2895 18.8505 71.598 12.7785 75.1364 8.69019C76.028 7.66002 76.9198 6.77105 77.8092 6.01748C69.8723 18.7804 64.2529 50.4512 64.2529 87.5C64.2529 124.549 69.8723 156.22 77.8092 168.983ZM93.405 168.983C94.2944 168.229 95.1862 167.34 96.0778 166.31C99.6162 162.221 102.925 156.15 105.757 148.412C111.415 132.956 114.969 111.421 114.969 87.5C114.969 63.5786 111.415 42.0437 105.757 26.5883C102.925 18.8505 99.6162 12.7785 96.0778 8.69019C95.1862 7.66002 94.2944 6.77104 93.405 6.01747C101.342 18.7804 106.961 50.4512 106.961 87.5C106.961 124.549 101.342 156.22 93.405 168.983ZM57.7952 148.149C62.1307 157.031 67.25 163.637 72.752 167.668C61.4619 154.139 53.5758 123.335 53.5758 87.5C53.5758 51.6645 61.4619 20.8605 72.752 7.33175C67.25 11.3625 62.1307 17.9686 57.7952 26.851C50.2882 42.2312 45.568 63.67 45.568 87.5C45.568 111.33 50.2882 132.769 57.7952 148.149ZM113.419 148.149C109.084 157.031 103.964 163.637 98.4622 167.668C109.752 154.139 117.638 123.335 117.638 87.5C117.638 51.6645 109.752 20.8605 98.4622 7.33175C103.964 11.3625 109.084 17.9686 113.419 26.851C120.926 42.2312 125.646 63.67 125.646 87.5C125.646 111.33 120.926 132.769 113.419 148.149ZM67.1139 166.394C60.7923 162.224 55.0162 155.945 50.1214 147.923C40.7652 132.587 34.8909 111.232 34.8909 87.5C34.8909 63.768 40.7652 42.4125 50.1214 27.0774C55.0162 19.0548 60.7923 12.7762 67.1139 8.60615C52.7872 22.7282 42.8988 52.7482 42.8988 87.5C42.8988 122.252 52.7872 152.272 67.1139 166.394ZM104.1 166.394C110.422 162.224 116.198 155.945 121.093 147.923C130.449 132.587 136.323 111.232 136.323 87.5C136.323 63.768 130.449 42.4125 121.093 27.0774C116.198 19.0548 110.422 12.7762 104.1 8.60614C118.427 22.7282 128.315 52.7482 128.315 87.5C128.315 122.252 118.427 152.272 104.1 166.394ZM42.4435 147.731C47.7876 155.03 54.0569 160.945 60.9593 165.136C43.8814 150.541 32.2217 121.252 32.2217 87.5C32.2217 53.7477 43.8814 24.4589 60.9593 9.8638C54.0569 14.0553 47.7876 19.9695 42.4435 27.2688C31.2291 42.586 24.2139 63.872 24.2139 87.5C24.2139 111.128 31.2291 132.414 42.4435 147.731ZM128.771 147.731C123.427 155.03 117.157 160.945 110.255 165.136C127.333 150.541 138.993 121.252 138.993 87.5C138.993 53.7477 127.333 24.4588 110.255 9.86378C117.157 14.0553 123.427 19.9695 128.771 27.2688C139.985 42.586 147 63.872 147 87.5C147 111.128 139.985 132.414 128.771 147.731ZM54.274 163.838C30.2668 150.177 13.5368 121.296 13.5368 87.5C13.5368 53.7044 30.2668 24.8228 54.274 11.1623C34.7413 26.1511 21.5446 54.7206 21.5446 87.5C21.5446 120.279 34.7414 148.849 54.274 163.838ZM116.94 163.838C140.947 150.177 157.677 121.296 157.677 87.5C157.677 53.7044 140.947 24.8228 116.94 11.1623C136.473 26.1511 149.67 54.7206 149.67 87.5C149.67 120.279 136.473 148.849 116.94 163.838ZM2.8597 87.5C2.8597 120.171 20.903 148.525 47.3386 162.676C25.4955 147.402 10.8675 119.451 10.8675 87.5C10.8675 55.5489 25.4954 27.5976 47.3386 12.3244C20.903 26.475 2.8597 54.829 2.8597 87.5ZM168.354 87.5C168.354 120.171 150.311 148.525 123.876 162.676C145.719 147.402 160.347 119.451 160.347 87.5C160.347 55.5489 145.719 27.5976 123.876 12.3244C150.311 26.4749 168.354 54.829 168.354 87.5ZM90.5083 149.033C92.4229 133.342 93.6149 111.586 93.6149 87.5C93.6149 63.4142 92.4229 41.6578 90.5083 25.9673C89.5486 18.1029 88.4196 11.8673 87.2033 7.65115C87.1156 7.34722 87.0284 7.05705 86.9417 6.78037V168.22C87.0284 167.943 87.1156 167.653 87.2033 167.349C88.4196 163.133 89.5486 156.897 90.5083 149.033ZM84.2725 6.78037V168.22C84.1858 167.943 84.0986 167.653 84.0109 167.349C82.7946 163.133 81.6656 156.897 80.7059 149.033C78.7913 133.342 77.5993 111.586 77.5993 87.5C77.5993 63.4142 78.7913 41.6578 80.7059 25.9673C81.6656 18.1029 82.7946 11.8673 84.0109 7.65115C84.0986 7.34722 84.1858 7.05705 84.2725 6.78037Z" fill="url(#paint0_linear_14901_21466)"/>
<defs>
<linearGradient id="paint0_linear_14901_21466" x1="49.5719" y1="8.20313" x2="116.38" y2="179.398" gradientUnits="userSpaceOnUse">
<stop stop-color="#202426"/>
<stop offset="1" stop-color="#202426"/>
</linearGradient>
</defs>
</svg>
