<svg width="181" height="175" viewBox="0 0 181 175" fill="none" xmlns="http://www.w3.org/2000/svg">
<path d="M92.072 56.9588L93.0643 57.026L100.455 14.391L96.1819 57.414L97.1562 57.6143L110.234 16.2958L100.195 58.3843L101.134 58.7136L119.663 19.4303L104.043 59.8531L104.929 60.3048L128.577 23.7357L107.66 61.7954L108.478 62.3607L136.824 29.1319L110.982 64.1782L111.719 64.8463L144.263 35.5203L113.955 66.9605L114.598 67.7192L150.77 42.7868L116.525 70.0947L117.065 70.9304L156.24 50.8035L118.65 73.527L119.078 74.4252L160.586 59.4322L120.292 77.1984L120.603 78.1439L163.739 68.5266L121.425 81.0459L121.613 82.0232L165.65 77.9344L122.027 85.0035L122.09 85.9967L166.29 87.5L122.09 89.0033L122.027 89.9965L165.65 97.0656L121.613 92.9768L121.425 93.9541L163.739 106.473L120.603 96.8561L120.292 97.8016L160.586 115.568L119.078 100.575L118.65 101.473L156.24 124.197L117.065 104.07L116.525 104.905L150.77 132.213L114.598 107.281L113.955 108.039L144.263 139.48L111.719 110.154L110.982 110.822L136.824 145.868L108.478 112.639L107.66 113.205L128.577 151.264L104.929 114.695L104.043 115.147L119.663 155.57L101.134 116.286L100.195 116.616L110.234 158.704L97.1562 117.386L96.1819 117.586L100.455 160.609L93.0643 117.974L92.072 118.041L90.5 161.248L88.928 118.041L87.9357 117.974L80.5449 160.609L84.8181 117.586L83.8438 117.386L70.7664 158.704L80.8048 116.616L79.8662 116.286L61.3375 155.57L76.9569 115.147L76.0706 114.695L52.4229 151.264L73.3405 113.205L72.5219 112.639L44.1762 145.868L70.0176 110.822L69.2805 110.154L36.7373 139.48L67.0455 108.039L66.4017 107.281L30.2298 132.213L64.4749 104.905L63.9347 104.07L24.7596 124.196L62.3502 101.473L61.9217 100.575L20.414 115.568L60.7077 97.8016L60.3972 96.8561L17.2612 106.473L59.5755 93.9541L59.3874 92.9768L15.3501 97.0656L58.9728 89.9965L58.9098 89.0033L14.7098 87.5L58.9098 85.9967L58.9728 85.0035L15.3501 77.9344L59.3874 82.0232L59.5755 81.0459L17.2612 68.5266L60.3972 78.1439L60.7077 77.1984L20.414 59.4322L61.9217 74.4252L62.3502 73.527L24.7595 50.8035L63.9347 70.9304L64.4749 70.0947L30.2298 42.7868L66.4017 67.7192L67.0455 66.9605L36.7373 35.5204L69.2805 64.8463L70.0176 64.1782L44.1762 29.1318L72.5219 62.3607L73.3405 61.7954L52.4228 23.7357L76.0706 60.3048L76.9569 59.8531L61.3375 19.4304L79.8662 58.7136L80.8048 58.3843L70.7664 16.2958L83.8438 57.6143L84.8181 57.414L80.5449 14.391L87.9357 57.026L88.928 56.9588L90.5 13.752L92.072 56.9588Z" stroke="black"/>
</svg>
