<svg width="37" height="37" viewBox="0 0 37 37" fill="none" xmlns="http://www.w3.org/2000/svg">
<path d="M18.5 14.3889C16.2295 14.3889 14.3889 16.2295 14.3889 18.5C14.3889 20.7705 16.2295 22.6111 18.5 22.6111C20.7705 22.6111 22.6111 20.7705 22.6111 18.5C22.6111 16.2295 20.7705 14.3889 18.5 14.3889Z" fill="#FC5954"/>
<path fill-rule="evenodd" clip-rule="evenodd" d="M0 18.5C0 8.28273 8.28273 0 18.5 0C28.7173 0 37 8.28273 37 18.5C37 28.7173 28.7173 37 18.5 37C8.28273 37 0 28.7173 0 18.5ZM8.22222 18.5C8.22222 12.8237 12.8237 8.22222 18.5 8.22222C24.1763 8.22222 28.7778 12.8237 28.7778 18.5C28.7778 24.1763 24.1763 28.7778 18.5 28.7778C12.8237 28.7778 8.22222 24.1763 8.22222 18.5Z" fill="#FC5954"/>
</svg>
