<svg width="390" height="49" viewBox="0 0 390 49" fill="none" xmlns="http://www.w3.org/2000/svg">
<path d="M389.97 13.9641V48.016H0.0305176C0.0305176 43.2567 0.0305176 38.5031 0.0305176 33.7438C0.196174 33.7164 0.372873 33.7164 0.521966 33.6502C0.902976 33.4798 1.27847 33.4797 1.67604 33.5842C1.85274 33.6282 2.05153 33.6336 2.23375 33.6062C2.64237 33.5568 3.04547 33.474 3.44856 33.4081C3.95657 33.5457 4.4646 33.6941 5.00021 33.6282C5.07201 33.6173 5.15482 33.6282 5.2211 33.6559C5.39226 33.7218 5.55241 33.6721 5.71806 33.6559C6.06595 33.6282 6.36411 33.4797 6.64575 33.353C6.78377 33.353 6.89975 33.3587 7.01017 33.353C7.33046 33.3256 7.60102 33.4301 7.81086 33.6721C7.88265 33.7546 7.971 33.8317 8.05381 33.9088C8.28575 34.1289 8.55631 34.2279 8.87657 34.162C9.0036 34.1343 9.1306 34.118 9.24655 34.096C9.3349 34.1343 9.40116 34.1674 9.46741 34.2005C9.96991 34.426 10.4779 34.6076 11.0412 34.4645C11.1461 34.4371 11.262 34.4811 11.3725 34.4865C11.4277 34.4865 11.4829 34.4865 11.5381 34.4865C11.6596 34.3875 11.7701 34.2996 11.8971 34.1948C12.4492 34.2996 12.9738 34.1123 13.5371 34.0575C13.8628 33.7932 14.2439 33.6833 14.6525 33.8317C14.7905 33.7546 14.9065 33.6941 15.0059 33.6447C15.2985 33.7218 15.5746 33.7878 15.8176 33.8537C16.2759 33.6559 16.4802 33.6282 17.0545 33.6667C17.3251 33.5183 17.5846 33.3422 17.695 33.0396C17.8441 33.0285 17.9601 33.0781 18.0926 33.0065C18.4405 32.8195 18.827 32.7479 19.2191 32.7093C19.3461 32.6985 19.4731 32.6599 19.589 32.638C19.716 32.4507 19.8265 32.2803 19.9369 32.1207C20.0473 32.0548 20.1467 31.9997 20.2406 31.9446C20.34 31.8952 20.4394 31.851 20.5333 31.7905C20.8922 31.565 21.1462 31.1853 21.61 31.0808C21.7426 30.6958 22.2119 30.6627 22.3997 30.3655C22.4604 30.261 22.3941 30.1454 22.5156 30.0903C22.6316 30.1346 22.7475 30.1785 22.8525 30.2171C23.2556 29.9693 23.7028 29.975 24.1225 29.9308C24.4207 29.8979 24.7189 29.8648 24.9949 29.7549C25.0557 29.6833 25.1164 29.6173 25.1661 29.5568C25.4312 29.4686 25.7018 29.6833 25.9778 29.4686C26.0165 29.3641 26.0662 29.2266 26.1214 29.0727C26.3589 29.0342 26.5963 28.9899 26.8337 28.9514C26.8779 28.8084 26.9166 28.6819 26.9607 28.5444C27.1043 28.5169 27.2479 28.4894 27.3804 28.4674C27.5405 28.5279 27.6896 28.6434 27.8111 28.6214C28.0375 28.5829 28.2032 28.7039 28.3578 28.7536C28.5676 28.7259 28.6505 28.6049 28.7333 28.4784C28.761 28.4344 28.8161 28.4123 28.8657 28.3738C28.9762 28.4123 29.0813 28.4453 29.1749 28.4784C29.2688 28.4508 29.3516 28.4123 29.4455 28.4013C29.5451 28.3903 29.6553 28.5004 29.7384 28.3518C29.6941 28.2748 29.6445 28.1977 29.6002 28.1152C29.6002 28.1042 29.6114 28.0877 29.6168 28.0712C29.9482 28.1996 30.2702 28.1831 30.5831 28.0217C30.804 27.9997 31.0027 27.9777 31.2017 27.9557C31.2182 27.8346 31.2348 27.7466 31.2513 27.6475C31.5882 27.6586 31.925 27.7081 32.223 27.631C32.5268 27.477 32.7423 27.2789 32.8859 27.0148C33.2447 26.9928 33.5815 26.9708 33.9127 26.9543C34.1944 26.7067 34.5809 26.9488 34.8404 26.7287C34.9563 26.7727 35.0394 26.8057 35.0999 26.8278C35.2161 26.7342 35.3097 26.6517 35.4036 26.5747C35.5252 26.6242 35.63 26.6627 35.7074 26.6902C36.0222 26.5196 36.3202 26.3601 36.624 26.195C36.7125 26.2225 36.8172 26.2555 36.9166 26.2885C37.0713 26.239 37.2149 26.1895 37.3585 26.14C37.5298 25.9419 37.7007 25.7439 37.8774 25.5403C38.093 25.6283 38.2697 25.7989 38.5126 25.7439C38.8052 25.6778 39.1035 25.7439 39.4015 25.6723C39.5948 25.6228 39.8268 25.5788 39.9978 25.6448C40.2685 25.7494 40.5445 25.7604 40.7766 25.8264C41.0526 25.7989 41.2347 25.5843 41.4722 25.6448C41.5716 25.5623 41.6544 25.4908 41.7374 25.4247C41.903 25.4523 42.052 25.4743 42.1845 25.4908C42.2841 25.4027 42.3723 25.3367 42.4551 25.2597C42.549 25.2927 42.6318 25.3257 42.7368 25.3642C42.9135 25.3147 43.1288 25.3257 43.2835 25.1882C43.4048 25.0011 43.3663 24.8085 43.3828 24.6269H43.3774C43.5375 24.7865 43.6977 24.9406 43.8909 25.1221C43.9737 25.1221 44.1008 25.1111 44.2386 25.1056C44.4319 24.9626 44.6252 24.8195 44.8295 24.66C44.962 24.682 45.1056 24.704 45.2769 24.7315C45.4921 24.6435 45.7185 24.5554 45.9891 24.4454C46.1218 24.4839 46.3039 24.5884 46.4752 24.5664C46.6905 24.5389 46.8837 24.5829 47.099 24.6049C47.2482 24.5499 47.4027 24.4949 47.5794 24.4289C47.6071 24.3188 47.6291 24.2143 47.6567 24.1098C47.679 24.0107 47.5354 23.9062 47.6899 23.7906C47.8446 23.9062 48.0047 24.0217 48.1923 24.1648C48.3027 24.0272 48.4024 23.9007 48.496 23.7852C48.5845 23.7686 48.6618 23.7576 48.695 23.7521C48.822 23.7136 48.8054 23.5596 48.9433 23.5761C49.0261 23.6861 49.1092 23.7961 49.1974 23.9117C49.4109 23.7246 49.6062 23.6439 49.7829 23.6696C49.8434 23.7576 49.8987 23.8457 49.965 23.9502C50.0478 23.9282 50.114 23.9062 50.2133 23.8842C50.2853 23.6146 50.3569 23.3505 50.4343 23.0809C50.5005 23.1359 50.5667 23.1964 50.6387 23.2515C50.7546 23.2405 50.8705 23.2294 50.9921 23.2184C51.1025 23.3065 51.2184 23.3945 51.2901 23.455C51.732 23.5816 52.0246 23.323 52.3834 23.2074C52.6209 23.2294 52.8695 23.235 53.1233 23.1139C53.2229 23.0644 53.3608 23.0809 53.4878 23.0259C53.5818 22.9818 53.7253 23.0644 53.8524 23.0754C54.0014 23.0864 54.1504 23.0754 54.3382 23.0754C54.5592 22.7673 54.8187 22.4702 55.2771 22.4316C55.3653 22.4977 55.4647 22.5747 55.5586 22.6462C55.691 22.5912 55.8126 22.5362 55.8734 22.5087C56.2157 22.4977 56.387 22.7618 56.6299 22.7948C56.8948 22.6462 57.1377 22.5087 57.381 22.3711L57.4084 22.4042L57.3752 22.3766C57.4415 22.3656 57.5188 22.3271 57.5796 22.3381C57.6844 22.3546 57.784 22.4042 57.9053 22.4482C57.9827 22.2941 58.0489 22.1675 58.1317 22.0135H58.7834C58.8939 21.8869 58.9878 21.7769 59.076 21.6834C59.1148 21.6724 59.1314 21.6669 59.1534 21.6669C59.573 21.7219 59.9815 21.7439 60.3075 21.4028C60.3295 21.3753 60.3737 21.3643 60.4068 21.3588C60.7822 21.2542 61.0751 21.0232 61.2626 20.8251C61.5995 20.66 61.8481 20.5445 62.1407 20.4014C62.312 20.4454 62.5327 20.5005 62.7039 20.5445C63.0739 20.495 63.3996 20.4454 63.7199 20.4014C63.7364 20.2804 63.7476 20.1868 63.7587 20.0823C63.9463 20.0823 64.1287 20.0768 64.3108 20.0823C64.4986 20.0878 64.6862 20.1373 64.8686 20.1153C65.0507 20.0988 65.222 20.0218 65.4207 19.9613C65.5974 20.1098 65.7795 20.2694 65.9619 20.4289C66.0832 20.5335 66.216 20.583 66.3761 20.539C66.4423 20.4729 66.5028 20.4069 66.5197 20.3904H67.6735C67.7289 20.4234 67.8117 20.4619 67.8833 20.5225C68.0546 20.6655 68.2533 20.704 68.4634 20.6875C68.5736 20.682 68.6952 20.682 68.8002 20.6435C69.0209 20.561 69.2418 20.583 69.4405 20.6435C69.5456 20.5775 69.6229 20.528 69.7388 20.4564C69.9872 20.594 70.2578 20.5555 70.5338 20.4674C70.6223 20.4399 70.7217 20.4564 70.8156 20.4509C71.0585 20.4344 71.296 20.4124 71.6329 20.3849C71.8538 20.4454 72.1629 20.4785 72.4721 20.4289C72.5275 20.3299 72.566 20.2529 72.6157 20.1648C72.7813 20.2198 72.9414 20.2694 73.0961 20.3189C73.2066 20.2694 73.3059 20.2198 73.4053 20.1758C73.4938 20.2089 73.582 20.2364 73.6428 20.2584C73.8249 20.2144 73.9908 20.1428 74.1509 20.1373C74.4766 20.1373 74.7803 20.0438 75.0841 19.9227C75.3712 20.0493 75.6307 19.9557 75.8514 19.8292C76.3595 19.9062 76.8234 19.9007 77.2927 19.8292C77.7565 19.7522 78.2258 19.7302 78.6897 19.6862C78.7451 19.6862 78.8056 19.6862 78.8556 19.7082C79.0819 19.7742 79.3026 19.7412 79.5236 19.6916C79.8161 19.6256 80.109 19.5651 80.4016 19.5046C80.5506 19.4771 80.6997 19.4331 80.8432 19.4441C81.5392 19.4881 82.2237 19.301 82.914 19.3725C83.3447 19.2735 83.7698 19.3946 84.2005 19.4001C84.4215 19.4001 84.6644 19.4221 84.8577 19.5156C85.0897 19.6311 85.3161 19.6862 85.559 19.6531C85.7965 19.6201 86.0395 19.6642 86.2713 19.5266C86.4037 19.4496 86.5973 19.4551 86.7628 19.4551C86.9395 19.4551 87.1382 19.4111 87.2984 19.5266C87.2872 19.6311 87.2764 19.7192 87.2598 19.8292C87.5967 19.9227 87.9112 20.0438 88.2261 19.9117C88.5353 19.9833 88.8059 20.1043 89.0819 20.1043C89.4907 20.1043 89.8606 20.1868 90.2249 20.3464C90.258 20.3629 90.2968 20.3574 90.3465 20.3629C90.3796 20.3299 90.4127 20.2859 90.457 20.2529C90.4955 20.2144 90.5398 20.1813 90.5948 20.1428C90.6668 20.1538 90.7384 20.1593 90.8104 20.1758C90.8435 20.1868 90.8655 20.2198 90.9043 20.2474C90.9151 20.3134 90.9317 20.3849 90.954 20.4894C91.4841 20.4069 91.9919 20.4509 92.3784 20.748C92.6933 20.748 92.9419 20.7095 93.1737 20.7591C93.4278 20.8141 93.6872 20.8416 93.9413 20.9021C94.0295 20.9241 94.1454 20.9131 94.2119 20.9626C94.4934 21.1772 94.8191 21.1332 95.134 21.1167C95.3934 21.1057 95.6421 21.0396 95.8519 20.9241C95.885 20.7976 95.7468 20.7205 95.8462 20.6215C96.2107 20.616 96.5641 20.682 96.9229 20.8031C97.2875 20.9296 97.6629 21.0506 98.0163 21.2102C98.1159 21.1332 98.2041 21.0617 98.3034 20.9846C98.3919 21.0397 98.4858 21.1002 98.5906 21.1662H98.9055C98.9994 21.2707 99.0876 21.3698 99.1484 21.4358C99.3582 21.4468 99.5238 21.4523 99.6896 21.4743C99.8386 21.4963 99.9822 21.5734 100.126 21.5623C100.264 21.5568 100.396 21.4688 100.518 21.4248C100.606 21.4633 100.672 21.4908 100.711 21.5073C100.91 21.3808 101.076 21.2707 101.285 21.1387C101.363 21.2432 101.424 21.3313 101.462 21.3808C101.71 21.4028 101.915 21.4193 102.13 21.4358C102.368 21.3588 102.627 21.2927 102.87 21.1992C103.113 21.1057 103.34 20.9846 103.582 20.8746C103.676 20.9571 103.754 21.0286 103.825 21.0947C103.87 21.0617 103.908 21.0287 103.941 21.0067C104.079 21.1222 104.212 21.2212 104.339 21.3313C104.477 21.2597 104.588 21.1992 104.687 21.1442C104.968 21.1442 105.162 21.2762 105.283 21.4578C105.554 21.3863 105.786 21.3202 105.99 21.2652C106.062 21.3037 106.095 21.3202 106.128 21.3367C106.161 21.3533 106.194 21.3643 106.228 21.3808C106.343 21.3313 106.459 21.2872 106.581 21.2377C106.713 21.3478 106.829 21.4413 106.962 21.5513C107.166 21.5734 107.392 21.6394 107.608 21.6064C107.928 21.5623 108.243 21.5788 108.563 21.5788C108.729 21.5788 108.889 21.5568 109.182 21.5403C109.347 21.5568 109.629 21.6559 109.944 21.6119C110.247 21.5678 110.573 21.6724 110.877 21.5238C110.905 21.4578 110.926 21.3918 110.954 21.3313C111.109 21.4413 111.252 21.5623 111.407 21.6504C111.567 21.7384 111.749 21.7989 111.92 21.876C112.125 21.8264 112.279 21.6614 112.506 21.6779C112.727 21.6999 112.953 21.6779 113.19 21.6779C113.428 22.0685 113.848 22.107 114.262 22.1675C114.566 22.063 114.869 22.2391 115.184 22.1675C115.239 22.1125 115.167 21.975 115.339 21.953C115.808 22.3766 116.377 22.4427 116.99 22.2776C117.481 22.3931 118.006 22.3931 118.381 22.7563H118.685C118.729 22.8443 118.773 22.9213 118.806 22.9929C119.038 23.0644 119.248 23.1524 119.469 23.1909C119.684 23.2294 119.911 23.2239 120.087 23.235C120.303 23.1359 120.347 22.8993 120.601 22.8883C120.662 23.0589 120.717 23.2185 120.778 23.3835C121.037 23.29 121.264 23.1964 121.507 23.2955C121.606 23.3835 121.705 23.466 121.799 23.5431C121.932 23.532 122.042 23.5211 122.119 23.5155C122.368 23.6366 122.578 23.7686 122.804 23.8512C123.053 23.9392 123.13 24.2143 123.274 24.2803C123.616 24.3408 123.87 24.3849 124.168 24.4344C124.378 24.3684 124.626 24.2858 124.875 24.2033C124.985 24.2363 125.09 24.2693 125.223 24.3134C125.295 24.2088 125.366 24.1043 125.438 23.9997C125.549 24.0933 125.615 24.1538 125.692 24.2198C125.847 24.0547 125.979 23.9062 126.101 23.7741C126.399 23.7631 126.636 23.9557 126.857 23.8952C127.072 23.8292 127.1 23.5981 127.299 23.5871C127.409 23.6586 127.343 23.8677 127.525 23.8732C127.724 23.8237 127.569 23.5816 127.763 23.4935C127.917 23.4495 128.056 23.532 128.171 23.6696C128.282 23.7961 128.354 23.9612 128.635 23.9997C129.027 23.8017 129.425 24.0327 129.817 24.2308C130.032 24.1978 130.231 24.1373 130.441 24.1978C130.579 24.2363 130.739 24.2033 130.888 24.1868C131.109 24.1648 131.324 24.1263 131.545 24.0933C131.545 24.0162 131.556 23.9337 131.562 23.8347C131.744 23.8182 131.91 23.8017 132.097 23.7852C132.318 23.6531 132.55 23.51 132.81 23.356C132.893 23.422 132.987 23.51 133.086 23.5871C133.13 23.6201 133.185 23.6311 133.246 23.6586C133.362 23.6036 133.484 23.5485 133.588 23.5045C133.732 23.5156 133.864 23.5265 133.986 23.532C134.085 23.3945 134.174 23.279 134.284 23.1304C134.709 23.2405 135.14 23.2129 135.587 23.1029C135.803 22.9818 136.029 22.8168 136.311 22.7508C136.344 22.8498 136.377 22.9323 136.41 23.0259C136.764 23.1854 137.018 23.0094 137.238 22.8113C137.487 22.7728 137.708 22.7398 137.928 22.7013C138.337 22.6242 138.729 22.5032 139.116 22.3491C139.204 22.2666 139.309 22.2336 139.425 22.2501C139.591 22.2721 139.756 22.2996 139.9 22.3216C140.027 22.2611 140.126 22.2116 140.242 22.1566C140.568 22.2501 140.899 22.2721 141.22 22.1731C141.496 22.0905 141.452 21.8044 141.562 21.6449C141.932 21.4468 142.285 21.7549 142.644 21.6339C142.595 21.5348 142.556 21.4578 142.517 21.3808C142.771 21.2762 142.948 21.5073 143.18 21.5018C143.274 21.4578 143.373 21.4083 143.462 21.3588C144.003 21.5128 144.461 21.2102 144.947 21.1662C145.063 21.0396 145.162 20.9241 145.24 20.8361C145.593 20.6765 145.924 20.5555 146.283 20.5005C146.598 20.4509 146.896 20.3409 147.172 20.2694C147.277 20.1318 147.354 20.0328 147.415 19.9448C147.63 19.9392 147.824 19.9668 147.995 19.9172C148.166 19.8677 148.315 19.7357 148.481 19.6311C148.597 19.6531 148.707 19.6586 148.812 19.6916C149.105 19.7852 149.375 19.7467 149.613 19.5651C149.939 19.312 150.287 19.246 150.607 19.3616C151.142 19.3285 151.369 18.8664 151.794 18.7233C151.811 18.8223 151.827 18.9269 151.844 19.0424C151.954 19.0424 152.048 19.0589 152.131 19.0424C152.219 19.0204 152.308 18.9269 152.385 18.9434C152.655 18.9874 152.904 18.8608 153.164 18.8499C153.307 18.8499 153.467 18.8003 153.589 18.7233C153.892 18.5252 154.229 18.4207 154.594 18.3437C154.693 18.2116 154.787 18.0796 154.897 17.942C154.969 18.0026 155.035 18.0741 155.113 18.1181C155.223 18.1786 155.328 18.1676 155.405 18.0466C155.4 17.964 155.389 17.8815 155.383 17.7935C155.67 17.832 155.654 18.1456 155.869 18.2721C156.256 18.1951 156.659 18.1181 157.062 18.0411C157.161 17.953 157.255 17.865 157.365 17.7715H157.835C157.796 17.6284 157.769 17.5074 157.741 17.3973C157.995 17.1717 158.31 17.4248 158.564 17.2653C158.597 17.2433 158.669 17.2818 158.719 17.2928C158.945 17.3588 159.188 17.3313 159.365 17.2103C159.541 17.0837 159.735 17.1772 159.972 17.0452C160.016 16.9902 160.116 16.8801 160.204 16.7756C160.463 16.6766 160.745 16.7041 160.955 16.5005V16.1099C161.065 16.0548 161.159 16.0108 161.259 15.9613C161.507 16.0823 161.756 16.1539 162.01 16.0714C162.065 16.2144 162.109 16.3299 162.153 16.4455C162.324 16.4015 162.462 16.374 162.6 16.3299C162.738 16.2914 162.877 16.2419 163.031 16.1924C163.092 16.2474 163.158 16.3079 163.213 16.3684C163.269 16.3189 163.313 16.2364 163.379 16.2199C163.771 16.1044 164.147 15.9063 164.577 15.9338C164.787 15.9448 165.014 15.9228 165.146 15.7522C165.334 15.5211 165.604 15.4386 165.803 15.2846C166.184 15.2956 166.537 15.3066 166.885 15.3176C167.073 15.147 167.233 15.3671 167.41 15.3506C167.846 15.3121 168.122 14.9544 168.498 14.8224C168.525 14.7124 168.553 14.6243 168.575 14.5253C168.895 14.4923 169.26 14.5583 169.436 14.1677C169.403 14.0411 169.37 13.9201 169.343 13.8155C169.508 13.656 169.591 13.8596 169.757 13.854C170.226 13.678 170.778 13.6064 171.17 13.3093C171.402 13.2433 171.59 13.4139 171.778 13.2488C171.722 13.1388 171.673 13.0453 171.618 12.9462C171.585 12.8802 171.546 12.8142 171.607 12.7536C171.778 12.7536 171.943 12.7536 172.115 12.7536C172.148 12.7536 172.181 12.7867 172.214 12.7977C172.291 12.9242 172.363 13.0508 172.429 13.1553C172.656 13.2708 172.855 13.2488 173.081 13.1718C173.147 13.0782 173.219 12.9737 173.307 12.8472C173.661 12.7591 173.882 12.484 174.064 12.1649C174.185 12.2145 174.29 12.253 174.406 12.297C174.528 12.2199 174.649 12.1429 174.804 12.0439C175.085 12.1484 175.312 11.9558 175.51 11.8348C175.781 11.8128 176.002 11.7908 176.228 11.7743C176.4 11.7578 176.543 11.6807 176.687 11.5817C177.073 11.3231 177.228 10.927 177.366 10.5143C177.405 10.3933 177.438 10.2612 177.487 10.1457C177.515 10.0742 177.576 10.0301 177.664 10.0852C177.774 10.2337 177.565 10.4043 177.703 10.5914C177.786 10.4648 177.846 10.3548 177.923 10.2557C177.957 10.2172 178.017 10.2062 178.067 10.1787C178.156 10.2557 178.233 10.3327 178.31 10.3988C178.857 10.3493 179.16 10.0356 179.332 9.57899C179.282 9.43592 179.238 9.31489 179.193 9.18835L179.188 9.19386C179.315 9.27087 179.442 9.34241 179.553 9.41391C179.895 9.30387 179.994 8.99028 180.215 8.78118C180.43 8.69315 180.751 8.74268 180.817 8.44558C180.845 8.242 180.602 8.13747 180.707 7.95589C180.927 7.90086 180.922 8.21999 181.126 8.17597C181.22 8.01641 181.308 7.86235 181.397 7.7138C181.347 7.58726 181.308 7.48273 181.281 7.40018C181.447 7.19663 181.601 7.01505 181.778 6.79497C182.082 6.75646 182.429 6.71245 182.761 6.66843C182.868 6.4777 182.844 6.30528 182.689 6.15123C182.744 6.0467 182.805 5.95866 182.948 6.0137C183.07 6.12374 182.987 6.36583 183.181 6.40984C183.501 6.42083 183.429 6.10173 183.6 5.96417C183.655 5.96417 183.727 5.96417 183.799 5.97516C183.893 5.98618 183.981 6.00268 184.058 6.01918C184.279 5.90914 184.467 5.7661 184.682 5.71106C184.986 5.63405 185.174 5.45799 185.306 5.19389C185.351 5.11136 185.411 5.03983 185.478 4.94629C185.704 4.88577 185.975 4.87478 186.168 4.75373C186.494 4.53915 186.83 4.53364 187.195 4.55565C187.25 4.55565 187.305 4.53915 187.366 4.52814C187.504 4.4401 187.642 4.34659 187.758 4.26955C188.459 4.17053 188.525 4.13199 188.857 3.56529C188.862 3.30119 188.697 3.0261 188.879 2.72899C189.094 2.66847 189.299 2.54743 189.437 2.32735C189.464 2.28333 189.531 2.26683 189.591 2.22831C189.746 2.23381 189.912 2.24482 190.05 2.25032C190.322 2.11093 190.526 1.93854 190.663 1.73313C190.751 1.71662 190.839 1.70012 190.95 1.68361C191.237 1.33149 191.668 1.11691 191.977 0.759277C192.126 0.583212 192.314 0.379639 192.568 0.352127C192.91 0.308111 193.219 0.198072 193.512 0C193.65 0.0825299 193.777 0.159558 193.882 0.22008C194.031 0.231084 194.158 0.242088 194.274 0.24759C194.357 0.352127 194.417 0.434659 194.484 0.522691C194.533 0.473172 194.567 0.429156 194.605 0.390643C194.81 0.374135 195.008 0.352127 195.213 0.335622C195.229 0.335622 195.251 0.335622 195.268 0.346626C195.284 0.346626 195.301 0.357631 195.345 0.379639C195.395 0.473172 195.456 0.588713 195.522 0.715261C195.677 0.79229 195.842 0.874819 195.997 0.957348C196.068 0.924335 196.124 0.907831 196.174 0.885823C196.223 0.863815 196.278 0.847307 196.328 0.825299C196.46 0.902327 196.587 0.979356 196.714 1.05088C196.742 1.06739 196.786 1.05088 196.847 1.05088C196.886 1.00687 196.935 0.957348 196.957 0.93534C197.04 0.737269 196.869 0.577709 196.996 0.379639C197.057 0.462168 197.112 0.517188 197.14 0.577709C197.189 0.698754 197.211 0.830802 197.261 0.951847C197.388 1.25996 197.571 1.50755 197.941 1.55156C198.09 1.56807 198.239 1.60108 198.41 1.62859C198.758 1.37 199.061 1.59558 199.382 1.73313C199.652 1.79915 199.923 1.85967 200.287 1.94771C200.917 1.9257 201.524 1.89269 201.811 2.1898C201.701 2.27783 201.596 2.36036 201.463 2.4649C201.701 2.61345 201.839 2.38237 202.043 2.39337C202.143 2.4649 202.264 2.54743 202.38 2.62446C202.496 2.59694 202.601 2.56944 202.722 2.54192C202.938 3.0096 203.435 2.99859 203.766 3.22968C203.937 3.19666 204.081 3.17465 204.186 3.15264C204.649 3.31772 205.069 3.47177 205.412 3.59831C205.726 3.61481 205.969 3.63131 206.201 3.64784C206.295 3.8239 206.422 3.92293 206.599 3.95595C206.814 3.99994 207.035 4.04396 207.283 4.09899C207.388 4.05498 207.526 3.99446 207.653 3.93943C207.786 4.04396 207.896 4.1375 208.012 4.22553C208.123 4.19253 208.211 4.154 208.305 4.14852C208.636 4.121 208.923 4.01096 209.15 3.75788C209.167 3.74135 209.222 3.75788 209.255 3.75788C209.316 3.86792 209.376 3.97793 209.42 4.06048C209.735 4.13199 209.895 3.86792 210.127 3.8404C210.541 4.05498 210.944 3.8404 211.347 3.82938C211.729 4.08249 212.159 4.19801 212.59 4.31356C212.822 4.26404 213.043 4.20903 213.264 4.16502C213.357 4.14852 213.451 4.13199 213.518 4.22002C213.518 4.4401 213.558 4.61985 213.639 4.75923C213.954 4.69872 214.28 4.6327 214.622 4.56116C214.694 4.62168 214.777 4.6877 214.865 4.76474C215.163 4.80876 215.461 4.81975 215.732 4.77573C215.958 4.6547 215.997 4.37959 216.257 4.29706C216.306 4.39609 216.356 4.49514 216.417 4.61069C216.306 4.70971 216.212 4.79223 216.118 4.88027C216.058 4.9353 216.024 4.99582 216.096 5.08936C216.339 5.13337 216.593 5.1829 216.742 5.21039C217.112 5.1829 217.372 5.14436 217.632 5.14987C217.946 5.14987 218.261 5.27641 218.576 5.16637C218.609 5.15538 218.653 5.16637 218.686 5.17739C218.957 5.29294 219.238 5.24341 219.531 5.19389C219.697 5.49649 219.995 5.56252 220.31 5.63405C220.486 5.90914 220.768 6.0467 221.072 6.12374C221.232 6.0687 221.37 6.02469 221.53 5.96968C221.646 6.11823 221.707 6.32181 221.949 6.3328C222.066 6.29429 222.204 6.25028 222.331 6.21177C222.413 6.30528 222.474 6.37131 222.502 6.40434C222.734 6.42083 222.933 6.38784 223.098 6.44835C223.567 6.6299 224.031 6.83899 224.539 6.8995C224.733 7.04257 224.953 7.05356 225.119 7.02604C225.296 7.19112 225.428 7.31766 225.577 7.45522C225.914 7.53223 226.24 7.60927 226.577 7.68629C226.853 7.87702 227.162 7.91556 227.505 7.80184C227.731 7.90637 227.968 8.0109 228.195 8.11546C228.3 8.08243 228.388 8.05492 228.41 8.04943C228.653 8.09345 228.835 8.13196 229.017 8.15948C229.2 8.19247 229.393 8.19798 229.57 8.24751C229.901 8.34653 230.232 8.32452 230.569 8.32452C230.696 8.32452 230.829 8.32452 230.956 8.33554C231.121 8.35755 231.287 8.40156 231.469 8.44007C231.641 8.58862 231.828 8.74268 232.049 8.92976H232.922C233.076 8.7757 233.225 8.59413 233.485 8.62165C233.402 8.76468 233.319 8.90224 233.22 9.06729C233.551 9.28186 233.882 9.33139 234.175 9.21584C234.595 9.29288 234.943 9.3589 235.29 9.41942C235.484 9.45245 235.644 9.52395 235.771 9.68352C235.97 9.93662 236.229 9.99163 236.527 9.89809C236.56 9.8871 236.599 9.89809 236.638 9.9036C236.964 10.0962 236.969 10.1017 237.151 10.0852C237.593 10.0467 238.035 10.0191 238.477 10.0962C238.526 10.1072 238.582 10.0632 238.626 10.0467C239.167 10.2832 238.985 10.2722 239.907 10.1402C240.034 10.0026 240.166 9.85407 240.304 9.70553C240.57 9.79907 240.652 10.0632 240.851 10.2007C241.055 10.3383 241.26 10.4648 241.47 10.5968C241.63 10.5858 241.801 10.5694 241.922 10.5638C242.088 10.4703 242.215 10.3988 242.314 10.3438C242.557 10.4483 242.762 10.5858 242.971 10.6134C243.292 10.6519 243.595 10.7289 243.894 10.8499C244.07 10.7619 244.236 10.6794 244.407 10.5968C244.6 10.6959 244.777 10.7839 244.943 10.8664C245.484 10.7784 245.998 10.7069 246.511 10.7564C246.577 10.8279 246.638 10.894 246.688 10.949C247.168 11.037 247.61 10.938 248.029 10.8499C248.217 10.9435 248.383 11.026 248.532 11.0975C248.687 11.037 248.802 10.9875 248.902 10.949C249.167 10.9875 249.41 11.026 249.686 11.07C249.791 10.9985 249.912 10.916 250.029 10.8279C250.106 10.7729 250.172 10.6904 250.255 10.6739C250.476 10.6354 250.625 10.4978 250.774 10.3548C250.973 10.1677 251.199 10.0521 251.486 10.1127C251.74 10.1622 251.961 10.0521 252.187 9.96411C252.276 9.99163 252.364 10.0247 252.475 10.0632C252.696 9.9036 252.916 9.73855 253.187 9.54048C253.319 9.51296 253.502 9.47445 253.689 9.43592C253.734 9.3754 253.778 9.3204 253.816 9.25437C253.861 9.19383 253.894 9.12783 253.905 9.11131C254.175 9.09481 254.313 9.16083 254.391 9.34241C254.374 9.46344 254.363 9.57899 254.352 9.67801C254.595 9.6395 254.816 9.6065 255.015 9.57348C255.34 9.78805 255.666 9.79907 256.003 9.68903C256.031 9.67801 256.047 9.63399 256.069 9.6065C256.064 9.47445 255.799 9.43592 255.948 9.21584C256.113 9.3204 256.263 9.41942 256.417 9.51296C256.671 9.44694 256.903 9.38642 257.135 9.33139C257.323 9.38642 257.5 9.44143 257.649 9.49095C257.748 9.45245 257.82 9.42493 257.903 9.3919C258.19 9.54596 258.488 9.70552 258.797 9.87608C258.874 9.84859 258.979 9.81557 259.073 9.77706C259.189 9.82658 259.294 9.86509 259.305 9.8706C259.51 9.91462 259.581 9.74403 259.708 9.84308C259.73 9.91462 259.752 9.98064 259.774 10.0521C259.913 10.1237 260.045 10.1952 260.15 10.2502C260.404 10.2612 260.625 10.2722 260.835 10.2832C260.907 10.3933 260.967 10.4868 261.034 10.5858H261.514C261.63 10.6629 261.768 10.7564 261.906 10.8499C262.044 10.8389 262.177 10.8279 262.298 10.8169C262.696 11.147 263.126 11.114 263.562 10.971C263.629 11.026 263.684 11.07 263.745 11.114C263.828 11.048 263.91 10.982 263.999 10.916C264.115 11.015 264.214 11.103 264.319 11.1966C264.595 11.2076 264.877 11.2241 265.147 11.2351C265.429 11.4057 265.699 11.5707 266.009 11.7578C266.345 11.5157 266.732 11.5267 267.113 11.6477C267.218 11.5707 267.312 11.5047 267.4 11.4387C267.676 11.5817 267.941 11.5102 268.179 11.3781C268.245 11.4331 268.284 11.4717 268.328 11.5047C268.615 11.7303 268.814 11.7193 269.051 11.4552C269.123 11.3726 269.184 11.2846 269.289 11.147V11.5762C269.372 11.6092 269.438 11.6312 269.515 11.6642C269.659 11.5707 269.802 11.4827 269.929 11.4002C270.095 11.3837 270.244 11.3671 270.36 11.3561C270.752 11.4607 271.023 11.6918 271.293 11.9393C271.497 11.9613 271.707 12.0164 271.906 11.9999C272.083 11.9889 272.26 11.8953 272.42 11.8458C272.718 12.0109 273.055 11.9393 273.353 12.0549C273.48 12.1044 273.646 12.0439 273.789 12.0274C273.894 12.0769 273.993 12.1319 274.093 12.1759C274.109 12.1814 274.131 12.1759 274.148 12.1759C274.236 12.1319 274.319 12.0934 274.397 12.0549C274.789 12.1099 275.181 11.9999 275.545 12.0879C275.633 12.0109 275.7 11.9504 275.755 11.9008C275.843 11.9173 275.91 11.9339 275.976 11.9504C276.097 11.8678 276.202 11.7963 276.274 11.7468H277.052C277.135 11.8183 277.229 11.9063 277.323 11.9889C277.472 11.9669 277.599 11.9448 277.726 11.9283C277.853 11.9118 277.997 11.9283 278.113 11.8788C278.218 11.8348 278.301 11.7303 278.389 11.6532C278.538 11.7688 278.582 11.9778 278.831 11.9724C278.908 11.9118 279.007 11.8348 279.123 11.7413C279.217 11.7743 279.322 11.8073 279.455 11.8513C279.791 11.6918 280.123 11.8513 280.432 11.9613C280.548 11.9173 280.631 11.8788 280.725 11.8458C281.188 12.0384 281.652 12.2365 282.166 12.451C282.558 12.4675 283.016 12.3905 283.381 12.5941C283.778 12.6161 284.049 12.4565 284.281 12.2639C284.413 12.3245 284.518 12.3685 284.612 12.407C284.761 12.341 284.894 12.253 285.037 12.2254C285.479 12.1429 285.842 11.9283 286.159 11.6257C286.296 11.6698 286.419 11.7303 286.544 11.7468C286.693 11.7633 286.844 11.7468 286.993 11.7358C287.169 11.7303 287.329 11.7633 287.466 11.8733C287.555 11.9393 287.643 12.0109 287.66 12.0274C288.18 12.1484 288.614 12.2474 289.039 12.3465C289.173 12.2695 289.285 12.1979 289.405 12.1429C289.539 12.0824 289.547 11.8788 289.719 11.8568C289.876 12.1319 289.487 12.2254 289.539 12.484C289.587 12.5115 289.647 12.5666 289.713 12.5831C290.133 12.6766 290.552 12.7701 290.978 12.8472C291.06 12.8637 291.155 12.7977 291.243 12.7812C291.277 12.7756 291.314 12.7812 291.349 12.7867C291.403 12.8362 291.46 12.8857 291.509 12.9297C292.216 13.0948 292.879 12.9242 293.535 12.7151C293.601 12.7977 293.664 12.8692 293.724 12.9407C293.761 12.9407 293.795 12.9517 293.832 12.9517C294.186 12.9682 294.546 12.8967 294.888 13.0122C295.154 13.1003 295.419 13.1993 295.682 13.2928C295.799 13.2543 295.922 13.2103 295.999 13.1828C296.17 13.2763 296.296 13.3479 296.43 13.4194C296.69 13.3258 296.892 13.5404 297.146 13.5679C297.295 13.5404 297.46 13.5074 297.606 13.4744C297.86 13.5239 298.046 13.6285 298.217 13.7935C298.351 13.9201 298.517 14.0301 298.688 14.0906C298.891 14.1622 299.113 14.1787 299.327 14.2227C299.467 14.1181 299.604 14.0191 299.741 13.9201L299.735 13.9146C299.687 14.1071 299.638 14.3052 299.587 14.5143C299.858 14.7124 300.195 14.6848 300.472 14.7509C300.68 14.8499 300.817 15.026 301.077 15.0095C301.171 14.9544 301.283 14.8939 301.388 14.8389C301.554 14.8389 301.714 14.8774 301.845 14.8279C302.005 14.7729 302.139 14.8059 302.253 14.8499C302.836 14.6793 303.398 14.5638 303.955 14.5308C304.431 14.6683 304.877 14.7674 305.348 14.6133C305.396 14.6904 305.445 14.7619 305.502 14.8499C305.602 14.7674 305.684 14.6958 305.75 14.6408C306.13 14.6518 306.407 14.8389 306.684 15.037C306.798 14.993 306.903 14.9544 307.02 14.9104C307.317 15.125 307.628 15.3176 308.002 15.3231C308.091 15.191 308.037 15.125 307.96 15.059C307.902 15.0095 307.848 14.9599 307.788 14.9104C307.717 14.8499 307.643 14.7894 307.566 14.7398C307.506 14.7013 307.434 14.6738 307.369 14.6353C307.292 14.5913 307.175 14.6023 307.157 14.4813C307.389 14.4666 307.717 14.6041 308.139 14.8939C308.268 15.114 308.374 15.3671 308.653 15.4496C308.759 15.4166 308.864 15.3781 308.959 15.3506C309.007 15.3781 309.047 15.3891 309.067 15.4166C309.313 15.6532 309.57 15.6477 309.829 15.4551C309.929 15.3836 310.023 15.3616 310.141 15.3396C310.349 15.2956 310.454 15.158 310.426 14.9434C310.306 14.8169 310.189 14.7013 310.078 14.5858C310.112 14.5253 310.123 14.4813 310.152 14.4648C310.2 14.4428 310.26 14.4263 310.312 14.4372C310.626 14.4813 310.851 14.6793 311.074 14.8939C311.088 14.9819 311.105 15.07 311.122 15.18C311.254 15.2626 311.394 15.3561 311.459 15.4001C311.742 15.4496 311.939 15.4826 312.176 15.5267C312.281 15.4936 312.427 15.4551 312.57 15.4111C312.735 15.4661 312.895 15.5267 313.055 15.5762C313.089 15.5872 313.126 15.5707 313.215 15.5597C313.266 15.4826 313.338 15.3781 313.409 15.268C313.563 15.3341 313.669 15.3726 313.769 15.4166C313.866 15.4661 313.96 15.5267 314.023 15.5597H314.451C314.617 15.4111 314.805 15.3231 315.022 15.3176C315.242 15.3121 315.467 15.3176 315.701 15.3176C315.821 15.4001 315.944 15.4826 316.07 15.5762C316.218 15.5432 316.364 15.5047 316.466 15.4826C316.683 15.5872 316.866 15.6697 317.054 15.7577C317.086 15.6697 317.114 15.6037 317.146 15.5156C317.286 15.4936 317.428 15.4661 317.528 15.4496C317.728 15.5817 317.665 15.8568 317.914 15.9063C317.996 15.8458 318.079 15.7852 318.208 15.6972C318.23 15.8347 318.23 15.9393 318.256 16.0438C318.285 16.1484 318.333 16.2474 318.385 16.3629C318.836 16.4345 319.284 16.462 319.758 16.44C319.798 16.374 319.846 16.2969 319.88 16.2364C319.798 16.1208 319.738 16.0383 319.669 15.9448C319.883 15.8751 320.049 15.8659 320.169 15.9173C320.454 16.0438 320.748 16.1759 321.039 16.2969C321.139 16.3355 321.256 16.3575 321.365 16.3629C321.647 16.3849 321.93 16.4015 322.204 16.4125C322.387 16.418 322.569 16.4125 322.801 16.4125C322.901 16.4895 323.043 16.605 323.203 16.7261C323.497 16.649 323.78 16.572 324.065 16.495C324.254 16.6436 324.359 16.8911 324.65 16.9682C324.756 16.9407 324.887 16.9077 325.027 16.8691C325.159 17.1442 325.276 17.3973 325.396 17.6504C325.407 17.6724 325.464 17.6779 325.53 17.7054C325.624 17.5899 325.718 17.4689 325.801 17.3643C326.009 17.3698 326.126 17.4468 326.169 17.6119C326.215 17.7659 326.303 17.876 326.463 17.9145C326.566 17.876 326.666 17.843 326.766 17.81C326.866 17.8925 326.954 17.964 327.025 18.03C327.168 18.0465 327.297 18.0741 327.428 18.0796C327.556 18.0796 327.682 18.0631 327.816 18.0521C327.888 17.909 327.948 17.788 328.013 17.6559C328.059 17.7495 328.085 17.8155 328.119 17.8815H328.667C329.012 18.0906 329.395 18.1621 329.755 18.2886C329.837 18.1621 329.903 18.0631 329.969 17.964C330.128 18.0851 330.245 18.2226 330.4 18.2886C330.885 18.5032 331.393 18.6188 331.93 18.5968C332.232 18.5802 332.526 18.5967 332.763 18.7343C333.308 18.6078 333.817 18.4922 334.353 18.3712C334.436 18.3162 334.542 18.2391 334.642 18.1731H335.098C335.227 18.0686 335.335 17.975 335.441 17.8925C335.595 17.8815 335.723 17.865 335.855 17.865C336.055 17.865 336.22 17.8045 336.363 17.6669C336.386 17.6449 336.429 17.6559 336.463 17.6504C336.574 17.7659 336.588 17.975 336.788 18.008C336.86 17.9806 336.925 17.9585 336.948 17.9475C337.125 18.008 337.262 18.0576 337.385 18.0961C337.633 17.975 337.822 17.788 338.136 17.843C338.432 18.0466 338.798 18.1676 339.212 18.1456C339.3 18.0191 339.383 17.9035 339.483 17.766C339.726 17.8595 339.945 17.942 340.157 18.0191C340.217 17.9475 340.268 17.8925 340.334 17.8155C340.576 18.0521 340.848 18.1621 341.127 18.1456C341.35 17.9695 341.553 17.81 341.718 17.6779H342.049C342.172 17.5789 342.289 17.4854 342.403 17.3918H342.857V17.1002C343.154 17.1222 343.36 17.4083 343.674 17.3368C343.822 17.1607 343.856 16.9407 343.885 16.7151C343.885 16.6931 343.922 16.6821 343.945 16.6601C343.999 16.7646 344.05 16.8636 344.093 16.9517C344.282 17.0067 344.459 17.0562 344.656 17.1112C344.767 16.8966 344.878 16.6876 344.998 16.4565C345.657 16.6436 346.34 16.6546 347.053 16.7041C347.042 16.5445 347.031 16.4125 347.025 16.2859L347.019 16.2914C347.136 16.3079 347.248 16.3354 347.307 16.44C347.396 16.594 347.539 16.6601 347.684 16.7536C347.938 16.9187 348.258 16.9187 348.449 17.0837C348.755 17.1057 349.009 17.1222 349.311 17.1387C349.371 17.1112 349.471 17.0672 349.571 17.0232C349.742 17.1112 349.908 17.1937 350.079 17.2763C350.191 17.2103 350.285 17.1552 350.382 17.1002C350.405 16.8636 350.428 16.6436 350.45 16.429C350.516 16.6105 350.522 16.7921 350.539 16.9682C350.547 17.0562 350.559 17.1607 350.642 17.1827C350.964 17.0452 351.261 16.9131 351.538 16.7976C351.681 16.8801 351.798 16.9407 351.918 17.0067C351.975 16.9517 352.012 16.9131 352.057 16.8636C352.155 16.8857 352.277 16.9187 352.409 16.9462C352.483 16.8691 352.549 16.8031 352.608 16.7371C352.651 16.7646 352.691 16.7921 352.734 16.8196C352.785 16.7646 352.834 16.7151 352.88 16.6656C353 16.6931 353.105 16.7206 353.199 16.7426C353.288 16.6325 353.354 16.55 353.436 16.4455C353.542 16.484 353.642 16.5225 353.736 16.5555C353.967 16.5115 354.187 16.4675 354.341 16.4345C354.624 16.2529 354.861 16.1044 355.092 15.9558C355.103 15.8678 355.115 15.7797 355.126 15.6697C355.198 15.7082 355.269 15.7192 355.292 15.7577C355.357 15.8843 355.403 16.0218 355.457 16.1539C355.606 16.0658 355.68 16.2474 355.8 16.2529C355.84 16.1704 355.883 16.0879 355.923 16.0108C356.131 15.9723 356.325 15.9338 356.508 15.9008C356.596 15.9778 356.662 16.0383 356.728 16.0934C357.005 15.8182 357.29 15.6477 357.655 15.5817C358.041 15.5156 358.412 15.3946 358.82 15.2901C358.877 15.1525 358.937 15.0039 359.008 14.8279C359.168 14.8609 359.305 14.8884 359.462 14.9159C359.522 14.7619 359.577 14.6133 359.642 14.4483C359.959 14.4703 360.09 14.7949 360.356 14.8334C360.399 14.9489 360.433 15.0315 360.467 15.125C360.758 15.158 361.03 15.2295 361.306 15.092C361.443 15.125 361.592 15.1525 361.72 15.1855C361.897 15.114 362.051 15.048 362.206 14.9874C362.371 14.8334 362.537 14.6793 362.731 14.4978C362.797 14.4813 362.908 14.4537 363.002 14.4317C363.122 14.4757 363.222 14.5143 363.316 14.5473C363.482 14.4648 363.63 14.3932 363.773 14.3272C363.867 14.3987 363.938 14.4538 364.007 14.5088C364.098 14.4703 364.181 14.4372 364.27 14.3932C364.347 14.3547 364.364 14.2227 364.492 14.2557C364.598 14.4097 364.558 14.6904 364.866 14.6738C364.9 14.5913 364.937 14.5143 364.977 14.4207C365.172 14.4207 365.291 14.5143 365.331 14.7068L365.303 14.7289L365.326 14.7013C365.414 14.6738 365.503 14.6463 365.591 14.6188C365.668 14.5363 365.74 14.4593 365.805 14.3932C366.131 14.4849 366.368 14.6041 366.525 14.7509C366.282 14.9104 366.082 14.5803 365.845 14.6848C366.131 15.048 366.176 15.07 366.696 15.0975C366.762 15.026 366.822 14.9599 366.893 14.8829C367.153 14.9654 367.395 15.0425 367.632 15.1195C367.986 14.9159 368.323 14.7178 368.706 14.4978C368.831 14.5033 369.008 14.5143 369.219 14.5253C369.145 14.2997 369.328 14.3657 369.405 14.3052C369.505 14.2282 369.582 14.1291 369.665 14.0521C369.907 14.1842 370.119 14.2997 370.318 14.4042C370.421 14.3602 370.51 14.3272 370.561 14.3052C370.827 14.3547 371.006 14.4868 371.195 14.6188C371.255 14.6628 371.36 14.6573 371.466 14.6793C371.549 14.3877 371.763 14.1842 371.714 13.8816C371.78 13.8925 371.826 13.887 371.846 13.909C372.094 14.0961 372.334 14.0686 372.559 13.865C372.725 13.7165 372.89 13.5624 373.062 13.4194C373.085 13.3974 373.133 13.4029 373.204 13.3809C373.244 13.4414 373.287 13.5074 373.339 13.5899C373.199 13.755 373.062 13.887 372.967 14.0411C372.862 14.2062 372.679 14.3217 372.614 14.5253C372.85 14.6188 373.056 14.6958 373.256 14.7729C373.521 14.7398 373.718 14.6133 373.872 14.4317C374.338 14.4868 374.746 14.3382 375.154 14.2227C375.248 14.1236 375.337 14.0301 375.425 13.9421C375.933 13.9201 376.407 14.1457 376.938 13.9696C377.021 13.8705 377.132 13.7495 377.241 13.6175C377.181 13.4854 377.132 13.3644 377.075 13.2488L377.07 13.2543C377.307 13.2763 377.475 13.4304 377.561 13.5019C377.903 13.612 378.146 13.6835 378.4 13.766C378.582 13.7 378.788 13.5955 378.996 13.5624C379.213 13.5239 379.433 13.5569 379.682 13.5569C379.716 13.4579 379.747 13.3534 379.781 13.2543L379.776 13.2598C379.876 13.3423 379.976 13.4249 380.075 13.5019C380.23 13.4194 380.378 13.3423 380.515 13.2543C380.655 13.1718 380.792 13.0782 380.92 12.9957C381.035 13.0397 381.177 13.0177 381.169 13.1113C381.112 13.3093 380.869 13.1993 380.892 13.4359C381.04 13.4634 381.2 13.4909 381.349 13.5184C381.406 13.4469 381.437 13.4084 381.471 13.3644C381.543 13.3038 381.608 13.2433 381.685 13.1883C381.708 13.1718 381.748 13.1718 381.785 13.1608C381.842 13.2543 381.891 13.3644 382.068 13.3093C382.091 13.2653 382.122 13.1993 382.156 13.1388C382.211 13.0948 382.268 13.0508 382.322 13.0012C382.442 13.2213 382.553 13.4139 382.67 13.612C382.742 13.634 382.819 13.6449 382.879 13.678C382.941 13.7165 382.979 13.777 383.044 13.8485C383.161 13.7495 383.267 13.6505 383.393 13.5404C383.598 13.7275 383.786 13.909 383.978 14.0796C384.043 14.1346 384.126 14.1677 384.226 14.2227C384.303 14.1016 384.36 14.0081 384.42 13.9146H384.414C384.609 14.0356 384.8 14.1401 385.04 14.0796C385.294 13.865 385.548 13.656 385.81 13.4304C385.885 13.4414 385.973 13.4579 386.056 13.4744C386.127 13.4139 386.199 13.3644 386.287 13.2873C386.424 13.5569 386.655 13.5569 386.884 13.5734C387.181 13.5899 387.475 13.6064 387.894 13.6285C388.065 13.6064 388.34 13.4249 388.634 13.6009C388.833 13.5294 389.019 13.4579 389.219 13.3864C389.336 13.5129 389.433 13.6229 389.527 13.7275C389.667 13.788 389.804 13.843 389.941 13.9036L389.97 13.9641ZM372.123 14.5968C372.145 14.7178 372.228 14.7398 372.328 14.7124C372.342 14.7124 372.365 14.6408 372.354 14.6243C372.288 14.5473 372.211 14.5033 372.123 14.5968ZM240.332 10.1292C240.332 10.1292 240.376 10.1677 240.398 10.1842C240.409 10.1732 240.426 10.1457 240.426 10.1457C240.404 10.1237 240.382 10.1072 240.36 10.0907C240.349 10.1017 240.337 10.1182 240.332 10.1292ZM297.512 13.8375C297.512 13.8375 297.483 13.8375 297.466 13.8375C297.477 13.8596 297.483 13.8816 297.495 13.9036C297.506 13.8981 297.529 13.887 297.529 13.8816C297.529 13.8705 297.517 13.854 297.512 13.8375Z" fill="#202426"/>
</svg>
