<svg width="390" height="49" viewBox="0 0 390 49" fill="none" xmlns="http://www.w3.org/2000/svg">
<path d="M0.0304871 34.3064V0.254551H389.969C389.969 5.01384 389.969 9.76743 389.969 14.5267C389.804 14.5541 389.627 14.5541 389.478 14.6203C389.097 14.7908 388.722 14.7908 388.324 14.6863C388.147 14.6423 387.948 14.6369 387.766 14.6643C387.358 14.7137 386.955 14.7965 386.551 14.8624C386.043 14.7248 385.535 14.5764 385 14.6423C384.928 14.6532 384.845 14.6423 384.779 14.6146C384.608 14.5487 384.448 14.5984 384.282 14.6146C383.934 14.6423 383.636 14.7908 383.354 14.9175C383.216 14.9175 383.1 14.9118 382.99 14.9175C382.67 14.9449 382.399 14.8404 382.189 14.5984C382.117 14.5159 382.029 14.4388 381.946 14.3617C381.714 14.1416 381.444 14.0426 381.123 14.1085C380.996 14.1362 380.869 14.1525 380.753 14.1745C380.665 14.1362 380.599 14.1031 380.533 14.07C380.03 13.8445 379.522 13.6629 378.959 13.806C378.854 13.8334 378.738 13.7894 378.628 13.784C378.572 13.784 378.517 13.784 378.462 13.784C378.34 13.883 378.23 13.971 378.103 14.0757C377.551 13.971 377.026 14.1582 376.463 14.213C376.137 14.4773 375.756 14.5872 375.348 14.4388C375.209 14.5159 375.094 14.5764 374.994 14.6258C374.701 14.5487 374.425 14.4828 374.182 14.4168C373.724 14.6146 373.52 14.6423 372.946 14.6038C372.675 14.7522 372.415 14.9283 372.305 15.2309C372.156 15.2421 372.04 15.1924 371.907 15.264C371.56 15.451 371.173 15.5227 370.781 15.5612C370.654 15.572 370.527 15.6106 370.411 15.6325C370.284 15.8198 370.174 15.9902 370.063 16.1498C369.953 16.2157 369.853 16.2708 369.759 16.3259C369.66 16.3753 369.561 16.4195 369.467 16.48C369.108 16.7056 368.854 17.0852 368.39 17.1897C368.257 17.5747 367.788 17.6079 367.6 17.905C367.54 18.0095 367.606 18.1251 367.484 18.1802C367.368 18.1359 367.252 18.092 367.148 18.0534C366.744 18.3012 366.297 18.2955 365.878 18.3397C365.579 18.3726 365.281 18.4057 365.005 18.5156C364.944 18.5872 364.884 18.6532 364.834 18.7137C364.569 18.8019 364.298 18.5872 364.022 18.8019C363.983 18.9064 363.934 19.0439 363.879 19.1978C363.641 19.2363 363.404 19.2806 363.166 19.3191C363.122 19.4621 363.083 19.5886 363.039 19.7261C362.896 19.7536 362.752 19.7811 362.62 19.8032C362.459 19.7426 362.31 19.6271 362.189 19.6491C361.962 19.6876 361.797 19.5666 361.642 19.5169C361.432 19.5446 361.35 19.6657 361.267 19.7921C361.239 19.8362 361.184 19.8582 361.134 19.8967C361.024 19.8582 360.919 19.8252 360.825 19.7921C360.731 19.8197 360.648 19.8582 360.554 19.8692C360.455 19.8802 360.345 19.7701 360.262 19.9187C360.306 19.9957 360.356 20.0728 360.4 20.1553C360.4 20.1663 360.389 20.1828 360.383 20.1993C360.052 20.0709 359.73 20.0874 359.417 20.2488C359.196 20.2708 358.997 20.2928 358.798 20.3149C358.782 20.4359 358.765 20.5239 358.749 20.623C358.412 20.6119 358.075 20.5624 357.777 20.6395C357.473 20.7935 357.258 20.9916 357.114 21.2557C356.755 21.2777 356.418 21.2997 356.087 21.3162C355.806 21.5638 355.419 21.3217 355.16 21.5418C355.044 21.4978 354.961 21.4648 354.9 21.4428C354.784 21.5363 354.69 21.6188 354.596 21.6959C354.475 21.6463 354.37 21.6078 354.293 21.5803C353.978 21.7509 353.68 21.9104 353.376 22.0755C353.288 22.048 353.183 22.015 353.083 21.982C352.929 22.0315 352.785 22.081 352.642 22.1305C352.47 22.3286 352.299 22.5267 352.123 22.7302C351.907 22.6422 351.73 22.4716 351.487 22.5267C351.195 22.5927 350.897 22.5267 350.598 22.5982C350.405 22.6477 350.173 22.6917 350.002 22.6257C349.732 22.5211 349.456 22.5101 349.223 22.4441C348.947 22.4716 348.765 22.6862 348.528 22.6257C348.428 22.7082 348.346 22.7797 348.263 22.8458C348.097 22.8182 347.948 22.7962 347.816 22.7797C347.716 22.8678 347.628 22.9338 347.545 23.0108C347.451 22.9778 347.368 22.9448 347.263 22.9063C347.086 22.9558 346.871 22.9448 346.717 23.0823C346.595 23.2694 346.634 23.462 346.617 23.6436H346.623C346.462 23.484 346.302 23.3299 346.109 23.1484C346.026 23.1484 345.899 23.1594 345.761 23.1649C345.568 23.3079 345.375 23.451 345.17 23.6105C345.038 23.5885 344.894 23.5665 344.723 23.539C344.508 23.627 344.282 23.7151 344.011 23.8251C343.878 23.7866 343.696 23.6821 343.525 23.7041C343.31 23.7316 343.116 23.6876 342.901 23.6656C342.752 23.7206 342.597 23.7756 342.421 23.8416C342.393 23.9517 342.371 24.0562 342.343 24.1607C342.321 24.2598 342.465 24.3643 342.31 24.4799C342.155 24.3643 341.995 24.2488 341.808 24.1057C341.697 24.2433 341.598 24.3698 341.504 24.4853C341.416 24.5019 341.338 24.5129 341.305 24.5184C341.178 24.5569 341.195 24.7109 341.057 24.6944C340.974 24.5844 340.891 24.4744 340.803 24.3588C340.589 24.5459 340.394 24.6266 340.217 24.6009C340.157 24.5129 340.101 24.4248 340.035 24.3203C339.952 24.3423 339.886 24.3643 339.787 24.3863C339.715 24.6559 339.643 24.92 339.566 25.1896C339.499 25.1346 339.433 25.0741 339.361 25.0191C339.245 25.03 339.13 25.0411 339.008 25.0521C338.897 24.9641 338.782 24.876 338.71 24.8155C338.268 24.6889 337.975 24.9475 337.617 25.0631C337.379 25.0411 337.13 25.0356 336.877 25.1566C336.777 25.2061 336.639 25.1896 336.512 25.2446C336.418 25.2887 336.275 25.2061 336.148 25.1951C335.999 25.1841 335.85 25.1951 335.662 25.1951C335.441 25.5032 335.181 25.8003 334.723 25.8389C334.635 25.7728 334.535 25.6958 334.441 25.6243C334.309 25.6793 334.187 25.7343 334.127 25.7618C333.784 25.7728 333.613 25.5087 333.37 25.4757C333.105 25.6243 332.862 25.7618 332.619 25.8994L332.592 25.8664L332.625 25.8939C332.559 25.9049 332.481 25.9434 332.42 25.9324C332.316 25.9159 332.216 25.8664 332.095 25.8223C332.017 25.9764 331.951 26.103 331.868 26.257H331.217C331.106 26.3836 331.012 26.4936 330.924 26.5871C330.885 26.5981 330.869 26.6036 330.847 26.6036C330.427 26.5486 330.019 26.5266 329.693 26.8677C329.671 26.8952 329.626 26.9062 329.593 26.9118C329.218 27.0163 328.925 27.2474 328.737 27.4454C328.401 27.6105 328.152 27.726 327.859 27.8691C327.688 27.8251 327.467 27.77 327.296 27.726C326.926 27.7755 326.6 27.8251 326.28 27.8691C326.264 27.9901 326.252 28.0837 326.241 28.1882C326.054 28.1882 325.871 28.1937 325.689 28.1882C325.501 28.1827 325.314 28.1332 325.131 28.1552C324.949 28.1717 324.778 28.2487 324.579 28.3093C324.403 28.1607 324.221 28.0011 324.038 27.8416C323.917 27.737 323.784 27.6875 323.624 27.7315C323.558 27.7976 323.497 27.8636 323.48 27.8801H322.326C322.271 27.8471 322.188 27.8086 322.117 27.748C321.945 27.605 321.747 27.5665 321.537 27.583C321.426 27.5885 321.305 27.5885 321.2 27.627C320.979 27.7095 320.758 27.6875 320.559 27.627C320.454 27.693 320.377 27.7426 320.261 27.8141C320.013 27.6765 319.742 27.715 319.466 27.8031C319.378 27.8306 319.278 27.8141 319.184 27.8196C318.941 27.8361 318.704 27.8581 318.367 27.8856C318.146 27.8251 317.837 27.792 317.528 27.8416C317.473 27.9406 317.434 28.0176 317.384 28.1057C317.219 28.0507 317.059 28.0011 316.904 27.9516C316.793 28.0011 316.694 28.0507 316.595 28.0947C316.506 28.0617 316.418 28.0341 316.357 28.0121C316.175 28.0561 316.009 28.1277 315.849 28.1332C315.523 28.1332 315.22 28.2267 314.916 28.3478C314.629 28.2212 314.369 28.3148 314.149 28.4413C313.64 28.3643 313.177 28.3698 312.707 28.4413C312.243 28.5183 311.774 28.5403 311.31 28.5843C311.255 28.5843 311.194 28.5843 311.144 28.5623C310.918 28.4963 310.697 28.5293 310.476 28.5789C310.184 28.6449 309.891 28.7054 309.598 28.7659C309.449 28.7934 309.3 28.8375 309.157 28.8264C308.461 28.7824 307.776 28.9695 307.086 28.898C306.655 28.997 306.23 28.876 305.799 28.8704C305.579 28.8704 305.336 28.8484 305.142 28.7549C304.91 28.6394 304.684 28.5843 304.441 28.6174C304.203 28.6504 303.961 28.6063 303.729 28.7439C303.596 28.821 303.403 28.8154 303.237 28.8154C303.06 28.8154 302.862 28.8595 302.702 28.7439C302.713 28.6394 302.724 28.5513 302.74 28.4413C302.403 28.3478 302.089 28.2267 301.774 28.3588C301.465 28.2872 301.194 28.1662 300.918 28.1662C300.509 28.1662 300.139 28.0837 299.775 27.9241C299.742 27.9076 299.703 27.9131 299.654 27.9076C299.62 27.9406 299.587 27.9846 299.543 28.0176C299.504 28.0561 299.46 28.0892 299.405 28.1277C299.333 28.1167 299.262 28.1112 299.19 28.0947C299.157 28.0837 299.135 28.0507 299.096 28.0231C299.085 27.9571 299.068 27.8856 299.046 27.7811C298.516 27.8636 298.008 27.8196 297.622 27.5225C297.307 27.5225 297.058 27.561 296.826 27.5115C296.572 27.4564 296.313 27.4289 296.059 27.3684C295.97 27.3464 295.855 27.3574 295.788 27.3079C295.507 27.0933 295.181 27.1373 294.866 27.1538C294.607 27.1648 294.358 27.2309 294.148 27.3464C294.115 27.4729 294.253 27.55 294.154 27.649C293.789 27.6545 293.436 27.5885 293.077 27.4674C292.713 27.3409 292.337 27.2199 291.984 27.0603C291.884 27.1373 291.796 27.2088 291.697 27.2859C291.608 27.2309 291.514 27.1703 291.409 27.1043H291.095C291.001 26.9998 290.912 26.9007 290.852 26.8347C290.642 26.8237 290.476 26.8182 290.31 26.7962C290.161 26.7742 290.018 26.6972 289.874 26.7082C289.736 26.7137 289.604 26.8017 289.482 26.8457C289.394 26.8072 289.328 26.7797 289.289 26.7632C289.09 26.8897 288.924 26.9998 288.715 27.1318C288.637 27.0273 288.576 26.9392 288.538 26.8897C288.29 26.8677 288.085 26.8512 287.87 26.8347C287.632 26.9118 287.373 26.9778 287.13 27.0713C286.887 27.1648 286.66 27.2859 286.418 27.3959C286.324 27.3134 286.246 27.2419 286.175 27.1758C286.13 27.2088 286.092 27.2418 286.059 27.2639C285.921 27.1483 285.788 27.0493 285.661 26.9392C285.523 27.0108 285.412 27.0713 285.313 27.1263C285.032 27.1263 284.838 26.9943 284.717 26.8127C284.446 26.8842 284.214 26.9503 284.01 27.0053C283.938 26.9668 283.905 26.9503 283.872 26.9338C283.839 26.9172 283.806 26.9062 283.772 26.8897C283.657 26.9392 283.541 26.9833 283.419 27.0328C283.287 26.9227 283.171 26.8292 283.038 26.7192C282.834 26.6972 282.608 26.6311 282.392 26.6642C282.072 26.7082 281.757 26.6917 281.437 26.6917C281.271 26.6917 281.111 26.7137 280.818 26.7302C280.653 26.7137 280.371 26.6146 280.056 26.6586C279.753 26.7027 279.427 26.5981 279.123 26.7467C279.095 26.8127 279.074 26.8787 279.046 26.9392C278.891 26.8292 278.748 26.7082 278.593 26.6201C278.433 26.5321 278.251 26.4716 278.08 26.3945C277.875 26.4441 277.721 26.6091 277.494 26.5926C277.273 26.5706 277.047 26.5926 276.81 26.5926C276.572 26.202 276.152 26.1635 275.738 26.103C275.434 26.2075 275.131 26.0314 274.816 26.103C274.761 26.158 274.833 26.2955 274.661 26.3175C274.192 25.8939 273.623 25.8278 273.01 25.9929C272.519 25.8774 271.994 25.8774 271.619 25.5142H271.315C271.271 25.4262 271.227 25.3492 271.194 25.2776C270.962 25.2061 270.752 25.1181 270.531 25.0796C270.316 25.0411 270.089 25.0466 269.913 25.0356C269.697 25.1346 269.653 25.3712 269.399 25.3822C269.338 25.2116 269.283 25.0521 269.222 24.887C268.963 24.9805 268.736 25.0741 268.493 24.975C268.394 24.887 268.295 24.8045 268.201 24.7274C268.068 24.7385 267.958 24.7494 267.881 24.755C267.632 24.6339 267.422 24.5019 267.196 24.4193C266.947 24.3313 266.87 24.0562 266.726 23.9902C266.384 23.9297 266.13 23.8857 265.832 23.8361C265.622 23.9021 265.374 23.9847 265.125 24.0672C265.015 24.0342 264.91 24.0012 264.777 23.9572C264.705 24.0617 264.634 24.1662 264.562 24.2708C264.451 24.1772 264.385 24.1167 264.308 24.0507C264.153 24.2158 264.021 24.3643 263.899 24.4964C263.601 24.5074 263.364 24.3148 263.143 24.3753C262.928 24.4413 262.9 24.6724 262.701 24.6834C262.591 24.6119 262.657 24.4028 262.475 24.3973C262.276 24.4468 262.431 24.6889 262.237 24.777C262.083 24.821 261.944 24.7385 261.829 24.6009C261.718 24.4744 261.646 24.3093 261.365 24.2708C260.973 24.4689 260.575 24.2378 260.183 24.0397C259.968 24.0727 259.769 24.1332 259.559 24.0727C259.421 24.0342 259.261 24.0672 259.112 24.0837C258.891 24.1057 258.676 24.1442 258.455 24.1772C258.455 24.2543 258.444 24.3368 258.438 24.4359C258.256 24.4524 258.09 24.4689 257.903 24.4853C257.682 24.6174 257.45 24.7605 257.19 24.9145C257.107 24.8485 257.013 24.7605 256.914 24.6834C256.87 24.6504 256.815 24.6394 256.754 24.6119C256.638 24.6669 256.516 24.722 256.412 24.766C256.268 24.755 256.136 24.744 256.014 24.7385C255.915 24.876 255.826 24.9915 255.716 25.1401C255.291 25.03 254.86 25.0576 254.413 25.1676C254.197 25.2887 253.971 25.4537 253.689 25.5197C253.656 25.4207 253.623 25.3382 253.59 25.2446C253.236 25.0851 252.982 25.2611 252.762 25.4592C252.513 25.4977 252.292 25.5308 252.072 25.5693C251.663 25.6463 251.271 25.7673 250.884 25.9214C250.796 26.0039 250.691 26.0369 250.575 26.0204C250.409 25.9984 250.244 25.9709 250.1 25.9489C249.973 26.0094 249.874 26.0589 249.758 26.114C249.432 26.0204 249.101 25.9984 248.78 26.0975C248.504 26.18 248.548 26.4661 248.438 26.6256C248.068 26.8237 247.715 26.5156 247.356 26.6366C247.405 26.7357 247.444 26.8127 247.483 26.8897C247.229 26.9943 247.052 26.7632 246.82 26.7687C246.726 26.8127 246.627 26.8622 246.538 26.9118C245.997 26.7577 245.539 27.0603 245.053 27.1043C244.937 27.2309 244.838 27.3464 244.76 27.4344C244.407 27.594 244.076 27.715 243.717 27.77C243.402 27.8196 243.104 27.9296 242.828 28.0011C242.723 28.1387 242.646 28.2377 242.585 28.3258C242.37 28.3313 242.176 28.3037 242.005 28.3533C241.834 28.4028 241.685 28.5348 241.519 28.6394C241.403 28.6174 241.293 28.6119 241.188 28.5789C240.895 28.4853 240.625 28.5238 240.387 28.7054C240.061 28.9585 239.713 29.0245 239.393 28.909C238.858 28.942 238.631 29.4042 238.206 29.5472C238.189 29.4482 238.173 29.3436 238.156 29.2281C238.046 29.2281 237.952 29.2116 237.869 29.2281C237.781 29.2501 237.692 29.3436 237.615 29.3271C237.345 29.2831 237.096 29.4097 236.836 29.4207C236.693 29.4207 236.533 29.4702 236.411 29.5472C236.108 29.7453 235.771 29.8498 235.406 29.9268C235.307 30.0589 235.213 30.1909 235.103 30.3285C235.031 30.268 234.965 30.1964 234.887 30.1524C234.777 30.0919 234.672 30.1029 234.595 30.2239C234.6 30.3065 234.611 30.389 234.617 30.477C234.33 30.4385 234.346 30.1249 234.131 29.9984C233.744 30.0754 233.341 30.1524 232.938 30.2294C232.839 30.3175 232.745 30.4055 232.635 30.499H232.165C232.204 30.6421 232.231 30.7631 232.259 30.8732C232.005 31.0988 231.69 30.8457 231.436 31.0052C231.403 31.0272 231.331 30.9887 231.281 30.9777C231.055 30.9117 230.812 30.9392 230.635 31.0602C230.459 31.1868 230.265 31.0933 230.028 31.2253C229.984 31.2803 229.884 31.3904 229.796 31.4949C229.537 31.5939 229.255 31.5664 229.045 31.77V32.1606C228.935 32.2157 228.841 32.2597 228.741 32.3092C228.493 32.1882 228.244 32.1166 227.99 32.1992C227.935 32.0561 227.891 31.9406 227.847 31.825C227.676 31.869 227.538 31.8965 227.4 31.9406C227.262 31.9791 227.123 32.0286 226.969 32.0781C226.908 32.0231 226.842 31.9626 226.787 31.9021C226.731 31.9516 226.687 32.0341 226.621 32.0506C226.229 32.1662 225.853 32.3642 225.423 32.3367C225.213 32.3257 224.986 32.3477 224.854 32.5183C224.666 32.7494 224.396 32.8319 224.197 32.9859C223.816 32.9749 223.463 32.9639 223.115 32.9529C222.927 33.1235 222.767 32.9034 222.59 32.9199C222.154 32.9584 221.878 33.3161 221.502 33.4481C221.475 33.5581 221.447 33.6462 221.425 33.7452C221.105 33.7782 220.74 33.7122 220.564 34.1028C220.597 34.2294 220.63 34.3504 220.657 34.455C220.492 34.6145 220.409 34.411 220.243 34.4165C219.774 34.5925 219.222 34.6641 218.83 34.9612C218.598 35.0272 218.41 34.8566 218.222 35.0217C218.278 35.1317 218.327 35.2253 218.382 35.3243C218.415 35.3903 218.454 35.4564 218.393 35.5169C218.222 35.5169 218.057 35.5169 217.885 35.5169C217.852 35.5169 217.819 35.4838 217.786 35.4729C217.709 35.3463 217.637 35.2197 217.571 35.1152C217.344 34.9997 217.145 35.0217 216.919 35.0987C216.853 35.1923 216.781 35.2968 216.693 35.4233C216.339 35.5114 216.118 35.7865 215.936 36.1056C215.815 36.0561 215.71 36.0176 215.594 35.9735C215.472 36.0506 215.351 36.1276 215.196 36.2266C214.915 36.1221 214.688 36.3147 214.49 36.4357C214.219 36.4577 213.998 36.4797 213.772 36.4962C213.6 36.5127 213.457 36.5898 213.313 36.6888C212.927 36.9474 212.772 37.3435 212.634 37.7562C212.595 37.8772 212.562 38.0093 212.513 38.1248C212.485 38.1964 212.424 38.2404 212.336 38.1853C212.226 38.0368 212.435 37.8662 212.297 37.6791C212.214 37.8057 212.154 37.9157 212.077 38.0148C212.043 38.0533 211.983 38.0643 211.933 38.0918C211.844 38.0148 211.767 37.9378 211.69 37.8717C211.143 37.9212 210.84 38.2349 210.668 38.6915C210.718 38.8346 210.762 38.9556 210.807 39.0822L210.812 39.0767C210.685 38.9996 210.558 38.9281 210.447 38.8566C210.105 38.9666 210.006 39.2802 209.785 39.4893C209.57 39.5774 209.249 39.5278 209.183 39.8249C209.155 40.0285 209.398 40.133 209.293 40.3146C209.073 40.3696 209.078 40.0505 208.874 40.0945C208.78 40.2541 208.692 40.4082 208.603 40.5567C208.653 40.6832 208.692 40.7878 208.719 40.8703C208.553 41.0739 208.399 41.2555 208.222 41.4755C207.918 41.514 207.571 41.5581 207.239 41.6021C207.132 41.7928 207.156 41.9652 207.311 42.1193C207.256 42.2238 207.195 42.3118 207.052 42.2568C206.93 42.1468 207.013 41.9047 206.819 41.8607C206.499 41.8497 206.571 42.1688 206.4 42.3063C206.345 42.3063 206.273 42.3063 206.201 42.2953C206.107 42.2843 206.019 42.2678 205.942 42.2513C205.721 42.3614 205.533 42.5044 205.318 42.5594C205.014 42.6365 204.826 42.8125 204.694 43.0766C204.649 43.1591 204.589 43.2307 204.522 43.3242C204.296 43.3847 204.025 43.3957 203.832 43.5168C203.506 43.7314 203.17 43.7369 202.805 43.7149C202.75 43.7149 202.695 43.7314 202.634 43.7424C202.496 43.8304 202.358 43.9239 202.242 44.001C201.541 44.1 201.475 44.1385 201.143 44.7052C201.138 44.9693 201.303 45.2444 201.121 45.5415C200.906 45.602 200.701 45.7231 200.563 45.9432C200.536 45.9872 200.469 46.0037 200.409 46.0422C200.254 46.0367 200.088 46.0257 199.95 46.0202C199.678 46.1596 199.474 46.332 199.337 46.5374C199.249 46.5539 199.161 46.5704 199.05 46.5869C198.763 46.939 198.332 47.1536 198.023 47.5112C197.874 47.6873 197.686 47.8909 197.432 47.9184C197.09 47.9624 196.781 48.0724 196.488 48.2705C196.35 48.188 196.223 48.1109 196.118 48.0504C195.969 48.0394 195.842 48.0284 195.726 48.0229C195.643 47.9184 195.583 47.8358 195.516 47.7478C195.467 47.7973 195.433 47.8414 195.395 47.8799C195.19 47.8964 194.992 47.9184 194.787 47.9349C194.771 47.9349 194.749 47.9349 194.732 47.9239C194.716 47.9239 194.699 47.9129 194.655 47.8909C194.605 47.7973 194.544 47.6818 194.478 47.5552C194.323 47.4782 194.158 47.3957 194.003 47.3132C193.932 47.3462 193.876 47.3627 193.826 47.3847C193.777 47.4067 193.722 47.4232 193.672 47.4452C193.54 47.3682 193.413 47.2912 193.286 47.2196C193.258 47.2031 193.214 47.2196 193.153 47.2196C193.114 47.2636 193.065 47.3132 193.043 47.3352C192.96 47.5332 193.131 47.6928 193.004 47.8909C192.943 47.8083 192.888 47.7533 192.86 47.6928C192.811 47.5718 192.789 47.4397 192.739 47.3187C192.612 47.0105 192.429 46.763 192.059 46.7189C191.91 46.7024 191.761 46.6694 191.59 46.6419C191.242 46.9005 190.939 46.6749 190.618 46.5374C190.348 46.4714 190.077 46.4108 189.713 46.3228C189.083 46.3448 188.476 46.3778 188.189 46.0807C188.299 45.9927 188.404 45.9101 188.537 45.8056C188.299 45.6571 188.161 45.8881 187.957 45.8771C187.857 45.8056 187.736 45.7231 187.62 45.6461C187.504 45.6736 187.399 45.7011 187.278 45.7286C187.062 45.2609 186.565 45.2719 186.234 45.0408C186.063 45.0738 185.919 45.0959 185.814 45.1179C185.351 44.9528 184.931 44.7987 184.588 44.6722C184.274 44.6557 184.031 44.6392 183.799 44.6227C183.705 44.4466 183.578 44.3476 183.401 44.3146C183.186 44.2706 182.965 44.2266 182.717 44.1715C182.612 44.2155 182.474 44.276 182.347 44.3311C182.214 44.2266 182.104 44.133 181.988 44.045C181.877 44.078 181.789 44.1165 181.695 44.122C181.364 44.1495 181.077 44.2595 180.85 44.5126C180.833 44.5292 180.778 44.5126 180.745 44.5126C180.684 44.4026 180.624 44.2926 180.58 44.21C180.265 44.1385 180.105 44.4026 179.873 44.4301C179.459 44.2155 179.056 44.4301 178.653 44.4411C178.271 44.188 177.841 44.0725 177.41 43.9569C177.178 44.0065 176.957 44.0615 176.736 44.1055C176.643 44.122 176.549 44.1385 176.482 44.0505C176.482 43.8304 176.442 43.6507 176.361 43.5113C176.046 43.5718 175.72 43.6378 175.378 43.7093C175.306 43.6488 175.223 43.5828 175.135 43.5058C174.837 43.4617 174.539 43.4508 174.268 43.4948C174.042 43.6158 174.003 43.8909 173.743 43.9734C173.694 43.8744 173.644 43.7754 173.583 43.6598C173.694 43.5608 173.788 43.4783 173.882 43.3902C173.942 43.3352 173.976 43.2747 173.904 43.1812C173.661 43.1371 173.407 43.0876 173.258 43.0601C172.888 43.0876 172.628 43.1261 172.368 43.1206C172.054 43.1206 171.739 42.9941 171.424 43.1041C171.391 43.1151 171.347 43.1041 171.314 43.0931C171.043 42.9776 170.762 43.0271 170.469 43.0766C170.303 42.774 170.005 42.708 169.69 42.6365C169.514 42.3614 169.232 42.2238 168.928 42.1468C168.768 42.2018 168.63 42.2458 168.47 42.3008C168.354 42.1523 168.293 41.9487 168.051 41.9377C167.934 41.9762 167.796 42.0202 167.669 42.0587C167.587 41.9652 167.526 41.8992 167.498 41.8662C167.266 41.8497 167.067 41.8827 166.902 41.8222C166.433 41.6406 165.969 41.4315 165.461 41.371C165.267 41.2279 165.047 41.2169 164.881 41.2445C164.704 41.0794 164.572 40.9528 164.423 40.8153C164.086 40.7383 163.76 40.6612 163.423 40.5842C163.147 40.3935 162.838 40.3549 162.495 40.4687C162.269 40.3641 162.032 40.2596 161.805 40.155C161.7 40.1881 161.612 40.2156 161.59 40.2211C161.347 40.1771 161.165 40.1385 160.983 40.111C160.8 40.078 160.607 40.0725 160.43 40.023C160.099 39.924 159.768 39.946 159.431 39.946C159.304 39.946 159.171 39.946 159.044 39.935C158.879 39.913 158.713 39.8689 158.531 39.8304C158.359 39.6819 158.172 39.5278 157.951 39.3407H157.078C156.924 39.4948 156.775 39.6764 156.515 39.6489C156.598 39.5058 156.681 39.3683 156.78 39.2032C156.449 38.9886 156.118 38.9391 155.825 39.0547C155.405 38.9776 155.057 38.9116 154.71 38.8511C154.516 38.8181 154.356 38.7466 154.229 38.587C154.03 38.3339 153.771 38.2789 153.473 38.3724C153.44 38.3834 153.401 38.3724 153.362 38.3669C153.036 38.1743 153.031 38.1688 152.849 38.1853C152.407 38.2238 151.965 38.2514 151.523 38.1743C151.474 38.1633 151.418 38.2073 151.374 38.2238C150.833 37.9873 151.015 37.9983 150.093 38.1303C149.966 38.2679 149.834 38.4164 149.696 38.565C149.43 38.4714 149.348 38.2073 149.149 38.0698C148.945 37.9323 148.74 37.8057 148.53 37.6737C148.37 37.6847 148.199 37.7012 148.078 37.7067C147.912 37.8002 147.785 37.8717 147.686 37.9267C147.443 37.8222 147.238 37.6847 147.029 37.6571C146.708 37.6186 146.405 37.5416 146.106 37.4206C145.93 37.5086 145.764 37.5911 145.593 37.6737C145.4 37.5746 145.223 37.4866 145.057 37.4041C144.516 37.4921 144.002 37.5636 143.489 37.5141C143.423 37.4426 143.362 37.3765 143.312 37.3215C142.832 37.2335 142.39 37.3325 141.971 37.4206C141.783 37.327 141.617 37.2445 141.468 37.173C141.313 37.2335 141.198 37.283 141.098 37.3215C140.833 37.283 140.59 37.2445 140.314 37.2005C140.209 37.272 140.088 37.3545 139.971 37.4426C139.894 37.4976 139.828 37.5801 139.745 37.5966C139.524 37.6351 139.375 37.7727 139.226 37.9157C139.027 38.1028 138.801 38.2184 138.514 38.1578C138.26 38.1083 138.039 38.2184 137.813 38.3064C137.724 38.2789 137.636 38.2459 137.525 38.2073C137.304 38.3669 137.084 38.532 136.813 38.73C136.681 38.7575 136.498 38.7961 136.311 38.8346C136.266 38.8951 136.222 38.9501 136.184 39.0161C136.139 39.0767 136.106 39.1427 136.095 39.1592C135.825 39.1757 135.687 39.1097 135.609 38.9281C135.626 38.8071 135.637 38.6915 135.648 38.5925C135.405 38.631 135.184 38.664 134.985 38.697C134.66 38.4825 134.334 38.4714 133.997 38.5815C133.969 38.5925 133.953 38.6365 133.931 38.664C133.936 38.7961 134.201 38.8346 134.052 39.0547C133.887 38.9501 133.737 38.8511 133.583 38.7575C133.329 38.8236 133.097 38.8841 132.865 38.9391C132.677 38.8841 132.5 38.8291 132.351 38.7796C132.252 38.8181 132.18 38.8456 132.097 38.8786C131.81 38.7245 131.512 38.565 131.203 38.3944C131.126 38.4219 131.021 38.4549 130.927 38.4934C130.811 38.4439 130.706 38.4054 130.695 38.3999C130.49 38.3559 130.419 38.5265 130.292 38.4274C130.27 38.3559 130.248 38.2899 130.226 38.2184C130.087 38.1468 129.955 38.0753 129.85 38.0203C129.596 38.0093 129.375 37.9983 129.165 37.9873C129.093 37.8772 129.033 37.7837 128.966 37.6847H128.486C128.37 37.6076 128.232 37.5141 128.094 37.4206C127.956 37.4316 127.823 37.4426 127.702 37.4536C127.304 37.1235 126.874 37.1565 126.438 37.2995C126.371 37.2445 126.316 37.2005 126.255 37.1565C126.172 37.2225 126.09 37.2885 126.001 37.3545C125.885 37.2555 125.786 37.1675 125.681 37.0739C125.405 37.0629 125.123 37.0464 124.853 37.0354C124.571 36.8648 124.301 36.6998 123.991 36.5127C123.655 36.7548 123.268 36.7438 122.887 36.6228C122.782 36.6998 122.688 36.7658 122.6 36.8319C122.324 36.6888 122.059 36.7603 121.821 36.8924C121.755 36.8374 121.716 36.7988 121.672 36.7658C121.385 36.5402 121.186 36.5513 120.949 36.8154C120.877 36.8979 120.816 36.9859 120.711 37.1235V36.6943C120.628 36.6613 120.562 36.6393 120.485 36.6063C120.341 36.6998 120.198 36.7878 120.071 36.8704C119.905 36.8869 119.756 36.9034 119.64 36.9144C119.248 36.8098 118.977 36.5787 118.707 36.3312C118.503 36.3092 118.293 36.2541 118.094 36.2707C117.917 36.2816 117.74 36.3752 117.58 36.4247C117.282 36.2596 116.945 36.3312 116.647 36.2156C116.52 36.1661 116.354 36.2266 116.211 36.2431C116.106 36.1936 116.007 36.1386 115.907 36.0946C115.891 36.0891 115.869 36.0946 115.852 36.0946C115.764 36.1386 115.681 36.1771 115.603 36.2156C115.211 36.1606 114.819 36.2707 114.455 36.1826C114.367 36.2596 114.3 36.3202 114.245 36.3697C114.157 36.3532 114.09 36.3367 114.024 36.3202C113.903 36.4027 113.798 36.4742 113.726 36.5237H112.948C112.865 36.4522 112.771 36.3642 112.677 36.2816C112.528 36.3037 112.401 36.3257 112.274 36.3422C112.147 36.3587 112.003 36.3422 111.887 36.3917C111.782 36.4357 111.699 36.5402 111.611 36.6173C111.462 36.5017 111.418 36.2927 111.169 36.2981C111.092 36.3587 110.993 36.4357 110.877 36.5292C110.783 36.4962 110.678 36.4632 110.545 36.4192C110.209 36.5787 109.877 36.4192 109.568 36.3092C109.452 36.3532 109.369 36.3917 109.275 36.4247C108.812 36.2321 108.348 36.034 107.834 35.8195C107.442 35.803 106.984 35.88 106.619 35.6764C106.222 35.6544 105.951 35.814 105.719 36.0066C105.587 35.946 105.482 35.902 105.388 35.8635C105.239 35.9295 105.106 36.0175 104.963 36.0451C104.521 36.1276 104.158 36.3422 103.841 36.6448C103.704 36.6008 103.581 36.5402 103.456 36.5237C103.307 36.5072 103.156 36.5237 103.007 36.5348C102.831 36.5402 102.671 36.5072 102.534 36.3972C102.445 36.3312 102.357 36.2596 102.34 36.2431C101.82 36.1221 101.386 36.0231 100.961 35.924C100.827 36.0011 100.715 36.0726 100.595 36.1276C100.461 36.1881 100.453 36.3917 100.281 36.4137C100.124 36.1386 100.513 36.0451 100.461 35.7865C100.413 35.759 100.353 35.7039 100.287 35.6874C99.8674 35.5939 99.4478 35.5004 99.0225 35.4233C98.9397 35.4068 98.8455 35.4729 98.757 35.4894C98.7227 35.4949 98.6856 35.4894 98.6514 35.4838C98.5971 35.4343 98.54 35.3848 98.4915 35.3408C97.7836 35.1757 97.1213 35.3463 96.4647 35.5554C96.399 35.4729 96.3363 35.4013 96.2763 35.3298C96.2392 35.3298 96.205 35.3188 96.1679 35.3188C95.8139 35.3023 95.4542 35.3738 95.1116 35.2583C94.8462 35.1703 94.5807 35.0712 94.3181 34.9777C94.201 35.0162 94.0783 35.0602 94.0012 35.0877C93.8299 34.9942 93.7043 34.9227 93.5702 34.8511C93.3104 34.9447 93.1077 34.7301 92.8537 34.7026C92.7052 34.7301 92.5397 34.7631 92.3941 34.7961C92.14 34.7466 91.9545 34.6421 91.7832 34.477C91.649 34.3504 91.4835 34.2404 91.3122 34.1799C91.1095 34.1084 90.8868 34.0919 90.6728 34.0478C90.5329 34.1524 90.3958 34.2514 90.2588 34.3504L90.2645 34.356C90.313 34.1634 90.3616 33.9653 90.413 33.7562C90.1418 33.5581 89.805 33.5857 89.528 33.5196C89.3197 33.4206 89.1826 33.2446 88.9229 33.2611C88.8287 33.3161 88.7173 33.3766 88.6117 33.4316C88.4462 33.4316 88.2863 33.3931 88.155 33.4426C87.9951 33.4976 87.861 33.4646 87.7468 33.4206C87.1644 33.5912 86.6021 33.7067 86.0454 33.7397C85.5687 33.6022 85.1234 33.5031 84.6524 33.6572C84.6038 33.5802 84.5553 33.5087 84.4982 33.4206C84.3983 33.5031 84.3156 33.5747 84.2499 33.6297C83.8702 33.6187 83.5933 33.4316 83.3164 33.2335C83.2022 33.2776 83.0966 33.3161 82.9796 33.3601C82.6827 33.1455 82.3716 32.9529 81.9976 32.9474C81.9091 33.0795 81.9633 33.1455 82.0404 33.2115C82.0975 33.2611 82.1518 33.3106 82.2117 33.3601C82.2831 33.4206 82.3573 33.4811 82.4344 33.5307C82.4943 33.5692 82.5657 33.5967 82.6313 33.6352C82.7084 33.6792 82.8254 33.6682 82.8426 33.7892C82.6113 33.8039 82.2831 33.6664 81.8606 33.3766C81.7321 33.1565 81.6265 32.9034 81.3467 32.8209C81.2411 32.8539 81.1355 32.8924 81.0413 32.9199C80.9928 32.8924 80.9528 32.8814 80.9328 32.8539C80.6873 32.6173 80.4304 32.6228 80.1707 32.8154C80.0707 32.8869 79.9765 32.9089 79.8595 32.9309C79.6511 32.9749 79.5455 33.1125 79.574 33.3271C79.6939 33.4536 79.811 33.5692 79.9223 33.6847C79.888 33.7452 79.8766 33.7892 79.8481 33.8057C79.7996 33.8278 79.7396 33.8443 79.6882 33.8333C79.3742 33.7892 79.1487 33.5912 78.9261 33.3766C78.9118 33.2886 78.8946 33.2005 78.8775 33.0905C78.7462 33.0079 78.6063 32.9144 78.5407 32.8704C78.2581 32.8209 78.0611 32.7879 77.8242 32.7438C77.7185 32.7769 77.573 32.8154 77.4302 32.8594C77.2647 32.8044 77.1048 32.7438 76.9449 32.6944C76.9107 32.6833 76.8736 32.6998 76.7851 32.7109C76.7337 32.7879 76.6623 32.8924 76.591 33.0025C76.4368 32.9364 76.3312 32.8979 76.2313 32.8539C76.1342 32.8044 76.04 32.7438 75.9773 32.7109H75.5491C75.3835 32.8594 75.1951 32.9474 74.9781 32.9529C74.7583 32.9584 74.5328 32.9529 74.2987 32.9529C74.1788 32.8704 74.0561 32.7879 73.9305 32.6944C73.782 32.7274 73.6364 32.7659 73.5337 32.7879C73.3167 32.6833 73.1341 32.6008 72.9456 32.5128C72.9142 32.6008 72.8857 32.6668 72.8543 32.7549C72.7144 32.7769 72.5717 32.8044 72.4718 32.8209C72.272 32.6888 72.3348 32.4138 72.0864 32.3642C72.0036 32.4247 71.9208 32.4853 71.7924 32.5733C71.7696 32.4358 71.7695 32.3312 71.7438 32.2267C71.7153 32.1221 71.6668 32.0231 71.6154 31.9076C71.1644 31.836 70.7162 31.8085 70.2423 31.8305C70.2024 31.8966 70.1538 31.9736 70.1196 32.0341C70.2024 32.1497 70.2623 32.2322 70.3308 32.3257C70.1167 32.3954 69.9512 32.4046 69.8313 32.3532C69.5458 32.2267 69.2518 32.0946 68.9606 31.9736C68.8607 31.9351 68.7437 31.913 68.6352 31.9076C68.3526 31.8856 68.07 31.869 67.7959 31.858C67.6133 31.8525 67.4306 31.858 67.1993 31.858C67.0994 31.781 66.9567 31.6655 66.7968 31.5444C66.5028 31.6215 66.2202 31.6985 65.9347 31.7755C65.7463 31.6269 65.6407 31.3794 65.3495 31.3023C65.2439 31.3298 65.1126 31.3628 64.9727 31.4014C64.8414 31.1263 64.7244 30.8732 64.6045 30.6201C64.593 30.5981 64.536 30.5926 64.4703 30.5651C64.3761 30.6806 64.2819 30.8017 64.1992 30.9062C63.9908 30.9007 63.8737 30.8237 63.8309 30.6586C63.7852 30.5046 63.6967 30.3945 63.5369 30.356C63.4341 30.3945 63.3342 30.4275 63.2343 30.4605C63.1344 30.378 63.0459 30.3065 62.9745 30.2405C62.8318 30.224 62.7033 30.1964 62.572 30.1909C62.4435 30.1909 62.3179 30.2074 62.1838 30.2185C62.1124 30.3615 62.0525 30.4825 61.9868 30.6146C61.9412 30.5211 61.9155 30.455 61.8812 30.389H61.3331C60.9877 30.1799 60.6052 30.1084 60.2455 29.9819C60.1627 30.1084 60.097 30.2074 60.0314 30.3065C59.8716 30.1854 59.7545 30.0479 59.6004 29.9819C59.1151 29.7673 58.607 29.6518 58.0703 29.6738C57.7677 29.6903 57.4737 29.6738 57.2368 29.5362C56.6915 29.6627 56.1834 29.7783 55.6467 29.8993C55.5639 29.9544 55.4583 30.0314 55.3584 30.0974H54.9017C54.7732 30.2019 54.6648 30.2955 54.5591 30.378C54.405 30.389 54.2765 30.4055 54.1452 30.4055C53.9454 30.4055 53.7798 30.466 53.6371 30.6036C53.6143 30.6256 53.5714 30.6146 53.5372 30.6201C53.4258 30.5046 53.4116 30.2955 53.2118 30.2625C53.1404 30.29 53.0747 30.312 53.0519 30.323C52.8749 30.2625 52.7379 30.2129 52.6151 30.1744C52.3668 30.2955 52.1784 30.4825 51.8644 30.4275C51.5675 30.2239 51.2021 30.1029 50.7882 30.1249C50.6997 30.2514 50.6169 30.367 50.517 30.5046C50.2744 30.411 50.0546 30.3285 49.8433 30.2514C49.7834 30.323 49.732 30.378 49.6664 30.455C49.4237 30.2185 49.1525 30.1084 48.8728 30.1249C48.6501 30.301 48.4474 30.4605 48.2819 30.5926H47.9507C47.828 30.6916 47.7109 30.7852 47.5968 30.8787H47.1429V31.1703C46.846 31.1483 46.6405 30.8622 46.3265 30.9337C46.178 31.1098 46.1437 31.3298 46.1152 31.5554C46.1152 31.5774 46.0781 31.5884 46.0553 31.6104C46.001 31.5059 45.9496 31.4069 45.9068 31.3188C45.7184 31.2638 45.5414 31.2143 45.3445 31.1593C45.2332 31.3739 45.1218 31.5829 45.0019 31.814C44.3425 31.6269 43.6602 31.616 42.9466 31.5664C42.958 31.726 42.9694 31.858 42.9751 31.9846L42.9808 31.9791C42.8638 31.9626 42.7525 31.9351 42.6925 31.8305C42.604 31.6765 42.4613 31.6104 42.3157 31.5169C42.0617 31.3519 41.7419 31.3519 41.5507 31.1868C41.2452 31.1648 40.9912 31.1483 40.6886 31.1318C40.6287 31.1593 40.5287 31.2033 40.4289 31.2473C40.2576 31.1593 40.092 31.0768 39.9207 30.9942C39.8094 31.0602 39.7152 31.1153 39.6182 31.1703C39.5953 31.4069 39.5724 31.6269 39.5496 31.8415C39.4839 31.66 39.4783 31.4784 39.4611 31.3023C39.4526 31.2143 39.4412 31.1098 39.3584 31.0878C39.0358 31.2253 38.7389 31.3574 38.462 31.4729C38.3193 31.3904 38.2023 31.3298 38.0824 31.2638C38.0253 31.3188 37.9882 31.3574 37.9425 31.4069C37.8454 31.3849 37.7227 31.3519 37.5913 31.3243C37.5171 31.4014 37.4515 31.4674 37.3915 31.5334C37.3487 31.5059 37.3087 31.4784 37.2659 31.4509C37.2145 31.5059 37.166 31.5554 37.1204 31.6049C37.0005 31.5774 36.8949 31.5499 36.8007 31.5279C36.7122 31.638 36.6465 31.7205 36.5637 31.825C36.4581 31.7865 36.3582 31.748 36.264 31.715C36.0328 31.759 35.813 31.803 35.6588 31.836C35.3762 32.0176 35.1393 32.1662 34.9081 32.3147C34.8966 32.4027 34.8852 32.4908 34.8738 32.6008C34.8024 32.5623 34.731 32.5513 34.7082 32.5128C34.6425 32.3862 34.5969 32.2487 34.5427 32.1166C34.3942 32.2047 34.32 32.0231 34.2001 32.0176C34.1601 32.1001 34.1173 32.1827 34.0774 32.2597C33.869 32.2982 33.6748 32.3367 33.4922 32.3697C33.4037 32.2927 33.338 32.2322 33.2723 32.1771C32.9955 32.4523 32.71 32.6228 32.3446 32.6888C31.9592 32.7549 31.5881 32.8759 31.1799 32.9805C31.1228 33.118 31.0629 33.2666 30.9915 33.4426C30.8317 33.4096 30.6946 33.3821 30.5376 33.3546C30.4777 33.5087 30.4235 33.6572 30.3578 33.8222C30.0409 33.8002 29.9096 33.4756 29.6441 33.4371C29.6013 33.3216 29.5671 33.239 29.5328 33.1455C29.2416 33.1125 28.9705 33.041 28.6936 33.1785C28.5565 33.1455 28.4081 33.118 28.2796 33.085C28.1027 33.1565 27.9485 33.2225 27.7944 33.2831C27.6288 33.4371 27.4632 33.5912 27.2691 33.7727C27.2035 33.7892 27.0921 33.8168 26.9979 33.8388C26.878 33.7948 26.7781 33.7562 26.6839 33.7232C26.5183 33.8057 26.3699 33.8773 26.2272 33.9433C26.133 33.8718 26.0616 33.8167 25.9931 33.7617C25.9017 33.8002 25.819 33.8333 25.7305 33.8773C25.6534 33.9158 25.6363 34.0478 25.5078 34.0148C25.4022 33.8608 25.4421 33.5802 25.1339 33.5967C25.0996 33.6792 25.0625 33.7562 25.0226 33.8498C24.8284 33.8498 24.7086 33.7562 24.6686 33.5637L24.6971 33.5417L24.6743 33.5692C24.5858 33.5967 24.4973 33.6242 24.4088 33.6517C24.3317 33.7342 24.2604 33.8113 24.1947 33.8773C23.8693 33.7856 23.6324 33.6664 23.4753 33.5196C23.718 33.3601 23.9178 33.6902 24.1548 33.5857C23.8693 33.2225 23.8236 33.2005 23.3041 33.173C23.2384 33.2446 23.1785 33.3106 23.1071 33.3876C22.8473 33.3051 22.6047 33.228 22.3678 33.151C22.0138 33.3546 21.6769 33.5527 21.2944 33.7727C21.1688 33.7672 20.9918 33.7562 20.7806 33.7452C20.8548 33.9708 20.6721 33.9048 20.5951 33.9653C20.4951 34.0423 20.4181 34.1414 20.3353 34.2184C20.0927 34.0863 19.8814 33.9708 19.6816 33.8663C19.5788 33.9103 19.4903 33.9433 19.4389 33.9653C19.1735 33.9158 18.9936 33.7837 18.8052 33.6517C18.7453 33.6077 18.6396 33.6132 18.534 33.5912C18.4512 33.8828 18.2371 34.0863 18.2857 34.3889C18.22 34.378 18.1743 34.3835 18.1544 34.3615C17.906 34.1744 17.6662 34.2019 17.4407 34.4055C17.2751 34.554 17.1096 34.7081 16.9383 34.8511C16.9155 34.8731 16.8669 34.8676 16.7956 34.8897C16.7556 34.8291 16.7128 34.7631 16.6614 34.6806C16.8013 34.5155 16.9383 34.3835 17.0325 34.2294C17.1382 34.0643 17.3208 33.9488 17.3865 33.7452C17.1496 33.6517 16.944 33.5747 16.7442 33.4976C16.4787 33.5307 16.2817 33.6572 16.1276 33.8388C15.6623 33.7837 15.2541 33.9323 14.8459 34.0478C14.7517 34.1469 14.6632 34.2404 14.5747 34.3284C14.0666 34.3504 13.5927 34.1249 13.0618 34.3009C12.979 34.4 12.8676 34.521 12.7592 34.653C12.8191 34.7851 12.8676 34.9062 12.9247 35.0217L12.9304 35.0162C12.6935 34.9942 12.5251 34.8401 12.4394 34.7686C12.0969 34.6586 11.8542 34.587 11.6002 34.5045C11.4175 34.5705 11.2119 34.6751 11.0036 34.7081C10.7866 34.7466 10.5668 34.7136 10.3185 34.7136C10.2842 34.8126 10.2528 34.9171 10.2185 35.0162L10.2243 35.0107C10.1244 34.9282 10.0244 34.8456 9.92456 34.7686C9.77039 34.8511 9.62195 34.9282 9.48492 35.0162C9.34506 35.0987 9.20801 35.1923 9.07956 35.2748C8.96536 35.2308 8.82266 35.2528 8.83121 35.1592C8.88831 34.9612 9.13098 35.0712 9.10812 34.8346C8.95969 34.8071 8.7998 34.7796 8.65137 34.7521C8.59427 34.8236 8.5629 34.8621 8.52866 34.9062C8.45728 34.9667 8.39163 35.0272 8.31454 35.0822C8.29172 35.0987 8.25174 35.0987 8.21463 35.1097C8.15756 35.0162 8.10904 34.9062 7.93204 34.9612C7.90921 35.0052 7.87778 35.0712 7.84354 35.1317C7.78931 35.1757 7.73221 35.2197 7.67798 35.2693C7.55807 35.0492 7.44672 34.8566 7.32968 34.6586C7.25833 34.6365 7.18124 34.6256 7.12131 34.5925C7.0585 34.554 7.02139 34.4935 6.95575 34.422C6.83871 34.521 6.73309 34.62 6.60748 34.7301C6.40198 34.543 6.21356 34.3615 6.02228 34.1909C5.95663 34.1359 5.87384 34.1028 5.77393 34.0478C5.69687 34.1689 5.63977 34.2624 5.5798 34.356H5.58554C5.39142 34.2349 5.20016 34.1304 4.96039 34.1909C4.70633 34.4055 4.45224 34.6145 4.18964 34.8401C4.11539 34.8291 4.02692 34.8126 3.94412 34.7961C3.87277 34.8566 3.80142 34.9062 3.71292 34.9832C3.5759 34.7136 3.3447 34.7136 3.11633 34.6971C2.81946 34.6806 2.52542 34.6641 2.10577 34.6421C1.93451 34.6641 1.66046 34.8456 1.36646 34.6696C1.16663 34.7411 0.981049 34.8126 0.78125 34.8841C0.664215 34.7576 0.567169 34.6476 0.472961 34.543C0.333069 34.4825 0.196045 34.4275 0.059021 34.3669L0.0304871 34.3064ZM17.8775 33.6737C17.8546 33.5527 17.7719 33.5307 17.6719 33.5581C17.6577 33.5581 17.6348 33.6297 17.6462 33.6462C17.7119 33.7232 17.789 33.7672 17.8775 33.6737ZM149.668 38.1413C149.668 38.1413 149.624 38.1028 149.602 38.0863C149.591 38.0973 149.574 38.1248 149.574 38.1248C149.596 38.1468 149.618 38.1633 149.64 38.1798C149.651 38.1688 149.663 38.1523 149.668 38.1413ZM92.4883 34.433C92.4883 34.433 92.5168 34.433 92.534 34.433C92.5226 34.411 92.5168 34.3889 92.5054 34.3669C92.494 34.3724 92.4711 34.3835 92.4711 34.3889C92.4711 34.4 92.4826 34.4165 92.4883 34.433Z" fill="#202426"/>
</svg>
