<svg width="58" height="24" viewBox="0 0 58 24" fill="none" xmlns="http://www.w3.org/2000/svg">
<path d="M31.3153 9.90909C31.2599 9.44129 31.0353 9.07812 30.6413 8.8196C30.2474 8.56108 29.7642 8.43182 29.1918 8.43182C28.7732 8.43182 28.407 8.49953 28.093 8.63494C27.7822 8.77036 27.5391 8.95656 27.3636 9.19354C27.1913 9.43052 27.1051 9.69981 27.1051 10.0014C27.1051 10.2538 27.1651 10.4708 27.2852 10.6523C27.4083 10.8308 27.5652 10.9801 27.756 11.1001C27.9469 11.2171 28.1469 11.314 28.3562 11.391C28.5655 11.4648 28.7578 11.5249 28.9332 11.571L29.8935 11.8295C30.1397 11.8942 30.4136 11.9834 30.7152 12.0973C31.0199 12.2112 31.3107 12.3666 31.5877 12.5636C31.8678 12.7575 32.0986 13.0067 32.2802 13.3114C32.4618 13.6161 32.5526 13.9901 32.5526 14.4332C32.5526 14.9441 32.4187 15.4058 32.1509 15.8182C31.8862 16.2306 31.4985 16.5584 30.9876 16.8015C30.4798 17.0446 29.8627 17.1662 29.1364 17.1662C28.4593 17.1662 27.873 17.0569 27.3775 16.8384C26.8851 16.6199 26.4973 16.3152 26.2141 15.9244C25.9341 15.5335 25.7756 15.0795 25.7386 14.5625H26.9205C26.9512 14.9195 27.0713 15.215 27.2805 15.4489C27.4929 15.6797 27.7607 15.852 28.0838 15.9659C28.41 16.0767 28.7609 16.1321 29.1364 16.1321C29.5734 16.1321 29.9658 16.0613 30.3136 15.9197C30.6613 15.7751 30.9368 15.575 31.1399 15.3196C31.343 15.0611 31.4446 14.7595 31.4446 14.4148C31.4446 14.1009 31.3569 13.8454 31.1815 13.6484C31.006 13.4515 30.7752 13.2914 30.489 13.1683C30.2028 13.0452 29.8935 12.9375 29.5611 12.8452L28.3977 12.5128C27.6591 12.3004 27.0743 11.9973 26.6435 11.6033C26.2126 11.2094 25.9972 10.6939 25.9972 10.0568C25.9972 9.52746 26.1403 9.06581 26.4265 8.67188C26.7158 8.27486 27.1036 7.96709 27.5898 7.74858C28.0792 7.52699 28.6255 7.41619 29.2287 7.41619C29.8381 7.41619 30.3797 7.52545 30.8537 7.74396C31.3277 7.9594 31.7031 8.25485 31.9801 8.63033C32.2602 9.0058 32.4079 9.43205 32.4233 9.90909H31.3153ZM37.471 9.90909V10.8324H33.7963V9.90909H37.471ZM34.8673 8.21023H35.9568V14.9688C35.9568 15.2765 36.0014 15.5073 36.0907 15.6612C36.183 15.812 36.3 15.9136 36.4415 15.9659C36.5862 16.0152 36.7385 16.0398 36.8986 16.0398C37.0186 16.0398 37.1171 16.0336 37.194 16.0213C37.271 16.0059 37.3325 15.9936 37.3787 15.9844L37.6003 16.9631C37.5264 16.9908 37.4233 17.0185 37.291 17.0462C37.1586 17.0769 36.9909 17.0923 36.7878 17.0923C36.48 17.0923 36.1784 17.0262 35.8829 16.8938C35.5906 16.7615 35.3474 16.5599 35.1535 16.2891C34.9627 16.0182 34.8673 15.6766 34.8673 15.2642V8.21023ZM41.2965 17.1662C40.8472 17.1662 40.4394 17.0816 40.0731 16.9123C39.7069 16.7399 39.4161 16.4922 39.2006 16.169C38.9852 15.8428 38.8775 15.4489 38.8775 14.9872C38.8775 14.581 38.9575 14.2517 39.1175 13.9993C39.2776 13.7438 39.4915 13.5438 39.7592 13.3991C40.027 13.2545 40.3224 13.1468 40.6456 13.076C40.9718 13.0021 41.2996 12.9437 41.6289 12.9006C42.0598 12.8452 42.4091 12.8036 42.6768 12.7759C42.9477 12.7451 43.1446 12.6944 43.2677 12.6236C43.3939 12.5528 43.457 12.4297 43.457 12.2543V12.2173C43.457 11.7618 43.3324 11.4079 43.0831 11.1555C42.8369 10.9032 42.4629 10.777 41.9613 10.777C41.4412 10.777 41.0334 10.8909 40.7379 11.1186C40.4425 11.3464 40.2347 11.5895 40.1147 11.848L39.0806 11.4787C39.2653 11.0478 39.5115 10.7124 39.8192 10.4723C40.1301 10.2292 40.4686 10.0599 40.8349 9.96449C41.2042 9.866 41.5673 9.81676 41.9243 9.81676C42.1521 9.81676 42.4137 9.84446 42.7091 9.89986C43.0077 9.95218 43.2954 10.0614 43.5724 10.2276C43.8525 10.3938 44.0849 10.6446 44.2695 10.9801C44.4542 11.3156 44.5465 11.7649 44.5465 12.3281V17H43.457V16.0398H43.4016C43.3278 16.1937 43.2046 16.3583 43.0323 16.5337C42.8599 16.7092 42.6307 16.8584 42.3444 16.9815C42.0582 17.1046 41.7089 17.1662 41.2965 17.1662ZM41.4627 16.1875C41.8936 16.1875 42.2567 16.1029 42.5522 15.9336C42.8507 15.7643 43.0754 15.5458 43.2262 15.2781C43.3801 15.0103 43.457 14.7287 43.457 14.4332V13.4361C43.4108 13.4915 43.3093 13.5423 43.1523 13.5884C42.9984 13.6315 42.8199 13.67 42.6168 13.7038C42.4168 13.7346 42.2213 13.7623 42.0305 13.7869C41.8428 13.8085 41.6904 13.8269 41.5735 13.8423C41.2903 13.8793 41.0257 13.9393 40.7795 14.0224C40.5363 14.1024 40.3394 14.224 40.1885 14.3871C40.0408 14.5471 39.967 14.7656 39.967 15.0426C39.967 15.4212 40.107 15.7074 40.3871 15.9013C40.6702 16.0921 41.0287 16.1875 41.4627 16.1875ZM46.635 17V9.90909H47.6876V10.9801H47.7615C47.8907 10.6293 48.1246 10.3446 48.4632 10.1261C48.8017 9.90755 49.1833 9.79829 49.6081 9.79829C49.6881 9.79829 49.7881 9.79983 49.9081 9.80291C50.0282 9.80599 50.119 9.81061 50.1805 9.81676V10.9247C50.1436 10.9155 50.0589 10.9016 49.9266 10.8832C49.7973 10.8616 49.6604 10.8509 49.5157 10.8509C49.171 10.8509 48.8633 10.9232 48.5924 11.0678C48.3247 11.2094 48.1123 11.4064 47.9554 11.6587C47.8015 11.908 47.7245 12.1927 47.7245 12.5128V17H46.635ZM52.5876 14.4148L52.5691 13.0668H52.7907L55.893 9.90909H57.241L53.9356 13.2514H53.8433L52.5876 14.4148ZM51.572 17V7.54545H52.6615V17H51.572ZM56.0776 17L53.3078 13.4915L54.0833 12.7344L57.4626 17H56.0776Z" fill="#FBF8E6"/>
<path d="M21 10.5C21 4.70094 16.2991 0 10.5 0C4.70094 0 0 4.70094 0 10.5C0 16.2991 4.70094 21 10.5 21C16.2991 21 21 16.2991 21 10.5Z" fill="#202426"/>
<path fill-rule="evenodd" clip-rule="evenodd" d="M10.1851 15.7405V14.1611C11.2657 14.2556 12.3324 13.8662 13.0989 13.0984C14.3195 11.8778 14.526 9.97248 13.5959 8.51823L8.51823 13.5954L7.38598 14.7277C7.17423 14.571 6.97386 14.3987 6.78792 14.2123C4.73736 12.1622 4.73736 8.83804 6.78792 6.78792C7.84886 5.72479 9.31536 5.16829 10.8151 5.25973V6.8391C9.73448 6.7446 8.66786 7.13398 7.90136 7.90179C6.68073 9.12242 6.47423 11.0277 7.40436 12.482L12.482 7.40479L13.6142 6.27298C13.826 6.4296 14.0264 6.60154 14.2123 6.78835C16.2629 8.83804 16.2629 12.1622 14.2123 14.2123C13.1514 15.2754 11.6844 15.8319 10.1851 15.7405Z" fill="#FBF8E6"/>
</svg>
