<svg width="68" height="24" viewBox="0 0 68 24" fill="none" xmlns="http://www.w3.org/2000/svg">
<path d="M21.6278 8.56108V7.54545H28.7188V8.56108H25.7457V17H24.6009V8.56108H21.6278ZM32.2903 17.1477C31.6502 17.1477 31.0885 16.9954 30.6053 16.6907C30.1252 16.386 29.7497 15.9598 29.4789 15.4119C29.2112 14.8641 29.0773 14.224 29.0773 13.4915C29.0773 12.7528 29.2112 12.1081 29.4789 11.5572C29.7497 11.0063 30.1252 10.5785 30.6053 10.2738C31.0885 9.96911 31.6502 9.81676 32.2903 9.81676C32.9305 9.81676 33.4906 9.96911 33.9707 10.2738C34.4539 10.5785 34.8294 11.0063 35.0972 11.5572C35.368 12.1081 35.5034 12.7528 35.5034 13.4915C35.5034 14.224 35.368 14.8641 35.0972 15.4119C34.8294 15.9598 34.4539 16.386 33.9707 16.6907C33.4906 16.9954 32.9305 17.1477 32.2903 17.1477ZM32.2903 16.169C32.7766 16.169 33.1767 16.0444 33.4906 15.7951C33.8045 15.5458 34.0369 15.218 34.1877 14.8118C34.3385 14.4055 34.4139 13.9654 34.4139 13.4915C34.4139 13.0175 34.3385 12.5759 34.1877 12.1665C34.0369 11.7572 33.8045 11.4264 33.4906 11.174C33.1767 10.9216 32.7766 10.7955 32.2903 10.7955C31.8041 10.7955 31.404 10.9216 31.0901 11.174C30.7761 11.4264 30.5438 11.7572 30.393 12.1665C30.2422 12.5759 30.1668 13.0175 30.1668 13.4915C30.1668 13.9654 30.2422 14.4055 30.393 14.8118C30.5438 15.218 30.7761 15.5458 31.0901 15.7951C31.404 16.0444 31.8041 16.169 32.2903 16.169ZM40.3503 9.90909V10.8324H36.6756V9.90909H40.3503ZM37.7466 8.21023H38.8361V14.9688C38.8361 15.2765 38.8807 15.5073 38.97 15.6612C39.0623 15.812 39.1793 15.9136 39.3208 15.9659C39.4655 16.0152 39.6178 16.0398 39.7779 16.0398C39.8979 16.0398 39.9964 16.0336 40.0733 16.0213C40.1503 16.0059 40.2118 15.9936 40.258 15.9844L40.4796 16.9631C40.4057 16.9908 40.3026 17.0185 40.1703 17.0462C40.0379 17.0769 39.8702 17.0923 39.6671 17.0923C39.3593 17.0923 39.0577 17.0262 38.7622 16.8938C38.4699 16.7615 38.2267 16.5599 38.0328 16.2891C37.842 16.0182 37.7466 15.6766 37.7466 15.2642V8.21023ZM44.1758 17.1662C43.7265 17.1662 43.3187 17.0816 42.9524 16.9123C42.5862 16.7399 42.2954 16.4922 42.0799 16.169C41.8645 15.8428 41.7568 15.4489 41.7568 14.9872C41.7568 14.581 41.8368 14.2517 41.9968 13.9993C42.1569 13.7438 42.3708 13.5438 42.6385 13.3991C42.9063 13.2545 43.2017 13.1468 43.5249 13.076C43.8511 13.0021 44.1789 12.9437 44.5082 12.9006C44.9391 12.8452 45.2884 12.8036 45.5561 12.7759C45.827 12.7451 46.0239 12.6944 46.147 12.6236C46.2732 12.5528 46.3363 12.4297 46.3363 12.2543V12.2173C46.3363 11.7618 46.2117 11.4079 45.9624 11.1555C45.7162 10.9032 45.3422 10.777 44.8406 10.777C44.3204 10.777 43.9127 10.8909 43.6172 11.1186C43.3218 11.3464 43.114 11.5895 42.994 11.848L41.9599 11.4787C42.1445 11.0478 42.3908 10.7124 42.6985 10.4723C43.0094 10.2292 43.3479 10.0599 43.7142 9.96449C44.0835 9.866 44.4466 9.81676 44.8036 9.81676C45.0314 9.81676 45.293 9.84446 45.5884 9.89986C45.887 9.95218 46.1747 10.0614 46.4517 10.2276C46.7318 10.3938 46.9642 10.6446 47.1488 10.9801C47.3335 11.3156 47.4258 11.7649 47.4258 12.3281V17H46.3363V16.0398H46.2809C46.207 16.1937 46.0839 16.3583 45.9116 16.5337C45.7392 16.7092 45.51 16.8584 45.2237 16.9815C44.9375 17.1046 44.5882 17.1662 44.1758 17.1662ZM44.342 16.1875C44.7729 16.1875 45.136 16.1029 45.4315 15.9336C45.73 15.7643 45.9547 15.5458 46.1055 15.2781C46.2594 15.0103 46.3363 14.7287 46.3363 14.4332V13.4361C46.2901 13.4915 46.1886 13.5423 46.0316 13.5884C45.8777 13.6315 45.6992 13.67 45.4961 13.7038C45.2961 13.7346 45.1006 13.7623 44.9098 13.7869C44.7221 13.8085 44.5697 13.8269 44.4528 13.8423C44.1696 13.8793 43.905 13.9393 43.6588 14.0224C43.4156 14.1024 43.2186 14.224 43.0678 14.3871C42.9201 14.5471 42.8463 14.7656 42.8463 15.0426C42.8463 15.4212 42.9863 15.7074 43.2664 15.9013C43.5495 16.0921 43.908 16.1875 44.342 16.1875ZM52.2992 7.54545V17H51.1543V8.74574H51.099L48.7907 10.2784V9.11506L51.1543 7.54545H52.2992ZM58.4422 7.54545V17H57.2973V8.74574H57.2419L54.9337 10.2784V9.11506L57.2973 7.54545H58.4422ZM61.9815 19.6591C61.7968 19.6591 61.6322 19.6437 61.4875 19.6129C61.3429 19.5852 61.2428 19.5575 61.1874 19.5298L61.4644 18.5696C61.7291 18.6373 61.963 18.6619 62.1661 18.6435C62.3693 18.625 62.5493 18.5342 62.7063 18.3711C62.8663 18.2111 63.0125 17.951 63.1448 17.5909L63.348 17.0369L60.7258 9.90909H61.9076L63.865 15.5597H63.9389L65.8963 9.90909H67.0781L64.0681 18.0341C63.9327 18.4003 63.765 18.7035 63.5649 18.9435C63.3649 19.1867 63.1325 19.3667 62.8678 19.4837C62.6062 19.6006 62.3108 19.6591 61.9815 19.6591Z" fill="#FBF8E6"/>
<mask id="mask0_13917_37144" style="mask-type:alpha" maskUnits="userSpaceOnUse" x="0" y="3" width="17" height="17">
<path d="M8.5 20C13.1944 20 17 16.1944 17 11.5C17 6.80558 13.1944 3 8.5 3C3.80558 3 0 6.80558 0 11.5C0 16.1944 3.80558 20 8.5 20Z" fill="#C4C4C4"/>
</mask>
<g mask="url(#mask0_13917_37144)">
<path d="M8.50031 -0.519839L-3.52051 11.501L-1.80325 13.2182L10.2176 1.19742L8.50031 -0.519839Z" fill="#DB0F0F"/>
<path d="M15.3694 6.34881L3.34863 18.3696L5.06589 20.0869L17.0867 8.06607L15.3694 6.34881Z" fill="#139FB4"/>
<path d="M11.9349 2.91376L-0.0859375 14.9346L1.63132 16.6518L13.6521 4.63101L11.9349 2.91376Z" fill="#F5D800"/>
<path d="M18.804 9.78387L6.7832 21.8047L8.50046 23.5219L20.5213 11.5011L18.804 9.78387Z" fill="#5C12AF"/>
<path d="M10.2181 1.19696L-1.80273 13.2178L-0.0854754 14.935L11.9353 2.91422L10.2181 1.19696Z" fill="#FFB710"/>
<path d="M17.0872 8.06561L5.06641 20.0864L6.78367 21.8037L18.8045 9.78287L17.0872 8.06561Z" fill="#003FC2"/>
<path d="M13.6527 4.63202L1.63184 16.6528L3.3491 18.3701L15.3699 6.34928L13.6527 4.63202Z" fill="#56D516"/>
<path d="M12.1037 9.46093C11.9541 9.43458 11.7949 9.42392 11.6522 9.38298C11.5629 9.35744 11.4637 9.2967 11.3774 9.23387C11.2032 9.10637 11.0307 9.01786 10.8281 8.93534C10.7342 8.89706 10.6019 8.83851 10.488 8.85102C10.4065 8.85987 10.3207 8.9431 10.246 8.99375C10.0788 9.10722 9.94028 9.19378 9.78169 9.29865C9.70841 9.3472 9.59876 9.40933 9.56593 9.47385C9.54606 9.51253 9.54772 9.57593 9.52662 9.61658C9.47767 9.71076 9.37712 9.81548 9.2781 9.8112C9.16133 9.80592 9.03014 9.60061 9.07544 9.44789C9.1002 9.36438 9.23294 9.32277 9.32382 9.27283C9.60928 9.11554 9.85567 8.9538 10.0958 8.77317C10.2505 8.65654 10.4565 8.56914 10.7302 8.55929C10.9944 8.54944 11.3525 8.54778 11.6 8.55929C11.8049 8.56843 11.9774 8.58203 12.1561 8.61755C13.1781 8.82134 14.2116 9.0043 15.1779 9.2792C15.2812 9.30878 15.5829 9.36424 15.6095 9.46107C15.6264 9.52199 15.5765 9.66015 15.557 9.75945C15.5339 9.87945 15.5162 9.98499 15.4983 10.071C15.4815 10.1506 15.4074 10.2339 15.3674 10.3174C15.2496 10.564 15.1745 10.8474 15.0731 11.1154C14.9397 11.4684 14.7906 11.7894 14.5761 12.082C14.3719 12.3601 14.0947 12.5439 13.7388 12.7112C13.581 12.7852 13.399 12.8614 13.2025 12.9058C13.013 12.9489 12.7461 12.9932 12.5288 12.9446C12.2165 12.8751 12.0979 12.5919 11.9859 12.3154C11.8673 12.022 11.797 11.7538 11.7571 11.3684C11.3806 11.3928 11.3013 11.6478 11.1749 11.9133C11.1212 12.0259 11.0641 12.1384 11.0116 12.2441C10.7959 12.6762 10.5645 13.1416 10.2461 13.4573C10.0762 13.6256 9.88521 13.7389 9.63779 13.8399C9.17195 14.0304 8.68023 14.1963 8.13339 14.3201C7.63023 14.434 6.88552 14.5479 6.41994 14.3072C6.12123 14.1529 5.98573 13.7608 5.85734 13.4378C5.79327 13.277 5.74054 13.0967 5.68083 12.8993C5.62798 12.7246 5.58184 12.5139 5.46503 12.3996C5.31777 12.2558 5.07626 12.2035 5.01375 11.9844C4.89975 11.9419 4.79516 11.8706 4.6932 11.803C4.08499 11.3986 3.47747 11.002 2.85541 10.6092C2.75374 10.5451 2.62228 10.4763 2.55459 10.4016C2.45502 10.2917 2.39963 10.1079 2.31908 9.96696C2.28202 9.9019 2.23685 9.83935 2.19489 9.77872C2.15644 9.72326 2.11993 9.64042 2.04441 9.62948C2.00036 9.68051 2.02022 9.77015 2.01798 9.84378C2.0156 9.91996 2.00721 10.0064 2.01141 10.0967C2.01533 10.1807 2.05294 10.2422 2.05057 10.3109C2.04805 10.3823 2.00987 10.4545 1.93295 10.4536C1.83128 10.4523 1.82107 10.3177 1.79548 10.2197C1.76625 10.1078 1.72793 10.0046 1.7366 9.90831C1.74345 9.83464 1.78429 9.73863 1.80205 9.62296C1.83645 9.40114 1.81967 9.19598 2.00498 9.14926C2.10958 9.12302 2.24888 9.20292 2.3581 9.24025C2.46844 9.27797 2.58144 9.2996 2.68521 9.33761C2.80465 9.38145 2.9238 9.45898 3.0382 9.52556C3.39146 9.73144 3.68517 9.95726 4.02584 10.1678C4.48357 10.451 4.94115 10.7164 5.32744 11.0371C6.36709 10.7349 7.66604 10.5425 8.9444 10.4404C9.52842 10.3937 10.1088 10.4163 10.658 10.4923C11.4445 10.6015 12.0667 10.2731 12.5941 10.0512C12.8787 9.93133 13.1644 9.82186 13.4574 9.69425C12.99 9.61226 12.5567 9.54054 12.1037 9.46093ZM14.831 10.0836C14.574 10.0298 14.3091 9.98141 14.0659 9.93452C14.0576 9.93285 14.0482 9.9252 14.0396 9.92814C13.8798 9.98251 13.7209 10.0132 13.5688 10.0709C13.2844 10.1781 13.0072 10.3171 12.7643 10.4924C12.6441 10.579 12.5101 10.6761 12.4436 10.7778C12.2186 11.123 12.275 11.7785 12.3783 12.1856C12.4161 12.3341 12.4358 12.4339 12.5026 12.5554C12.9253 12.7339 13.4648 12.53 13.7452 12.3218C13.9587 12.1634 14.1195 11.9403 14.249 11.7184C14.5299 11.2368 14.7099 10.6686 14.831 10.0836ZM10.7628 10.9659C9.90674 10.6972 8.68388 10.8518 7.79343 11.0306C7.16733 11.1565 6.46849 11.297 6.2629 11.8287C6.15088 12.118 6.1218 12.5358 6.16487 12.9249C6.20457 13.2855 6.31535 13.6035 6.44611 13.8396C6.85769 14.2139 7.84992 14.0589 8.42137 13.8917C8.77422 13.7883 8.99643 13.699 9.23878 13.5869C9.51472 13.4591 9.88716 13.3179 9.97793 13.0159C10.0029 12.9331 9.99401 12.8434 10.0042 12.7629C10.073 12.2207 10.2758 11.7299 10.606 11.4265C10.6727 11.3654 10.7663 11.3323 10.7958 11.2515C10.8316 11.1516 10.798 11.0519 10.7628 10.9659Z" fill="#FBF8E6"/>
</g>
</svg>
