<svg width="176" height="175" viewBox="0 0 176 175" fill="none" xmlns="http://www.w3.org/2000/svg">
<path d="M119.184 87.5C119.184 111.552 115.526 133.272 109.653 148.933C106.715 156.768 103.246 163.022 99.4584 167.295C95.669 171.569 91.6662 173.75 87.6216 173.75C83.577 173.75 79.5742 171.569 75.7848 167.295C71.9967 163.022 68.5282 156.768 65.5901 148.933C59.7171 133.272 56.0591 111.552 56.0591 87.5C56.0591 63.4478 59.7171 41.7282 65.5901 26.0671C68.5282 18.2319 71.9967 11.978 75.7848 7.70544C79.5742 3.4314 83.577 1.25 87.6216 1.25C91.6662 1.25 95.669 3.4314 99.4584 7.70544C103.246 11.978 106.715 18.2319 109.653 26.0671C115.526 41.7282 119.184 63.4478 119.184 87.5Z" stroke="url(#paint0_linear_14901_21457)" stroke-width="2.5"/>
<path d="M87.6213 55.9377C111.674 55.9377 133.393 59.5958 149.054 65.4687C156.889 68.4069 163.143 71.8754 167.416 75.6635C171.69 79.4528 173.871 83.4556 173.871 87.5002C173.871 91.5449 171.69 95.5477 167.416 99.337C163.143 103.125 156.889 106.594 149.054 109.532C133.393 115.405 111.674 119.063 87.6213 119.063C63.5691 119.063 41.8495 115.405 26.1884 109.532C18.3532 106.594 12.0994 103.125 7.82678 99.337C3.55274 95.5477 1.37134 91.5449 1.37134 87.5002C1.37134 83.4556 3.55274 79.4528 7.82678 75.6635C12.0994 71.8754 18.3532 68.4069 26.1884 65.4687C41.8495 59.5958 63.5691 55.9377 87.6213 55.9377Z" stroke="url(#paint1_linear_14901_21457)" stroke-width="2.5"/>
<path d="M109.941 65.1843C126.948 82.1918 139.72 100.136 146.641 115.363C150.104 122.981 152.073 129.856 152.416 135.556C152.759 141.257 151.471 145.63 148.611 148.49C145.751 151.35 141.378 152.638 135.676 152.295C129.976 151.953 123.102 149.983 115.484 146.521C100.257 139.599 82.3122 126.828 65.3046 109.82C48.2971 92.8129 35.5257 74.8682 28.6044 59.6413C25.1417 52.0234 23.1722 45.1487 22.8296 39.4489C22.4868 33.7472 23.7748 29.3744 26.6347 26.5144C29.4947 23.6544 33.8676 22.3665 39.5693 22.7092C45.269 23.0518 52.1438 25.0214 59.7617 28.484C74.9886 35.4054 92.9333 48.1768 109.941 65.1843Z" stroke="url(#paint2_linear_14901_21457)" stroke-width="2.5"/>
<path d="M26.6347 148.49C23.7748 145.63 22.4868 141.257 22.8296 135.556C23.1722 129.856 25.1417 122.981 28.6044 115.363C35.5257 100.136 48.2971 82.1918 65.3046 65.1843C82.3122 48.1768 100.257 35.4054 115.484 28.484C123.102 25.0214 129.976 23.0518 135.676 22.7092C141.378 22.3665 145.751 23.6544 148.611 26.5144C151.471 29.3744 152.759 33.7472 152.416 39.4489C152.073 45.1487 150.104 52.0234 146.641 59.6413C139.72 74.8682 126.948 92.8129 109.941 109.82C92.9332 126.828 74.9886 139.599 59.7617 146.521C52.1438 149.983 45.269 151.953 39.5693 152.295C33.8676 152.638 29.4947 151.35 26.6347 148.49Z" stroke="url(#paint3_linear_14901_21457)" stroke-width="2.5"/>
<defs>
<linearGradient id="paint0_linear_14901_21457" x1="87.6216" y1="0" x2="87.6216" y2="175" gradientUnits="userSpaceOnUse">
<stop stop-color="#202426"/>
<stop offset="1" stop-color="#202426"/>
</linearGradient>
<linearGradient id="paint1_linear_14901_21457" x1="0.121338" y1="87.5002" x2="175.121" y2="87.5002" gradientUnits="userSpaceOnUse">
<stop stop-color="#202426"/>
<stop offset="1" stop-color="#202426"/>
</linearGradient>
<linearGradient id="paint2_linear_14901_21457" x1="25.7508" y1="25.6305" x2="149.495" y2="149.374" gradientUnits="userSpaceOnUse">
<stop stop-color="#202426"/>
<stop offset="1" stop-color="#202426"/>
</linearGradient>
<linearGradient id="paint3_linear_14901_21457" x1="149.495" y1="25.6305" x2="25.751" y2="149.374" gradientUnits="userSpaceOnUse">
<stop stop-color="#202426"/>
<stop offset="1" stop-color="#202426"/>
</linearGradient>
</defs>
</svg>
