<svg width="85" height="24" viewBox="0 0 85 24" fill="none" xmlns="http://www.w3.org/2000/svg">
<path d="M30.3494 7.54545H31.4943V13.8054C31.4943 14.4517 31.342 15.0288 31.0373 15.5366C30.7357 16.0413 30.3094 16.4399 29.7585 16.7322C29.2076 17.0215 28.5613 17.1662 27.8196 17.1662C27.0779 17.1662 26.4316 17.0215 25.8807 16.7322C25.3298 16.4399 24.902 16.0413 24.5973 15.5366C24.2957 15.0288 24.1449 14.4517 24.1449 13.8054V7.54545H25.2898V13.7131C25.2898 14.1747 25.3913 14.5856 25.5945 14.9457C25.7976 15.3027 26.0869 15.5843 26.4624 15.7905C26.8409 15.9936 27.2933 16.0952 27.8196 16.0952C28.3459 16.0952 28.7983 15.9936 29.1768 15.7905C29.5554 15.5843 29.8447 15.3027 30.0447 14.9457C30.2479 14.5856 30.3494 14.1747 30.3494 13.7131V7.54545ZM34.4346 7.54545L36.8721 11.4787H36.946L39.3835 7.54545H40.7315L37.7585 12.2727L40.7315 17H39.3835L36.946 13.1406H36.8721L34.4346 17H33.0866L36.1335 12.2727L33.0866 7.54545H34.4346ZM53.6857 10.5H52.5408C52.4731 10.1707 52.3546 9.88139 52.1853 9.6321C52.0191 9.38281 51.816 9.17353 51.5759 9.00426C51.3389 8.83191 51.0758 8.70265 50.7865 8.61648C50.4972 8.5303 50.1956 8.48722 49.8817 8.48722C49.3092 8.48722 48.7906 8.63187 48.3259 8.92116C47.8643 9.21046 47.4965 9.63672 47.2226 10.1999C46.9518 10.7631 46.8163 11.4541 46.8163 12.2727C46.8163 13.0914 46.9518 13.7823 47.2226 14.3455C47.4965 14.9087 47.8643 15.335 48.3259 15.6243C48.7906 15.9136 49.3092 16.0582 49.8817 16.0582C50.1956 16.0582 50.4972 16.0152 50.7865 15.929C51.0758 15.8428 51.3389 15.7151 51.5759 15.5458C51.816 15.3735 52.0191 15.1626 52.1853 14.9134C52.3546 14.661 52.4731 14.3717 52.5408 14.0455H53.6857C53.5995 14.5286 53.4425 14.9611 53.2148 15.3427C52.987 15.7243 52.7039 16.049 52.3653 16.3168C52.0268 16.5814 51.6467 16.783 51.2251 16.9215C50.8065 17.06 50.3587 17.1293 49.8817 17.1293C49.0753 17.1293 48.3582 16.9323 47.7304 16.5384C47.1026 16.1444 46.6086 15.5843 46.2485 14.858C45.8884 14.1316 45.7084 13.2699 45.7084 12.2727C45.7084 11.2756 45.8884 10.4138 46.2485 9.6875C46.6086 8.96117 47.1026 8.40104 47.7304 8.0071C48.3582 7.61316 49.0753 7.41619 49.8817 7.41619C50.3587 7.41619 50.8065 7.48544 51.2251 7.62393C51.6467 7.76243 52.0268 7.96555 52.3653 8.23331C52.7039 8.49799 52.987 8.82114 53.2148 9.20277C53.4425 9.58132 53.5995 10.0137 53.6857 10.5ZM56.5775 12.7344V17H55.488V7.54545H56.5775V11.017H56.6698C56.836 10.6508 57.0853 10.36 57.4177 10.1445C57.7531 9.92602 58.1994 9.81676 58.7564 9.81676C59.2396 9.81676 59.6628 9.91371 60.026 10.1076C60.3891 10.2984 60.6707 10.5923 60.8708 10.9893C61.0739 11.3833 61.1755 11.8849 61.1755 12.4943V17H60.086V12.5682C60.086 12.005 59.9398 11.5695 59.6474 11.2617C59.3581 10.9509 58.9565 10.7955 58.4425 10.7955C58.0855 10.7955 57.7654 10.8709 57.4823 11.0217C57.2022 11.1725 56.9806 11.3925 56.8175 11.6818C56.6575 11.9711 56.5775 12.322 56.5775 12.7344ZM66.2417 17.1477C65.5584 17.1477 64.969 16.9969 64.4735 16.6953C63.9811 16.3906 63.601 15.9659 63.3333 15.4212C63.0686 14.8733 62.9363 14.2363 62.9363 13.5099C62.9363 12.7836 63.0686 12.1435 63.3333 11.5895C63.601 11.0324 63.9734 10.5985 64.4505 10.2876C64.9306 9.97372 65.4907 9.81676 66.1309 9.81676C66.5002 9.81676 66.8649 9.87831 67.225 10.0014C67.585 10.1245 67.9128 10.3246 68.2083 10.6016C68.5037 10.8755 68.7392 11.2386 68.9146 11.6911C69.09 12.1435 69.1777 12.7005 69.1777 13.3622V13.8239H63.7118V12.8821H68.0698C68.0698 12.482 67.9898 12.125 67.8297 11.8111C67.6728 11.4972 67.4481 11.2494 67.1557 11.0678C66.8664 10.8862 66.5248 10.7955 66.1309 10.7955C65.6969 10.7955 65.3214 10.9032 65.0044 11.1186C64.6905 11.331 64.4489 11.608 64.2797 11.9496C64.1104 12.2912 64.0257 12.6574 64.0257 13.0483V13.6761C64.0257 14.2116 64.1181 14.6656 64.3027 15.038C64.4905 15.4073 64.7505 15.6889 65.0829 15.8828C65.4153 16.0736 65.8016 16.169 66.2417 16.169C66.5279 16.169 66.7864 16.129 67.0172 16.049C67.2511 15.9659 67.4527 15.8428 67.622 15.6797C67.7913 15.5135 67.9221 15.3073 68.0144 15.0611L69.0669 15.3565C68.9561 15.7135 68.7699 16.0275 68.5083 16.2983C68.2467 16.5661 67.9236 16.7753 67.5389 16.9261C67.1542 17.0739 66.7218 17.1477 66.2417 17.1477ZM73.8157 17.1477C73.151 17.1477 72.5785 16.9908 72.0984 16.6768C71.6183 16.3629 71.249 15.9305 70.9904 15.3796C70.7319 14.8287 70.6027 14.1993 70.6027 13.4915C70.6027 12.7713 70.735 12.1358 70.9997 11.5849C71.2674 11.0309 71.6398 10.5985 72.1169 10.2876C72.597 9.97372 73.1571 9.81676 73.7973 9.81676C74.2958 9.81676 74.7452 9.90909 75.1453 10.0938C75.5454 10.2784 75.8731 10.5369 76.1286 10.8693C76.384 11.2017 76.5425 11.5895 76.6041 12.0327H75.5146C75.4315 11.7095 75.2468 11.4233 74.9606 11.174C74.6775 10.9216 74.2958 10.7955 73.8157 10.7955C73.391 10.7955 73.0186 10.9062 72.6985 11.1278C72.3815 11.3464 72.1338 11.6557 71.9553 12.0558C71.7799 12.4528 71.6922 12.919 71.6922 13.4545C71.6922 14.0024 71.7783 14.4794 71.9507 14.8857C72.1261 15.2919 72.3723 15.6074 72.6893 15.832C73.0094 16.0567 73.3849 16.169 73.8157 16.169C74.0989 16.169 74.3559 16.1198 74.5867 16.0213C74.8175 15.9228 75.0129 15.7812 75.173 15.5966C75.333 15.4119 75.4469 15.1903 75.5146 14.9318H76.6041C76.5425 15.3504 76.3902 15.7274 76.1471 16.0629C75.907 16.3952 75.5885 16.6599 75.1914 16.8569C74.7975 17.0508 74.3389 17.1477 73.8157 17.1477ZM79.3124 14.4148L79.2939 13.0668H79.5155L82.6178 9.90909H83.9658L80.6604 13.2514H80.5681L79.3124 14.4148ZM78.2968 17V7.54545H79.3863V17H78.2968ZM82.8025 17L80.0326 13.4915L80.8081 12.7344L84.1874 17H82.8025Z" fill="#FBF8E6"/>
<path d="M8.63884 7.27633C8.63884 7.88355 8.53444 8.43859 8.32574 8.94147C8.12648 9.43481 7.83707 9.86178 7.45756 10.2223C7.07805 10.5734 6.61787 10.8486 6.07706 11.0478C5.54575 11.247 4.95273 11.3467 4.29805 11.3467C3.63392 11.3467 3.03617 11.247 2.50483 11.0478C1.9735 10.8486 1.52283 10.5734 1.15279 10.2223C0.782759 9.86178 0.498122 9.43481 0.298872 8.94147C0.0996239 8.43859 0 7.88355 0 7.27633V1H2.41944V7.07706C2.41944 7.35223 2.45266 7.61315 2.51906 7.85982C2.59498 8.10654 2.70408 8.32948 2.8464 8.52874C2.9982 8.71852 3.19272 8.87028 3.42991 8.98416C3.67661 9.09803 3.97073 9.15493 4.31229 9.15493C4.65388 9.15493 4.94324 9.09803 5.18043 8.98416C5.42715 8.87028 5.62641 8.71852 5.77822 8.52874C5.92998 8.32948 6.03914 8.10654 6.10551 7.85982C6.17193 7.61315 6.20514 7.35223 6.20514 7.07706V1H8.63884V7.27633ZM16.997 11.0763L14.7911 7.51828L12.6705 11.0763H9.76716L13.2967 5.75351L10.0518 1H12.9836L14.8622 4.13104L16.7124 1H19.5445L16.3566 5.75351L20 11.0763H16.997Z" fill="#202426"/>
<path d="M7.65788 21.4075C7.90807 21.6577 8.33332 21.6577 8.58351 21.4075L15.9386 14.0524C16.1888 13.8023 16.1888 13.377 15.9386 13.1268L15.0379 12.2262C14.7878 11.976 14.3875 11.976 14.1373 12.2262L8.1332 18.2304L5.30627 15.4284C5.05608 15.1782 4.6558 15.1782 4.40565 15.4284L3.50501 16.3291C3.25484 16.5792 3.25484 17.0045 3.50501 17.2546L7.65788 21.4075Z" fill="#202426"/>
</svg>
