<svg width="259" height="20" viewBox="0 0 259 20" fill="none" xmlns="http://www.w3.org/2000/svg">
<path d="M4.79263 8.28418L9.58526 16.568H0L4.79263 8.28418Z" fill="white"/>
<path d="M4.79263 0L9.58526 8.28377H0L4.79263 0Z" fill="white"/>
<path d="M21.7966 4.51855C22.8965 4.51855 23.8649 4.68984 24.7018 5.03241C25.5507 5.36317 26.2859 5.85341 26.9076 6.50312L25.4191 8.46996C24.9051 7.93838 24.3491 7.54265 23.7513 7.28277C23.1655 7.01107 22.496 6.87522 21.7428 6.87522C21.3004 6.87522 20.9417 6.92247 20.6668 7.01698C20.3918 7.11148 20.1945 7.24142 20.0749 7.4068C19.9554 7.57218 19.8956 7.76119 19.8956 7.97382C19.8956 8.22189 20.0092 8.43452 20.2363 8.61171C20.4755 8.77709 20.858 8.91885 21.3841 9.03698L23.3747 9.47996C24.5583 9.75166 25.4251 10.1474 25.9751 10.6672C26.5251 11.1869 26.8 11.878 26.8 12.7403C26.8 13.5672 26.5848 14.2701 26.1544 14.8489C25.724 15.4159 25.1322 15.8471 24.379 16.1424C23.6258 16.4259 22.765 16.5677 21.7966 16.5677C21.0075 16.5677 20.2543 16.485 19.5369 16.3196C18.8196 16.1424 18.174 15.8943 17.6001 15.5754C17.0262 15.2565 16.542 14.8903 16.1475 14.4768L17.636 12.4391C17.9349 12.7817 18.2995 13.0888 18.7299 13.3605C19.1723 13.6204 19.6505 13.8271 20.1646 13.9807C20.6907 14.1342 21.2227 14.211 21.7607 14.211C22.1791 14.211 22.5259 14.1697 22.8008 14.087C23.0878 14.0043 23.297 13.8803 23.4285 13.7149C23.56 13.5495 23.6258 13.3546 23.6258 13.1301C23.6258 12.8821 23.5361 12.6753 23.3568 12.51C23.1775 12.3328 22.8367 12.1851 22.3346 12.067L20.1467 11.5886C19.4772 11.435 18.8794 11.2342 18.3533 10.9861C17.8392 10.7262 17.4327 10.3836 17.1338 9.95838C16.8349 9.5213 16.6855 8.97791 16.6855 8.3282C16.6855 7.59581 16.8887 6.9461 17.2952 6.37908C17.7017 5.80025 18.2876 5.34546 19.0527 5.0147C19.8179 4.68393 20.7325 4.51855 21.7966 4.51855ZM39.0658 4.69575L34.8873 12.1201V16.3905H31.8027V12.1201L27.6242 4.69575H30.8163L32.4842 7.90294L33.3629 9.85206L34.2596 7.90294L35.9274 4.69575H39.0658ZM51.4473 4.69575V16.3905H48.022L44.3456 10.0647L43.449 8.3282H43.431L43.5028 10.49V16.3905H40.7769V4.69575H44.2022L47.8786 11.0215L48.7752 12.758H48.7932L48.7214 10.5963V4.69575H51.4473ZM64.3813 4.69575V7.05241H60.5255V16.3905H57.441V7.05241H53.5673V4.69575H64.3813ZM77.1919 4.69575V16.3905H74.1073V4.69575H77.1919ZM69.5877 4.69575V16.3905H66.5032V4.69575H69.5877ZM75.7572 9.32049V11.6772H68.0096V9.32049H75.7572ZM80.1718 16.3905V4.69575H89.3897V7.05241H83.2564V9.4268H88.1343V11.6417H83.2564V14.0338H89.6228V16.3905H80.1718ZM96.4712 4.51855C97.5711 4.51855 98.5396 4.68984 99.3764 5.03241C100.225 5.36317 100.961 5.85341 101.582 6.50312L100.094 8.46996C99.5797 7.93838 99.0238 7.54265 98.426 7.28277C97.8401 7.01107 97.1706 6.87522 96.4174 6.87522C95.975 6.87522 95.6164 6.92247 95.3414 7.01698C95.0664 7.11148 94.8691 7.24142 94.7496 7.4068C94.63 7.57218 94.5703 7.76119 94.5703 7.97382C94.5703 8.22189 94.6838 8.43452 94.911 8.61171C95.1501 8.77709 95.5327 8.91885 96.0587 9.03698L98.0494 9.47996C99.233 9.75166 100.1 10.1474 100.65 10.6672C101.2 11.1869 101.475 11.878 101.475 12.7403C101.475 13.5672 101.259 14.2701 100.829 14.8489C100.399 15.4159 99.8069 15.8471 99.0536 16.1424C98.3004 16.4259 97.4396 16.5677 96.4712 16.5677C95.6821 16.5677 94.9289 16.485 94.2116 16.3196C93.4942 16.1424 92.8486 15.8943 92.2747 15.5754C91.7009 15.2565 91.2167 14.8903 90.8221 14.4768L92.3106 12.4391C92.6095 12.7817 92.9742 13.0888 93.4046 13.3605C93.8469 13.6204 94.3252 13.8271 94.8393 13.9807C95.3653 14.1342 95.8973 14.211 96.4353 14.211C96.8538 14.211 97.2005 14.1697 97.4755 14.087C97.7624 14.0043 97.9716 13.8803 98.1032 13.7149C98.2347 13.5495 98.3004 13.3546 98.3004 13.1301C98.3004 12.8821 98.2108 12.6753 98.0314 12.51C97.8521 12.3328 97.5114 12.1851 97.0092 12.067L94.8213 11.5886C94.1518 11.435 93.554 11.2342 93.028 10.9861C92.5139 10.7262 92.1074 10.3836 91.8085 9.95838C91.5096 9.5213 91.3601 8.97791 91.3601 8.3282C91.3601 7.59581 91.5634 6.9461 91.9699 6.37908C92.3764 5.80025 92.9622 5.34546 93.7274 5.0147C94.4925 4.68393 95.4072 4.51855 96.4712 4.51855ZM106.846 4.69575V16.3905H103.761V4.69575H106.846ZM114.456 4.51855C115.556 4.51855 116.525 4.68984 117.362 5.03241C118.21 5.36317 118.946 5.85341 119.567 6.50312L118.079 8.46996C117.565 7.93838 117.009 7.54265 116.411 7.28277C115.825 7.01107 115.156 6.87522 114.403 6.87522C113.96 6.87522 113.602 6.92247 113.327 7.01698C113.052 7.11148 112.854 7.24142 112.735 7.4068C112.615 7.57218 112.555 7.76119 112.555 7.97382C112.555 8.22189 112.669 8.43452 112.896 8.61171C113.135 8.77709 113.518 8.91885 114.044 9.03698L116.034 9.47996C117.218 9.75166 118.085 10.1474 118.635 10.6672C119.185 11.1869 119.46 11.878 119.46 12.7403C119.46 13.5672 119.245 14.2701 118.814 14.8489C118.384 15.4159 117.792 15.8471 117.039 16.1424C116.286 16.4259 115.425 16.5677 114.456 16.5677C113.667 16.5677 112.914 16.485 112.197 16.3196C111.479 16.1424 110.834 15.8943 110.26 15.5754C109.686 15.2565 109.202 14.8903 108.807 14.4768L110.296 12.4391C110.595 12.7817 110.959 13.0888 111.39 13.3605C111.832 13.6204 112.31 13.8271 112.824 13.9807C113.35 14.1342 113.882 14.211 114.42 14.211C114.839 14.211 115.186 14.1697 115.461 14.087C115.748 14.0043 115.957 13.8803 116.088 13.7149C116.22 13.5495 116.286 13.3546 116.286 13.1301C116.286 12.8821 116.196 12.6753 116.017 12.51C115.837 12.3328 115.496 12.1851 114.994 12.067L112.806 11.5886C112.137 11.435 111.539 11.2342 111.013 10.9861C110.499 10.7262 110.093 10.3836 109.794 9.95838C109.495 9.5213 109.345 8.97791 109.345 8.3282C109.345 7.59581 109.549 6.9461 109.955 6.37908C110.362 5.80025 110.947 5.34546 111.713 5.0147C112.478 4.68393 113.392 4.51855 114.456 4.51855Z" fill="white"/>
<path d="M144.574 12.311C148.039 12.311 150.847 9.55507 150.847 6.15549C150.847 2.7559 148.039 0 144.574 0C141.109 0 138.301 2.7559 138.301 6.15549C138.301 9.55507 141.109 12.311 144.574 12.311Z" fill="#13AD00"/>
<path d="M144.59 18.1917C148.055 18.1917 150.864 17.4264 150.864 16.4823C150.864 15.5383 148.055 14.7729 144.59 14.7729C141.126 14.7729 138.317 15.5383 138.317 16.4823C138.317 17.4264 141.126 18.1917 144.59 18.1917Z" fill="#06082B"/>
<path d="M256.301 15.2057C256.301 15.5731 256.538 15.7473 256.952 15.7087L258.828 15.4958C259.025 15.4761 259.045 15.3413 258.927 15.167C258.73 14.8769 258.492 14.2579 258.492 13.2905V3.27156C258.492 2.90414 258.256 2.72989 257.841 2.76852L255.966 2.98141C255.769 3.00112 255.749 3.13595 255.868 3.31019C256.065 3.60035 256.302 4.21929 256.302 5.18672V7.43067H256.203C255.65 6.71475 254.723 6.28977 253.696 6.28977C251.13 6.28977 249.255 8.37919 249.255 11.2224C249.255 14.0655 251.091 15.961 253.281 15.961C254.525 15.961 255.532 15.4193 256.203 14.3746H256.302V15.2064L256.301 15.2057ZM253.972 14.3738C252.511 14.3738 251.524 13.0973 251.524 11.086C251.524 9.07461 252.531 7.66248 254.071 7.66248C255.452 7.66248 256.301 8.80338 256.301 10.5254V11.7822C256.301 13.2913 255.275 14.3738 253.972 14.3738ZM242.917 15.7079H245.602C245.799 15.7079 245.819 15.5534 245.701 15.3791C245.543 15.1473 245.365 14.5859 245.365 13.5026V11.8389C245.365 9.40182 246.707 8.43517 248.01 8.43517C248.247 8.43517 248.425 8.43517 248.622 8.4738C248.799 8.51244 248.898 8.45409 248.898 8.28063V6.59806C248.898 6.42381 248.819 6.32762 248.661 6.30791C248.523 6.2882 248.365 6.2882 248.187 6.2882C246.806 6.2882 245.917 7.19729 245.443 8.87986H245.364V7.02304C245.364 6.65562 245.128 6.48137 244.713 6.52L242.818 6.73289C242.621 6.7526 242.601 6.88743 242.72 7.06167C242.917 7.35183 243.153 7.97077 243.153 8.9382V13.5034C243.153 14.5867 242.975 15.1473 242.818 15.3799C242.699 15.5541 242.719 15.7087 242.916 15.7087L242.917 15.7079ZM235.871 15.9594C237.075 15.9594 238.122 15.3791 238.733 14.373H238.831V15.2049C238.831 15.5723 239.068 15.7465 239.482 15.7079L241.377 15.495C241.574 15.4753 241.595 15.3405 241.476 15.1662C241.279 14.8761 241.042 14.2571 241.042 13.2897V6.5405H239.541L239.107 7.60413H239.008C238.416 6.79202 237.41 6.28899 236.244 6.28899C233.777 6.28899 231.862 8.3784 231.862 11.2216C231.862 14.0648 233.817 15.9602 235.869 15.9602L235.871 15.9594ZM236.561 14.373C235.101 14.373 234.153 13.039 234.153 11.0268C234.153 9.01468 235.16 7.66169 236.64 7.66169C237.923 7.66169 238.831 8.72532 238.831 10.5246V11.7625C238.831 13.3102 237.785 14.3738 236.561 14.3738V14.373ZM226 14.4889C224.48 14.4889 223.553 13.1935 223.553 11.1041C223.553 9.01468 224.5 7.75788 226 7.75788C227.501 7.75788 228.468 8.99576 228.468 11.1041C228.468 13.2124 227.501 14.4889 226 14.4889ZM226 15.9594C228.764 15.9594 230.817 13.9481 230.817 11.1041C230.817 8.26013 228.764 6.28741 226 6.28741C223.237 6.28741 221.184 8.27984 221.184 11.1041C221.184 13.9284 223.236 15.9594 226 15.9594ZM215.854 15.9594C218.322 15.9594 220.276 13.9481 220.276 11.0079C220.276 8.06775 218.44 6.2882 216.21 6.2882C214.986 6.2882 213.98 6.8685 213.328 7.87457H213.229V3.27156C213.229 2.90414 212.992 2.72989 212.578 2.76852L210.702 2.98141C210.505 3.00112 210.485 3.13595 210.603 3.31019C210.8 3.60035 211.038 4.21929 211.038 5.18672V15.7095H212.538L212.933 14.6261H213.032C213.644 15.458 214.691 15.9602 215.855 15.9602L215.854 15.9594ZM215.479 14.5859C214.078 14.5859 213.229 13.4639 213.229 11.6655V10.4859C213.229 8.99655 214.215 7.87457 215.558 7.87457C217.038 7.87457 218.006 9.17001 218.006 11.1624C218.006 13.1549 217.039 14.5859 215.479 14.5859ZM204.702 11.3942C203.656 11.3942 202.965 10.6783 202.965 9.47909C202.965 8.27984 203.655 7.50636 204.702 7.50636C205.749 7.50636 206.439 8.26092 206.439 9.47909C206.439 10.6973 205.749 11.3942 204.702 11.3942ZM190.39 15.7071H193.055C193.252 15.7071 193.272 15.5526 193.154 15.3783C192.996 15.1465 192.819 14.5851 192.819 13.5018V10.3874C192.819 8.74345 193.885 7.89192 195.049 7.89192C196.095 7.89192 196.708 8.56842 196.708 9.90328V13.501C196.708 14.5843 196.53 15.1449 196.372 15.3775C196.254 15.5518 196.273 15.7063 196.471 15.7063H199.155C199.352 15.7063 199.373 15.5518 199.254 15.3775C199.097 15.1457 198.919 14.5843 198.919 13.501V9.84572C198.919 7.50558 197.616 6.28662 195.78 6.28662C194.477 6.28662 193.549 6.84721 192.918 7.873H192.819V7.02225C192.819 6.65483 192.582 6.48058 192.168 6.51922L190.292 6.7321C190.095 6.75181 190.075 6.88664 190.193 7.06089C190.39 7.35104 190.628 7.96998 190.628 8.93742V13.5026C190.628 14.5859 190.45 15.1465 190.292 15.3791C190.174 15.5534 190.193 15.7079 190.391 15.7079L190.39 15.7071ZM187.212 5.41616C188.001 5.41616 188.613 4.81694 188.613 4.06238C188.613 3.30783 188.002 2.76695 187.212 2.76695C186.422 2.76695 185.771 3.32754 185.771 4.06238C185.771 4.79722 186.403 5.41616 187.212 5.41616ZM185.85 15.7063H188.515C188.712 15.7063 188.733 15.5518 188.614 15.3775C188.457 15.1457 188.279 14.5843 188.279 13.501V7.02462C188.279 6.6572 188.042 6.48295 187.628 6.52158L185.752 6.73446C185.555 6.75418 185.535 6.889 185.653 7.06325C185.85 7.3534 186.088 7.97234 186.088 8.93978V13.5049C186.088 14.5883 185.91 15.1489 185.752 15.3815C185.634 15.5557 185.653 15.7103 185.851 15.7103L185.85 15.7063ZM178.724 15.7055H181.409C181.606 15.7055 181.626 15.551 181.508 15.3767C181.35 15.1449 181.172 14.5836 181.172 13.5002V11.8366C181.172 9.39945 182.514 8.4328 183.817 8.4328C184.053 8.4328 184.231 8.4328 184.428 8.47144C184.606 8.51007 184.704 8.45173 184.704 8.27826V6.5957C184.704 6.42145 184.626 6.32526 184.468 6.30554C184.329 6.28583 184.172 6.28583 183.994 6.28583C182.612 6.28583 181.724 7.19492 181.25 8.87749H181.171V7.02068C181.171 6.65325 180.935 6.479 180.52 6.51764L178.625 6.73052C178.428 6.75023 178.408 6.88506 178.526 7.05931C178.723 7.34946 178.961 7.9684 178.961 8.93584V13.501C178.961 14.5843 178.783 15.1449 178.625 15.3775C178.507 15.5518 178.526 15.7063 178.723 15.7063L178.724 15.7055ZM172.408 14.5836C171.046 14.5836 170.157 13.5199 170.157 11.6434V10.4828C170.157 8.93505 171.203 7.87142 172.487 7.87142C173.987 7.87142 174.934 9.16686 174.934 11.1593C174.934 13.1517 173.948 14.5828 172.408 14.5828V14.5836ZM167.729 19.5737H170.394C170.592 19.5737 170.612 19.4192 170.493 19.2449C170.336 19.0131 170.158 18.4517 170.158 17.3684V14.8154H170.257C170.849 15.5699 171.777 15.9563 172.764 15.9563C175.152 15.9563 177.205 14.0608 177.205 10.985C177.205 8.10323 175.349 6.28504 173.179 6.28504C171.876 6.28504 170.909 6.86535 170.257 7.87142H170.158V7.02068C170.158 6.65325 169.921 6.479 169.507 6.51764L167.631 6.73052C167.434 6.75023 167.414 6.88506 167.532 7.05931C167.729 7.34946 167.967 7.9684 167.967 8.93584V17.3692C167.967 18.4525 167.789 19.0131 167.631 19.2457C167.513 19.42 167.532 19.5745 167.73 19.5745L167.729 19.5737ZM161.373 15.9571C164.472 15.9571 166.407 14.5646 166.407 12.2048C166.407 10.4828 165.105 8.99418 163.111 8.27826L161.235 7.60177C160.011 7.15708 159.577 6.59649 159.577 5.74495C159.577 4.70025 160.603 3.9654 162.024 3.9654C163.584 3.9654 164.828 4.6419 165.261 5.70632C165.321 5.84193 165.537 5.8033 165.537 5.64797V3.30704C164.748 2.78508 163.623 2.39795 162.064 2.39795C159.103 2.39795 157.247 3.86842 157.247 6.05324C157.247 7.75552 158.214 8.9934 159.952 9.66989L161.728 10.3661C163.486 11.0623 164.058 11.6229 164.058 12.6676C164.058 13.7123 163.012 14.3699 161.492 14.3699C159.557 14.3699 157.998 13.4805 157.426 12.0873C157.366 11.9517 157.15 11.9903 157.15 12.1456V14.6411C157.939 15.357 159.618 15.9563 161.374 15.9563L161.373 15.9571ZM204.406 19.8449C207.583 19.8449 209.775 18.4336 209.775 16.4601C209.775 14.9321 208.493 14.1002 206.262 14.1002H203.419C202.689 14.1002 202.294 13.8101 202.294 13.3654C202.294 12.9593 202.61 12.6108 203.123 12.379C203.597 12.5533 204.13 12.6305 204.722 12.6305C206.992 12.6305 208.492 11.2768 208.492 9.47751C208.492 8.80101 208.176 8.23963 207.801 7.92977V7.83279L209.578 7.8525C209.756 7.8525 209.894 7.71688 209.894 7.504V6.42066C209.894 6.22749 209.776 6.15022 209.578 6.16914L206.242 6.51685C205.729 6.36231 205.216 6.28504 204.702 6.28504C202.432 6.28504 200.853 7.54185 200.853 9.47672C200.853 10.4631 201.307 11.2949 202.077 11.8555V11.8941C200.992 12.4547 200.537 13.2479 200.537 13.9835C200.537 15.5116 202.077 15.8987 202.827 15.8987H206.084C207.13 15.8987 207.644 16.2078 207.644 16.9237C207.644 17.9873 206.143 18.5676 204.485 18.5676C202.828 18.5676 202.274 17.9684 201.939 17.0585C201.781 16.6138 201.445 16.382 201.031 16.382C200.518 16.382 200.064 16.7305 200.064 17.4267C200.064 18.7805 201.643 19.8449 204.407 19.8449H204.406Z" fill="white"/>
</svg>
